ISO-10303-21;
HEADER;
/* Generated by software containing ST-Developer
 * from STEP Tools, Inc. (www.steptools.com) 
 */

FILE_DESCRIPTION(
/* description */ (''),
/* implementation_level */ '2;1');

FILE_NAME(
/* name */ 'barras 40mm.step',
/* time_stamp */ '2026-07-13T16:57:32-04:00',
/* author */ (''),
/* organization */ (''),
/* preprocessor_version */ 'ST-DEVELOPER v20.1',
/* originating_system */ 'Autodesk Translation Framework v15.8.0.0',
/* authorisation */ '');

FILE_SCHEMA (('AUTOMOTIVE_DESIGN { 1 0 10303 214 3 1 1 }'));
ENDSEC;

DATA;
#10=MECHANICAL_DESIGN_GEOMETRIC_PRESENTATION_REPRESENTATION('',(#13),#194);
#11=SHAPE_REPRESENTATION_RELATIONSHIP('SRR','None',#201,#12);
#12=ADVANCED_BREP_SHAPE_REPRESENTATION('',(#14),#193);
#13=STYLED_ITEM('',(#210),#14);
#14=MANIFOLD_SOLID_BREP('Cuerpo1',#104);
#15=FACE_BOUND('',#35,.T.);
#16=FACE_BOUND('',#37,.T.);
#17=PLANE('',#129);
#18=PLANE('',#130);
#19=CYLINDRICAL_SURFACE('',#120,1.5);
#20=CYLINDRICAL_SURFACE('',#124,1.5);
#21=CYLINDRICAL_SURFACE('',#126,3.);
#22=FACE_OUTER_BOUND('',#29,.T.);
#23=FACE_OUTER_BOUND('',#30,.T.);
#24=FACE_OUTER_BOUND('',#31,.T.);
#25=FACE_OUTER_BOUND('',#32,.T.);
#26=FACE_OUTER_BOUND('',#33,.T.);
#27=FACE_OUTER_BOUND('',#34,.T.);
#28=FACE_OUTER_BOUND('',#36,.T.);
#29=EDGE_LOOP('',(#73,#74,#75));
#30=EDGE_LOOP('',(#76,#77,#78,#79));
#31=EDGE_LOOP('',(#80,#81,#82));
#32=EDGE_LOOP('',(#83,#84,#85,#86));
#33=EDGE_LOOP('',(#87,#88,#89,#90));
#34=EDGE_LOOP('',(#91));
#35=EDGE_LOOP('',(#92));
#36=EDGE_LOOP('',(#93));
#37=EDGE_LOOP('',(#94));
#38=LINE('',#169,#43);
#39=LINE('',#173,#44);
#40=LINE('',#178,#45);
#41=LINE('',#182,#46);
#42=LINE('',#187,#47);
#43=VECTOR('',#137,0.75);
#44=VECTOR('',#142,1.5);
#45=VECTOR('',#147,0.75);
#46=VECTOR('',#152,1.5);
#47=VECTOR('',#157,3.);
#48=CIRCLE('',#119,1.5);
#49=CIRCLE('',#121,1.5);
#50=CIRCLE('',#123,1.5);
#51=CIRCLE('',#125,1.5);
#52=CIRCLE('',#127,3.);
#53=CIRCLE('',#128,3.);
#54=VERTEX_POINT('',#166);
#55=VERTEX_POINT('',#168);
#56=VERTEX_POINT('',#171);
#57=VERTEX_POINT('',#175);
#58=VERTEX_POINT('',#177);
#59=VERTEX_POINT('',#180);
#60=VERTEX_POINT('',#184);
#61=VERTEX_POINT('',#186);
#62=EDGE_CURVE('',#54,#54,#48,.T.);
#63=EDGE_CURVE('',#54,#55,#38,.T.);
#64=EDGE_CURVE('',#56,#56,#49,.T.);
#65=EDGE_CURVE('',#56,#54,#39,.T.);
#66=EDGE_CURVE('',#57,#57,#50,.T.);
#67=EDGE_CURVE('',#57,#58,#40,.T.);
#68=EDGE_CURVE('',#59,#59,#51,.T.);
#69=EDGE_CURVE('',#59,#57,#41,.T.);
#70=EDGE_CURVE('',#60,#60,#52,.T.);
#71=EDGE_CURVE('',#60,#61,#42,.T.);
#72=EDGE_CURVE('',#61,#61,#53,.T.);
#73=ORIENTED_EDGE('',*,*,#62,.F.);
#74=ORIENTED_EDGE('',*,*,#63,.T.);
#75=ORIENTED_EDGE('',*,*,#63,.F.);
#76=ORIENTED_EDGE('',*,*,#64,.F.);
#77=ORIENTED_EDGE('',*,*,#65,.T.);
#78=ORIENTED_EDGE('',*,*,#62,.T.);
#79=ORIENTED_EDGE('',*,*,#65,.F.);
#80=ORIENTED_EDGE('',*,*,#66,.F.);
#81=ORIENTED_EDGE('',*,*,#67,.T.);
#82=ORIENTED_EDGE('',*,*,#67,.F.);
#83=ORIENTED_EDGE('',*,*,#68,.F.);
#84=ORIENTED_EDGE('',*,*,#69,.T.);
#85=ORIENTED_EDGE('',*,*,#66,.T.);
#86=ORIENTED_EDGE('',*,*,#69,.F.);
#87=ORIENTED_EDGE('',*,*,#70,.F.);
#88=ORIENTED_EDGE('',*,*,#71,.T.);
#89=ORIENTED_EDGE('',*,*,#72,.T.);
#90=ORIENTED_EDGE('',*,*,#71,.F.);
#91=ORIENTED_EDGE('',*,*,#70,.T.);
#92=ORIENTED_EDGE('',*,*,#68,.T.);
#93=ORIENTED_EDGE('',*,*,#72,.F.);
#94=ORIENTED_EDGE('',*,*,#64,.T.);
#95=CONICAL_SURFACE('',#118,0.75,1.02974425867665);
#96=CONICAL_SURFACE('',#122,0.75,1.02974425867665);
#97=ADVANCED_FACE('',(#22),#95,.F.);
#98=ADVANCED_FACE('',(#23),#19,.F.);
#99=ADVANCED_FACE('',(#24),#96,.F.);
#100=ADVANCED_FACE('',(#25),#20,.F.);
#101=ADVANCED_FACE('',(#26),#21,.T.);
#102=ADVANCED_FACE('',(#27,#15),#17,.T.);
#103=ADVANCED_FACE('',(#28,#16),#18,.F.);
#104=CLOSED_SHELL('',(#97,#98,#99,#100,#101,#102,#103));
#105=DERIVED_UNIT_ELEMENT(#107,1.);
#106=DERIVED_UNIT_ELEMENT(#196,-3.);
#107=(
MASS_UNIT()
NAMED_UNIT(*)
SI_UNIT(.KILO.,.GRAM.)
);
#108=DERIVED_UNIT((#105,#106));
#109=MEASURE_REPRESENTATION_ITEM('density measure',
POSITIVE_RATIO_MEASURE(7850.),#108);
#110=PROPERTY_DEFINITION_REPRESENTATION(#115,#112);
#111=PROPERTY_DEFINITION_REPRESENTATION(#116,#113);
#112=REPRESENTATION('material name',(#114),#193);
#113=REPRESENTATION('density',(#109),#193);
#114=DESCRIPTIVE_REPRESENTATION_ITEM('Acero','Acero');
#115=PROPERTY_DEFINITION('material property','material name',#203);
#116=PROPERTY_DEFINITION('material property','density of part',#203);
#117=AXIS2_PLACEMENT_3D('',#164,#131,#132);
#118=AXIS2_PLACEMENT_3D('',#165,#133,#134);
#119=AXIS2_PLACEMENT_3D('',#167,#135,#136);
#120=AXIS2_PLACEMENT_3D('',#170,#138,#139);
#121=AXIS2_PLACEMENT_3D('',#172,#140,#141);
#122=AXIS2_PLACEMENT_3D('',#174,#143,#144);
#123=AXIS2_PLACEMENT_3D('',#176,#145,#146);
#124=AXIS2_PLACEMENT_3D('',#179,#148,#149);
#125=AXIS2_PLACEMENT_3D('',#181,#150,#151);
#126=AXIS2_PLACEMENT_3D('',#183,#153,#154);
#127=AXIS2_PLACEMENT_3D('',#185,#155,#156);
#128=AXIS2_PLACEMENT_3D('',#188,#158,#159);
#129=AXIS2_PLACEMENT_3D('',#189,#160,#161);
#130=AXIS2_PLACEMENT_3D('',#190,#162,#163);
#131=DIRECTION('axis',(0.,0.,1.));
#132=DIRECTION('refdir',(1.,0.,0.));
#133=DIRECTION('center_axis',(0.,-1.,0.));
#134=DIRECTION('ref_axis',(0.,0.,-1.));
#135=DIRECTION('center_axis',(0.,1.,0.));
#136=DIRECTION('ref_axis',(0.,0.,-1.));
#137=DIRECTION('',(-1.04972719113862E-16,0.515038074910054,-0.857167300702112));
#138=DIRECTION('center_axis',(0.,1.,0.));
#139=DIRECTION('ref_axis',(0.,0.,-1.));
#140=DIRECTION('center_axis',(0.,1.,0.));
#141=DIRECTION('ref_axis',(0.,0.,-1.));
#142=DIRECTION('',(0.,1.,0.));
#143=DIRECTION('center_axis',(0.,1.,0.));
#144=DIRECTION('ref_axis',(0.,0.,1.));
#145=DIRECTION('center_axis',(0.,-1.,0.));
#146=DIRECTION('ref_axis',(0.,0.,1.));
#147=DIRECTION('',(-1.04972719113862E-16,-0.515038074910054,0.857167300702112));
#148=DIRECTION('center_axis',(0.,-1.,0.));
#149=DIRECTION('ref_axis',(0.,0.,1.));
#150=DIRECTION('center_axis',(0.,-1.,0.));
#151=DIRECTION('ref_axis',(0.,0.,1.));
#152=DIRECTION('',(0.,-1.,0.));
#153=DIRECTION('center_axis',(0.,1.,0.));
#154=DIRECTION('ref_axis',(1.,0.,0.));
#155=DIRECTION('center_axis',(0.,1.,0.));
#156=DIRECTION('ref_axis',(1.,0.,0.));
#157=DIRECTION('',(0.,-1.,0.));
#158=DIRECTION('center_axis',(0.,1.,0.));
#159=DIRECTION('ref_axis',(1.,0.,0.));
#160=DIRECTION('center_axis',(0.,1.,0.));
#161=DIRECTION('ref_axis',(1.,0.,0.));
#162=DIRECTION('center_axis',(0.,1.,0.));
#163=DIRECTION('ref_axis',(1.,0.,0.));
#164=CARTESIAN_POINT('',(0.,0.,0.));
#165=CARTESIAN_POINT('Origin',(0.,10.4506454642707,0.));
#166=CARTESIAN_POINT('',(1.83697019872103E-16,10.,1.5));
#167=CARTESIAN_POINT('Origin',(0.,10.,0.));
#168=CARTESIAN_POINT('',(0.,10.9012909285413,0.));
#169=CARTESIAN_POINT('',(9.18485099360515E-17,10.4506454642707,0.75));
#170=CARTESIAN_POINT('Origin',(0.,5.,0.));
#171=CARTESIAN_POINT('',(1.83697019872103E-16,0.,1.5));
#172=CARTESIAN_POINT('Origin',(0.,0.,0.));
#173=CARTESIAN_POINT('',(1.83697019872103E-16,5.,1.5));
#174=CARTESIAN_POINT('Origin',(0.,29.5493545357293,0.));
#175=CARTESIAN_POINT('',(1.83697019872103E-16,30.,-1.5));
#176=CARTESIAN_POINT('Origin',(0.,30.,0.));
#177=CARTESIAN_POINT('',(0.,29.0987090714587,0.));
#178=CARTESIAN_POINT('',(9.18485099360515E-17,29.5493545357293,-0.75));
#179=CARTESIAN_POINT('Origin',(0.,35.,0.));
#180=CARTESIAN_POINT('',(1.83697019872103E-16,40.,-1.5));
#181=CARTESIAN_POINT('Origin',(0.,40.,0.));
#182=CARTESIAN_POINT('',(1.83697019872103E-16,35.,-1.5));
#183=CARTESIAN_POINT('Origin',(0.,0.,0.));
#184=CARTESIAN_POINT('',(-3.,40.,3.67394039744206E-16));
#185=CARTESIAN_POINT('Origin',(0.,40.,0.));
#186=CARTESIAN_POINT('',(-3.,0.,3.67394039744206E-16));
#187=CARTESIAN_POINT('',(-3.,0.,3.67394039744206E-16));
#188=CARTESIAN_POINT('Origin',(0.,0.,0.));
#189=CARTESIAN_POINT('Origin',(0.,40.,0.));
#190=CARTESIAN_POINT('Origin',(0.,0.,0.));
#191=UNCERTAINTY_MEASURE_WITH_UNIT(LENGTH_MEASURE(0.01),#195,
'DISTANCE_ACCURACY_VALUE',
'Maximum model space distance between geometric entities at asserted c
onnectivities');
#192=UNCERTAINTY_MEASURE_WITH_UNIT(LENGTH_MEASURE(0.01),#195,
'DISTANCE_ACCURACY_VALUE',
'Maximum model space distance between geometric entities at asserted c
onnectivities');
#193=(
GEOMETRIC_REPRESENTATION_CONTEXT(3)
GLOBAL_UNCERTAINTY_ASSIGNED_CONTEXT((#191))
GLOBAL_UNIT_ASSIGNED_CONTEXT((#195,#197,#198))
REPRESENTATION_CONTEXT('','3D')
);
#194=(
GEOMETRIC_REPRESENTATION_CONTEXT(3)
GLOBAL_UNCERTAINTY_ASSIGNED_CONTEXT((#192))
GLOBAL_UNIT_ASSIGNED_CONTEXT((#195,#197,#198))
REPRESENTATION_CONTEXT('','3D')
);
#195=(
LENGTH_UNIT()
NAMED_UNIT(*)
SI_UNIT(.MILLI.,.METRE.)
);
#196=(
LENGTH_UNIT()
NAMED_UNIT(*)
SI_UNIT($,.METRE.)
);
#197=(
NAMED_UNIT(*)
PLANE_ANGLE_UNIT()
SI_UNIT($,.RADIAN.)
);
#198=(
NAMED_UNIT(*)
SI_UNIT($,.STERADIAN.)
SOLID_ANGLE_UNIT()
);
#199=SHAPE_DEFINITION_REPRESENTATION(#200,#201);
#200=PRODUCT_DEFINITION_SHAPE('',$,#203);
#201=SHAPE_REPRESENTATION('',(#117),#193);
#202=PRODUCT_DEFINITION_CONTEXT('part definition',#207,'design');
#203=PRODUCT_DEFINITION('2026-06-22-23-55-10-797','barras 40mm',#204,#202);
#204=PRODUCT_DEFINITION_FORMATION('',$,#209);
#205=PRODUCT_RELATED_PRODUCT_CATEGORY('barras 40mm','barras 40mm',(#209));
#206=APPLICATION_PROTOCOL_DEFINITION('international standard',
'automotive_design',2009,#207);
#207=APPLICATION_CONTEXT(
'Core Data for Automotive Mechanical Design Process');
#208=PRODUCT_CONTEXT('part definition',#207,'mechanical');
#209=PRODUCT('2026-06-22-23-55-10-797','barras 40mm',$,(#208));
#210=PRESENTATION_STYLE_ASSIGNMENT((#211));
#211=SURFACE_STYLE_USAGE(.BOTH.,#212);
#212=SURFACE_SIDE_STYLE('',(#213));
#213=SURFACE_STYLE_FILL_AREA(#214);
#214=FILL_AREA_STYLE('Acero - Satinado',(#215));
#215=FILL_AREA_STYLE_COLOUR('Acero - Satinado',#216);
#216=COLOUR_RGB('Acero - Satinado',0.627450980392157,0.627450980392157,
0.627450980392157);
ENDSEC;
END-ISO-10303-21;
