ISO-10303-21;
HEADER;
/* Generated by software containing ST-Developer
 * from STEP Tools, Inc. (www.steptools.com) 
 */

FILE_DESCRIPTION(
/* description */ (''),
/* implementation_level */ '2;1');

FILE_NAME(
/* name */ 'cabeza parte delantera.step',
/* time_stamp */ '2026-07-13T17:08:39-04:00',
/* author */ (''),
/* organization */ (''),
/* preprocessor_version */ 'ST-DEVELOPER v20.1',
/* originating_system */ 'Autodesk Translation Framework v15.8.0.0',
/* authorisation */ '');

FILE_SCHEMA (('AUTOMOTIVE_DESIGN { 1 0 10303 214 3 1 1 }'));
ENDSEC;

DATA;
#10=MECHANICAL_DESIGN_GEOMETRIC_PRESENTATION_REPRESENTATION('',(#13),#764);
#11=SHAPE_REPRESENTATION_RELATIONSHIP('SRR','None',#771,#12);
#12=ADVANCED_BREP_SHAPE_REPRESENTATION('',(#14),#763);
#13=STYLED_ITEM('',(#780),#14);
#14=MANIFOLD_SOLID_BREP('Cuerpo1',#324);
#15=SPHERICAL_SURFACE('',#369,57.5);
#16=SPHERICAL_SURFACE('',#373,56.5);
#17=B_SPLINE_CURVE_WITH_KNOTS('',3,(#542,#543,#544,#545,#546,#547,#548,
#549,#550,#551,#552,#553,#554,#555,#556,#557,#558,#559,#560,#561,#562,#563,
#564,#565,#566,#567,#568,#569,#570,#571,#572,#573,#574,#575),
 .UNSPECIFIED.,.F.,.F.,(4,2,2,2,2,2,2,2,2,2,2,2,2,2,2,2,4),(0.,0.585079697631305,
1.17015939526261,1.75523909289392,2.34031879052522,2.94332707283626,3.54633535514731,
4.14934363745835,4.75235191976939,5.35511186471316,5.95787180965693,6.56063175460071,
7.16339169954448,7.74619191883135,8.32899213811822,8.91179235740509,9.49459257669196),
 .UNSPECIFIED.);
#18=B_SPLINE_CURVE_WITH_KNOTS('',3,(#576,#577,#578,#579,#580,#581,#582,
#583,#584,#585,#586,#587,#588,#589,#590,#591,#592,#593,#594,#595,#596,#597,
#598,#599,#600,#601,#602,#603,#604,#605,#606,#607,#608,#609),
 .UNSPECIFIED.,.F.,.F.,(4,2,2,2,2,2,2,2,2,2,2,2,2,2,2,2,4),(9.49459257669196,
10.0180322922879,10.5414720078839,11.0649117234799,11.5883514390758,12.1914788130488,
12.7946061870217,13.3977335609946,14.0008609349675,14.6028378274167,15.2048147198659,
15.8067916123151,16.4087685047642,16.9355417754698,17.4623150461755,17.9890883168811,
18.5158615875867),.UNSPECIFIED.);
#19=B_SPLINE_CURVE_WITH_KNOTS('',1,(#611,#612),.UNSPECIFIED.,.F.,.F.,(2,
2),(0.886142364477277,0.947204690380035),.UNSPECIFIED.);
#20=B_SPLINE_CURVE_WITH_KNOTS('',3,(#614,#615,#616,#617,#618,#619,#620,
#621,#622,#623,#624,#625,#626,#627,#628,#629,#630,#631,#632,#633,#634,#635,
#636,#637,#638,#639,#640,#641,#642,#643,#644,#645,#646,#647),
 .UNSPECIFIED.,.F.,.F.,(4,2,2,2,2,2,2,2,2,2,2,2,2,2,2,2,4),(0.,0.489816848964772,
0.979633697929544,1.46945054689432,1.95926739585909,2.56563018823631,3.17199298061354,
3.77835577299076,4.38471856536799,4.99173340200976,5.59874823865152,6.20576307529329,
6.81277791193505,7.30079331899818,7.78880872606132,8.27682413312445,8.76483954018759),
 .UNSPECIFIED.);
#21=B_SPLINE_CURVE_WITH_KNOTS('',3,(#648,#649,#650,#651,#652,#653,#654,
#655,#656,#657,#658,#659,#660,#661,#662,#663,#664,#665,#666,#667,#668,#669,
#670,#671,#672,#673,#674,#675,#676,#677,#678,#679,#680,#681),
 .UNSPECIFIED.,.F.,.F.,(4,2,2,2,2,2,2,2,2,2,2,2,2,2,2,2,4),(8.76483954018759,
9.33172501902829,9.89861049786899,10.4654959767097,11.0323814555504,11.6368675781614,
12.2413537007725,12.8458398233835,13.4503259459945,14.0550825414558,14.659839136917,
15.2645957323782,15.8693523278394,16.4382414407222,17.007130553605,17.5760196664879,
18.1449087793707),.UNSPECIFIED.);
#22=B_SPLINE_CURVE_WITH_KNOTS('',3,(#704,#705,#706,#707,#708,#709,#710,
#711,#712,#713,#714,#715,#716,#717,#718,#719,#720,#721,#722,#723,#724,#725,
#726,#727),.UNSPECIFIED.,.F.,.F.,(4,2,2,2,2,2,2,2,2,2,2,4),(-1.42248801389271,
-1.16518002824052,-1.03652603541443,-0.907872042588331,-0.803115972658666,
-0.769148098338682,-0.735180224018698,-0.687363991817194,-0.63954775961569,
-0.543915295212682,-0.271957647606341,0.),.UNSPECIFIED.);
#23=B_SPLINE_CURVE_WITH_KNOTS('',3,(#734,#735,#736,#737,#738,#739,#740,
#741,#742,#743,#744,#745,#746,#747,#748,#749,#750,#751,#752,#753,#754,#755,
#756,#757),.UNSPECIFIED.,.F.,.F.,(4,2,2,2,2,2,2,2,2,2,2,4),(-1.42248776414945,
-1.15053011901078,-0.878572473872114,-0.782940004533514,-0.735123769864214,
-0.687307535194913,-0.653339665983247,-0.619371796771581,-0.514615776295381,
-0.385961832221536,-0.257307888147691,0.),.UNSPECIFIED.);
#24=(
BOUNDED_SURFACE()
B_SPLINE_SURFACE(1,2,((#522,#523,#524,#525,#526,#527,#528,#529,#530),(#531,
#532,#533,#534,#535,#536,#537,#538,#539)),.UNSPECIFIED.,.F.,.T.,.F.)
B_SPLINE_SURFACE_WITH_KNOTS((2,2),(3,2,2,2,3),(0.318573215189867,1.7037631794275),
(-3.14159265358979,-1.5707963267949,0.,1.5707963267949,3.14159265358979),
 .UNSPECIFIED.)
GEOMETRIC_REPRESENTATION_ITEM()
RATIONAL_B_SPLINE_SURFACE(((1.,0.707106781186548,1.,0.707106781186548,1.,
0.707106781186548,1.,0.707106781186548,1.),(1.,0.707106781186548,1.,0.707106781186548,
1.,0.707106781186548,1.,0.707106781186548,1.)))
REPRESENTATION_ITEM('')
SURFACE()
);
#25=FACE_BOUND('',#65,.T.);
#26=FACE_BOUND('',#66,.T.);
#27=FACE_BOUND('',#67,.T.);
#28=FACE_BOUND('',#77,.T.);
#29=FACE_BOUND('',#81,.T.);
#30=PLANE('',#341);
#31=PLANE('',#342);
#32=PLANE('',#344);
#33=PLANE('',#349);
#34=PLANE('',#359);
#35=PLANE('',#362);
#36=PLANE('',#363);
#37=PLANE('',#366);
#38=PLANE('',#370);
#39=PLANE('',#375);
#40=FACE_OUTER_BOUND('',#59,.T.);
#41=FACE_OUTER_BOUND('',#60,.T.);
#42=FACE_OUTER_BOUND('',#61,.T.);
#43=FACE_OUTER_BOUND('',#62,.T.);
#44=FACE_OUTER_BOUND('',#63,.T.);
#45=FACE_OUTER_BOUND('',#64,.T.);
#46=FACE_OUTER_BOUND('',#68,.T.);
#47=FACE_OUTER_BOUND('',#69,.T.);
#48=FACE_OUTER_BOUND('',#70,.T.);
#49=FACE_OUTER_BOUND('',#71,.T.);
#50=FACE_OUTER_BOUND('',#72,.T.);
#51=FACE_OUTER_BOUND('',#73,.T.);
#52=FACE_OUTER_BOUND('',#74,.T.);
#53=FACE_OUTER_BOUND('',#75,.T.);
#54=FACE_OUTER_BOUND('',#76,.T.);
#55=FACE_OUTER_BOUND('',#78,.T.);
#56=FACE_OUTER_BOUND('',#79,.T.);
#57=FACE_OUTER_BOUND('',#80,.T.);
#58=FACE_OUTER_BOUND('',#82,.T.);
#59=EDGE_LOOP('',(#211,#212,#213,#214));
#60=EDGE_LOOP('',(#215));
#61=EDGE_LOOP('',(#216,#217,#218,#219));
#62=EDGE_LOOP('',(#220,#221,#222,#223));
#63=EDGE_LOOP('',(#224,#225,#226,#227));
#64=EDGE_LOOP('',(#228,#229,#230,#231,#232,#233,#234,#235,#236,#237,#238,
#239));
#65=EDGE_LOOP('',(#240));
#66=EDGE_LOOP('',(#241));
#67=EDGE_LOOP('',(#242));
#68=EDGE_LOOP('',(#243,#244,#245,#246,#247,#248));
#69=EDGE_LOOP('',(#249,#250,#251,#252));
#70=EDGE_LOOP('',(#253));
#71=EDGE_LOOP('',(#254,#255,#256,#257));
#72=EDGE_LOOP('',(#258));
#73=EDGE_LOOP('',(#259,#260,#261,#262,#263,#264));
#74=EDGE_LOOP('',(#265,#266,#267));
#75=EDGE_LOOP('',(#268,#269,#270,#271));
#76=EDGE_LOOP('',(#272,#273));
#77=EDGE_LOOP('',(#274,#275));
#78=EDGE_LOOP('',(#276,#277,#278));
#79=EDGE_LOOP('',(#279,#280,#281,#282));
#80=EDGE_LOOP('',(#283,#284,#285,#286,#287,#288,#289,#290,#291,#292));
#81=EDGE_LOOP('',(#293,#294));
#82=EDGE_LOOP('',(#295,#296,#297,#298));
#83=LINE('',#476,#100);
#84=LINE('',#484,#101);
#85=LINE('',#486,#102);
#86=LINE('',#487,#103);
#87=LINE('',#493,#104);
#88=LINE('',#495,#105);
#89=LINE('',#496,#106);
#90=LINE('',#506,#107);
#91=LINE('',#510,#108);
#92=LINE('',#514,#109);
#93=LINE('',#517,#110);
#94=LINE('',#685,#111);
#95=LINE('',#690,#112);
#96=LINE('',#694,#113);
#97=LINE('',#697,#114);
#98=LINE('',#702,#115);
#99=LINE('',#732,#116);
#100=VECTOR('',#382,1.55);
#101=VECTOR('',#391,10.);
#102=VECTOR('',#392,10.);
#103=VECTOR('',#393,10.);
#104=VECTOR('',#398,10.);
#105=VECTOR('',#399,10.);
#106=VECTOR('',#400,10.);
#107=VECTOR('',#413,10.);
#108=VECTOR('',#416,10.);
#109=VECTOR('',#419,10.);
#110=VECTOR('',#422,10.);
#111=VECTOR('',#431,1.54999999999999);
#112=VECTOR('',#438,1.54999999999999);
#113=VECTOR('',#443,10.);
#114=VECTOR('',#446,10.);
#115=VECTOR('',#453,10.);
#116=VECTOR('',#462,10.);
#117=CIRCLE('',#339,1.55);
#118=CIRCLE('',#340,1.55);
#119=CIRCLE('',#343,56.4446631666803);
#120=CIRCLE('',#345,56.4446631666803);
#121=CIRCLE('',#347,2.5);
#122=CIRCLE('',#348,2.5);
#123=CIRCLE('',#350,56.5);
#124=CIRCLE('',#351,56.5);
#125=CIRCLE('',#352,2.50000003725297);
#126=CIRCLE('',#353,57.5);
#127=CIRCLE('',#354,2.50000000000006);
#128=CIRCLE('',#355,1.54999999999999);
#129=CIRCLE('',#356,1.54999999999999);
#130=CIRCLE('',#358,1.54999999999999);
#131=CIRCLE('',#361,1.54999999999999);
#132=CIRCLE('',#364,57.5);
#133=CIRCLE('',#365,56.5);
#134=CIRCLE('',#367,56.2783261945035);
#135=CIRCLE('',#371,56.278326201123);
#136=CIRCLE('',#374,55.608003021148);
#137=VERTEX_POINT('',#473);
#138=VERTEX_POINT('',#475);
#139=VERTEX_POINT('',#480);
#140=VERTEX_POINT('',#481);
#141=VERTEX_POINT('',#483);
#142=VERTEX_POINT('',#485);
#143=VERTEX_POINT('',#489);
#144=VERTEX_POINT('',#490);
#145=VERTEX_POINT('',#492);
#146=VERTEX_POINT('',#494);
#147=VERTEX_POINT('',#501);
#148=VERTEX_POINT('',#503);
#149=VERTEX_POINT('',#505);
#150=VERTEX_POINT('',#507);
#151=VERTEX_POINT('',#509);
#152=VERTEX_POINT('',#511);
#153=VERTEX_POINT('',#513);
#154=VERTEX_POINT('',#515);
#155=VERTEX_POINT('',#518);
#156=VERTEX_POINT('',#520);
#157=VERTEX_POINT('',#540);
#158=VERTEX_POINT('',#541);
#159=VERTEX_POINT('',#610);
#160=VERTEX_POINT('',#613);
#161=VERTEX_POINT('',#683);
#162=VERTEX_POINT('',#688);
#163=VERTEX_POINT('',#693);
#164=VERTEX_POINT('',#696);
#165=VERTEX_POINT('',#700);
#166=VERTEX_POINT('',#730);
#167=EDGE_CURVE('',#137,#137,#117,.T.);
#168=EDGE_CURVE('',#137,#138,#83,.T.);
#169=EDGE_CURVE('',#138,#138,#118,.T.);
#170=EDGE_CURVE('',#139,#140,#119,.T.);
#171=EDGE_CURVE('',#139,#141,#84,.T.);
#172=EDGE_CURVE('',#141,#142,#85,.T.);
#173=EDGE_CURVE('',#140,#142,#86,.T.);
#174=EDGE_CURVE('',#143,#144,#120,.T.);
#175=EDGE_CURVE('',#145,#143,#87,.T.);
#176=EDGE_CURVE('',#146,#145,#88,.T.);
#177=EDGE_CURVE('',#144,#146,#89,.T.);
#178=EDGE_CURVE('',#146,#141,#121,.T.);
#179=EDGE_CURVE('',#142,#145,#122,.T.);
#180=EDGE_CURVE('',#147,#144,#123,.T.);
#181=EDGE_CURVE('',#139,#148,#124,.T.);
#182=EDGE_CURVE('',#148,#149,#90,.T.);
#183=EDGE_CURVE('',#149,#150,#125,.T.);
#184=EDGE_CURVE('',#151,#150,#91,.T.);
#185=EDGE_CURVE('',#151,#152,#126,.T.);
#186=EDGE_CURVE('',#152,#153,#92,.T.);
#187=EDGE_CURVE('',#153,#154,#127,.T.);
#188=EDGE_CURVE('',#147,#154,#93,.T.);
#189=EDGE_CURVE('',#155,#155,#128,.T.);
#190=EDGE_CURVE('',#156,#156,#129,.T.);
#191=EDGE_CURVE('',#157,#158,#17,.T.);
#192=EDGE_CURVE('',#158,#157,#18,.T.);
#193=EDGE_CURVE('',#158,#159,#19,.T.);
#194=EDGE_CURVE('',#160,#159,#20,.T.);
#195=EDGE_CURVE('',#159,#160,#21,.T.);
#196=EDGE_CURVE('',#161,#161,#130,.T.);
#197=EDGE_CURVE('',#161,#156,#94,.T.);
#198=EDGE_CURVE('',#162,#162,#131,.T.);
#199=EDGE_CURVE('',#162,#155,#95,.T.);
#200=EDGE_CURVE('',#153,#163,#96,.T.);
#201=EDGE_CURVE('',#151,#152,#132,.T.);
#202=EDGE_CURVE('',#150,#164,#97,.T.);
#203=EDGE_CURVE('',#164,#163,#133,.T.);
#204=EDGE_CURVE('',#165,#148,#134,.T.);
#205=EDGE_CURVE('',#149,#165,#98,.T.);
#206=EDGE_CURVE('',#164,#165,#22,.T.);
#207=EDGE_CURVE('',#147,#166,#135,.T.);
#208=EDGE_CURVE('',#154,#166,#99,.T.);
#209=EDGE_CURVE('',#166,#163,#23,.T.);
#210=EDGE_CURVE('',#140,#143,#136,.T.);
#211=ORIENTED_EDGE('',*,*,#167,.F.);
#212=ORIENTED_EDGE('',*,*,#168,.T.);
#213=ORIENTED_EDGE('',*,*,#169,.F.);
#214=ORIENTED_EDGE('',*,*,#168,.F.);
#215=ORIENTED_EDGE('',*,*,#167,.T.);
#216=ORIENTED_EDGE('',*,*,#170,.F.);
#217=ORIENTED_EDGE('',*,*,#171,.T.);
#218=ORIENTED_EDGE('',*,*,#172,.T.);
#219=ORIENTED_EDGE('',*,*,#173,.F.);
#220=ORIENTED_EDGE('',*,*,#174,.F.);
#221=ORIENTED_EDGE('',*,*,#175,.F.);
#222=ORIENTED_EDGE('',*,*,#176,.F.);
#223=ORIENTED_EDGE('',*,*,#177,.F.);
#224=ORIENTED_EDGE('',*,*,#178,.F.);
#225=ORIENTED_EDGE('',*,*,#176,.T.);
#226=ORIENTED_EDGE('',*,*,#179,.F.);
#227=ORIENTED_EDGE('',*,*,#172,.F.);
#228=ORIENTED_EDGE('',*,*,#180,.T.);
#229=ORIENTED_EDGE('',*,*,#177,.T.);
#230=ORIENTED_EDGE('',*,*,#178,.T.);
#231=ORIENTED_EDGE('',*,*,#171,.F.);
#232=ORIENTED_EDGE('',*,*,#181,.T.);
#233=ORIENTED_EDGE('',*,*,#182,.T.);
#234=ORIENTED_EDGE('',*,*,#183,.T.);
#235=ORIENTED_EDGE('',*,*,#184,.F.);
#236=ORIENTED_EDGE('',*,*,#185,.T.);
#237=ORIENTED_EDGE('',*,*,#186,.T.);
#238=ORIENTED_EDGE('',*,*,#187,.T.);
#239=ORIENTED_EDGE('',*,*,#188,.F.);
#240=ORIENTED_EDGE('',*,*,#169,.T.);
#241=ORIENTED_EDGE('',*,*,#189,.T.);
#242=ORIENTED_EDGE('',*,*,#190,.T.);
#243=ORIENTED_EDGE('',*,*,#191,.F.);
#244=ORIENTED_EDGE('',*,*,#192,.F.);
#245=ORIENTED_EDGE('',*,*,#193,.T.);
#246=ORIENTED_EDGE('',*,*,#194,.F.);
#247=ORIENTED_EDGE('',*,*,#195,.F.);
#248=ORIENTED_EDGE('',*,*,#193,.F.);
#249=ORIENTED_EDGE('',*,*,#196,.F.);
#250=ORIENTED_EDGE('',*,*,#197,.T.);
#251=ORIENTED_EDGE('',*,*,#190,.F.);
#252=ORIENTED_EDGE('',*,*,#197,.F.);
#253=ORIENTED_EDGE('',*,*,#196,.T.);
#254=ORIENTED_EDGE('',*,*,#198,.F.);
#255=ORIENTED_EDGE('',*,*,#199,.T.);
#256=ORIENTED_EDGE('',*,*,#189,.F.);
#257=ORIENTED_EDGE('',*,*,#199,.F.);
#258=ORIENTED_EDGE('',*,*,#198,.T.);
#259=ORIENTED_EDGE('',*,*,#200,.F.);
#260=ORIENTED_EDGE('',*,*,#186,.F.);
#261=ORIENTED_EDGE('',*,*,#201,.F.);
#262=ORIENTED_EDGE('',*,*,#184,.T.);
#263=ORIENTED_EDGE('',*,*,#202,.T.);
#264=ORIENTED_EDGE('',*,*,#203,.T.);
#265=ORIENTED_EDGE('',*,*,#204,.F.);
#266=ORIENTED_EDGE('',*,*,#205,.F.);
#267=ORIENTED_EDGE('',*,*,#182,.F.);
#268=ORIENTED_EDGE('',*,*,#206,.F.);
#269=ORIENTED_EDGE('',*,*,#202,.F.);
#270=ORIENTED_EDGE('',*,*,#183,.F.);
#271=ORIENTED_EDGE('',*,*,#205,.T.);
#272=ORIENTED_EDGE('',*,*,#185,.F.);
#273=ORIENTED_EDGE('',*,*,#201,.T.);
#274=ORIENTED_EDGE('',*,*,#194,.T.);
#275=ORIENTED_EDGE('',*,*,#195,.T.);
#276=ORIENTED_EDGE('',*,*,#207,.F.);
#277=ORIENTED_EDGE('',*,*,#188,.T.);
#278=ORIENTED_EDGE('',*,*,#208,.T.);
#279=ORIENTED_EDGE('',*,*,#209,.F.);
#280=ORIENTED_EDGE('',*,*,#208,.F.);
#281=ORIENTED_EDGE('',*,*,#187,.F.);
#282=ORIENTED_EDGE('',*,*,#200,.T.);
#283=ORIENTED_EDGE('',*,*,#174,.T.);
#284=ORIENTED_EDGE('',*,*,#180,.F.);
#285=ORIENTED_EDGE('',*,*,#207,.T.);
#286=ORIENTED_EDGE('',*,*,#209,.T.);
#287=ORIENTED_EDGE('',*,*,#203,.F.);
#288=ORIENTED_EDGE('',*,*,#206,.T.);
#289=ORIENTED_EDGE('',*,*,#204,.T.);
#290=ORIENTED_EDGE('',*,*,#181,.F.);
#291=ORIENTED_EDGE('',*,*,#170,.T.);
#292=ORIENTED_EDGE('',*,*,#210,.T.);
#293=ORIENTED_EDGE('',*,*,#191,.T.);
#294=ORIENTED_EDGE('',*,*,#192,.T.);
#295=ORIENTED_EDGE('',*,*,#210,.F.);
#296=ORIENTED_EDGE('',*,*,#173,.T.);
#297=ORIENTED_EDGE('',*,*,#179,.T.);
#298=ORIENTED_EDGE('',*,*,#175,.T.);
#299=CYLINDRICAL_SURFACE('',#338,1.55);
#300=CYLINDRICAL_SURFACE('',#346,2.5);
#301=CYLINDRICAL_SURFACE('',#357,1.54999999999999);
#302=CYLINDRICAL_SURFACE('',#360,1.54999999999999);
#303=CYLINDRICAL_SURFACE('',#368,2.50000003725297);
#304=CYLINDRICAL_SURFACE('',#372,2.50000000000006);
#305=ADVANCED_FACE('',(#40),#299,.T.);
#306=ADVANCED_FACE('',(#41),#30,.T.);
#307=ADVANCED_FACE('',(#42),#31,.T.);
#308=ADVANCED_FACE('',(#43),#32,.T.);
#309=ADVANCED_FACE('',(#44),#300,.T.);
#310=ADVANCED_FACE('',(#45,#25,#26,#27),#33,.T.);
#311=ADVANCED_FACE('',(#46),#24,.T.);
#312=ADVANCED_FACE('',(#47),#301,.T.);
#313=ADVANCED_FACE('',(#48),#34,.T.);
#314=ADVANCED_FACE('',(#49),#302,.T.);
#315=ADVANCED_FACE('',(#50),#35,.T.);
#316=ADVANCED_FACE('',(#51),#36,.F.);
#317=ADVANCED_FACE('',(#52),#37,.T.);
#318=ADVANCED_FACE('',(#53),#303,.T.);
#319=ADVANCED_FACE('',(#54,#28),#15,.T.);
#320=ADVANCED_FACE('',(#55),#38,.T.);
#321=ADVANCED_FACE('',(#56),#304,.T.);
#322=ADVANCED_FACE('',(#57,#29),#16,.F.);
#323=ADVANCED_FACE('',(#58),#39,.F.);
#324=CLOSED_SHELL('',(#305,#306,#307,#308,#309,#310,#311,#312,#313,#314,
#315,#316,#317,#318,#319,#320,#321,#322,#323));
#325=DERIVED_UNIT_ELEMENT(#327,1.);
#326=DERIVED_UNIT_ELEMENT(#766,-3.);
#327=(
MASS_UNIT()
NAMED_UNIT(*)
SI_UNIT(.KILO.,.GRAM.)
);
#328=DERIVED_UNIT((#325,#326));
#329=MEASURE_REPRESENTATION_ITEM('density measure',
POSITIVE_RATIO_MEASURE(7850.),#328);
#330=PROPERTY_DEFINITION_REPRESENTATION(#335,#332);
#331=PROPERTY_DEFINITION_REPRESENTATION(#336,#333);
#332=REPRESENTATION('material name',(#334),#763);
#333=REPRESENTATION('density',(#329),#763);
#334=DESCRIPTIVE_REPRESENTATION_ITEM('Acero','Acero');
#335=PROPERTY_DEFINITION('material property','material name',#773);
#336=PROPERTY_DEFINITION('material property','density of part',#773);
#337=AXIS2_PLACEMENT_3D('',#471,#376,#377);
#338=AXIS2_PLACEMENT_3D('',#472,#378,#379);
#339=AXIS2_PLACEMENT_3D('',#474,#380,#381);
#340=AXIS2_PLACEMENT_3D('',#477,#383,#384);
#341=AXIS2_PLACEMENT_3D('',#478,#385,#386);
#342=AXIS2_PLACEMENT_3D('',#479,#387,#388);
#343=AXIS2_PLACEMENT_3D('',#482,#389,#390);
#344=AXIS2_PLACEMENT_3D('',#488,#394,#395);
#345=AXIS2_PLACEMENT_3D('',#491,#396,#397);
#346=AXIS2_PLACEMENT_3D('',#497,#401,#402);
#347=AXIS2_PLACEMENT_3D('',#498,#403,#404);
#348=AXIS2_PLACEMENT_3D('',#499,#405,#406);
#349=AXIS2_PLACEMENT_3D('',#500,#407,#408);
#350=AXIS2_PLACEMENT_3D('',#502,#409,#410);
#351=AXIS2_PLACEMENT_3D('',#504,#411,#412);
#352=AXIS2_PLACEMENT_3D('',#508,#414,#415);
#353=AXIS2_PLACEMENT_3D('',#512,#417,#418);
#354=AXIS2_PLACEMENT_3D('',#516,#420,#421);
#355=AXIS2_PLACEMENT_3D('',#519,#423,#424);
#356=AXIS2_PLACEMENT_3D('',#521,#425,#426);
#357=AXIS2_PLACEMENT_3D('',#682,#427,#428);
#358=AXIS2_PLACEMENT_3D('',#684,#429,#430);
#359=AXIS2_PLACEMENT_3D('',#686,#432,#433);
#360=AXIS2_PLACEMENT_3D('',#687,#434,#435);
#361=AXIS2_PLACEMENT_3D('',#689,#436,#437);
#362=AXIS2_PLACEMENT_3D('',#691,#439,#440);
#363=AXIS2_PLACEMENT_3D('',#692,#441,#442);
#364=AXIS2_PLACEMENT_3D('',#695,#444,#445);
#365=AXIS2_PLACEMENT_3D('',#698,#447,#448);
#366=AXIS2_PLACEMENT_3D('',#699,#449,#450);
#367=AXIS2_PLACEMENT_3D('',#701,#451,#452);
#368=AXIS2_PLACEMENT_3D('',#703,#454,#455);
#369=AXIS2_PLACEMENT_3D('',#728,#456,#457);
#370=AXIS2_PLACEMENT_3D('',#729,#458,#459);
#371=AXIS2_PLACEMENT_3D('',#731,#460,#461);
#372=AXIS2_PLACEMENT_3D('',#733,#463,#464);
#373=AXIS2_PLACEMENT_3D('',#758,#465,#466);
#374=AXIS2_PLACEMENT_3D('',#759,#467,#468);
#375=AXIS2_PLACEMENT_3D('',#760,#469,#470);
#376=DIRECTION('axis',(0.,0.,1.));
#377=DIRECTION('refdir',(1.,0.,0.));
#378=DIRECTION('center_axis',(-1.,0.,0.));
#379=DIRECTION('ref_axis',(0.,0.,1.));
#380=DIRECTION('center_axis',(-1.,0.,0.));
#381=DIRECTION('ref_axis',(0.,0.,1.));
#382=DIRECTION('',(1.,0.,0.));
#383=DIRECTION('center_axis',(1.,-6.12323399573677E-17,0.));
#384=DIRECTION('ref_axis',(0.,0.,1.));
#385=DIRECTION('center_axis',(-1.,0.,0.));
#386=DIRECTION('ref_axis',(0.,0.,1.));
#387=DIRECTION('center_axis',(0.,0.,1.));
#388=DIRECTION('ref_axis',(9.93170787207912E-49,-1.,0.));
#389=DIRECTION('center_axis',(0.,0.,-1.));
#390=DIRECTION('ref_axis',(0.,1.,0.));
#391=DIRECTION('',(9.93170787207912E-49,-1.,0.));
#392=DIRECTION('',(1.,0.,0.));
#393=DIRECTION('',(9.93170787207912E-49,-1.,0.));
#394=DIRECTION('center_axis',(0.,0.,-1.));
#395=DIRECTION('ref_axis',(9.93170787207912E-49,1.,0.));
#396=DIRECTION('center_axis',(0.,0.,1.));
#397=DIRECTION('ref_axis',(0.,-1.,0.));
#398=DIRECTION('',(9.93170787207912E-49,1.,0.));
#399=DIRECTION('',(1.,0.,0.));
#400=DIRECTION('',(-9.93170787207912E-49,-1.,0.));
#401=DIRECTION('center_axis',(1.,0.,0.));
#402=DIRECTION('ref_axis',(0.,0.,-1.));
#403=DIRECTION('center_axis',(-1.,0.,0.));
#404=DIRECTION('ref_axis',(0.,0.,-1.));
#405=DIRECTION('center_axis',(1.,0.,0.));
#406=DIRECTION('ref_axis',(0.,0.,-1.));
#407=DIRECTION('center_axis',(-1.,6.12323399573677E-17,0.));
#408=DIRECTION('ref_axis',(6.12323399573677E-17,1.,0.));
#409=DIRECTION('center_axis',(1.,-6.12323399573677E-17,0.));
#410=DIRECTION('ref_axis',(0.,0.,1.));
#411=DIRECTION('center_axis',(1.,-6.12323399573677E-17,0.));
#412=DIRECTION('ref_axis',(0.,0.,1.));
#413=DIRECTION('',(-9.25322254149682E-50,7.45042164100722E-15,-1.));
#414=DIRECTION('center_axis',(-1.,5.41224154669962E-47,3.84562885788199E-61));
#415=DIRECTION('ref_axis',(5.41224154669962E-47,1.,7.1054272517217E-15));
#416=DIRECTION('',(-7.73177375335473E-47,7.10295143505467E-15,-1.));
#417=DIRECTION('center_axis',(-1.,6.12323399573677E-17,0.));
#418=DIRECTION('ref_axis',(0.,0.,1.));
#419=DIRECTION('',(0.,0.,1.));
#420=DIRECTION('center_axis',(-1.,1.81601341213167E-47,-5.73687023278872E-54));
#421=DIRECTION('ref_axis',(-1.81601341213176E-47,-0.99999999999995,3.15904618020105E-7));
#422=DIRECTION('',(-3.1405495984383E-47,-3.55588304875543E-15,1.));
#423=DIRECTION('center_axis',(1.,0.,0.));
#424=DIRECTION('ref_axis',(0.,0.,1.));
#425=DIRECTION('center_axis',(1.,0.,0.));
#426=DIRECTION('ref_axis',(0.,0.,1.));
#427=DIRECTION('center_axis',(-1.,0.,0.));
#428=DIRECTION('ref_axis',(0.,0.,1.));
#429=DIRECTION('center_axis',(-1.,0.,0.));
#430=DIRECTION('ref_axis',(0.,0.,1.));
#431=DIRECTION('',(1.,0.,0.));
#432=DIRECTION('center_axis',(-1.,0.,0.));
#433=DIRECTION('ref_axis',(0.,0.,1.));
#434=DIRECTION('center_axis',(-1.,0.,0.));
#435=DIRECTION('ref_axis',(0.,0.,1.));
#436=DIRECTION('center_axis',(-1.,0.,0.));
#437=DIRECTION('ref_axis',(0.,0.,1.));
#438=DIRECTION('',(1.,0.,0.));
#439=DIRECTION('center_axis',(-1.,0.,0.));
#440=DIRECTION('ref_axis',(0.,0.,1.));
#441=DIRECTION('center_axis',(0.,1.,0.));
#442=DIRECTION('ref_axis',(1.,0.,0.));
#443=DIRECTION('',(1.,0.,0.));
#444=DIRECTION('center_axis',(0.,1.,0.));
#445=DIRECTION('ref_axis',(0.,0.,1.));
#446=DIRECTION('',(1.,0.,0.));
#447=DIRECTION('center_axis',(0.,1.,0.));
#448=DIRECTION('ref_axis',(0.,0.,1.));
#449=DIRECTION('center_axis',(0.,1.,7.45042164100722E-15));
#450=DIRECTION('ref_axis',(9.25322254149682E-50,-7.45042164100722E-15,1.));
#451=DIRECTION('center_axis',(0.,-1.,-7.45042164100722E-15));
#452=DIRECTION('ref_axis',(0.,7.45042164100722E-15,-1.));
#453=DIRECTION('',(1.,0.,0.));
#454=DIRECTION('center_axis',(1.,0.,0.));
#455=DIRECTION('ref_axis',(0.,1.,7.1054272517217E-15));
#456=DIRECTION('center_axis',(6.12323399573677E-17,0.,1.));
#457=DIRECTION('ref_axis',(1.,0.,0.));
#458=DIRECTION('center_axis',(0.,1.,3.55588304875543E-15));
#459=DIRECTION('ref_axis',(-3.1405495984383E-47,-3.55588304875543E-15,1.));
#460=DIRECTION('center_axis',(0.,-1.,-3.55588304875543E-15));
#461=DIRECTION('ref_axis',(0.,3.55588304875543E-15,-1.));
#462=DIRECTION('',(1.,0.,0.));
#463=DIRECTION('center_axis',(1.,0.,0.));
#464=DIRECTION('ref_axis',(0.,-0.99999999999995,3.15904618020105E-7));
#465=DIRECTION('center_axis',(6.12323399573677E-17,0.,1.));
#466=DIRECTION('ref_axis',(1.,0.,0.));
#467=DIRECTION('center_axis',(-1.,3.04595860965088E-64,-1.3684555315672E-48));
#468=DIRECTION('ref_axis',(-1.3684555315672E-48,0.,1.));
#469=DIRECTION('center_axis',(-1.,0.,0.));
#470=DIRECTION('ref_axis',(0.,0.,1.));
#471=CARTESIAN_POINT('',(0.,0.,0.));
#472=CARTESIAN_POINT('Origin',(3.45962720759127E-15,53.,6.93889390390723E-15));
#473=CARTESIAN_POINT('',(-5.,53.,-1.54999999999999));
#474=CARTESIAN_POINT('Origin',(-5.,53.,6.93889390390723E-15));
#475=CARTESIAN_POINT('',(3.45962720759127E-15,53.,-1.54999999999999));
#476=CARTESIAN_POINT('',(3.45962720759127E-15,53.,-1.54999999999999));
#477=CARTESIAN_POINT('Origin',(1.76042977377432E-15,53.,6.93889390390723E-15));
#478=CARTESIAN_POINT('Origin',(-5.,53.,6.93889390390723E-15));
#479=CARTESIAN_POINT('Origin',(3.45962720759127E-15,56.4446631666803,2.50000000000001));
#480=CARTESIAN_POINT('',(3.45962720759127E-15,56.4446631666803,2.50000000000001));
#481=CARTESIAN_POINT('',(10.,55.5517776493246,2.50000000000001));
#482=CARTESIAN_POINT('Origin',(0.,0.,2.50000000000001));
#483=CARTESIAN_POINT('',(3.45962720759127E-15,53.,2.50000000000001));
#484=CARTESIAN_POINT('',(3.45962720759127E-15,56.4446631666803,2.50000000000001));
#485=CARTESIAN_POINT('',(10.,53.,2.50000000000001));
#486=CARTESIAN_POINT('',(3.45962720759127E-15,53.,2.50000000000001));
#487=CARTESIAN_POINT('',(10.,56.4446631666803,2.50000000000001));
#488=CARTESIAN_POINT('Origin',(3.45962720759127E-15,53.,-2.49999999999999));
#489=CARTESIAN_POINT('',(10.,55.5517776493246,-2.49999999999999));
#490=CARTESIAN_POINT('',(3.45962720759127E-15,56.4446631666803,-2.49999999999999));
#491=CARTESIAN_POINT('Origin',(0.,0.,-2.49999999999999));
#492=CARTESIAN_POINT('',(10.,53.,-2.49999999999999));
#493=CARTESIAN_POINT('',(10.,56.4446631666803,-2.49999999999999));
#494=CARTESIAN_POINT('',(3.45962720759127E-15,53.,-2.49999999999999));
#495=CARTESIAN_POINT('',(3.45962720759127E-15,53.,-2.49999999999999));
#496=CARTESIAN_POINT('',(3.45962720759127E-15,56.4446631666803,-2.49999999999999));
#497=CARTESIAN_POINT('Origin',(3.45962720759127E-15,53.,6.93889390390723E-15));
#498=CARTESIAN_POINT('Origin',(3.45962720759127E-15,53.,6.93889390390723E-15));
#499=CARTESIAN_POINT('Origin',(10.,53.,6.93889390390723E-15));
#500=CARTESIAN_POINT('Origin',(1.76042977377432E-15,28.75,0.));
#501=CARTESIAN_POINT('',(3.45962720759127E-15,5.,-56.2783262011229));
#502=CARTESIAN_POINT('Origin',(0.,0.,0.));
#503=CARTESIAN_POINT('',(3.45962720759127E-15,5.00000007450581,56.2783261945035));
#504=CARTESIAN_POINT('Origin',(0.,0.,0.));
#505=CARTESIAN_POINT('',(3.45962720759127E-15,5.00000007450583,53.0000007897615));
#506=CARTESIAN_POINT('',(3.45962720759127E-15,5.00000007450581,56.2783261945035));
#507=CARTESIAN_POINT('',(3.45962720759127E-15,2.10942430704743E-14,53.0000000012662));
#508=CARTESIAN_POINT('Origin',(3.45962720759127E-15,2.50000003725286,53.0000007897615));
#509=CARTESIAN_POINT('',(0.,0.,57.5));
#510=CARTESIAN_POINT('',(3.45962720759127E-15,-3.45962720759127E-15,56.5));
#511=CARTESIAN_POINT('',(7.04171909509728E-15,0.,-57.5));
#512=CARTESIAN_POINT('Origin',(0.,0.,0.));
#513=CARTESIAN_POINT('',(3.45962720759127E-15,-1.22124532708767E-14,-53.));
#514=CARTESIAN_POINT('',(0.,0.,-57.5));
#515=CARTESIAN_POINT('',(3.45962720759127E-15,4.99999999999999,-53.0000007910278));
#516=CARTESIAN_POINT('Origin',(3.45962720759127E-15,2.49999999999992,-53.0000007897616));
#517=CARTESIAN_POINT('',(3.45962720759127E-15,5.,-56.2783262011229));
#518=CARTESIAN_POINT('',(3.45962720759127E-15,2.49999999999992,-54.5500007897615));
#519=CARTESIAN_POINT('Origin',(3.45962720759127E-15,2.49999999999992,-53.0000007897616));
#520=CARTESIAN_POINT('',(3.45962720759127E-15,2.50000003725286,51.4500007897615));
#521=CARTESIAN_POINT('Origin',(3.45962720759127E-15,2.50000003725286,53.0000007897615));
#522=CARTESIAN_POINT('Ctrl Pts',(37.1475917882301,10.1660600400184,31.822440050434));
#523=CARTESIAN_POINT('Ctrl Pts',(55.5710249178768,10.1660600400184,31.822440050434));
#524=CARTESIAN_POINT('Ctrl Pts',(55.5710249178768,10.1660600400184,-0.0887802132015872));
#525=CARTESIAN_POINT('Ctrl Pts',(55.5710249178768,10.1660600400184,-32.0000004768372));
#526=CARTESIAN_POINT('Ctrl Pts',(37.1475917882301,10.1660600400184,-32.0000004768372));
#527=CARTESIAN_POINT('Ctrl Pts',(18.7241586585834,10.1660600400184,-32.0000004768372));
#528=CARTESIAN_POINT('Ctrl Pts',(18.7241586585834,10.1660600400184,-0.0887802132015883));
#529=CARTESIAN_POINT('Ctrl Pts',(18.7241586585834,10.1660600400184,31.822440050434));
#530=CARTESIAN_POINT('Ctrl Pts',(37.1475917882301,10.1660600400184,31.822440050434));
#531=CARTESIAN_POINT('Ctrl Pts',(37.1475917882301,54.369162095783,31.822440050434));
#532=CARTESIAN_POINT('Ctrl Pts',(55.5710249178768,54.369162095783,31.822440050434));
#533=CARTESIAN_POINT('Ctrl Pts',(55.5710249178768,54.369162095783,-0.0887802132015872));
#534=CARTESIAN_POINT('Ctrl Pts',(55.5710249178768,54.369162095783,-32.0000004768372));
#535=CARTESIAN_POINT('Ctrl Pts',(37.1475917882301,54.369162095783,-32.0000004768372));
#536=CARTESIAN_POINT('Ctrl Pts',(18.7241586585834,54.369162095783,-32.0000004768372));
#537=CARTESIAN_POINT('Ctrl Pts',(18.7241586585834,54.369162095783,-0.0887802132015883));
#538=CARTESIAN_POINT('Ctrl Pts',(18.7241586585834,54.369162095783,31.822440050434));
#539=CARTESIAN_POINT('Ctrl Pts',(37.1475917882301,54.369162095783,31.822440050434));
#540=CARTESIAN_POINT('',(37.1475917882301,28.0767945787521,-32.0000004768372));
#541=CARTESIAN_POINT('',(37.1475917882301,28.2778841777732,31.822440050434));
#542=CARTESIAN_POINT('Ctrl Pts',(37.1475917882301,28.0767945787521,-32.0000004768372));
#543=CARTESIAN_POINT('Ctrl Pts',(35.9716478341071,29.632651884723,-32.0000004768372));
#544=CARTESIAN_POINT('Ctrl Pts',(34.7672660089635,31.2452509889976,-31.8023210468755));
#545=CARTESIAN_POINT('Ctrl Pts',(32.3853553146193,34.4587247347506,-30.9871129644658));
#546=CARTESIAN_POINT('Ctrl Pts',(31.2077725069429,36.0595853062805,-30.3696864535556));
#547=CARTESIAN_POINT('Ctrl Pts',(28.9562274315982,39.1343691566815,-28.7502114119444));
#548=CARTESIAN_POINT('Ctrl Pts',(27.8806127333677,40.6105558559539,-27.746859786362));
#549=CARTESIAN_POINT('Ctrl Pts',(25.8945378783237,43.3439513469716,-25.4402993500671));
#550=CARTESIAN_POINT('Ctrl Pts',(24.9841509425983,44.6010655799826,-24.1369154397851));
#551=CARTESIAN_POINT('Ctrl Pts',(23.3482672419855,46.8640564261682,-21.3285921491662));
#552=CARTESIAN_POINT('Ctrl Pts',(22.5710216503307,47.9417482403861,-19.7187051822426));
#553=CARTESIAN_POINT('Ctrl Pts',(21.2028661598753,49.841784901381,-16.2149474611002));
#554=CARTESIAN_POINT('Ctrl Pts',(20.6118605272149,50.6642366962946,-14.3211720877947));
#555=CARTESIAN_POINT('Ctrl Pts',(19.6634054015075,51.9862436495045,-10.372589050477));
#556=CARTESIAN_POINT('Ctrl Pts',(19.3052235654776,52.4868189018806,-8.31470270459461));
#557=CARTESIAN_POINT('Ctrl Pts',(18.8355471730456,53.1456490466559,-4.17782796668346));
#558=CARTESIAN_POINT('Ctrl Pts',(18.7241586585834,53.3037626340221,-2.09880503328739));
#559=CARTESIAN_POINT('Ctrl Pts',(18.7241586585834,53.310456438493,1.920416816808));
#560=CARTESIAN_POINT('Ctrl Pts',(18.835455608296,53.159390644262,3.99913291945024));
#561=CARTESIAN_POINT('Ctrl Pts',(19.3051016745021,52.5147633021076,8.13639664775728));
#562=CARTESIAN_POINT('Ctrl Pts',(19.6633462659571,52.021344924461,10.1949784440986));
#563=CARTESIAN_POINT('Ctrl Pts',(20.6124180541935,50.71322762976,14.1457366344637));
#564=CARTESIAN_POINT('Ctrl Pts',(21.203980365537,49.8975200865123,16.0409987363398));
#565=CARTESIAN_POINT('Ctrl Pts',(22.57405633304,48.0100668666259,19.5481557890454));
#566=CARTESIAN_POINT('Ctrl Pts',(23.3526687980894,46.9382151831815,21.1599550880108));
#567=CARTESIAN_POINT('Ctrl Pts',(24.9894579781686,44.6892320351897,23.9671334681498));
#568=CARTESIAN_POINT('Ctrl Pts',(25.8987703176922,43.4416167917088,25.2681764986093));
#569=CARTESIAN_POINT('Ctrl Pts',(27.8828079504485,40.7280269356333,27.5713249543772));
#570=CARTESIAN_POINT('Ctrl Pts',(28.957461987137,39.2621490289005,28.5736056981363));
#571=CARTESIAN_POINT('Ctrl Pts',(31.2075323680244,36.2083112546669,30.1918865472241));
#572=CARTESIAN_POINT('Ctrl Pts',(32.3846067697177,34.6181010368878,30.8091926556275));
#573=CARTESIAN_POINT('Ctrl Pts',(34.766266266886,31.4257595044885,31.6245220761836));
#574=CARTESIAN_POINT('Ctrl Pts',(35.9709108286334,29.8236456526165,31.822440050434));
#575=CARTESIAN_POINT('Ctrl Pts',(37.1475917882301,28.2778841777732,31.822440050434));
#576=CARTESIAN_POINT('Ctrl Pts',(37.1475917882301,28.2778841777732,31.822440050434));
#577=CARTESIAN_POINT('Ctrl Pts',(38.2044231456241,26.8895646130325,31.822440050434));
#578=CARTESIAN_POINT('Ctrl Pts',(39.3066699977946,25.4571079246902,31.6623465773819));
#579=CARTESIAN_POINT('Ctrl Pts',(41.5200545045417,22.6365632137144,30.9718246285534));
#580=CARTESIAN_POINT('Ctrl Pts',(42.6312682647837,21.2484570182263,30.441714369013));
#581=CARTESIAN_POINT('Ctrl Pts',(44.7896583347118,18.6427515355641,29.0164480025895));
#582=CARTESIAN_POINT('Ctrl Pts',(45.8390798733158,17.422955400981,28.1198858567282));
#583=CARTESIAN_POINT('Ctrl Pts',(47.8142085017279,15.261642032611,26.0075440392583));
#584=CARTESIAN_POINT('Ctrl Pts',(48.7402303010143,14.3213871970333,24.7907672872089));
#585=CARTESIAN_POINT('Ctrl Pts',(50.5413489499755,12.670036825497,21.9393258818239));
#586=CARTESIAN_POINT('Ctrl Pts',(51.4198321532178,11.9884035358796,20.2189276899477));
#587=CARTESIAN_POINT('Ctrl Pts',(52.942175064035,11.0231557092143,16.4967309681343));
#588=CARTESIAN_POINT('Ctrl Pts',(53.5854177277659,10.7366186635033,14.4954385606417));
#589=CARTESIAN_POINT('Ctrl Pts',(54.6011606035385,10.3891130649183,10.3715622217208));
#590=CARTESIAN_POINT('Ctrl Pts',(54.9748774461812,10.3214896360711,8.24638805921642));
#591=CARTESIAN_POINT('Ctrl Pts',(55.4598366511156,10.2375865775662,4.02138710543434));
#592=CARTESIAN_POINT('Ctrl Pts',(55.5710249178768,10.220595480479,1.9215682638499));
#593=CARTESIAN_POINT('Ctrl Pts',(55.5710249178768,10.185643575702,-2.09529389700881));
#594=CARTESIAN_POINT('Ctrl Pts',(55.4602461727095,10.1660600448302,-4.19106158860473));
#595=CARTESIAN_POINT('Ctrl Pts',(54.9772720547771,10.1768464778337,-8.40737966275716));
#596=CARTESIAN_POINT('Ctrl Pts',(54.6051647067251,10.2077877757774,-10.5279386469988));
#597=CARTESIAN_POINT('Ctrl Pts',(53.5938257109042,10.4892060007249,-14.6437303725529));
#598=CARTESIAN_POINT('Ctrl Pts',(52.9532743722154,10.7467543199378,-16.641857958761));
#599=CARTESIAN_POINT('Ctrl Pts',(51.4370879088031,11.670921846475,-20.3594941535229));
#600=CARTESIAN_POINT('Ctrl Pts',(50.5621000190035,12.3405725573842,-22.0785124637867));
#601=CARTESIAN_POINT('Ctrl Pts',(48.7605442922667,13.9891210130089,-24.9408708088207));
#602=CARTESIAN_POINT('Ctrl Pts',(47.8317737774679,14.9369502762881,-26.1639607548854));
#603=CARTESIAN_POINT('Ctrl Pts',(45.8524702830762,17.1180709547489,-28.2854472187757));
#604=CARTESIAN_POINT('Ctrl Pts',(44.8015690202303,18.3500505384841,-29.1848485046625));
#605=CARTESIAN_POINT('Ctrl Pts',(42.6400498705061,20.9814925137261,-30.6147585751817));
#606=CARTESIAN_POINT('Ctrl Pts',(41.5272850126667,22.3831143916257,-31.1465252108101));
#607=CARTESIAN_POINT('Ctrl Pts',(39.3104631475414,25.2303414630437,-31.839324739494));
#608=CARTESIAN_POINT('Ctrl Pts',(38.2063464252269,26.6759870560579,-32.0000004768372));
#609=CARTESIAN_POINT('Ctrl Pts',(37.1475917882301,28.0767945787521,-32.0000004768372));
#610=CARTESIAN_POINT('',(37.1475917882301,30.226457509466,31.822440050434));
#611=CARTESIAN_POINT('Ctrl Pts',(37.1475917882301,28.2778841777732,31.822440050434));
#612=CARTESIAN_POINT('Ctrl Pts',(37.1475917882301,30.226457509466,31.822440050434));
#613=CARTESIAN_POINT('',(37.1475917882301,30.0384153013677,-32.0000004768372));
#614=CARTESIAN_POINT('Ctrl Pts',(37.1475917882301,30.0384153013677,-32.0000004768372));
#615=CARTESIAN_POINT('Ctrl Pts',(38.1742074320152,28.7688310547911,-32.0000004768372));
#616=CARTESIAN_POINT('Ctrl Pts',(39.2500037061481,27.4634887536663,-31.8488830009541));
#617=CARTESIAN_POINT('Ctrl Pts',(41.4195468279732,24.916562265447,-31.1888348500116));
#618=CARTESIAN_POINT('Ctrl Pts',(42.5134981985468,23.6751171128112,-30.6800399689314));
#619=CARTESIAN_POINT('Ctrl Pts',(44.6455186512686,21.3825603071539,-29.3042203607041));
#620=CARTESIAN_POINT('Ctrl Pts',(45.6867938854625,20.3290789415197,-28.4346972508309));
#621=CARTESIAN_POINT('Ctrl Pts',(47.6469166722631,18.5107966046015,-26.3857600720384));
#622=CARTESIAN_POINT('Ctrl Pts',(48.5658591798101,17.7472646210168,-25.2053110363209));
#623=CARTESIAN_POINT('Ctrl Pts',(50.414463098309,16.3972429641072,-22.3572722117818));
#624=CARTESIAN_POINT('Ctrl Pts',(51.3296653105884,15.8700840252378,-20.5911232839916));
#625=CARTESIAN_POINT('Ctrl Pts',(52.9010231459546,15.1616413871074,-16.7986560923022));
#626=CARTESIAN_POINT('Ctrl Pts',(53.5568394328844,14.9761769470302,-14.7729793890908));
#627=CARTESIAN_POINT('Ctrl Pts',(54.5901938628531,14.7722648561611,-10.6090890771065));
#628=CARTESIAN_POINT('Ctrl Pts',(54.9682792284236,14.7506058561449,-8.46951921345514));
#629=CARTESIAN_POINT('Ctrl Pts',(55.4587709702657,14.7425068981275,-4.21996006979191));
#630=CARTESIAN_POINT('Ctrl Pts',(55.5710249178768,14.7561707424164,-2.10995300037983));
#631=CARTESIAN_POINT('Ctrl Pts',(55.5710249178768,14.7804844919946,1.93456601558634));
#632=CARTESIAN_POINT('Ctrl Pts',(55.4585347486928,14.7922249947343,4.04693356184647));
#633=CARTESIAN_POINT('Ctrl Pts',(54.9668882393839,14.8513541870545,8.30151456726708));
#634=CARTESIAN_POINT('Ctrl Pts',(54.5878649268374,14.8987035267608,10.4437439444219));
#635=CARTESIAN_POINT('Ctrl Pts',(53.5519698477106,15.1508604545927,14.6121902722753));
#636=CARTESIAN_POINT('Ctrl Pts',(52.8945505124161,15.3588363174989,16.6397165282858));
#637=CARTESIAN_POINT('Ctrl Pts',(51.3199664329473,16.1034964348352,20.4339409069608));
#638=CARTESIAN_POINT('Ctrl Pts',(50.4031314494783,16.6441856817484,22.1999887609911));
#639=CARTESIAN_POINT('Ctrl Pts',(48.5566867979483,18.004542974232,25.0395848812058));
#640=CARTESIAN_POINT('Ctrl Pts',(47.6402789450157,18.7671113144881,26.2158465452476));
#641=CARTESIAN_POINT('Ctrl Pts',(45.6837369057619,20.5781751659855,28.2596203848603));
#642=CARTESIAN_POINT('Ctrl Pts',(44.6435431992313,21.6255254465915,29.1280901389865));
#643=CARTESIAN_POINT('Ctrl Pts',(42.5129132355836,23.9038145628515,30.5027014039104));
#644=CARTESIAN_POINT('Ctrl Pts',(41.4192642007445,25.1371324068738,31.0113725917979));
#645=CARTESIAN_POINT('Ctrl Pts',(39.2500579943335,27.667638034688,31.671293873507));
#646=CARTESIAN_POINT('Ctrl Pts',(38.1742889584726,28.9646712959028,31.822440050434));
#647=CARTESIAN_POINT('Ctrl Pts',(37.1475917882301,30.226457509466,31.822440050434));
#648=CARTESIAN_POINT('Ctrl Pts',(37.1475917882301,30.226457509466,31.822440050434));
#649=CARTESIAN_POINT('Ctrl Pts',(35.954966087169,31.6921659103032,31.822440050434));
#650=CARTESIAN_POINT('Ctrl Pts',(34.7438914961609,33.2146561133596,31.6195310912043));
#651=CARTESIAN_POINT('Ctrl Pts',(32.3615672130557,36.2535823742024,30.7985852922692));
#652=CARTESIAN_POINT('Ctrl Pts',(31.190230344832,37.7699618482566,30.1805919769807));
#653=CARTESIAN_POINT('Ctrl Pts',(28.9574684952439,40.6859757103733,28.5724520807254));
#654=CARTESIAN_POINT('Ctrl Pts',(27.8945057791956,42.0875961642398,27.5810139013434));
#655=CARTESIAN_POINT('Ctrl Pts',(25.9349824311205,44.6851110819819,25.3140092688658));
#656=CARTESIAN_POINT('Ctrl Pts',(25.038498656636,45.8808968134734,24.0382518039928));
#657=CARTESIAN_POINT('Ctrl Pts',(23.3998156694927,48.073277123764,21.2536747833898));
#658=CARTESIAN_POINT('Ctrl Pts',(22.6108668879191,49.1330900566401,19.6315787957939));
#659=CARTESIAN_POINT('Ctrl Pts',(21.2247062782076,50.9987280550322,16.1044188375185));
#660=CARTESIAN_POINT('Ctrl Pts',(20.6273831375896,51.8046452949212,14.1994473685551));
#661=CARTESIAN_POINT('Ctrl Pts',(19.6698875289442,53.0967495055804,10.2306026875361));
#662=CARTESIAN_POINT('Ctrl Pts',(19.308993437585,53.583897850147,8.16369877479053));
#663=CARTESIAN_POINT('Ctrl Pts',(18.8360744815211,54.2201759444068,4.0115000632238));
#664=CARTESIAN_POINT('Ctrl Pts',(18.7241586585834,54.369162095783,1.92617084216802));
#665=CARTESIAN_POINT('Ctrl Pts',(18.7241586585834,54.3625797381437,-2.1046328435363));
#666=CARTESIAN_POINT('Ctrl Pts',(18.836174522675,54.2066496682114,-4.19036107735129));
#667=CARTESIAN_POINT('Ctrl Pts',(19.3091689327322,53.5563459979537,-8.34237755884111));
#668=CARTESIAN_POINT('Ctrl Pts',(19.6700369832787,53.0621142363728,-10.4087006073381));
#669=CARTESIAN_POINT('Ctrl Pts',(20.62702462629,51.7562290243724,-14.3756037345832));
#670=CARTESIAN_POINT('Ctrl Pts',(21.2238634987153,50.9436028320521,-16.2792083885845));
#671=CARTESIAN_POINT('Ctrl Pts',(22.6082852560273,49.0654112852777,-19.8031949518505));
#672=CARTESIAN_POINT('Ctrl Pts',(23.3959767818239,47.9997526677606,-21.4234844720016));
#673=CARTESIAN_POINT('Ctrl Pts',(25.0336788988718,45.7940648349914,-24.2087688483296));
#674=CARTESIAN_POINT('Ctrl Pts',(25.9310111355203,44.5896010616184,-25.4864659826701));
#675=CARTESIAN_POINT('Ctrl Pts',(27.892135642884,41.9740893269505,-27.7563398898827));
#676=CARTESIAN_POINT('Ctrl Pts',(28.9558486013143,40.5631482345998,-28.7487083230189));
#677=CARTESIAN_POINT('Ctrl Pts',(31.1897905118836,37.6282983932409,-30.3579729399109));
#678=CARTESIAN_POINT('Ctrl Pts',(32.3615481640198,36.1023962319189,-30.9761584609373));
#679=CARTESIAN_POINT('Ctrl Pts',(34.744235815032,33.0446960536919,-31.797190860268));
#680=CARTESIAN_POINT('Ctrl Pts',(35.9552472127037,31.5129514617539,-32.0000004768372));
#681=CARTESIAN_POINT('Ctrl Pts',(37.1475917882301,30.0384153013677,-32.0000004768372));
#682=CARTESIAN_POINT('Origin',(3.45962720759127E-15,2.50000003725286,53.0000007897615));
#683=CARTESIAN_POINT('',(-5.,2.50000003725286,51.4500007897615));
#684=CARTESIAN_POINT('Origin',(-5.,2.50000003725286,53.0000007897615));
#685=CARTESIAN_POINT('',(3.45962720759127E-15,2.50000003725286,51.4500007897615));
#686=CARTESIAN_POINT('Origin',(-5.,2.50000003725286,53.0000007897615));
#687=CARTESIAN_POINT('Origin',(3.45962720759127E-15,2.49999999999992,-53.0000007897616));
#688=CARTESIAN_POINT('',(-5.,2.49999999999992,-54.5500007897615));
#689=CARTESIAN_POINT('Origin',(-5.,2.49999999999992,-53.0000007897616));
#690=CARTESIAN_POINT('',(3.45962720759127E-15,2.49999999999992,-54.5500007897615));
#691=CARTESIAN_POINT('Origin',(-5.,2.49999999999992,-53.0000007897616));
#692=CARTESIAN_POINT('Origin',(28.75,0.,0.));
#693=CARTESIAN_POINT('',(19.5767719504519,-1.22124532708767E-14,-53.));
#694=CARTESIAN_POINT('',(3.45962720759127E-15,-1.22124532708767E-14,-53.));
#695=CARTESIAN_POINT('Origin',(0.,0.,0.));
#696=CARTESIAN_POINT('',(19.5767698123383,0.,53.0000007897615));
#697=CARTESIAN_POINT('',(3.45962720759127E-15,2.10942430704743E-14,53.0000000012662));
#698=CARTESIAN_POINT('Origin',(0.,0.,0.));
#699=CARTESIAN_POINT('Origin',(3.45962720759127E-15,5.00000007450583,53.0000007897615));
#700=CARTESIAN_POINT('',(18.9274909996074,5.00000007450583,53.0000007897615));
#701=CARTESIAN_POINT('Origin',(0.,5.00000007450623,3.72521087601389E-14));
#702=CARTESIAN_POINT('',(3.45962720759127E-15,5.00000007450583,53.0000007897615));
#703=CARTESIAN_POINT('Origin',(3.45962720759127E-15,2.50000003725286,53.0000007897615));
#704=CARTESIAN_POINT('Ctrl Pts',(19.5767698123383,-1.03033900855642E-13,
53.0000007897615));
#705=CARTESIAN_POINT('Ctrl Pts',(20.3813316673694,-1.01022313219585E-13,
52.7028173557798));
#706=CARTESIAN_POINT('Ctrl Pts',(21.2548325855495,0.0529828397970988,52.3576946746158));
#707=CARTESIAN_POINT('Ctrl Pts',(22.5084352664629,0.285234239923621,51.8242338105367));
#708=CARTESIAN_POINT('Ctrl Pts',(22.9165014801011,0.387714729146288,51.6442872450596));
#709=CARTESIAN_POINT('Ctrl Pts',(23.6886653122835,0.660950763122569,51.2919004099111));
#710=CARTESIAN_POINT('Ctrl Pts',(24.0534262398254,0.829564942573369,51.1192568175079));
#711=CARTESIAN_POINT('Ctrl Pts',(24.6450996741489,1.24213403717151,50.8276312312106));
#712=CARTESIAN_POINT('Ctrl Pts',(24.9291916689625,1.51329253310277,50.6815279952406));
#713=CARTESIAN_POINT('Ctrl Pts',(25.130129395277,1.91386421871366,50.5675443393501));
#714=CARTESIAN_POINT('Ctrl Pts',(25.1723674276776,2.02768219639552,50.5421139651181));
#715=CARTESIAN_POINT('Ctrl Pts',(25.2200935094341,2.26436855178032,50.5082605076009));
#716=CARTESIAN_POINT('Ctrl Pts',(25.2252535650947,2.38732627776089,50.5000007525086));
#717=CARTESIAN_POINT('Ctrl Pts',(25.1983555529375,2.65860974583026,50.5000007525086));
#718=CARTESIAN_POINT('Ctrl Pts',(25.1522044673646,2.80765302066621,50.5149327579194));
#719=CARTESIAN_POINT('Ctrl Pts',(25.0169474641921,3.08705695014326,50.5657705918748));
#720=CARTESIAN_POINT('Ctrl Pts',(24.9277081564101,3.21734331898261,50.6017296731173));
#721=CARTESIAN_POINT('Ctrl Pts',(24.6175192985098,3.57807825259986,50.7300010934301));
#722=CARTESIAN_POINT('Ctrl Pts',(24.3537671483772,3.77750726254042,50.8426600601213));
#723=CARTESIAN_POINT('Ctrl Pts',(23.3702260739085,4.37624577437678,51.2616113153336));
#724=CARTESIAN_POINT('Ctrl Pts',(22.503903345974,4.62587994843963,51.6273511297293));
#725=CARTESIAN_POINT('Ctrl Pts',(20.7102647058869,4.94389946990918,52.3435823154874));
#726=CARTESIAN_POINT('Ctrl Pts',(19.7812095630737,5.00000007450583,52.6951187107913));
#727=CARTESIAN_POINT('Ctrl Pts',(18.9274909996074,5.00000007450583,53.0000007897615));
#728=CARTESIAN_POINT('Origin',(0.,0.,0.));
#729=CARTESIAN_POINT('Origin',(3.45962720759127E-15,5.,-56.2783262011229));
#730=CARTESIAN_POINT('',(18.9274910157436,4.99999999999999,-53.0000007910278));
#731=CARTESIAN_POINT('Origin',(0.,4.9999999999998,1.77794152437764E-14));
#732=CARTESIAN_POINT('',(3.45962720759127E-15,4.99999999999999,-53.0000007910278));
#733=CARTESIAN_POINT('Origin',(3.45962720759127E-15,2.49999999999992,-53.0000007897616));
#734=CARTESIAN_POINT('Ctrl Pts',(18.9274910157438,4.99999999999999,-53.0000007910277));
#735=CARTESIAN_POINT('Ctrl Pts',(19.7812097120853,5.0000000001544,-52.6951186643375));
#736=CARTESIAN_POINT('Ctrl Pts',(20.7102628189538,4.94389959331703,-52.3435830535382));
#737=CARTESIAN_POINT('Ctrl Pts',(22.5039018206698,4.62588028013657,-51.6273517680414));
#738=CARTESIAN_POINT('Ctrl Pts',(23.3702247445187,4.3762461972851,-51.2616118877966));
#739=CARTESIAN_POINT('Ctrl Pts',(24.3537661440562,3.77750788534215,-50.8426604953533));
#740=CARTESIAN_POINT('Ctrl Pts',(24.6175184115056,3.57807892954978,-50.7300014766852));
#741=CARTESIAN_POINT('Ctrl Pts',(24.9277075089101,3.21734406143245,-50.6017299450289));
#742=CARTESIAN_POINT('Ctrl Pts',(25.0169469043116,3.08705771044069,-50.5657708225846));
#743=CARTESIAN_POINT('Ctrl Pts',(25.1522041031768,2.8076537981301,-50.514932896173));
#744=CARTESIAN_POINT('Ctrl Pts',(25.1983552961531,2.65861052233881,-50.5000008398672));
#745=CARTESIAN_POINT('Ctrl Pts',(25.2252534900229,2.38732703598003,-50.5000007541675));
#746=CARTESIAN_POINT('Ctrl Pts',(25.2200935177429,2.26436930141286,-50.5082604698454));
#747=CARTESIAN_POINT('Ctrl Pts',(25.1723675840349,2.02768290588863,-50.5421138587814));
#748=CARTESIAN_POINT('Ctrl Pts',(25.1301296156517,1.91386489709701,-50.5675442041608));
#749=CARTESIAN_POINT('Ctrl Pts',(24.9291921315281,1.513293179987,-50.6815277476597));
#750=CARTESIAN_POINT('Ctrl Pts',(24.6451003220715,1.24213464455034,-50.8276309014681));
#751=CARTESIAN_POINT('Ctrl Pts',(24.0534271599422,0.829565455717791,-51.1192563754626));
#752=CARTESIAN_POINT('Ctrl Pts',(23.6886663578065,0.660951232213967,-51.2918999200554));
#753=CARTESIAN_POINT('Ctrl Pts',(22.9165027701436,0.387715106444193,-51.644286668847));
#754=CARTESIAN_POINT('Ctrl Pts',(22.5084366744966,0.285234571851972,-51.8242331962166));
#755=CARTESIAN_POINT('Ctrl Pts',(21.2548343319712,0.0529830313746373,-52.3576939616837));
#756=CARTESIAN_POINT('Ctrl Pts',(20.3813336212172,9.38815970804301E-8,-52.7028165971953));
#757=CARTESIAN_POINT('Ctrl Pts',(19.5767719504519,-1.21604115665974E-14,
-53.));
#758=CARTESIAN_POINT('Origin',(0.,0.,0.));
#759=CARTESIAN_POINT('Origin',(10.,-3.04595860965089E-63,1.3684555315672E-47));
#760=CARTESIAN_POINT('Origin',(10.,53.,6.93889390390723E-15));
#761=UNCERTAINTY_MEASURE_WITH_UNIT(LENGTH_MEASURE(0.01),#765,
'DISTANCE_ACCURACY_VALUE',
'Maximum model space distance between geometric entities at asserted c
onnectivities');
#762=UNCERTAINTY_MEASURE_WITH_UNIT(LENGTH_MEASURE(0.01),#765,
'DISTANCE_ACCURACY_VALUE',
'Maximum model space distance between geometric entities at asserted c
onnectivities');
#763=(
GEOMETRIC_REPRESENTATION_CONTEXT(3)
GLOBAL_UNCERTAINTY_ASSIGNED_CONTEXT((#761))
GLOBAL_UNIT_ASSIGNED_CONTEXT((#765,#767,#768))
REPRESENTATION_CONTEXT('','3D')
);
#764=(
GEOMETRIC_REPRESENTATION_CONTEXT(3)
GLOBAL_UNCERTAINTY_ASSIGNED_CONTEXT((#762))
GLOBAL_UNIT_ASSIGNED_CONTEXT((#765,#767,#768))
REPRESENTATION_CONTEXT('','3D')
);
#765=(
LENGTH_UNIT()
NAMED_UNIT(*)
SI_UNIT(.MILLI.,.METRE.)
);
#766=(
LENGTH_UNIT()
NAMED_UNIT(*)
SI_UNIT($,.METRE.)
);
#767=(
NAMED_UNIT(*)
PLANE_ANGLE_UNIT()
SI_UNIT($,.RADIAN.)
);
#768=(
NAMED_UNIT(*)
SI_UNIT($,.STERADIAN.)
SOLID_ANGLE_UNIT()
);
#769=SHAPE_DEFINITION_REPRESENTATION(#770,#771);
#770=PRODUCT_DEFINITION_SHAPE('',$,#773);
#771=SHAPE_REPRESENTATION('',(#337),#763);
#772=PRODUCT_DEFINITION_CONTEXT('part definition',#777,'design');
#773=PRODUCT_DEFINITION('2026-06-26-00-22-46-381',
'cabeza parte delantera',#774,#772);
#774=PRODUCT_DEFINITION_FORMATION('',$,#779);
#775=PRODUCT_RELATED_PRODUCT_CATEGORY('cabeza parte delantera',
'cabeza parte delantera',(#779));
#776=APPLICATION_PROTOCOL_DEFINITION('international standard',
'automotive_design',2009,#777);
#777=APPLICATION_CONTEXT(
'Core Data for Automotive Mechanical Design Process');
#778=PRODUCT_CONTEXT('part definition',#777,'mechanical');
#779=PRODUCT('2026-06-26-00-22-46-381','cabeza parte delantera',$,(#778));
#780=PRESENTATION_STYLE_ASSIGNMENT((#781));
#781=SURFACE_STYLE_USAGE(.BOTH.,#782);
#782=SURFACE_SIDE_STYLE('',(#783));
#783=SURFACE_STYLE_FILL_AREA(#784);
#784=FILL_AREA_STYLE('Acero - Satinado',(#785));
#785=FILL_AREA_STYLE_COLOUR('Acero - Satinado',#786);
#786=COLOUR_RGB('Acero - Satinado',0.627450980392157,0.627450980392157,
0.627450980392157);
ENDSEC;
END-ISO-10303-21;
