ISO-10303-21;
HEADER;
/* Generated by software containing ST-Developer
 * from STEP Tools, Inc. (www.steptools.com) 
 */

FILE_DESCRIPTION(
/* description */ (''),
/* implementation_level */ '2;1');

FILE_NAME(
/* name */ 'cara.step',
/* time_stamp */ '2026-07-13T17:09:00-04:00',
/* author */ (''),
/* organization */ (''),
/* preprocessor_version */ 'ST-DEVELOPER v20.1',
/* originating_system */ 'Autodesk Translation Framework v15.8.0.0',
/* authorisation */ '');

FILE_SCHEMA (('AUTOMOTIVE_DESIGN { 1 0 10303 214 3 1 1 }'));
ENDSEC;

DATA;
#10=MECHANICAL_DESIGN_GEOMETRIC_PRESENTATION_REPRESENTATION('',(#13),#499);
#11=SHAPE_REPRESENTATION_RELATIONSHIP('SRR','None',#506,#12);
#12=ADVANCED_BREP_SHAPE_REPRESENTATION('',(#14),#498);
#13=STYLED_ITEM('',(#515),#14);
#14=MANIFOLD_SOLID_BREP('Cuerpo2',#115);
#15=FACE_BOUND('',#30,.T.);
#16=FACE_BOUND('',#31,.T.);
#17=FACE_BOUND('',#33,.T.);
#18=FACE_BOUND('',#34,.T.);
#19=SPHERICAL_SURFACE('',#129,57.5);
#20=SPHERICAL_SURFACE('',#130,56.5);
#21=FACE_OUTER_BOUND('',#26,.T.);
#22=FACE_OUTER_BOUND('',#27,.T.);
#23=FACE_OUTER_BOUND('',#28,.T.);
#24=FACE_OUTER_BOUND('',#29,.T.);
#25=FACE_OUTER_BOUND('',#32,.T.);
#26=EDGE_LOOP('',(#77,#78,#79,#80,#81,#82));
#27=EDGE_LOOP('',(#83,#84,#85,#86,#87,#88));
#28=EDGE_LOOP('',(#89,#90,#91,#92,#93,#94));
#29=EDGE_LOOP('',(#95,#96));
#30=EDGE_LOOP('',(#97,#98));
#31=EDGE_LOOP('',(#99,#100));
#32=EDGE_LOOP('',(#101,#102));
#33=EDGE_LOOP('',(#103,#104));
#34=EDGE_LOOP('',(#105,#106));
#35=B_SPLINE_CURVE_WITH_KNOTS('',3,(#158,#159,#160,#161,#162,#163,#164,
#165,#166,#167,#168,#169,#170,#171,#172,#173,#174,#175),.UNSPECIFIED.,.F.,
 .F.,(4,2,2,2,2,2,2,2,4),(0.,0.277713497194686,0.555426994389372,0.962775074967874,
1.37012315554637,1.74841817529825,2.12671319505012,2.39430754452127,2.66190189399242),
 .UNSPECIFIED.);
#36=B_SPLINE_CURVE_WITH_KNOTS('',1,(#177,#178),.UNSPECIFIED.,.F.,.F.,(2,
2),(-3.43157064408486,-3.26123858148173),.UNSPECIFIED.);
#37=B_SPLINE_CURVE_WITH_KNOTS('',3,(#180,#181,#182,#183,#184,#185,#186,
#187,#188,#189,#190,#191,#192,#193,#194,#195,#196,#197,#198,#199),
 .UNSPECIFIED.,.F.,.F.,(4,2,2,2,2,2,2,2,2,4),(2.78549197343805,3.06113316915913,
3.19895376701968,3.33677436488022,3.71381924320234,4.09086412152447,4.50031016476793,
4.90975620801139,5.19466721091819,5.47957821382499),.UNSPECIFIED.);
#38=B_SPLINE_CURVE_WITH_KNOTS('',3,(#200,#201,#202,#203,#204,#205,#206,
#207,#208,#209,#210,#211,#212,#213,#214,#215,#216,#217),.UNSPECIFIED.,.F.,
 .F.,(4,2,2,2,2,2,2,2,4),(0.,0.282545319943274,0.565090639886548,0.939658183904755,
1.31422572792296,1.71671589788371,2.11920606784445,2.45234902064125,2.78549197343805),
 .UNSPECIFIED.);
#39=B_SPLINE_CURVE_WITH_KNOTS('',3,(#218,#219,#220,#221,#222,#223,#224,
#225,#226,#227,#228,#229,#230,#231,#232,#233,#234,#235),.UNSPECIFIED.,.F.,
 .F.,(4,2,2,2,2,2,2,2,4),(2.66190189399242,2.9846964542689,3.30749101454537,
3.7097026933224,4.11191437209943,4.48738655939292,4.86285874668641,5.13978840600202,
5.41671806531762),.UNSPECIFIED.);
#40=B_SPLINE_CURVE_WITH_KNOTS('',3,(#256,#257,#258,#259,#260,#261,#262,
#263,#264,#265,#266,#267,#268,#269,#270,#271,#272,#273),.UNSPECIFIED.,.F.,
 .F.,(4,2,2,2,2,2,2,2,4),(0.,0.276824279732201,0.553648559464403,0.929143171979973,
1.30463778449554,1.70681766418808,2.10899754388062,2.43154714070262,2.75409673752462),
 .UNSPECIFIED.);
#41=B_SPLINE_CURVE_WITH_KNOTS('',1,(#275,#276),.UNSPECIFIED.,.F.,.F.,(2,
2),(-3.43424714775796,-3.26405475932676),.UNSPECIFIED.);
#42=B_SPLINE_CURVE_WITH_KNOTS('',3,(#278,#279,#280,#281,#282,#283,#284,
#285,#286,#287,#288,#289,#290,#291,#292,#293,#294,#295),.UNSPECIFIED.,.F.,
 .F.,(4,2,2,2,2,2,2,2,4),(2.69318109967735,3.02604794081881,3.35891478196027,
3.76137209743682,4.16382941291337,4.53842082231463,4.9130122317159,5.19544134720026,
5.47787046268462),.UNSPECIFIED.);
#43=B_SPLINE_CURVE_WITH_KNOTS('',3,(#296,#297,#298,#299,#300,#301,#302,
#303,#304,#305,#306,#307,#308,#309,#310,#311,#312,#313,#314,#315),
 .UNSPECIFIED.,.F.,.F.,(4,2,2,2,2,2,2,2,2,4),(0.,0.28472133501398,0.56944267002796,
0.978798898737497,1.38815512744703,1.76522510284959,2.14229507825214,2.28001658360845,
2.41773808896475,2.69318109967735),.UNSPECIFIED.);
#44=B_SPLINE_CURVE_WITH_KNOTS('',3,(#316,#317,#318,#319,#320,#321,#322,
#323,#324,#325,#326,#327,#328,#329,#330,#331,#332,#333),.UNSPECIFIED.,.F.,
 .F.,(4,2,2,2,2,2,2,2,4),(2.75409673752462,3.02152287518506,3.28894901284549,
3.66726694314056,4.04558487343563,4.45285752164094,4.86013016984626,5.13767421474825,
5.41521825965025),.UNSPECIFIED.);
#45=B_SPLINE_CURVE_WITH_KNOTS('',3,(#354,#355,#356,#357,#358,#359,#360,
#361,#362,#363,#364,#365,#366,#367,#368,#369,#370,#371,#372,#373,#374,#375,
#376,#377,#378,#379,#380,#381,#382,#383,#384,#385,#386,#387),
 .UNSPECIFIED.,.F.,.F.,(4,2,2,2,2,2,2,2,2,2,2,2,2,2,2,2,4),(0.,0.488903293555755,
0.97780658711151,1.46670988066727,1.95561317422302,2.56229180775358,3.16897044128413,
3.77564907481469,4.38232770834524,4.9890063418758,5.59568497540635,6.20236360893691,
6.80904224246746,7.29794553602322,7.78684882957897,8.27575212313473,8.76465541669048),
 .UNSPECIFIED.);
#46=B_SPLINE_CURVE_WITH_KNOTS('',1,(#389,#390),.UNSPECIFIED.,.F.,.F.,(2,
2),(-0.944274918637883,-0.88301001501772),.UNSPECIFIED.);
#47=B_SPLINE_CURVE_WITH_KNOTS('',3,(#392,#393,#394,#395,#396,#397,#398,
#399,#400,#401,#402,#403,#404,#405,#406,#407,#408,#409,#410,#411,#412,#413,
#414,#415,#416,#417,#418,#419,#420,#421,#422,#423,#424,#425),
 .UNSPECIFIED.,.F.,.F.,(4,2,2,2,2,2,2,2,2,2,2,2,2,2,2,2,4),(9.49452234198616,
10.0196057121925,10.5446890823988,11.0697724526051,11.5948558228114,12.1973854541106,
12.7999150854097,13.4024447167088,14.0049743480079,14.607503979307,15.2100336106061,
15.8125632419052,16.4150928732043,16.9401762434106,17.4652596136169,17.9903429838232,
18.5154263540296),.UNSPECIFIED.);
#48=B_SPLINE_CURVE_WITH_KNOTS('',3,(#426,#427,#428,#429,#430,#431,#432,
#433,#434,#435,#436,#437,#438,#439,#440,#441,#442,#443,#444,#445,#446,#447,
#448,#449,#450,#451,#452,#453,#454,#455,#456,#457,#458,#459),
 .UNSPECIFIED.,.F.,.F.,(4,2,2,2,2,2,2,2,2,2,2,2,2,2,2,2,4),(0.,0.583930939677428,
1.16786187935486,1.75179281903228,2.33572375870971,2.93860811178055,3.54149246485139,
4.14437681792224,4.74726117099308,5.35014552406392,5.95302987713476,6.55591423020561,
7.15879858327645,7.74272952295388,8.32666046263131,8.91059140230874,9.49452234198616),
 .UNSPECIFIED.);
#49=B_SPLINE_CURVE_WITH_KNOTS('',3,(#460,#461,#462,#463,#464,#465,#466,
#467,#468,#469,#470,#471,#472,#473,#474,#475,#476,#477,#478,#479,#480,#481,
#482,#483,#484,#485,#486,#487,#488,#489,#490,#491,#492,#493),
 .UNSPECIFIED.,.F.,.F.,(4,2,2,2,2,2,2,2,2,2,2,2,2,2,2,2,4),(8.76465541669048,
9.33253509816408,9.90041477963768,10.4682944611113,11.0361741425849,11.6407955903473,
12.2454170381096,12.850038485872,13.4546599336344,14.0592813813968,14.6639028291592,
15.2685242769216,15.873145724684,16.4410254061576,17.0089050876311,17.5767847691047,
18.1446644505783),.UNSPECIFIED.);
#50=VERTEX_POINT('',#156);
#51=VERTEX_POINT('',#157);
#52=VERTEX_POINT('',#176);
#53=VERTEX_POINT('',#179);
#54=VERTEX_POINT('',#254);
#55=VERTEX_POINT('',#255);
#56=VERTEX_POINT('',#274);
#57=VERTEX_POINT('',#277);
#58=VERTEX_POINT('',#352);
#59=VERTEX_POINT('',#353);
#60=VERTEX_POINT('',#388);
#61=VERTEX_POINT('',#391);
#62=EDGE_CURVE('',#50,#51,#35,.T.);
#63=EDGE_CURVE('',#51,#52,#36,.T.);
#64=EDGE_CURVE('',#52,#53,#37,.T.);
#65=EDGE_CURVE('',#53,#52,#38,.T.);
#66=EDGE_CURVE('',#51,#50,#39,.T.);
#67=EDGE_CURVE('',#54,#55,#40,.T.);
#68=EDGE_CURVE('',#55,#56,#41,.T.);
#69=EDGE_CURVE('',#56,#57,#42,.T.);
#70=EDGE_CURVE('',#57,#56,#43,.T.);
#71=EDGE_CURVE('',#55,#54,#44,.T.);
#72=EDGE_CURVE('',#58,#59,#45,.T.);
#73=EDGE_CURVE('',#59,#60,#46,.T.);
#74=EDGE_CURVE('',#60,#61,#47,.T.);
#75=EDGE_CURVE('',#61,#60,#48,.T.);
#76=EDGE_CURVE('',#59,#58,#49,.T.);
#77=ORIENTED_EDGE('',*,*,#62,.T.);
#78=ORIENTED_EDGE('',*,*,#63,.T.);
#79=ORIENTED_EDGE('',*,*,#64,.T.);
#80=ORIENTED_EDGE('',*,*,#65,.T.);
#81=ORIENTED_EDGE('',*,*,#63,.F.);
#82=ORIENTED_EDGE('',*,*,#66,.T.);
#83=ORIENTED_EDGE('',*,*,#67,.T.);
#84=ORIENTED_EDGE('',*,*,#68,.T.);
#85=ORIENTED_EDGE('',*,*,#69,.T.);
#86=ORIENTED_EDGE('',*,*,#70,.T.);
#87=ORIENTED_EDGE('',*,*,#68,.F.);
#88=ORIENTED_EDGE('',*,*,#71,.T.);
#89=ORIENTED_EDGE('',*,*,#72,.T.);
#90=ORIENTED_EDGE('',*,*,#73,.T.);
#91=ORIENTED_EDGE('',*,*,#74,.T.);
#92=ORIENTED_EDGE('',*,*,#75,.T.);
#93=ORIENTED_EDGE('',*,*,#73,.F.);
#94=ORIENTED_EDGE('',*,*,#76,.T.);
#95=ORIENTED_EDGE('',*,*,#72,.F.);
#96=ORIENTED_EDGE('',*,*,#76,.F.);
#97=ORIENTED_EDGE('',*,*,#67,.F.);
#98=ORIENTED_EDGE('',*,*,#71,.F.);
#99=ORIENTED_EDGE('',*,*,#62,.F.);
#100=ORIENTED_EDGE('',*,*,#66,.F.);
#101=ORIENTED_EDGE('',*,*,#75,.F.);
#102=ORIENTED_EDGE('',*,*,#74,.F.);
#103=ORIENTED_EDGE('',*,*,#70,.F.);
#104=ORIENTED_EDGE('',*,*,#69,.F.);
#105=ORIENTED_EDGE('',*,*,#65,.F.);
#106=ORIENTED_EDGE('',*,*,#64,.F.);
#107=(
BOUNDED_SURFACE()
B_SPLINE_SURFACE(1,2,((#138,#139,#140,#141,#142,#143,#144,#145,#146),(#147,
#148,#149,#150,#151,#152,#153,#154,#155)),.UNSPECIFIED.,.F.,.T.,.F.)
B_SPLINE_SURFACE_WITH_KNOTS((2,2),(3,2,2,2,3),(2.86364154367449,4.3027337587891),
(-3.14159265358979,-1.5707963267949,0.,1.5707963267949,3.14159265358979),
 .UNSPECIFIED.)
GEOMETRIC_REPRESENTATION_ITEM()
RATIONAL_B_SPLINE_SURFACE(((1.,0.707106781186548,1.,0.707106781186548,1.,
0.707106781186548,1.,0.707106781186548,1.),(1.,0.707106781186548,1.,0.707106781186548,
1.,0.707106781186548,1.,0.707106781186548,1.)))
REPRESENTATION_ITEM('')
SURFACE()
);
#108=(
BOUNDED_SURFACE()
B_SPLINE_SURFACE(1,2,((#236,#237,#238,#239,#240,#241,#242,#243,#244),(#245,
#246,#247,#248,#249,#250,#251,#252,#253)),.UNSPECIFIED.,.F.,.T.,.F.)
B_SPLINE_SURFACE_WITH_KNOTS((2,2),(3,2,2,2,3),(2.8669461683863,4.30437972149372),
(-3.14159265358979,-1.5707963267949,0.,1.5707963267949,3.14159265358979),
 .UNSPECIFIED.)
GEOMETRIC_REPRESENTATION_ITEM()
RATIONAL_B_SPLINE_SURFACE(((1.,0.707106781186548,1.,0.707106781186548,1.,
0.707106781186548,1.,0.707106781186548,1.),(1.,0.707106781186548,1.,0.707106781186548,
1.,0.707106781186548,1.,0.707106781186548,1.)))
REPRESENTATION_ITEM('')
SURFACE()
);
#109=(
BOUNDED_SURFACE()
B_SPLINE_SURFACE(1,2,((#334,#335,#336,#337,#338,#339,#340,#341,#342),(#343,
#344,#345,#346,#347,#348,#349,#350,#351)),.UNSPECIFIED.,.F.,.T.,.F.)
B_SPLINE_SURFACE_WITH_KNOTS((2,2),(3,2,2,2,3),(0.319741098788266,1.70366453635792),
(-3.14159265358979,-1.5707963267949,0.,1.5707963267949,3.14159265358979),
 .UNSPECIFIED.)
GEOMETRIC_REPRESENTATION_ITEM()
RATIONAL_B_SPLINE_SURFACE(((1.,0.707106781186548,1.,0.707106781186548,1.,
0.707106781186548,1.,0.707106781186548,1.),(1.,0.707106781186548,1.,0.707106781186548,
1.,0.707106781186548,1.,0.707106781186548,1.)))
REPRESENTATION_ITEM('')
SURFACE()
);
#110=ADVANCED_FACE('',(#21),#107,.T.);
#111=ADVANCED_FACE('',(#22),#108,.T.);
#112=ADVANCED_FACE('',(#23),#109,.F.);
#113=ADVANCED_FACE('',(#24,#15,#16),#19,.T.);
#114=ADVANCED_FACE('',(#25,#17,#18),#20,.F.);
#115=CLOSED_SHELL('',(#110,#111,#112,#113,#114));
#116=DERIVED_UNIT_ELEMENT(#118,1.);
#117=DERIVED_UNIT_ELEMENT(#501,-3.);
#118=(
MASS_UNIT()
NAMED_UNIT(*)
SI_UNIT(.KILO.,.GRAM.)
);
#119=DERIVED_UNIT((#116,#117));
#120=MEASURE_REPRESENTATION_ITEM('density measure',
POSITIVE_RATIO_MEASURE(7850.),#119);
#121=PROPERTY_DEFINITION_REPRESENTATION(#126,#123);
#122=PROPERTY_DEFINITION_REPRESENTATION(#127,#124);
#123=REPRESENTATION('material name',(#125),#498);
#124=REPRESENTATION('density',(#120),#498);
#125=DESCRIPTIVE_REPRESENTATION_ITEM('Acero','Acero');
#126=PROPERTY_DEFINITION('material property','material name',#508);
#127=PROPERTY_DEFINITION('material property','density of part',#508);
#128=AXIS2_PLACEMENT_3D('',#137,#131,#132);
#129=AXIS2_PLACEMENT_3D('',#494,#133,#134);
#130=AXIS2_PLACEMENT_3D('',#495,#135,#136);
#131=DIRECTION('axis',(0.,0.,1.));
#132=DIRECTION('refdir',(1.,0.,0.));
#133=DIRECTION('center_axis',(6.12323399573677E-17,0.,1.));
#134=DIRECTION('ref_axis',(1.,0.,0.));
#135=DIRECTION('center_axis',(6.12323399573677E-17,0.,1.));
#136=DIRECTION('ref_axis',(1.,0.,0.));
#137=CARTESIAN_POINT('',(0.,0.,0.));
#138=CARTESIAN_POINT('Ctrl Pts',(45.6999990902841,28.6364154367449,6.33974562687948));
#139=CARTESIAN_POINT('Ctrl Pts',(41.3698720713619,28.6364154367449,3.83974562687948));
#140=CARTESIAN_POINT('Ctrl Pts',(36.3698720713619,28.6364154367449,12.4999996647239));
#141=CARTESIAN_POINT('Ctrl Pts',(31.3698720713619,28.6364154367449,21.1602537025683));
#142=CARTESIAN_POINT('Ctrl Pts',(35.6999990902841,28.6364154367449,23.6602537025683));
#143=CARTESIAN_POINT('Ctrl Pts',(40.0301261092063,28.6364154367449,26.1602537025683));
#144=CARTESIAN_POINT('Ctrl Pts',(45.0301261092063,28.6364154367449,17.4999996647239));
#145=CARTESIAN_POINT('Ctrl Pts',(50.0301261092063,28.6364154367449,8.83974562687948));
#146=CARTESIAN_POINT('Ctrl Pts',(45.6999990902841,28.6364154367449,6.33974562687948));
#147=CARTESIAN_POINT('Ctrl Pts',(45.6999990902841,43.027337587891,6.33974562687948));
#148=CARTESIAN_POINT('Ctrl Pts',(41.3698720713619,43.027337587891,3.83974562687948));
#149=CARTESIAN_POINT('Ctrl Pts',(36.3698720713619,43.027337587891,12.4999996647239));
#150=CARTESIAN_POINT('Ctrl Pts',(31.3698720713619,43.027337587891,21.1602537025683));
#151=CARTESIAN_POINT('Ctrl Pts',(35.6999990902841,43.027337587891,23.6602537025683));
#152=CARTESIAN_POINT('Ctrl Pts',(40.0301261092063,43.027337587891,26.1602537025683));
#153=CARTESIAN_POINT('Ctrl Pts',(45.0301261092063,43.027337587891,17.4999996647239));
#154=CARTESIAN_POINT('Ctrl Pts',(50.0301261092063,43.027337587891,8.83974562687948));
#155=CARTESIAN_POINT('Ctrl Pts',(45.6999990902841,43.027337587891,6.33974562687948));
#156=CARTESIAN_POINT('',(35.6999990902841,38.3660326289261,23.6602537025683));
#157=CARTESIAN_POINT('',(45.6999990902841,34.3157064408486,6.33974562687948));
#158=CARTESIAN_POINT('Ctrl Pts',(35.6999990902841,38.3660326289261,23.6602537025683));
#159=CARTESIAN_POINT('Ctrl Pts',(36.2354797320749,37.6771039566289,23.969413595252));
#160=CARTESIAN_POINT('Ctrl Pts',(36.9054845868792,36.9534295895941,24.0756902066206));
#161=CARTESIAN_POINT('Ctrl Pts',(38.3225476161222,35.615030137366,23.8780565054026));
#162=CARTESIAN_POINT('Ctrl Pts',(39.0681988262822,34.9983168693647,23.5775443770999));
#163=CARTESIAN_POINT('Ctrl Pts',(40.7176732705536,33.7345773385167,22.6305781899226));
#164=CARTESIAN_POINT('Ctrl Pts',(41.7203129185742,33.0601189849644,21.790696151759));
#165=CARTESIAN_POINT('Ctrl Pts',(43.5462973893472,31.9401266799343,19.7974419419317));
#166=CARTESIAN_POINT('Ctrl Pts',(44.3693679058591,31.4934398982205,18.6444664444391));
#167=CARTESIAN_POINT('Ctrl Pts',(45.6437574223364,30.8918644591338,16.4371590532673));
#168=CARTESIAN_POINT('Ctrl Pts',(46.2204250562496,30.6691609131183,15.2026231467997));
#169=CARTESIAN_POINT('Ctrl Pts',(47.0505536763492,30.562804578889,12.6572212219102));
#170=CARTESIAN_POINT('Ctrl Pts',(47.306588214683,30.6784498325391,11.3472246162572));
#171=CARTESIAN_POINT('Ctrl Pts',(47.319588450232,31.3290004015273,9.29494019024927));
#172=CARTESIAN_POINT('Ctrl Pts',(47.189073983711,31.7646577021468,8.44417638770987));
#173=CARTESIAN_POINT('Ctrl Pts',(46.6206106952494,32.9107569216733,7.1068301292259));
#174=CARTESIAN_POINT('Ctrl Pts',(46.1835750557631,33.6201231513057,6.61893834072239));
#175=CARTESIAN_POINT('Ctrl Pts',(45.6999990902841,34.3157064408486,6.33974562687948));
#176=CARTESIAN_POINT('',(45.6999990902841,32.6123858148173,6.33974562687948));
#177=CARTESIAN_POINT('Ctrl Pts',(45.6999990902841,34.3157064408486,6.33974562687948));
#178=CARTESIAN_POINT('Ctrl Pts',(45.6999990902841,32.6123858148173,6.33974562687948));
#179=CARTESIAN_POINT('',(35.6999990902841,36.8504065063578,23.6602537025683));
#180=CARTESIAN_POINT('Ctrl Pts',(45.6999990902841,32.6123858148173,6.33974562687948));
#181=CARTESIAN_POINT('Ctrl Pts',(46.182635428354,31.8818948946555,6.61839584658481));
#182=CARTESIAN_POINT('Ctrl Pts',(46.620880299115,31.131406886182,7.10548214881311));
#183=CARTESIAN_POINT('Ctrl Pts',(47.0493313167387,30.2152497474934,8.11642274252743));
#184=CARTESIAN_POINT('Ctrl Pts',(47.1560149450013,29.9425347480909,8.49879564866914));
#185=CARTESIAN_POINT('Ctrl Pts',(47.2906962745192,29.4831785797419,9.31702134900874));
#186=CARTESIAN_POINT('Ctrl Pts',(47.3187416730455,29.2964257054424,9.75280357415943));
#187=CARTESIAN_POINT('Ctrl Pts',(47.3003452261744,28.756897219067,11.3819062959964));
#188=CARTESIAN_POINT('Ctrl Pts',(47.0433134836017,28.6364154436447,12.6850279131136));
#189=CARTESIAN_POINT('Ctrl Pts',(46.2140071533891,28.7532278928506,15.2166026005204));
#190=CARTESIAN_POINT('Ctrl Pts',(45.6395974674644,28.9903365395824,16.4443643064627));
#191=CARTESIAN_POINT('Ctrl Pts',(44.3682801315616,29.6290746446766,18.6463505247895));
#192=CARTESIAN_POINT('Ctrl Pts',(43.5455872490123,30.1038936971559,19.7977442219246));
#193=CARTESIAN_POINT('Ctrl Pts',(41.7262775064404,31.2851363694661,21.7846567261591));
#194=CARTESIAN_POINT('Ctrl Pts',(40.7298477653903,31.9929686605001,22.6195090866768));
#195=CARTESIAN_POINT('Ctrl Pts',(39.0854561180462,33.3153959009698,23.570393557293));
#196=CARTESIAN_POINT('Ctrl Pts',(38.334513471952,33.9663697229496,23.8749535724823));
#197=CARTESIAN_POINT('Ctrl Pts',(36.9095678617093,35.3732481550183,24.0765387587362));
#198=CARTESIAN_POINT('Ctrl Pts',(36.2370150392198,36.131086271321,23.9703000052454));
#199=CARTESIAN_POINT('Ctrl Pts',(35.6999990902841,36.8504065063578,23.6602537025683));
#200=CARTESIAN_POINT('Ctrl Pts',(35.6999990902841,36.8504065063578,23.6602537025683));
#201=CARTESIAN_POINT('Ctrl Pts',(35.1674421108813,37.5637540565633,23.3527817871512));
#202=CARTESIAN_POINT('Ctrl Pts',(34.7255754349149,38.2983873222865,22.8164622016765));
#203=CARTESIAN_POINT('Ctrl Pts',(34.1772557416902,39.5776868497989,21.4183309751428));
#204=CARTESIAN_POINT('Ctrl Pts',(34.0682761862436,40.1229899821762,20.5580945914372));
#205=CARTESIAN_POINT('Ctrl Pts',(34.114176002877,41.0493238309952,18.5737693250711));
#206=CARTESIAN_POINT('Ctrl Pts',(34.3609410504487,41.4000849218591,17.3021643981217));
#207=CARTESIAN_POINT('Ctrl Pts',(35.1812777483851,41.6811103926441,14.7975986796442));
#208=CARTESIAN_POINT('Ctrl Pts',(35.7552331600156,41.6097851532999,13.5645854874844));
#209=CARTESIAN_POINT('Ctrl Pts',(37.0303300417413,41.1563446016277,11.356052903763));
#210=CARTESIAN_POINT('Ctrl Pts',(37.8419332315897,40.71557055701,10.2248455448419));
#211=CARTESIAN_POINT('Ctrl Pts',(39.5854278369886,39.4761450065799,8.30330905632607));
#212=CARTESIAN_POINT('Ctrl Pts',(40.5171367380632,38.6777998545403,7.51261675333482));
#213=CARTESIAN_POINT('Ctrl Pts',(42.1177434024363,37.1093721522131,6.51715791068785));
#214=CARTESIAN_POINT('Ctrl Pts',(42.9076749438273,36.2559065559732,6.17135779585242));
#215=CARTESIAN_POINT('Ctrl Pts',(44.4067824331759,34.4484631839535,5.91490021229522));
#216=CARTESIAN_POINT('Ctrl Pts',(45.1166795528289,33.4952651010477,6.00296593490614));
#217=CARTESIAN_POINT('Ctrl Pts',(45.6999990902841,32.6123858148173,6.33974562687948));
#218=CARTESIAN_POINT('Ctrl Pts',(45.6999990902841,34.3157064408486,6.33974562687948));
#219=CARTESIAN_POINT('Ctrl Pts',(45.1166695414893,35.1547768566754,6.00296015485652));
#220=CARTESIAN_POINT('Ctrl Pts',(44.4092632610487,36.0607129272835,5.91599095546773));
#221=CARTESIAN_POINT('Ctrl Pts',(42.9219616310141,37.7786292038274,6.16741553843528));
#222=CARTESIAN_POINT('Ctrl Pts',(42.1413470510438,38.5898156355822,6.5069758655333));
#223=CARTESIAN_POINT('Ctrl Pts',(40.5388804835114,40.1059927218921,7.49373127554348));
#224=CARTESIAN_POINT('Ctrl Pts',(39.5983051704404,40.8846954052051,8.29042890001701));
#225=CARTESIAN_POINT('Ctrl Pts',(37.8440288611171,42.0912240173318,10.2212348752824));
#226=CARTESIAN_POINT('Ctrl Pts',(37.0305049243154,42.5186563583826,11.3557499982593));
#227=CARTESIAN_POINT('Ctrl Pts',(35.7531588445093,42.9584986636076,13.5681783073323));
#228=CARTESIAN_POINT('Ctrl Pts',(35.1778945973732,43.0273376510596,14.8047783263913));
#229=CARTESIAN_POINT('Ctrl Pts',(34.3565841830795,42.751691837555,17.3186455372366));
#230=CARTESIAN_POINT('Ctrl Pts',(34.1099344220469,42.408972947805,18.5959088137005));
#231=CARTESIAN_POINT('Ctrl Pts',(34.0707221004382,41.5085166827335,20.5750103248426));
#232=CARTESIAN_POINT('Ctrl Pts',(34.1796329980494,40.9860273668057,21.4261998563701));
#233=CARTESIAN_POINT('Ctrl Pts',(34.7259149765734,39.7586096564507,22.8155118001931));
#234=CARTESIAN_POINT('Ctrl Pts',(35.1660298262793,39.0530168210492,23.3519664042561));
#235=CARTESIAN_POINT('Ctrl Pts',(35.6999990902841,38.3660326289261,23.6602537025683));
#236=CARTESIAN_POINT('Ctrl Pts',(45.6798996480446,28.669461683863,-6.33967041384734));
#237=CARTESIAN_POINT('Ctrl Pts',(50.0100266669668,28.669461683863,-8.83967041384734));
#238=CARTESIAN_POINT('Ctrl Pts',(45.0100266669668,28.669461683863,-17.4999244516917));
#239=CARTESIAN_POINT('Ctrl Pts',(40.0100266669668,28.669461683863,-26.1601784895361));
#240=CARTESIAN_POINT('Ctrl Pts',(35.6798996480446,28.669461683863,-23.6601784895361));
#241=CARTESIAN_POINT('Ctrl Pts',(31.3497726291224,28.669461683863,-21.1601784895361));
#242=CARTESIAN_POINT('Ctrl Pts',(36.3497726291224,28.669461683863,-12.4999244516917));
#243=CARTESIAN_POINT('Ctrl Pts',(41.3497726291224,28.669461683863,-3.83967041384735));
#244=CARTESIAN_POINT('Ctrl Pts',(45.6798996480446,28.669461683863,-6.33967041384734));
#245=CARTESIAN_POINT('Ctrl Pts',(45.6798996480446,43.0437972149372,-6.33967041384734));
#246=CARTESIAN_POINT('Ctrl Pts',(50.0100266669668,43.0437972149372,-8.83967041384734));
#247=CARTESIAN_POINT('Ctrl Pts',(45.0100266669668,43.0437972149372,-17.4999244516917));
#248=CARTESIAN_POINT('Ctrl Pts',(40.0100266669668,43.0437972149372,-26.1601784895361));
#249=CARTESIAN_POINT('Ctrl Pts',(35.6798996480446,43.0437972149372,-23.6601784895361));
#250=CARTESIAN_POINT('Ctrl Pts',(31.3497726291224,43.0437972149372,-21.1601784895361));
#251=CARTESIAN_POINT('Ctrl Pts',(36.3497726291224,43.0437972149372,-12.4999244516917));
#252=CARTESIAN_POINT('Ctrl Pts',(41.3497726291224,43.0437972149372,-3.83967041384735));
#253=CARTESIAN_POINT('Ctrl Pts',(45.6798996480446,43.0437972149372,-6.33967041384734));
#254=CARTESIAN_POINT('',(35.6798996480446,38.384771914768,-23.6601784895361));
#255=CARTESIAN_POINT('',(45.6798996480446,34.3424714775796,-6.33967041384734));
#256=CARTESIAN_POINT('Ctrl Pts',(35.6798996480446,38.384771914768,-23.6601784895361));
#257=CARTESIAN_POINT('Ctrl Pts',(35.1458685895278,39.0712199485217,-23.3518555141458));
#258=CARTESIAN_POINT('Ctrl Pts',(34.7057971057393,39.7762411042187,-22.8153756842926));
#259=CARTESIAN_POINT('Ctrl Pts',(34.1595731175304,41.0027183362084,-21.4262392922969));
#260=CARTESIAN_POINT('Ctrl Pts',(34.0506726074037,41.5248382453381,-20.5752513183575));
#261=CARTESIAN_POINT('Ctrl Pts',(34.0897490215349,42.4250197139689,-18.5963259384027));
#262=CARTESIAN_POINT('Ctrl Pts',(34.3363797252514,42.7677907921771,-17.3189751883199));
#263=CARTESIAN_POINT('Ctrl Pts',(35.1576969609358,43.043797277981,-14.8049202543559));
#264=CARTESIAN_POINT('Ctrl Pts',(35.7329914083616,42.9752641889085,-13.5682208632038));
#265=CARTESIAN_POINT('Ctrl Pts',(37.0103866270181,42.5361775136073,-11.3557074431452));
#266=CARTESIAN_POINT('Ctrl Pts',(37.8239361868422,42.1093019692468,-10.2211309322744));
#267=CARTESIAN_POINT('Ctrl Pts',(39.5784429544608,40.9039832267485,-8.29011387283576));
#268=CARTESIAN_POINT('Ctrl Pts',(40.5192231689407,40.1259359283465,-7.49326543935169));
#269=CARTESIAN_POINT('Ctrl Pts',(42.1217715580354,38.6112101230775,-6.50667304507157));
#270=CARTESIAN_POINT('Ctrl Pts',(42.9021969677024,37.8010731911218,-6.1672461015812));
#271=CARTESIAN_POINT('Ctrl Pts',(44.3892474803421,36.0853285223943,-5.91593924016865));
#272=CARTESIAN_POINT('Ctrl Pts',(45.0965917830453,35.1805146650482,-6.00289746096962));
#273=CARTESIAN_POINT('Ctrl Pts',(45.6798996480446,34.3424714775796,-6.33967041384734));
#274=CARTESIAN_POINT('',(45.6798996480446,32.6405475932676,-6.33967041384735));
#275=CARTESIAN_POINT('Ctrl Pts',(45.6798996480446,34.3424714775796,-6.33967041384734));
#276=CARTESIAN_POINT('Ctrl Pts',(45.6798996480446,32.6405475932676,-6.33967041384734));
#277=CARTESIAN_POINT('',(35.6798996480446,36.86991612343,-23.6601784895361));
#278=CARTESIAN_POINT('Ctrl Pts',(45.6798996480446,32.6405475932676,-6.33967041384735));
#279=CARTESIAN_POINT('Ctrl Pts',(45.0965952360878,33.5222823070279,-6.00289945458458));
#280=CARTESIAN_POINT('Ctrl Pts',(44.3867608894079,34.4742306891988,-5.91485069843675));
#281=CARTESIAN_POINT('Ctrl Pts',(42.8879289518997,36.279258977932,-6.17118310207292));
#282=CARTESIAN_POINT('Ctrl Pts',(42.0982100695969,37.1315589224402,-6.51683632960824));
#283=CARTESIAN_POINT('Ctrl Pts',(40.4975314482145,38.6984223146808,-7.51210653750541));
#284=CARTESIAN_POINT('Ctrl Pts',(39.5655981342033,39.4960885249317,-8.30296118401727));
#285=CARTESIAN_POINT('Ctrl Pts',(37.8218477727043,40.7342540165236,-10.2247302989138));
#286=CARTESIAN_POINT('Ctrl Pts',(37.0102127430348,41.1744448491411,-11.3560086190388));
#287=CARTESIAN_POINT('Ctrl Pts',(35.735060997399,41.6270964204517,-13.5646362298402));
#288=CARTESIAN_POINT('Ctrl Pts',(35.1610732933051,41.6981037676331,-14.7977555131375));
#289=CARTESIAN_POINT('Ctrl Pts',(34.3407288525948,41.4167064658436,-17.3025220296741));
#290=CARTESIAN_POINT('Ctrl Pts',(34.0939839651836,41.0658943253009,-18.5742207798422));
#291=CARTESIAN_POINT('Ctrl Pts',(34.0482297506486,40.1398624970337,-20.5583506326743));
#292=CARTESIAN_POINT('Ctrl Pts',(34.1571967708364,39.594967985312,-21.4183711584901));
#293=CARTESIAN_POINT('Ctrl Pts',(34.705453737122,38.3166976144881,-22.8163180400059));
#294=CARTESIAN_POINT('Ctrl Pts',(35.1472754462339,37.5826852182733,-23.3526677632438));
#295=CARTESIAN_POINT('Ctrl Pts',(35.6798996480446,36.86991612343,-23.6601784895361));
#296=CARTESIAN_POINT('Ctrl Pts',(35.6798996480446,36.86991612343,-23.6601784895361));
#297=CARTESIAN_POINT('Ctrl Pts',(36.2168466747002,36.1513621319533,-23.9701849999163));
#298=CARTESIAN_POINT('Ctrl Pts',(36.8893244089225,35.394403502594,-24.0764433341369));
#299=CARTESIAN_POINT('Ctrl Pts',(38.3141008326022,33.9893657786771,-23.8749632382035));
#300=CARTESIAN_POINT('Ctrl Pts',(39.0649500215312,33.3393513220543,-23.5704914930615));
#301=CARTESIAN_POINT('Ctrl Pts',(40.7095089711494,32.0187244571418,-22.6196613674136));
#302=CARTESIAN_POINT('Ctrl Pts',(41.7060910346979,31.3120139516201,-21.78467403957));
#303=CARTESIAN_POINT('Ctrl Pts',(43.5255468019119,30.1329354499954,-19.7976070994188));
#304=CARTESIAN_POINT('Ctrl Pts',(44.3482313242838,29.6591635578726,-18.6461876094312));
#305=CARTESIAN_POINT('Ctrl Pts',(45.6196256814332,29.0219258173666,-16.444067986392));
#306=CARTESIAN_POINT('Ctrl Pts',(46.1940980975563,28.7854713680548,-15.2161069053952));
#307=CARTESIAN_POINT('Ctrl Pts',(47.0234146942666,28.6694616906295,-12.6841794036811));
#308=CARTESIAN_POINT('Ctrl Pts',(47.2804014620517,28.7900742873038,-11.3809075878262));
#309=CARTESIAN_POINT('Ctrl Pts',(47.298598042206,29.329219598165,-9.75193559330489));
#310=CARTESIAN_POINT('Ctrl Pts',(47.2705315817501,29.5156951286404,-9.31638066770999));
#311=CARTESIAN_POINT('Ctrl Pts',(47.1358493069929,29.9743521041838,-8.49848749699804));
#312=CARTESIAN_POINT('Ctrl Pts',(47.0291849666869,30.2466463621514,-8.11622051186701));
#313=CARTESIAN_POINT('Ctrl Pts',(46.6007923665863,31.1614514024792,-7.10546676990748));
#314=CARTESIAN_POINT('Ctrl Pts',(46.1625765131849,31.9109235088285,-6.61834403186773));
#315=CARTESIAN_POINT('Ctrl Pts',(45.6798996480446,32.6405475932676,-6.33967041384734));
#316=CARTESIAN_POINT('Ctrl Pts',(45.6798996480446,34.3424714775796,-6.33967041384734));
#317=CARTESIAN_POINT('Ctrl Pts',(46.1635206816489,33.6476491773022,-6.61888914778454));
#318=CARTESIAN_POINT('Ctrl Pts',(46.6005271020691,32.9391750317817,-7.10681756768635));
#319=CARTESIAN_POINT('Ctrl Pts',(47.1689156255688,31.7946309471783,-8.44393720644734));
#320=CARTESIAN_POINT('Ctrl Pts',(47.2994001550001,31.3596129316151,-9.29440972794622));
#321=CARTESIAN_POINT('Ctrl Pts',(47.2866235531301,30.7095436828186,-11.3463400035078));
#322=CARTESIAN_POINT('Ctrl Pts',(47.0306285122616,30.5937737328026,-12.6564696442921));
#323=CARTESIAN_POINT('Ctrl Pts',(46.2004914757217,30.699405615057,-15.2021812781299));
#324=CARTESIAN_POINT('Ctrl Pts',(45.6237691018468,30.9215227101332,-16.4368913717184));
#325=CARTESIAN_POINT('Ctrl Pts',(44.349311203191,31.5217550750271,-18.6443172042977));
#326=CARTESIAN_POINT('Ctrl Pts',(43.5262478913656,31.967509116882,-19.7973153079768));
#327=CARTESIAN_POINT('Ctrl Pts',(41.7001291808036,33.0855524096776,-21.7907098576172));
#328=CARTESIAN_POINT('Ctrl Pts',(40.6973505678839,33.7589893782794,-22.63071594391));
#329=CARTESIAN_POINT('Ctrl Pts',(39.0477210806277,35.0210909018241,-23.5776285297623));
#330=CARTESIAN_POINT('Ctrl Pts',(38.3021605200441,35.6369359664872,-23.8780582370719));
#331=CARTESIAN_POINT('Ctrl Pts',(36.8852563928145,36.9736649983968,-24.0755961126281));
#332=CARTESIAN_POINT('Ctrl Pts',(36.2153192298364,37.6965390614672,-23.969303129213));
#333=CARTESIAN_POINT('Ctrl Pts',(35.6798996480446,38.384771914768,-23.6601784895361));
#334=CARTESIAN_POINT('Ctrl Pts',(37.14738815,10.2033286312055,31.911220265));
#335=CARTESIAN_POINT('Ctrl Pts',(55.57082128,10.2033286312055,31.911220265));
#336=CARTESIAN_POINT('Ctrl Pts',(55.57082128,10.2033286312055,3.66188281785912E-15));
#337=CARTESIAN_POINT('Ctrl Pts',(55.57082128,10.2033286312055,-31.911220265));
#338=CARTESIAN_POINT('Ctrl Pts',(37.14738815,10.2033286312055,-31.911220265));
#339=CARTESIAN_POINT('Ctrl Pts',(18.72395502,10.2033286312055,-31.911220265));
#340=CARTESIAN_POINT('Ctrl Pts',(18.72395502,10.2033286312055,2.93006637653892E-14));
#341=CARTESIAN_POINT('Ctrl Pts',(18.72395502,10.2033286312055,31.911220265));
#342=CARTESIAN_POINT('Ctrl Pts',(37.14738815,10.2033286312055,31.911220265));
#343=CARTESIAN_POINT('Ctrl Pts',(37.14738815,54.3660142773867,31.911220265));
#344=CARTESIAN_POINT('Ctrl Pts',(55.57082128,54.3660142773867,31.911220265));
#345=CARTESIAN_POINT('Ctrl Pts',(55.57082128,54.3660142773867,3.66188281785912E-15));
#346=CARTESIAN_POINT('Ctrl Pts',(55.57082128,54.3660142773867,-31.911220265));
#347=CARTESIAN_POINT('Ctrl Pts',(37.14738815,54.3660142773867,-31.911220265));
#348=CARTESIAN_POINT('Ctrl Pts',(18.72395502,54.3660142773867,-31.911220265));
#349=CARTESIAN_POINT('Ctrl Pts',(18.72395502,54.3660142773867,2.93006637653892E-14));
#350=CARTESIAN_POINT('Ctrl Pts',(18.72395502,54.3660142773867,31.911220265));
#351=CARTESIAN_POINT('Ctrl Pts',(37.14738815,54.3660142773867,31.911220265));
#352=CARTESIAN_POINT('',(37.14738815,30.1329649193685,-31.911220265));
#353=CARTESIAN_POINT('',(37.14738815,30.1329649193684,31.911220265));
#354=CARTESIAN_POINT('Ctrl Pts',(37.14738815,30.1329649193685,-31.911220265));
#355=CARTESIAN_POINT('Ctrl Pts',(38.1740390097836,28.8673278310513,-31.911220265));
#356=CARTESIAN_POINT('Ctrl Pts',(39.2498189565987,27.5661922608309,-31.7600900867927));
#357=CARTESIAN_POINT('Ctrl Pts',(41.4191939601669,25.0275904323502,-31.1001069941675));
#358=CARTESIAN_POINT('Ctrl Pts',(42.5129973958756,23.790271166688,-30.5913736528889));
#359=CARTESIAN_POINT('Ctrl Pts',(44.6443310770389,21.5049809024614,-29.2161529090607));
#360=CARTESIAN_POINT('Ctrl Pts',(45.6850718225917,20.4546353110448,-28.3471500095593));
#361=CARTESIAN_POINT('Ctrl Pts',(47.643406505201,18.6400936209314,-26.3007895925341));
#362=CARTESIAN_POINT('Ctrl Pts',(48.5610771268016,17.8771038086042,-25.1224361264674));
#363=CARTESIAN_POINT('Ctrl Pts',(50.408578433773,16.5219876961616,-22.2786598991666));
#364=CARTESIAN_POINT('Ctrl Pts',(51.3245965090112,15.9880648834632,-20.5125689115353));
#365=CARTESIAN_POINT('Ctrl Pts',(52.8975702528157,15.261469134482,-16.7192263598626));
#366=CARTESIAN_POINT('Ctrl Pts',(53.5541914733878,15.0647057043075,-14.6926207624965));
#367=CARTESIAN_POINT('Ctrl Pts',(54.5888215139799,14.8365930515681,-10.5264409713288));
#368=CARTESIAN_POINT('Ctrl Pts',(54.9673777916397,14.8020542725941,-8.38553438607974));
#369=CARTESIAN_POINT('Ctrl Pts',(55.458448974947,14.7683993247146,-4.1334534709807));
#370=CARTESIAN_POINT('Ctrl Pts',(55.57082128,14.7693541587403,-2.02226211176851));
#371=CARTESIAN_POINT('Ctrl Pts',(55.57082128,14.7693541587403,2.02226211176852));
#372=CARTESIAN_POINT('Ctrl Pts',(55.458448974947,14.7683993247146,4.13345347098071));
#373=CARTESIAN_POINT('Ctrl Pts',(54.9673777916397,14.802054272594,8.38553438607974));
#374=CARTESIAN_POINT('Ctrl Pts',(54.5888215139799,14.836593051568,10.5264409713288));
#375=CARTESIAN_POINT('Ctrl Pts',(53.5541914733879,15.0647057043073,14.6926207624965));
#376=CARTESIAN_POINT('Ctrl Pts',(52.8975702528157,15.2614691344819,16.7192263598626));
#377=CARTESIAN_POINT('Ctrl Pts',(51.3245965090112,15.9880648834631,20.5125689115353));
#378=CARTESIAN_POINT('Ctrl Pts',(50.4085784337731,16.5219876961614,22.2786598991666));
#379=CARTESIAN_POINT('Ctrl Pts',(48.5610771268016,17.877103808604,25.1224361264674));
#380=CARTESIAN_POINT('Ctrl Pts',(47.643406505201,18.6400936209312,26.3007895925341));
#381=CARTESIAN_POINT('Ctrl Pts',(45.6850718225917,20.4546353110447,28.3471500095593));
#382=CARTESIAN_POINT('Ctrl Pts',(44.6443310770389,21.5049809024612,29.2161529090607));
#383=CARTESIAN_POINT('Ctrl Pts',(42.5129973958756,23.7902711666879,30.5913736528889));
#384=CARTESIAN_POINT('Ctrl Pts',(41.419193960167,25.0275904323501,31.1001069941675));
#385=CARTESIAN_POINT('Ctrl Pts',(39.2498189565987,27.5661922608308,31.7600900867927));
#386=CARTESIAN_POINT('Ctrl Pts',(38.1740390097837,28.8673278310512,31.911220265));
#387=CARTESIAN_POINT('Ctrl Pts',(37.14738815,30.1329649193684,31.911220265));
#388=CARTESIAN_POINT('',(37.14738815,28.1779270854314,31.911220265));
#389=CARTESIAN_POINT('Ctrl Pts',(37.14738815,30.1329649193684,31.911220265));
#390=CARTESIAN_POINT('Ctrl Pts',(37.14738815,28.1779270854314,31.911220265));
#391=CARTESIAN_POINT('',(37.14738815,28.1779270854315,-31.911220265));
#392=CARTESIAN_POINT('Ctrl Pts',(37.14738815,28.1779270854314,31.911220265));
#393=CARTESIAN_POINT('Ctrl Pts',(38.2051645411696,26.7834444444781,31.911220265));
#394=CARTESIAN_POINT('Ctrl Pts',(39.3083344786109,25.3444796899835,31.7508409081111));
#395=CARTESIAN_POINT('Ctrl Pts',(41.5234256388632,22.5107846914549,31.0591919472676));
#396=CARTESIAN_POINT('Ctrl Pts',(42.635415009811,21.1160253482805,30.5282598588587));
#397=CARTESIAN_POINT('Ctrl Pts',(44.7953814400322,18.4976860427496,29.1006735709668));
#398=CARTESIAN_POINT('Ctrl Pts',(45.8455572282275,17.2719268222388,28.2026841708923));
#399=CARTESIAN_POINT('Ctrl Pts',(47.8227965542776,15.1009858655545,26.085749438708));
#400=CARTESIAN_POINT('Ctrl Pts',(48.750201301579,14.1570936415402,24.8658007192575));
#401=CARTESIAN_POINT('Ctrl Pts',(50.5515137672521,12.5073817280989,22.0089449466495));
#402=CARTESIAN_POINT('Ctrl Pts',(51.4282453652538,11.8318057057249,20.2892471958949));
#403=CARTESIAN_POINT('Ctrl Pts',(52.9475072831978,10.8870532194789,16.5693435016255));
#404=CARTESIAN_POINT('Ctrl Pts',(53.5894060410676,10.6149020958153,14.5696357384654));
#405=CARTESIAN_POINT('Ctrl Pts',(54.6029538412074,10.3002094385211,10.4497841712413));
#406=CARTESIAN_POINT('Ctrl Pts',(54.9758688383193,10.2508121626883,8.32690466673381));
#407=CARTESIAN_POINT('Ctrl Pts',(55.4598378408973,10.203328651261,4.10622904224834));
#408=CARTESIAN_POINT('Ctrl Pts',(55.57082128,10.2045980943053,2.00843210433036));
#409=CARTESIAN_POINT('Ctrl Pts',(55.57082128,10.2045980943053,-2.00843210433034));
#410=CARTESIAN_POINT('Ctrl Pts',(55.4598378408973,10.2033286512611,-4.10622904224833));
#411=CARTESIAN_POINT('Ctrl Pts',(54.9758688383193,10.2508121626884,-8.32690466673381));
#412=CARTESIAN_POINT('Ctrl Pts',(54.6029538412074,10.3002094385212,-10.4497841712413));
#413=CARTESIAN_POINT('Ctrl Pts',(53.5894060410675,10.6149020958154,-14.5696357384654));
#414=CARTESIAN_POINT('Ctrl Pts',(52.9475072831977,10.887053219479,-16.5693435016255));
#415=CARTESIAN_POINT('Ctrl Pts',(51.4282453652538,11.8318057057249,-20.289247195895));
#416=CARTESIAN_POINT('Ctrl Pts',(50.551513767252,12.507381728099,-22.0089449466495));
#417=CARTESIAN_POINT('Ctrl Pts',(48.7502013015789,14.1570936415403,-24.8658007192575));
#418=CARTESIAN_POINT('Ctrl Pts',(47.8227965542776,15.1009858655547,-26.085749438708));
#419=CARTESIAN_POINT('Ctrl Pts',(45.8455572282275,17.2719268222389,-28.2026841708923));
#420=CARTESIAN_POINT('Ctrl Pts',(44.7953814400322,18.4976860427497,-29.1006735709668));
#421=CARTESIAN_POINT('Ctrl Pts',(42.635415009811,21.1160253482807,-30.5282598588587));
#422=CARTESIAN_POINT('Ctrl Pts',(41.5234256388631,22.510784691455,-31.0591919472676));
#423=CARTESIAN_POINT('Ctrl Pts',(39.3083344786109,25.3444796899836,-31.7508409081111));
#424=CARTESIAN_POINT('Ctrl Pts',(38.2051645411696,26.7834444444782,-31.911220265));
#425=CARTESIAN_POINT('Ctrl Pts',(37.14738815,28.1779270854315,-31.911220265));
#426=CARTESIAN_POINT('Ctrl Pts',(37.14738815,28.1779270854315,-31.911220265));
#427=CARTESIAN_POINT('Ctrl Pts',(35.9710637849348,29.7286933162794,-31.911220265));
#428=CARTESIAN_POINT('Ctrl Pts',(34.7665454338675,31.3360074743352,-31.713417890285));
#429=CARTESIAN_POINT('Ctrl Pts',(32.3847580901711,34.5388340537894,-30.8981440505172));
#430=CARTESIAN_POINT('Ctrl Pts',(31.2074323812598,36.1343306887819,-30.2807762666482));
#431=CARTESIAN_POINT('Ctrl Pts',(28.9566339591714,39.1985692612913,-28.6619018749686));
#432=CARTESIAN_POINT('Ctrl Pts',(27.8815060985619,40.6695679192536,-27.6590907165867));
#433=CARTESIAN_POINT('Ctrl Pts',(25.8964633785555,43.3929995461365,-25.3542543018608));
#434=CARTESIAN_POINT('Ctrl Pts',(24.9866207682335,44.6453368753382,-24.0520538163923));
#435=CARTESIAN_POINT('Ctrl Pts',(23.3502856961431,46.9012976188901,-21.2443166529908));
#436=CARTESIAN_POINT('Ctrl Pts',(22.5723525524667,47.976067130816,-19.63346994115));
#437=CARTESIAN_POINT('Ctrl Pts',(21.2032300385997,49.8698080223069,-16.128004921224));
#438=CARTESIAN_POINT('Ctrl Pts',(20.6119433882226,50.6888858803529,-14.2334821321717));
#439=CARTESIAN_POINT('Ctrl Pts',(19.6631758303458,52.0039448574932,-10.2838033412401));
#440=CARTESIAN_POINT('Ctrl Pts',(19.3049611900834,52.5009403368987,-8.22556514282606));
#441=CARTESIAN_POINT('Ctrl Pts',(18.8352981422479,53.152666868756,-4.0884879062617));
#442=CARTESIAN_POINT('Ctrl Pts',(18.72395502,53.3072556825899,-2.00961451023611));
#443=CARTESIAN_POINT('Ctrl Pts',(18.72395502,53.3072556825899,2.00961451023617));
#444=CARTESIAN_POINT('Ctrl Pts',(18.8352981422479,53.152666868756,4.08848790626176));
#445=CARTESIAN_POINT('Ctrl Pts',(19.3049611900834,52.5009403368987,8.22556514282612));
#446=CARTESIAN_POINT('Ctrl Pts',(19.6631758303458,52.0039448574932,10.2838033412401));
#447=CARTESIAN_POINT('Ctrl Pts',(20.6119433882226,50.6888858803529,14.2334821321717));
#448=CARTESIAN_POINT('Ctrl Pts',(21.2032300385997,49.8698080223069,16.128004921224));
#449=CARTESIAN_POINT('Ctrl Pts',(22.5723525524667,47.976067130816,19.63346994115));
#450=CARTESIAN_POINT('Ctrl Pts',(23.3502856961431,46.90129761889,21.2443166529909));
#451=CARTESIAN_POINT('Ctrl Pts',(24.9866207682336,44.6453368753382,24.0520538163923));
#452=CARTESIAN_POINT('Ctrl Pts',(25.8964633785555,43.3929995461365,25.3542543018609));
#453=CARTESIAN_POINT('Ctrl Pts',(27.8815060985619,40.6695679192536,27.6590907165867));
#454=CARTESIAN_POINT('Ctrl Pts',(28.9566339591714,39.1985692612913,28.6619018749686));
#455=CARTESIAN_POINT('Ctrl Pts',(31.2074323812598,36.1343306887818,30.2807762666482));
#456=CARTESIAN_POINT('Ctrl Pts',(32.3847580901711,34.5388340537893,30.8981440505173));
#457=CARTESIAN_POINT('Ctrl Pts',(34.7665454338676,31.3360074743351,31.713417890285));
#458=CARTESIAN_POINT('Ctrl Pts',(35.9710637849348,29.7286933162793,31.911220265));
#459=CARTESIAN_POINT('Ctrl Pts',(37.14738815,28.1779270854314,31.911220265));
#460=CARTESIAN_POINT('Ctrl Pts',(37.14738815,30.1329649193684,31.911220265));
#461=CARTESIAN_POINT('Ctrl Pts',(35.9548943154867,31.6030503044504,31.911220265));
#462=CARTESIAN_POINT('Ctrl Pts',(34.7438476241906,33.1301314371946,31.7083582523676));
#463=CARTESIAN_POINT('Ctrl Pts',(32.3613404174758,36.1783751756772,30.8873656350204));
#464=CARTESIAN_POINT('Ctrl Pts',(31.1897955996067,37.6994827572351,30.2692753802697));
#465=CARTESIAN_POINT('Ctrl Pts',(28.956451340349,40.6248526367596,28.6605766824487));
#466=CARTESIAN_POINT('Ctrl Pts',(27.8931187589118,42.0311045451816,27.6686777773739));
#467=CARTESIAN_POINT('Ctrl Pts',(25.9328057594509,44.6375654628953,25.4002537058828));
#468=CARTESIAN_POINT('Ctrl Pts',(25.0359034322319,45.8376666657962,24.123537189892));
#469=CARTESIAN_POINT('Ctrl Pts',(23.3977114654069,48.0366772674736,21.3386173847863));
#470=CARTESIAN_POINT('Ctrl Pts',(22.6093875816386,49.0994102993461,19.7174213342754));
#471=CARTESIAN_POINT('Ctrl Pts',(21.2240903103149,50.9713201046966,16.1918411518442));
#472=CARTESIAN_POINT('Ctrl Pts',(20.6270069379185,51.7805895974322,14.2875494674306));
#473=CARTESIAN_POINT('Ctrl Pts',(19.6697617215556,53.079580470798,10.3196683532089));
#474=CARTESIAN_POINT('Ctrl Pts',(19.3088794230957,53.570268907664,8.25305128553413));
#475=CARTESIAN_POINT('Ctrl Pts',(18.8359211871214,54.2135571706738,4.10093682848797));
#476=CARTESIAN_POINT('Ctrl Pts',(18.72395502,54.3660142773867,2.01540482587465));
#477=CARTESIAN_POINT('Ctrl Pts',(18.72395502,54.3660142773867,-2.01540482587458));
#478=CARTESIAN_POINT('Ctrl Pts',(18.8359211871214,54.2135571706738,-4.1009368284879));
#479=CARTESIAN_POINT('Ctrl Pts',(19.3088794230957,53.570268907664,-8.25305128553406));
#480=CARTESIAN_POINT('Ctrl Pts',(19.6697617215556,53.079580470798,-10.3196683532088));
#481=CARTESIAN_POINT('Ctrl Pts',(20.6270069379185,51.7805895974322,-14.2875494674305));
#482=CARTESIAN_POINT('Ctrl Pts',(21.2240903103149,50.9713201046966,-16.1918411518441));
#483=CARTESIAN_POINT('Ctrl Pts',(22.6093875816386,49.0994102993461,-19.7174213342754));
#484=CARTESIAN_POINT('Ctrl Pts',(23.3977114654069,48.0366772674737,-21.3386173847863));
#485=CARTESIAN_POINT('Ctrl Pts',(25.0359034322319,45.8376666657962,-24.1235371898919));
#486=CARTESIAN_POINT('Ctrl Pts',(25.9328057594509,44.6375654628954,-25.4002537058827));
#487=CARTESIAN_POINT('Ctrl Pts',(27.8931187589118,42.0311045451816,-27.6686777773739));
#488=CARTESIAN_POINT('Ctrl Pts',(28.9564513403489,40.6248526367597,-28.6605766824486));
#489=CARTESIAN_POINT('Ctrl Pts',(31.1897955996067,37.6994827572351,-30.2692753802697));
#490=CARTESIAN_POINT('Ctrl Pts',(32.3613404174757,36.1783751756772,-30.8873656350204));
#491=CARTESIAN_POINT('Ctrl Pts',(34.7438476241905,33.1301314371946,-31.7083582523675));
#492=CARTESIAN_POINT('Ctrl Pts',(35.9548943154866,31.6030503044505,-31.911220265));
#493=CARTESIAN_POINT('Ctrl Pts',(37.14738815,30.1329649193685,-31.911220265));
#494=CARTESIAN_POINT('Origin',(0.,0.,0.));
#495=CARTESIAN_POINT('Origin',(0.,0.,0.));
#496=UNCERTAINTY_MEASURE_WITH_UNIT(LENGTH_MEASURE(0.01),#500,
'DISTANCE_ACCURACY_VALUE',
'Maximum model space distance between geometric entities at asserted c
onnectivities');
#497=UNCERTAINTY_MEASURE_WITH_UNIT(LENGTH_MEASURE(0.01),#500,
'DISTANCE_ACCURACY_VALUE',
'Maximum model space distance between geometric entities at asserted c
onnectivities');
#498=(
GEOMETRIC_REPRESENTATION_CONTEXT(3)
GLOBAL_UNCERTAINTY_ASSIGNED_CONTEXT((#496))
GLOBAL_UNIT_ASSIGNED_CONTEXT((#500,#502,#503))
REPRESENTATION_CONTEXT('','3D')
);
#499=(
GEOMETRIC_REPRESENTATION_CONTEXT(3)
GLOBAL_UNCERTAINTY_ASSIGNED_CONTEXT((#497))
GLOBAL_UNIT_ASSIGNED_CONTEXT((#500,#502,#503))
REPRESENTATION_CONTEXT('','3D')
);
#500=(
LENGTH_UNIT()
NAMED_UNIT(*)
SI_UNIT(.MILLI.,.METRE.)
);
#501=(
LENGTH_UNIT()
NAMED_UNIT(*)
SI_UNIT($,.METRE.)
);
#502=(
NAMED_UNIT(*)
PLANE_ANGLE_UNIT()
SI_UNIT($,.RADIAN.)
);
#503=(
NAMED_UNIT(*)
SI_UNIT($,.STERADIAN.)
SOLID_ANGLE_UNIT()
);
#504=SHAPE_DEFINITION_REPRESENTATION(#505,#506);
#505=PRODUCT_DEFINITION_SHAPE('',$,#508);
#506=SHAPE_REPRESENTATION('',(#128),#498);
#507=PRODUCT_DEFINITION_CONTEXT('part definition',#512,'design');
#508=PRODUCT_DEFINITION('2026-06-26-00-47-44-738','cara',#509,#507);
#509=PRODUCT_DEFINITION_FORMATION('',$,#514);
#510=PRODUCT_RELATED_PRODUCT_CATEGORY('cara','cara',(#514));
#511=APPLICATION_PROTOCOL_DEFINITION('international standard',
'automotive_design',2009,#512);
#512=APPLICATION_CONTEXT(
'Core Data for Automotive Mechanical Design Process');
#513=PRODUCT_CONTEXT('part definition',#512,'mechanical');
#514=PRODUCT('2026-06-26-00-47-44-738','cara',$,(#513));
#515=PRESENTATION_STYLE_ASSIGNMENT((#516));
#516=SURFACE_STYLE_USAGE(.BOTH.,#517);
#517=SURFACE_SIDE_STYLE('',(#518));
#518=SURFACE_STYLE_FILL_AREA(#519);
#519=FILL_AREA_STYLE('Acero - Satinado',(#520));
#520=FILL_AREA_STYLE_COLOUR('Acero - Satinado',#521);
#521=COLOUR_RGB('Acero - Satinado',0.627450980392157,0.627450980392157,
0.627450980392157);
ENDSEC;
END-ISO-10303-21;
