ISO-10303-21;
HEADER;
/* Generated by software containing ST-Developer
 * from STEP Tools, Inc. (www.steptools.com) 
 */

FILE_DESCRIPTION(
/* description */ (''),
/* implementation_level */ '2;1');

FILE_NAME(
/* name */ 'carcasas medias.step',
/* time_stamp */ '2026-07-13T17:07:42-04:00',
/* author */ (''),
/* organization */ (''),
/* preprocessor_version */ 'ST-DEVELOPER v20.1',
/* originating_system */ 'Autodesk Translation Framework v15.8.0.0',
/* authorisation */ '');

FILE_SCHEMA (('AUTOMOTIVE_DESIGN { 1 0 10303 214 3 1 1 }'));
ENDSEC;

DATA;
#10=MECHANICAL_DESIGN_GEOMETRIC_PRESENTATION_REPRESENTATION('',(#13),#727);
#11=SHAPE_REPRESENTATION_RELATIONSHIP('SRR','None',#734,#12);
#12=ADVANCED_BREP_SHAPE_REPRESENTATION('',(#14),#726);
#13=STYLED_ITEM('',(#743),#14);
#14=MANIFOLD_SOLID_BREP('Cuerpo1',#381);
#15=(
BOUNDED_CURVE()
B_SPLINE_CURVE(2,(#612,#613,#614),.UNSPECIFIED.,.F.,.F.)
B_SPLINE_CURVE_WITH_KNOTS((3,3),(0.222199171941988,0.953516057397855),
 .UNSPECIFIED.)
CURVE()
GEOMETRIC_REPRESENTATION_ITEM()
RATIONAL_B_SPLINE_CURVE((1.00006560772103,1.00016770031695,1.00023112921028))
REPRESENTATION_ITEM('')
);
#16=(
BOUNDED_CURVE()
B_SPLINE_CURVE(2,(#658,#659,#660),.UNSPECIFIED.,.F.,.F.)
B_SPLINE_CURVE_WITH_KNOTS((3,3),(3.35300752152141,4.08432491130901),
 .UNSPECIFIED.)
CURVE()
GEOMETRIC_REPRESENTATION_ITEM()
RATIONAL_B_SPLINE_CURVE((1.00023112933626,1.00016770040903,1.00006560771764))
REPRESENTATION_ITEM('')
);
#17=(
BOUNDED_CURVE()
B_SPLINE_CURVE(2,(#665,#666,#667),.UNSPECIFIED.,.F.,.F.)
B_SPLINE_CURVE_WITH_KNOTS((3,3),(0.,4.03138781662385),.UNSPECIFIED.)
CURVE()
GEOMETRIC_REPRESENTATION_ITEM()
RATIONAL_B_SPLINE_CURVE((1.,1.00104331476317,1.))
REPRESENTATION_ITEM('')
);
#18=(
BOUNDED_CURVE()
B_SPLINE_CURVE(2,(#671,#672,#673),.UNSPECIFIED.,.F.,.F.)
B_SPLINE_CURVE_WITH_KNOTS((3,3),(0.,4.03138781663163),.UNSPECIFIED.)
CURVE()
GEOMETRIC_REPRESENTATION_ITEM()
RATIONAL_B_SPLINE_CURVE((1.,1.00104331465842,1.))
REPRESENTATION_ITEM('')
);
#19=(
BOUNDED_CURVE()
B_SPLINE_CURVE(2,(#690,#691,#692),.UNSPECIFIED.,.F.,.F.)
B_SPLINE_CURVE_WITH_KNOTS((3,3),(0.,3.3682870114062),.UNSPECIFIED.)
CURVE()
GEOMETRIC_REPRESENTATION_ITEM()
RATIONAL_B_SPLINE_CURVE((1.,1.00031074554498,1.00009918218783))
REPRESENTATION_ITEM('')
);
#20=(
BOUNDED_CURVE()
B_SPLINE_CURVE(2,(#719,#720,#721),.UNSPECIFIED.,.F.,.F.)
B_SPLINE_CURVE_WITH_KNOTS((3,3),(0.639610648500228,4.00789716099091),
 .UNSPECIFIED.)
CURVE()
GEOMETRIC_REPRESENTATION_ITEM()
RATIONAL_B_SPLINE_CURVE((1.00009918389711,1.0003107506579,1.))
REPRESENTATION_ITEM('')
);
#21=CONICAL_SURFACE('',#406,33.5,0.0523598775598299);
#22=CONICAL_SURFACE('',#413,55.,0.124354994546761);
#23=CONICAL_SURFACE('',#425,46.25,0.0624188099959574);
#24=CONICAL_SURFACE('',#438,46.25,0.0624188099959574);
#25=PLANE('',#398);
#26=PLANE('',#417);
#27=PLANE('',#421);
#28=PLANE('',#424);
#29=PLANE('',#426);
#30=PLANE('',#430);
#31=PLANE('',#436);
#32=PLANE('',#437);
#33=PLANE('',#439);
#34=FACE_OUTER_BOUND('',#55,.T.);
#35=FACE_OUTER_BOUND('',#56,.T.);
#36=FACE_OUTER_BOUND('',#57,.T.);
#37=FACE_OUTER_BOUND('',#58,.T.);
#38=FACE_OUTER_BOUND('',#59,.T.);
#39=FACE_OUTER_BOUND('',#60,.T.);
#40=FACE_OUTER_BOUND('',#61,.T.);
#41=FACE_OUTER_BOUND('',#62,.T.);
#42=FACE_OUTER_BOUND('',#63,.T.);
#43=FACE_OUTER_BOUND('',#64,.T.);
#44=FACE_OUTER_BOUND('',#65,.T.);
#45=FACE_OUTER_BOUND('',#66,.T.);
#46=FACE_OUTER_BOUND('',#67,.T.);
#47=FACE_OUTER_BOUND('',#68,.T.);
#48=FACE_OUTER_BOUND('',#69,.T.);
#49=FACE_OUTER_BOUND('',#70,.T.);
#50=FACE_OUTER_BOUND('',#71,.T.);
#51=FACE_OUTER_BOUND('',#72,.T.);
#52=FACE_OUTER_BOUND('',#73,.T.);
#53=FACE_OUTER_BOUND('',#74,.T.);
#54=FACE_OUTER_BOUND('',#75,.T.);
#55=EDGE_LOOP('',(#238,#239,#240,#241));
#56=EDGE_LOOP('',(#242,#243,#244,#245));
#57=EDGE_LOOP('',(#246,#247,#248,#249));
#58=EDGE_LOOP('',(#250,#251,#252,#253));
#59=EDGE_LOOP('',(#254,#255,#256,#257,#258,#259,#260,#261,#262,#263,#264,
#265,#266,#267,#268,#269,#270,#271,#272,#273));
#60=EDGE_LOOP('',(#274,#275,#276,#277,#278,#279));
#61=EDGE_LOOP('',(#280,#281,#282,#283));
#62=EDGE_LOOP('',(#284,#285,#286,#287));
#63=EDGE_LOOP('',(#288,#289,#290,#291));
#64=EDGE_LOOP('',(#292,#293,#294));
#65=EDGE_LOOP('',(#295,#296,#297,#298,#299,#300,#301,#302,#303,#304,#305));
#66=EDGE_LOOP('',(#306,#307,#308));
#67=EDGE_LOOP('',(#309,#310,#311,#312,#313,#314));
#68=EDGE_LOOP('',(#315,#316,#317));
#69=EDGE_LOOP('',(#318,#319,#320,#321));
#70=EDGE_LOOP('',(#322,#323,#324,#325));
#71=EDGE_LOOP('',(#326,#327,#328,#329));
#72=EDGE_LOOP('',(#330,#331,#332,#333));
#73=EDGE_LOOP('',(#334,#335,#336,#337,#338,#339,#340,#341,#342,#343,#344));
#74=EDGE_LOOP('',(#345,#346,#347));
#75=EDGE_LOOP('',(#348,#349,#350,#351));
#76=LINE('',#559,#92);
#77=LINE('',#566,#93);
#78=LINE('',#577,#94);
#79=LINE('',#588,#95);
#80=LINE('',#678,#96);
#81=LINE('',#682,#97);
#82=LINE('',#686,#98);
#83=LINE('',#688,#99);
#84=LINE('',#693,#100);
#85=LINE('',#698,#101);
#86=LINE('',#702,#102);
#87=LINE('',#706,#103);
#88=LINE('',#710,#104);
#89=LINE('',#714,#105);
#90=LINE('',#716,#106);
#91=LINE('',#718,#107);
#92=VECTOR('',#446,10.);
#93=VECTOR('',#455,10.);
#94=VECTOR('',#460,10.);
#95=VECTOR('',#465,10.);
#96=VECTOR('',#494,10.);
#97=VECTOR('',#499,10.);
#98=VECTOR('',#504,10.);
#99=VECTOR('',#507,10.);
#100=VECTOR('',#510,10.);
#101=VECTOR('',#517,10.);
#102=VECTOR('',#522,10.);
#103=VECTOR('',#527,10.);
#104=VECTOR('',#532,10.);
#105=VECTOR('',#537,10.);
#106=VECTOR('',#540,10.);
#107=VECTOR('',#543,10.);
#108=CIRCLE('',#396,47.5);
#109=CIRCLE('',#397,47.5);
#110=CIRCLE('',#399,33.6572233378491);
#111=CIRCLE('',#400,52.5);
#112=CIRCLE('',#402,52.5);
#113=CIRCLE('',#404,47.5);
#114=CIRCLE('',#405,47.5);
#115=CIRCLE('',#407,33.6572233378491);
#116=CIRCLE('',#408,33.5);
#117=CIRCLE('',#409,31.2464654908292);
#118=CIRCLE('',#410,31.4036888286783);
#119=CIRCLE('',#411,31.4036888286783);
#120=CIRCLE('',#412,31.2464654908292);
#121=CIRCLE('',#414,52.5);
#122=CIRCLE('',#415,57.5);
#123=CIRCLE('',#416,52.5);
#124=CIRCLE('',#418,47.5);
#125=CIRCLE('',#420,47.5);
#126=CIRCLE('',#422,45.);
#127=CIRCLE('',#427,52.5);
#128=CIRCLE('',#429,45.);
#129=CIRCLE('',#431,47.5);
#130=CIRCLE('',#433,47.5);
#131=CIRCLE('',#435,52.5);
#132=B_SPLINE_CURVE_WITH_KNOTS('',3,(#552,#553,#554,#555),.UNSPECIFIED.,
 .F.,.F.,(4,4),(0.950271584888498,1.22555254973796),.UNSPECIFIED.);
#133=B_SPLINE_CURVE_WITH_KNOTS('',3,(#569,#570,#571,#572,#573,#574),
 .UNSPECIFIED.,.F.,.F.,(4,2,4),(0.963998353954416,1.10722876874524,1.24409700092593),
 .UNSPECIFIED.);
#134=B_SPLINE_CURVE_WITH_KNOTS('',3,(#581,#582,#583,#584),.UNSPECIFIED.,
 .F.,.F.,(4,4),(0.949855449272057,1.22513641412152),.UNSPECIFIED.);
#135=B_SPLINE_CURVE_WITH_KNOTS('',3,(#592,#593,#594,#595),.UNSPECIFIED.,
 .F.,.F.,(4,4),(0.972351261471281,4.07947115520155),.UNSPECIFIED.);
#136=B_SPLINE_CURVE_WITH_KNOTS('',3,(#599,#600,#601,#602,#603,#604),
 .UNSPECIFIED.,.F.,.F.,(4,2,4),(0.970360536564547,1.10722876874524,1.25045918353606),
 .UNSPECIFIED.);
#137=B_SPLINE_CURVE_WITH_KNOTS('',3,(#607,#608,#609,#610),.UNSPECIFIED.,
 .F.,.F.,(4,4),(1.55688759891175,4.66400789219648),.UNSPECIFIED.);
#138=B_SPLINE_CURVE_WITH_KNOTS('',3,(#616,#617,#618,#619),.UNSPECIFIED.,
 .F.,.F.,(4,4),(0.949115235138818,1.14512820824367),.UNSPECIFIED.);
#139=B_SPLINE_CURVE_WITH_KNOTS('',3,(#623,#624,#625,#626),.UNSPECIFIED.,
 .F.,.F.,(4,4),(0.951766256483911,1.22766943666823),.UNSPECIFIED.);
#140=B_SPLINE_CURVE_WITH_KNOTS('',3,(#630,#631,#632,#633,#634,#635,#636,
#637,#638,#639,#640,#641,#642,#643),.UNSPECIFIED.,.F.,.F.,(4,2,2,2,2,2,
4),(1.18035117561854,1.37585407306612,1.49989798469197,1.62394189631782,
1.74798580794367,1.87202971956952,2.0675326170171),.UNSPECIFIED.);
#141=B_SPLINE_CURVE_WITH_KNOTS('',3,(#647,#648,#649,#650),.UNSPECIFIED.,
 .F.,.F.,(4,4),(0.95270498168224,1.22860816186656),.UNSPECIFIED.);
#142=B_SPLINE_CURVE_WITH_KNOTS('',3,(#654,#655,#656,#657),.UNSPECIFIED.,
 .F.,.F.,(4,4),(1.02773451379691,1.22374743155618),.UNSPECIFIED.);
#143=VERTEX_POINT('',#550);
#144=VERTEX_POINT('',#551);
#145=VERTEX_POINT('',#556);
#146=VERTEX_POINT('',#558);
#147=VERTEX_POINT('',#562);
#148=VERTEX_POINT('',#564);
#149=VERTEX_POINT('',#568);
#150=VERTEX_POINT('',#575);
#151=VERTEX_POINT('',#579);
#152=VERTEX_POINT('',#580);
#153=VERTEX_POINT('',#585);
#154=VERTEX_POINT('',#587);
#155=VERTEX_POINT('',#591);
#156=VERTEX_POINT('',#596);
#157=VERTEX_POINT('',#598);
#158=VERTEX_POINT('',#606);
#159=VERTEX_POINT('',#611);
#160=VERTEX_POINT('',#615);
#161=VERTEX_POINT('',#620);
#162=VERTEX_POINT('',#622);
#163=VERTEX_POINT('',#627);
#164=VERTEX_POINT('',#629);
#165=VERTEX_POINT('',#644);
#166=VERTEX_POINT('',#646);
#167=VERTEX_POINT('',#651);
#168=VERTEX_POINT('',#653);
#169=VERTEX_POINT('',#662);
#170=VERTEX_POINT('',#664);
#171=VERTEX_POINT('',#668);
#172=VERTEX_POINT('',#670);
#173=VERTEX_POINT('',#676);
#174=VERTEX_POINT('',#680);
#175=VERTEX_POINT('',#684);
#176=VERTEX_POINT('',#696);
#177=VERTEX_POINT('',#700);
#178=VERTEX_POINT('',#704);
#179=VERTEX_POINT('',#708);
#180=VERTEX_POINT('',#712);
#181=EDGE_CURVE('',#143,#144,#132,.T.);
#182=EDGE_CURVE('',#145,#144,#108,.T.);
#183=EDGE_CURVE('',#145,#146,#76,.T.);
#184=EDGE_CURVE('',#146,#143,#109,.T.);
#185=EDGE_CURVE('',#144,#147,#110,.T.);
#186=EDGE_CURVE('',#148,#147,#111,.T.);
#187=EDGE_CURVE('',#148,#145,#77,.T.);
#188=EDGE_CURVE('',#147,#149,#133,.T.);
#189=EDGE_CURVE('',#150,#149,#112,.T.);
#190=EDGE_CURVE('',#150,#148,#78,.T.);
#191=EDGE_CURVE('',#151,#152,#134,.T.);
#192=EDGE_CURVE('',#152,#153,#113,.T.);
#193=EDGE_CURVE('',#153,#154,#79,.T.);
#194=EDGE_CURVE('',#151,#154,#114,.T.);
#195=EDGE_CURVE('',#152,#155,#135,.T.);
#196=EDGE_CURVE('',#156,#151,#115,.T.);
#197=EDGE_CURVE('',#157,#156,#136,.T.);
#198=EDGE_CURVE('',#149,#157,#116,.T.);
#199=EDGE_CURVE('',#158,#143,#137,.T.);
#200=EDGE_CURVE('',#159,#158,#15,.T.);
#201=EDGE_CURVE('',#160,#159,#138,.T.);
#202=EDGE_CURVE('',#161,#160,#117,.T.);
#203=EDGE_CURVE('',#162,#161,#139,.T.);
#204=EDGE_CURVE('',#163,#162,#118,.T.);
#205=EDGE_CURVE('',#164,#163,#140,.T.);
#206=EDGE_CURVE('',#165,#164,#119,.T.);
#207=EDGE_CURVE('',#166,#165,#141,.T.);
#208=EDGE_CURVE('',#167,#166,#120,.T.);
#209=EDGE_CURVE('',#168,#167,#142,.T.);
#210=EDGE_CURVE('',#155,#168,#16,.T.);
#211=EDGE_CURVE('',#169,#163,#121,.T.);
#212=EDGE_CURVE('',#169,#170,#17,.T.);
#213=EDGE_CURVE('',#170,#171,#122,.T.);
#214=EDGE_CURVE('',#171,#172,#18,.T.);
#215=EDGE_CURVE('',#164,#172,#123,.T.);
#216=EDGE_CURVE('',#173,#162,#124,.T.);
#217=EDGE_CURVE('',#173,#169,#80,.T.);
#218=EDGE_CURVE('',#174,#161,#125,.T.);
#219=EDGE_CURVE('',#174,#173,#81,.T.);
#220=EDGE_CURVE('',#175,#160,#126,.T.);
#221=EDGE_CURVE('',#175,#174,#82,.T.);
#222=EDGE_CURVE('',#159,#175,#83,.T.);
#223=EDGE_CURVE('',#146,#158,#19,.T.);
#224=EDGE_CURVE('',#170,#150,#84,.T.);
#225=EDGE_CURVE('',#157,#176,#127,.T.);
#226=EDGE_CURVE('',#176,#171,#85,.T.);
#227=EDGE_CURVE('',#167,#177,#128,.T.);
#228=EDGE_CURVE('',#177,#168,#86,.T.);
#229=EDGE_CURVE('',#166,#178,#129,.T.);
#230=EDGE_CURVE('',#178,#177,#87,.T.);
#231=EDGE_CURVE('',#165,#179,#130,.T.);
#232=EDGE_CURVE('',#179,#178,#88,.T.);
#233=EDGE_CURVE('',#156,#180,#131,.T.);
#234=EDGE_CURVE('',#180,#176,#89,.T.);
#235=EDGE_CURVE('',#154,#180,#90,.T.);
#236=EDGE_CURVE('',#172,#179,#91,.T.);
#237=EDGE_CURVE('',#155,#153,#20,.T.);
#238=ORIENTED_EDGE('',*,*,#181,.T.);
#239=ORIENTED_EDGE('',*,*,#182,.F.);
#240=ORIENTED_EDGE('',*,*,#183,.T.);
#241=ORIENTED_EDGE('',*,*,#184,.T.);
#242=ORIENTED_EDGE('',*,*,#185,.T.);
#243=ORIENTED_EDGE('',*,*,#186,.F.);
#244=ORIENTED_EDGE('',*,*,#187,.T.);
#245=ORIENTED_EDGE('',*,*,#182,.T.);
#246=ORIENTED_EDGE('',*,*,#188,.T.);
#247=ORIENTED_EDGE('',*,*,#189,.F.);
#248=ORIENTED_EDGE('',*,*,#190,.T.);
#249=ORIENTED_EDGE('',*,*,#186,.T.);
#250=ORIENTED_EDGE('',*,*,#191,.T.);
#251=ORIENTED_EDGE('',*,*,#192,.T.);
#252=ORIENTED_EDGE('',*,*,#193,.T.);
#253=ORIENTED_EDGE('',*,*,#194,.F.);
#254=ORIENTED_EDGE('',*,*,#195,.F.);
#255=ORIENTED_EDGE('',*,*,#191,.F.);
#256=ORIENTED_EDGE('',*,*,#196,.F.);
#257=ORIENTED_EDGE('',*,*,#197,.F.);
#258=ORIENTED_EDGE('',*,*,#198,.F.);
#259=ORIENTED_EDGE('',*,*,#188,.F.);
#260=ORIENTED_EDGE('',*,*,#185,.F.);
#261=ORIENTED_EDGE('',*,*,#181,.F.);
#262=ORIENTED_EDGE('',*,*,#199,.F.);
#263=ORIENTED_EDGE('',*,*,#200,.F.);
#264=ORIENTED_EDGE('',*,*,#201,.F.);
#265=ORIENTED_EDGE('',*,*,#202,.F.);
#266=ORIENTED_EDGE('',*,*,#203,.F.);
#267=ORIENTED_EDGE('',*,*,#204,.F.);
#268=ORIENTED_EDGE('',*,*,#205,.F.);
#269=ORIENTED_EDGE('',*,*,#206,.F.);
#270=ORIENTED_EDGE('',*,*,#207,.F.);
#271=ORIENTED_EDGE('',*,*,#208,.F.);
#272=ORIENTED_EDGE('',*,*,#209,.F.);
#273=ORIENTED_EDGE('',*,*,#210,.F.);
#274=ORIENTED_EDGE('',*,*,#205,.T.);
#275=ORIENTED_EDGE('',*,*,#211,.F.);
#276=ORIENTED_EDGE('',*,*,#212,.T.);
#277=ORIENTED_EDGE('',*,*,#213,.T.);
#278=ORIENTED_EDGE('',*,*,#214,.T.);
#279=ORIENTED_EDGE('',*,*,#215,.F.);
#280=ORIENTED_EDGE('',*,*,#204,.T.);
#281=ORIENTED_EDGE('',*,*,#216,.F.);
#282=ORIENTED_EDGE('',*,*,#217,.T.);
#283=ORIENTED_EDGE('',*,*,#211,.T.);
#284=ORIENTED_EDGE('',*,*,#203,.T.);
#285=ORIENTED_EDGE('',*,*,#218,.F.);
#286=ORIENTED_EDGE('',*,*,#219,.T.);
#287=ORIENTED_EDGE('',*,*,#216,.T.);
#288=ORIENTED_EDGE('',*,*,#202,.T.);
#289=ORIENTED_EDGE('',*,*,#220,.F.);
#290=ORIENTED_EDGE('',*,*,#221,.T.);
#291=ORIENTED_EDGE('',*,*,#218,.T.);
#292=ORIENTED_EDGE('',*,*,#201,.T.);
#293=ORIENTED_EDGE('',*,*,#222,.T.);
#294=ORIENTED_EDGE('',*,*,#220,.T.);
#295=ORIENTED_EDGE('',*,*,#200,.T.);
#296=ORIENTED_EDGE('',*,*,#223,.F.);
#297=ORIENTED_EDGE('',*,*,#183,.F.);
#298=ORIENTED_EDGE('',*,*,#187,.F.);
#299=ORIENTED_EDGE('',*,*,#190,.F.);
#300=ORIENTED_EDGE('',*,*,#224,.F.);
#301=ORIENTED_EDGE('',*,*,#212,.F.);
#302=ORIENTED_EDGE('',*,*,#217,.F.);
#303=ORIENTED_EDGE('',*,*,#219,.F.);
#304=ORIENTED_EDGE('',*,*,#221,.F.);
#305=ORIENTED_EDGE('',*,*,#222,.F.);
#306=ORIENTED_EDGE('',*,*,#199,.T.);
#307=ORIENTED_EDGE('',*,*,#184,.F.);
#308=ORIENTED_EDGE('',*,*,#223,.T.);
#309=ORIENTED_EDGE('',*,*,#198,.T.);
#310=ORIENTED_EDGE('',*,*,#225,.T.);
#311=ORIENTED_EDGE('',*,*,#226,.T.);
#312=ORIENTED_EDGE('',*,*,#213,.F.);
#313=ORIENTED_EDGE('',*,*,#224,.T.);
#314=ORIENTED_EDGE('',*,*,#189,.T.);
#315=ORIENTED_EDGE('',*,*,#209,.T.);
#316=ORIENTED_EDGE('',*,*,#227,.T.);
#317=ORIENTED_EDGE('',*,*,#228,.T.);
#318=ORIENTED_EDGE('',*,*,#208,.T.);
#319=ORIENTED_EDGE('',*,*,#229,.T.);
#320=ORIENTED_EDGE('',*,*,#230,.T.);
#321=ORIENTED_EDGE('',*,*,#227,.F.);
#322=ORIENTED_EDGE('',*,*,#207,.T.);
#323=ORIENTED_EDGE('',*,*,#231,.T.);
#324=ORIENTED_EDGE('',*,*,#232,.T.);
#325=ORIENTED_EDGE('',*,*,#229,.F.);
#326=ORIENTED_EDGE('',*,*,#197,.T.);
#327=ORIENTED_EDGE('',*,*,#233,.T.);
#328=ORIENTED_EDGE('',*,*,#234,.T.);
#329=ORIENTED_EDGE('',*,*,#225,.F.);
#330=ORIENTED_EDGE('',*,*,#196,.T.);
#331=ORIENTED_EDGE('',*,*,#194,.T.);
#332=ORIENTED_EDGE('',*,*,#235,.T.);
#333=ORIENTED_EDGE('',*,*,#233,.F.);
#334=ORIENTED_EDGE('',*,*,#210,.T.);
#335=ORIENTED_EDGE('',*,*,#228,.F.);
#336=ORIENTED_EDGE('',*,*,#230,.F.);
#337=ORIENTED_EDGE('',*,*,#232,.F.);
#338=ORIENTED_EDGE('',*,*,#236,.F.);
#339=ORIENTED_EDGE('',*,*,#214,.F.);
#340=ORIENTED_EDGE('',*,*,#226,.F.);
#341=ORIENTED_EDGE('',*,*,#234,.F.);
#342=ORIENTED_EDGE('',*,*,#235,.F.);
#343=ORIENTED_EDGE('',*,*,#193,.F.);
#344=ORIENTED_EDGE('',*,*,#237,.F.);
#345=ORIENTED_EDGE('',*,*,#195,.T.);
#346=ORIENTED_EDGE('',*,*,#237,.T.);
#347=ORIENTED_EDGE('',*,*,#192,.F.);
#348=ORIENTED_EDGE('',*,*,#206,.T.);
#349=ORIENTED_EDGE('',*,*,#215,.T.);
#350=ORIENTED_EDGE('',*,*,#236,.T.);
#351=ORIENTED_EDGE('',*,*,#231,.F.);
#352=CYLINDRICAL_SURFACE('',#395,47.5);
#353=CYLINDRICAL_SURFACE('',#401,52.5);
#354=CYLINDRICAL_SURFACE('',#403,47.5);
#355=CYLINDRICAL_SURFACE('',#419,47.5);
#356=CYLINDRICAL_SURFACE('',#423,45.);
#357=CYLINDRICAL_SURFACE('',#428,45.);
#358=CYLINDRICAL_SURFACE('',#432,47.5);
#359=CYLINDRICAL_SURFACE('',#434,52.5);
#360=ADVANCED_FACE('',(#34),#352,.F.);
#361=ADVANCED_FACE('',(#35),#25,.T.);
#362=ADVANCED_FACE('',(#36),#353,.T.);
#363=ADVANCED_FACE('',(#37),#354,.F.);
#364=ADVANCED_FACE('',(#38),#21,.F.);
#365=ADVANCED_FACE('',(#39),#22,.T.);
#366=ADVANCED_FACE('',(#40),#26,.T.);
#367=ADVANCED_FACE('',(#41),#355,.T.);
#368=ADVANCED_FACE('',(#42),#27,.T.);
#369=ADVANCED_FACE('',(#43),#356,.F.);
#370=ADVANCED_FACE('',(#44),#28,.F.);
#371=ADVANCED_FACE('',(#45),#23,.F.);
#372=ADVANCED_FACE('',(#46),#29,.T.);
#373=ADVANCED_FACE('',(#47),#357,.F.);
#374=ADVANCED_FACE('',(#48),#30,.T.);
#375=ADVANCED_FACE('',(#49),#358,.T.);
#376=ADVANCED_FACE('',(#50),#359,.T.);
#377=ADVANCED_FACE('',(#51),#31,.T.);
#378=ADVANCED_FACE('',(#52),#32,.F.);
#379=ADVANCED_FACE('',(#53),#24,.F.);
#380=ADVANCED_FACE('',(#54),#33,.T.);
#381=CLOSED_SHELL('',(#360,#361,#362,#363,#364,#365,#366,#367,#368,#369,
#370,#371,#372,#373,#374,#375,#376,#377,#378,#379,#380));
#382=DERIVED_UNIT_ELEMENT(#384,1.);
#383=DERIVED_UNIT_ELEMENT(#729,-3.);
#384=(
MASS_UNIT()
NAMED_UNIT(*)
SI_UNIT(.KILO.,.GRAM.)
);
#385=DERIVED_UNIT((#382,#383));
#386=MEASURE_REPRESENTATION_ITEM('density measure',
POSITIVE_RATIO_MEASURE(7850.),#385);
#387=PROPERTY_DEFINITION_REPRESENTATION(#392,#389);
#388=PROPERTY_DEFINITION_REPRESENTATION(#393,#390);
#389=REPRESENTATION('material name',(#391),#726);
#390=REPRESENTATION('density',(#386),#726);
#391=DESCRIPTIVE_REPRESENTATION_ITEM('Acero','Acero');
#392=PROPERTY_DEFINITION('material property','material name',#736);
#393=PROPERTY_DEFINITION('material property','density of part',#736);
#394=AXIS2_PLACEMENT_3D('',#548,#440,#441);
#395=AXIS2_PLACEMENT_3D('',#549,#442,#443);
#396=AXIS2_PLACEMENT_3D('',#557,#444,#445);
#397=AXIS2_PLACEMENT_3D('',#560,#447,#448);
#398=AXIS2_PLACEMENT_3D('',#561,#449,#450);
#399=AXIS2_PLACEMENT_3D('',#563,#451,#452);
#400=AXIS2_PLACEMENT_3D('',#565,#453,#454);
#401=AXIS2_PLACEMENT_3D('',#567,#456,#457);
#402=AXIS2_PLACEMENT_3D('',#576,#458,#459);
#403=AXIS2_PLACEMENT_3D('',#578,#461,#462);
#404=AXIS2_PLACEMENT_3D('',#586,#463,#464);
#405=AXIS2_PLACEMENT_3D('',#589,#466,#467);
#406=AXIS2_PLACEMENT_3D('',#590,#468,#469);
#407=AXIS2_PLACEMENT_3D('',#597,#470,#471);
#408=AXIS2_PLACEMENT_3D('',#605,#472,#473);
#409=AXIS2_PLACEMENT_3D('',#621,#474,#475);
#410=AXIS2_PLACEMENT_3D('',#628,#476,#477);
#411=AXIS2_PLACEMENT_3D('',#645,#478,#479);
#412=AXIS2_PLACEMENT_3D('',#652,#480,#481);
#413=AXIS2_PLACEMENT_3D('',#661,#482,#483);
#414=AXIS2_PLACEMENT_3D('',#663,#484,#485);
#415=AXIS2_PLACEMENT_3D('',#669,#486,#487);
#416=AXIS2_PLACEMENT_3D('',#674,#488,#489);
#417=AXIS2_PLACEMENT_3D('',#675,#490,#491);
#418=AXIS2_PLACEMENT_3D('',#677,#492,#493);
#419=AXIS2_PLACEMENT_3D('',#679,#495,#496);
#420=AXIS2_PLACEMENT_3D('',#681,#497,#498);
#421=AXIS2_PLACEMENT_3D('',#683,#500,#501);
#422=AXIS2_PLACEMENT_3D('',#685,#502,#503);
#423=AXIS2_PLACEMENT_3D('',#687,#505,#506);
#424=AXIS2_PLACEMENT_3D('',#689,#508,#509);
#425=AXIS2_PLACEMENT_3D('',#694,#511,#512);
#426=AXIS2_PLACEMENT_3D('',#695,#513,#514);
#427=AXIS2_PLACEMENT_3D('',#697,#515,#516);
#428=AXIS2_PLACEMENT_3D('',#699,#518,#519);
#429=AXIS2_PLACEMENT_3D('',#701,#520,#521);
#430=AXIS2_PLACEMENT_3D('',#703,#523,#524);
#431=AXIS2_PLACEMENT_3D('',#705,#525,#526);
#432=AXIS2_PLACEMENT_3D('',#707,#528,#529);
#433=AXIS2_PLACEMENT_3D('',#709,#530,#531);
#434=AXIS2_PLACEMENT_3D('',#711,#533,#534);
#435=AXIS2_PLACEMENT_3D('',#713,#535,#536);
#436=AXIS2_PLACEMENT_3D('',#715,#538,#539);
#437=AXIS2_PLACEMENT_3D('',#717,#541,#542);
#438=AXIS2_PLACEMENT_3D('',#722,#544,#545);
#439=AXIS2_PLACEMENT_3D('',#723,#546,#547);
#440=DIRECTION('axis',(0.,0.,1.));
#441=DIRECTION('refdir',(1.,0.,0.));
#442=DIRECTION('center_axis',(0.,-1.,0.));
#443=DIRECTION('ref_axis',(1.,0.,0.));
#444=DIRECTION('center_axis',(0.,-1.,0.));
#445=DIRECTION('ref_axis',(1.,0.,-3.73969860926369E-16));
#446=DIRECTION('',(0.,-1.,0.));
#447=DIRECTION('center_axis',(0.,-1.,0.));
#448=DIRECTION('ref_axis',(1.,0.,-3.73969860926369E-16));
#449=DIRECTION('center_axis',(0.,1.,0.));
#450=DIRECTION('ref_axis',(0.,0.,1.));
#451=DIRECTION('center_axis',(0.,-1.,0.));
#452=DIRECTION('ref_axis',(-1.,0.,0.));
#453=DIRECTION('center_axis',(0.,-1.,0.));
#454=DIRECTION('ref_axis',(1.,0.,-1.69176841847643E-16));
#455=DIRECTION('',(-1.,0.,0.));
#456=DIRECTION('center_axis',(0.,-1.,0.));
#457=DIRECTION('ref_axis',(1.,0.,0.));
#458=DIRECTION('center_axis',(0.,-1.,0.));
#459=DIRECTION('ref_axis',(1.,0.,-1.69176841847643E-16));
#460=DIRECTION('',(0.,1.,0.));
#461=DIRECTION('center_axis',(0.,-1.,0.));
#462=DIRECTION('ref_axis',(1.,0.,0.));
#463=DIRECTION('center_axis',(0.,-1.,0.));
#464=DIRECTION('ref_axis',(1.,0.,-3.73969860926369E-16));
#465=DIRECTION('',(0.,1.,0.));
#466=DIRECTION('center_axis',(0.,-1.,0.));
#467=DIRECTION('ref_axis',(1.,0.,-3.73969860926369E-16));
#468=DIRECTION('center_axis',(0.,1.,0.));
#469=DIRECTION('ref_axis',(0.707106781952761,0.,0.707106780420334));
#470=DIRECTION('center_axis',(0.,-1.,0.));
#471=DIRECTION('ref_axis',(-1.,0.,0.));
#472=DIRECTION('center_axis',(0.,-1.,0.));
#473=DIRECTION('ref_axis',(-1.,0.,0.));
#474=DIRECTION('center_axis',(0.,1.,0.));
#475=DIRECTION('ref_axis',(-1.,0.,0.));
#476=DIRECTION('center_axis',(0.,1.,0.));
#477=DIRECTION('ref_axis',(-1.,0.,0.));
#478=DIRECTION('center_axis',(0.,1.,0.));
#479=DIRECTION('ref_axis',(-1.,0.,0.));
#480=DIRECTION('center_axis',(0.,1.,0.));
#481=DIRECTION('ref_axis',(-1.,0.,0.));
#482=DIRECTION('center_axis',(0.,1.,0.));
#483=DIRECTION('ref_axis',(1.,0.,0.));
#484=DIRECTION('center_axis',(0.,-1.,0.));
#485=DIRECTION('ref_axis',(1.,0.,-1.69176841847643E-16));
#486=DIRECTION('center_axis',(0.,-1.,0.));
#487=DIRECTION('ref_axis',(1.,0.,-4.63397436365283E-16));
#488=DIRECTION('center_axis',(0.,-1.,0.));
#489=DIRECTION('ref_axis',(1.,0.,-1.69176841847643E-16));
#490=DIRECTION('center_axis',(0.,-1.,0.));
#491=DIRECTION('ref_axis',(0.,0.,-1.));
#492=DIRECTION('center_axis',(0.,-1.,0.));
#493=DIRECTION('ref_axis',(1.,0.,-3.73969860926369E-16));
#494=DIRECTION('',(1.,0.,0.));
#495=DIRECTION('center_axis',(0.,-1.,0.));
#496=DIRECTION('ref_axis',(1.,0.,0.));
#497=DIRECTION('center_axis',(-3.30545780775531E-17,-1.,-7.98008106933492E-17));
#498=DIRECTION('ref_axis',(1.,-3.50596744618471E-17,-3.73969860926369E-16));
#499=DIRECTION('',(0.,1.,0.));
#500=DIRECTION('center_axis',(0.,-1.,0.));
#501=DIRECTION('ref_axis',(0.,0.,-1.));
#502=DIRECTION('center_axis',(-3.48909435263061E-17,-1.,-8.42341890652019E-17));
#503=DIRECTION('ref_axis',(1.,-3.70074341541719E-17,-1.97372982155583E-16));
#504=DIRECTION('',(1.,0.,0.));
#505=DIRECTION('center_axis',(0.,-1.,0.));
#506=DIRECTION('ref_axis',(1.,0.,0.));
#507=DIRECTION('',(0.,-1.,0.));
#508=DIRECTION('center_axis',(0.,0.,1.));
#509=DIRECTION('ref_axis',(-1.,0.,0.));
#510=DIRECTION('',(-1.,0.,0.));
#511=DIRECTION('center_axis',(0.,1.,0.));
#512=DIRECTION('ref_axis',(1.,0.,0.));
#513=DIRECTION('center_axis',(0.,1.,0.));
#514=DIRECTION('ref_axis',(0.,0.,1.));
#515=DIRECTION('center_axis',(0.,-1.,0.));
#516=DIRECTION('ref_axis',(1.,0.,-1.69176841847643E-16));
#517=DIRECTION('',(0.,0.,1.));
#518=DIRECTION('center_axis',(0.,-1.,0.));
#519=DIRECTION('ref_axis',(1.,0.,0.));
#520=DIRECTION('center_axis',(-3.48909435263061E-17,-1.,-8.42341890652019E-17));
#521=DIRECTION('ref_axis',(1.,-3.70074341541719E-17,-1.97372982155583E-16));
#522=DIRECTION('',(0.,1.,0.));
#523=DIRECTION('center_axis',(0.,-1.,0.));
#524=DIRECTION('ref_axis',(0.,0.,-1.));
#525=DIRECTION('center_axis',(-3.30545780775531E-17,-1.,-7.98008106933492E-17));
#526=DIRECTION('ref_axis',(1.,-3.50596744618471E-17,-3.73969860926369E-16));
#527=DIRECTION('',(0.,0.,-1.));
#528=DIRECTION('center_axis',(0.,-1.,0.));
#529=DIRECTION('ref_axis',(1.,0.,0.));
#530=DIRECTION('center_axis',(0.,-1.,0.));
#531=DIRECTION('ref_axis',(1.,0.,-3.73969860926369E-16));
#532=DIRECTION('',(0.,-1.,0.));
#533=DIRECTION('center_axis',(0.,-1.,0.));
#534=DIRECTION('ref_axis',(1.,0.,0.));
#535=DIRECTION('center_axis',(0.,-1.,0.));
#536=DIRECTION('ref_axis',(1.,0.,-1.69176841847643E-16));
#537=DIRECTION('',(0.,-1.,0.));
#538=DIRECTION('center_axis',(0.,1.,0.));
#539=DIRECTION('ref_axis',(0.,0.,1.));
#540=DIRECTION('',(0.,0.,1.));
#541=DIRECTION('center_axis',(1.,0.,0.));
#542=DIRECTION('ref_axis',(0.,0.,1.));
#543=DIRECTION('',(0.,0.,-1.));
#544=DIRECTION('center_axis',(0.,1.,0.));
#545=DIRECTION('ref_axis',(1.,0.,0.));
#546=DIRECTION('center_axis',(0.,-1.,0.));
#547=DIRECTION('ref_axis',(0.,0.,-1.));
#548=CARTESIAN_POINT('',(0.,0.,0.));
#549=CARTESIAN_POINT('Origin',(0.,41.5,0.));
#550=CARTESIAN_POINT('',(47.1645129969378,40.,5.63548700306218));
#551=CARTESIAN_POINT('',(47.210343036208,43.,5.23770086999682));
#552=CARTESIAN_POINT('Ctrl Pts',(47.1645129969378,40.,5.63548700306217));
#553=CARTESIAN_POINT('Ctrl Pts',(47.1803796715442,40.9989802514926,5.50269564354247));
#554=CARTESIAN_POINT('Ctrl Pts',(47.1956823061364,42.0009242176319,5.36984627368053));
#555=CARTESIAN_POINT('Ctrl Pts',(47.210343036208,43.,5.23770086999679));
#556=CARTESIAN_POINT('',(47.236109069228,43.,5.));
#557=CARTESIAN_POINT('Origin',(2.22044604925031E-14,43.,1.77635683940025E-14));
#558=CARTESIAN_POINT('',(47.236109069228,40.,5.));
#559=CARTESIAN_POINT('',(47.236109069228,41.5,5.));
#560=CARTESIAN_POINT('Origin',(2.22044604925031E-14,40.,1.77635683940025E-14));
#561=CARTESIAN_POINT('Origin',(52.5,43.,0.));
#562=CARTESIAN_POINT('',(48.1188520919898,43.,20.9958584808817));
#563=CARTESIAN_POINT('Origin',(15.,43.,15.));
#564=CARTESIAN_POINT('',(52.2613624009172,43.,5.));
#565=CARTESIAN_POINT('Origin',(8.88178419700125E-15,43.,8.88178419700125E-15));
#566=CARTESIAN_POINT('',(55.2500004321337,43.,5.));
#567=CARTESIAN_POINT('Origin',(0.,41.5,0.));
#568=CARTESIAN_POINT('',(47.837552331639,40.,21.6291143350277));
#569=CARTESIAN_POINT('Ctrl Pts',(48.1188520919898,43.,20.9958584808817));
#570=CARTESIAN_POINT('Ctrl Pts',(48.0723170903859,42.4887881231028,21.1025086024433));
#571=CARTESIAN_POINT('Ctrl Pts',(48.0250347268137,41.9769867516177,21.2099035534723));
#572=CARTESIAN_POINT('Ctrl Pts',(47.9311815654064,40.9765113539165,21.4211248464726));
#573=CARTESIAN_POINT('Ctrl Pts',(47.8846724239061,40.4878195806379,21.524897868057));
#574=CARTESIAN_POINT('Ctrl Pts',(47.837552331639,40.,21.6291143350277));
#575=CARTESIAN_POINT('',(52.2613624009172,40.,5.));
#576=CARTESIAN_POINT('Origin',(8.88178419700125E-15,40.,8.88178419700125E-15));
#577=CARTESIAN_POINT('',(52.2613624009172,41.5,5.));
#578=CARTESIAN_POINT('Origin',(0.,41.5,0.));
#579=CARTESIAN_POINT('',(5.2377008699968,43.,47.210343036208));
#580=CARTESIAN_POINT('',(5.63548700306218,40.,47.1645129969378));
#581=CARTESIAN_POINT('Ctrl Pts',(5.23770086999679,43.,47.210343036208));
#582=CARTESIAN_POINT('Ctrl Pts',(5.36984625341213,42.0009243708696,47.1956823083851));
#583=CARTESIAN_POINT('Ctrl Pts',(5.50269562402234,40.9989803983412,47.1803796738766));
#584=CARTESIAN_POINT('Ctrl Pts',(5.63548700306217,40.,47.1645129969378));
#585=CARTESIAN_POINT('',(5.00000007450581,40.,47.2361090613414));
#586=CARTESIAN_POINT('Origin',(2.22044604925031E-14,40.,1.77635683940025E-14));
#587=CARTESIAN_POINT('',(5.00000007450581,43.,47.2361090613414));
#588=CARTESIAN_POINT('',(5.00000007450581,41.5,47.2361090613414));
#589=CARTESIAN_POINT('Origin',(2.22044604925031E-14,43.,1.77635683940025E-14));
#590=CARTESIAN_POINT('Origin',(15.,40.,15.));
#591=CARTESIAN_POINT('',(5.00000007450581,6.23810421584898,45.1136491880666));
#592=CARTESIAN_POINT('Ctrl Pts',(5.63548700306218,40.,47.1645129969378));
#593=CARTESIAN_POINT('Ctrl Pts',(5.41301964737758,29.0737915346326,46.5033491788779));
#594=CARTESIAN_POINT('Ctrl Pts',(5.19308234691849,17.4010127189409,45.7942033567008));
#595=CARTESIAN_POINT('Ctrl Pts',(5.00000007449852,6.23810421584925,45.1136491880642));
#596=CARTESIAN_POINT('',(20.9958584808817,43.,48.1188520919898));
#597=CARTESIAN_POINT('Origin',(15.,43.,15.));
#598=CARTESIAN_POINT('',(21.6291143350277,40.,47.837552331639));
#599=CARTESIAN_POINT('Ctrl Pts',(21.6291143350277,40.,47.837552331639));
#600=CARTESIAN_POINT('Ctrl Pts',(21.524897868057,40.4878195806379,47.8846724239062));
#601=CARTESIAN_POINT('Ctrl Pts',(21.4211248464726,40.9765113539165,47.9311815654064));
#602=CARTESIAN_POINT('Ctrl Pts',(21.2099035534723,41.9769867516177,48.0250347268137));
#603=CARTESIAN_POINT('Ctrl Pts',(21.1025086024433,42.4887881231028,48.0723170903859));
#604=CARTESIAN_POINT('Ctrl Pts',(20.9958584808817,43.,48.1188520919898));
#605=CARTESIAN_POINT('Origin',(15.,40.,15.));
#606=CARTESIAN_POINT('',(45.1136489255166,6.23809990942781,5.));
#607=CARTESIAN_POINT('Ctrl Pts',(45.1136489255204,6.23809990942739,5.00000000001134));
#608=CARTESIAN_POINT('Ctrl Pts',(45.7942030467766,17.4010076255985,5.19308225450881));
#609=CARTESIAN_POINT('Ctrl Pts',(46.5033489421826,29.0737876230718,5.41301956773472));
#610=CARTESIAN_POINT('Ctrl Pts',(47.1645129969378,40.,5.63548700306219));
#611=CARTESIAN_POINT('',(44.7213595499958,-0.861131185022375,5.));
#612=CARTESIAN_POINT('Ctrl Pts',(44.7213595499958,-0.861131185022375,5.));
#613=CARTESIAN_POINT('Ctrl Pts',(44.9163475163657,2.66521242765076,5.));
#614=CARTESIAN_POINT('Ctrl Pts',(45.1136489255166,6.23809990942781,5.));
#615=CARTESIAN_POINT('',(44.6910238045443,-3.,5.26425600646962));
#616=CARTESIAN_POINT('Ctrl Pts',(44.6910238045443,-3.,5.2642560064696));
#617=CARTESIAN_POINT('Ctrl Pts',(44.7014045524561,-2.28784025439046,5.17612840563422));
#618=CARTESIAN_POINT('Ctrl Pts',(44.711525657889,-1.57417947970577,5.08795700493685));
#619=CARTESIAN_POINT('Ctrl Pts',(44.7213595499958,-0.861131185022376,5.));
#620=CARTESIAN_POINT('',(46.0611980235501,-3.,11.6024151207972));
#621=CARTESIAN_POINT('Origin',(15.,-3.,15.));
#622=CARTESIAN_POINT('',(46.1688240641691,0.,11.1664535342156));
#623=CARTESIAN_POINT('Ctrl Pts',(46.1688240641691,-3.33066907387547E-15,
11.1664535342156));
#624=CARTESIAN_POINT('Ctrl Pts',(46.1338515860663,-0.999133309726526,11.3110507587212));
#625=CARTESIAN_POINT('Ctrl Pts',(46.0979164769479,-2.00108043929797,11.4566440950695));
#626=CARTESIAN_POINT('Ctrl Pts',(46.0611980235501,-3.,11.6024151207971));
#627=CARTESIAN_POINT('',(40.0098026774478,0.,33.9921415876036));
#628=CARTESIAN_POINT('Origin',(15.,0.,15.));
#629=CARTESIAN_POINT('',(33.9921415876036,0.,40.0098026774478));
#630=CARTESIAN_POINT('Ctrl Pts',(33.9921415876037,-3.58046925441613E-14,
40.0098026774478));
#631=CARTESIAN_POINT('Ctrl Pts',(34.4330244151559,0.404932236939819,39.701648603503));
#632=CARTESIAN_POINT('Ctrl Pts',(34.9159630165474,0.779425035060922,39.341688410545));
#633=CARTESIAN_POINT('Ctrl Pts',(35.7226029310915,1.2372984971458,38.6855468633742));
#634=CARTESIAN_POINT('Ctrl Pts',(36.0404062557946,1.3775348465928,38.4138774710023));
#635=CARTESIAN_POINT('Ctrl Pts',(36.6656349856376,1.56410357012915,37.8500378642307));
#636=CARTESIAN_POINT('Ctrl Pts',(36.9730598258274,1.61025882829157,37.5578084329977));
#637=CARTESIAN_POINT('Ctrl Pts',(37.5578084329977,1.61025882829157,36.9730598258274));
#638=CARTESIAN_POINT('Ctrl Pts',(37.8500378642307,1.56410357012927,36.6656349856376));
#639=CARTESIAN_POINT('Ctrl Pts',(38.4138774710023,1.37753484659292,36.0404062557946));
#640=CARTESIAN_POINT('Ctrl Pts',(38.6855468633742,1.23729849714581,35.7226029310915));
#641=CARTESIAN_POINT('Ctrl Pts',(39.341688410545,0.779425035060937,34.9159630165474));
#642=CARTESIAN_POINT('Ctrl Pts',(39.701648603503,0.404932236939813,34.4330244151559));
#643=CARTESIAN_POINT('Ctrl Pts',(40.0098026774478,-4.5102810375397E-14,
33.9921415876037));
#644=CARTESIAN_POINT('',(11.1664535342156,0.,46.1688240641691));
#645=CARTESIAN_POINT('Origin',(15.,0.,15.));
#646=CARTESIAN_POINT('',(11.6024151207972,-3.,46.0611980235501));
#647=CARTESIAN_POINT('Ctrl Pts',(11.6024151207971,-3.,46.0611980235501));
#648=CARTESIAN_POINT('Ctrl Pts',(11.4566441434095,-2.00108077055521,46.0979164647715));
#649=CARTESIAN_POINT('Ctrl Pts',(11.3110508104956,-0.999133667475927,46.1338515735441));
#650=CARTESIAN_POINT('Ctrl Pts',(11.1664535342156,-1.94289029309402E-15,
46.1688240641691));
#651=CARTESIAN_POINT('',(5.26425600646959,-3.,44.6910238045443));
#652=CARTESIAN_POINT('Origin',(15.,-3.,15.));
#653=CARTESIAN_POINT('',(5.00000007450581,-0.861131789024698,44.7213595416658));
#654=CARTESIAN_POINT('Ctrl Pts',(5.00000007450581,-0.861131789024698,44.7213595416658));
#655=CARTESIAN_POINT('Ctrl Pts',(5.08795704997627,-1.57417984419613,44.7115256527051));
#656=CARTESIAN_POINT('Ctrl Pts',(5.17612842356593,-2.28784039929668,44.7014045503439));
#657=CARTESIAN_POINT('Ctrl Pts',(5.26425600646961,-3.,44.6910238045443));
#658=CARTESIAN_POINT('Ctrl Pts',(5.00000007450581,6.23810421584898,45.1136491880666));
#659=CARTESIAN_POINT('Ctrl Pts',(5.00000007450581,2.66521424566902,44.9163476418184));
#660=CARTESIAN_POINT('Ctrl Pts',(5.00000007450581,-0.861131789024698,44.7213595416658));
#661=CARTESIAN_POINT('Origin',(0.,20.,0.));
#662=CARTESIAN_POINT('',(52.2613624009172,0.,5.));
#663=CARTESIAN_POINT('Origin',(8.88178419700125E-15,0.,8.88178419700125E-15));
#664=CARTESIAN_POINT('',(57.282196186948,40.,5.));
#665=CARTESIAN_POINT('Ctrl Pts',(52.2613624009172,0.,5.));
#666=CARTESIAN_POINT('Ctrl Pts',(54.6576694499804,19.0833175032779,5.));
#667=CARTESIAN_POINT('Ctrl Pts',(57.282196186948,40.,5.));
#668=CARTESIAN_POINT('',(5.00000007450581,40.,57.2821961804446));
#669=CARTESIAN_POINT('Origin',(2.66453525910038E-14,40.,2.66453525910038E-14));
#670=CARTESIAN_POINT('',(5.00000007450581,0.,52.261362393789));
#671=CARTESIAN_POINT('Ctrl Pts',(5.00000007450581,40.,57.2821961804446));
#672=CARTESIAN_POINT('Ctrl Pts',(5.00000007450581,19.0833175255047,54.657669445969));
#673=CARTESIAN_POINT('Ctrl Pts',(5.00000007450581,0.,52.261362393789));
#674=CARTESIAN_POINT('Origin',(8.88178419700125E-15,0.,8.88178419700125E-15));
#675=CARTESIAN_POINT('Origin',(47.5,0.,0.));
#676=CARTESIAN_POINT('',(47.236109069228,0.,5.));
#677=CARTESIAN_POINT('Origin',(2.22044604925031E-14,0.,1.77635683940025E-14));
#678=CARTESIAN_POINT('',(52.7500004321337,0.,5.));
#679=CARTESIAN_POINT('Origin',(0.,-1.5,0.));
#680=CARTESIAN_POINT('',(47.236109069228,-3.,5.));
#681=CARTESIAN_POINT('Origin',(2.22044604925031E-14,-3.,1.77635683940025E-14));
#682=CARTESIAN_POINT('',(47.236109069228,-1.49999999999999,5.));
#683=CARTESIAN_POINT('Origin',(45.,-3.,0.));
#684=CARTESIAN_POINT('',(44.7213595499958,-3.,5.));
#685=CARTESIAN_POINT('Origin',(1.77635683940025E-14,-3.,8.88178419700125E-15));
#686=CARTESIAN_POINT('',(51.5000004321337,-3.,5.));
#687=CARTESIAN_POINT('Origin',(0.,-1.5,0.));
#688=CARTESIAN_POINT('',(44.7213595499958,-1.49999999999999,5.));
#689=CARTESIAN_POINT('Origin',(58.0000008642673,43.,5.));
#690=CARTESIAN_POINT('Ctrl Pts',(47.236109069228,40.,5.));
#691=CARTESIAN_POINT('Ctrl Pts',(46.1507717883202,22.7310786765648,5.));
#692=CARTESIAN_POINT('Ctrl Pts',(45.1136489255166,6.23809990942781,5.));
#693=CARTESIAN_POINT('',(57.7500004321337,40.,5.));
#694=CARTESIAN_POINT('Origin',(0.,20.,0.));
#695=CARTESIAN_POINT('Origin',(57.5,40.,0.));
#696=CARTESIAN_POINT('',(5.00000007450581,40.,52.261362393789));
#697=CARTESIAN_POINT('Origin',(8.88178419700125E-15,40.,8.88178419700125E-15));
#698=CARTESIAN_POINT('',(5.00000007450581,40.,22.0000003278255));
#699=CARTESIAN_POINT('Origin',(0.,-1.5,0.));
#700=CARTESIAN_POINT('',(5.00000007450581,-3.,44.7213595416658));
#701=CARTESIAN_POINT('Origin',(1.77635683940025E-14,-3.,8.88178419700125E-15));
#702=CARTESIAN_POINT('',(5.00000007450581,-1.49999999999999,44.7213595416658));
#703=CARTESIAN_POINT('Origin',(45.,-3.,0.));
#704=CARTESIAN_POINT('',(5.00000007450581,-3.,47.2361090613414));
#705=CARTESIAN_POINT('Origin',(2.22044604925031E-14,-3.,1.77635683940025E-14));
#706=CARTESIAN_POINT('',(5.00000007450581,-3.,22.0000003278255));
#707=CARTESIAN_POINT('Origin',(0.,-1.5,0.));
#708=CARTESIAN_POINT('',(5.00000007450581,0.,47.2361090613414));
#709=CARTESIAN_POINT('Origin',(2.22044604925031E-14,0.,1.77635683940025E-14));
#710=CARTESIAN_POINT('',(5.00000007450581,-1.49999999999999,47.2361090613414));
#711=CARTESIAN_POINT('Origin',(0.,41.5,0.));
#712=CARTESIAN_POINT('',(5.00000007450581,43.,52.261362393789));
#713=CARTESIAN_POINT('Origin',(8.88178419700125E-15,43.,8.88178419700125E-15));
#714=CARTESIAN_POINT('',(5.00000007450581,41.5,52.261362393789));
#715=CARTESIAN_POINT('Origin',(52.5,43.,0.));
#716=CARTESIAN_POINT('',(5.00000007450581,43.,22.0000003278255));
#717=CARTESIAN_POINT('Origin',(5.00000007450581,43.,44.0000006556511));
#718=CARTESIAN_POINT('',(5.00000007450581,0.,22.0000003278255));
#719=CARTESIAN_POINT('Ctrl Pts',(5.00000007450581,6.23810421584898,45.1136491880666));
#720=CARTESIAN_POINT('Ctrl Pts',(5.00000007450581,22.7310793300572,46.150771821286));
#721=CARTESIAN_POINT('Ctrl Pts',(5.00000007450581,40.,47.2361090613414));
#722=CARTESIAN_POINT('Origin',(0.,20.,0.));
#723=CARTESIAN_POINT('Origin',(47.5,0.,0.));
#724=UNCERTAINTY_MEASURE_WITH_UNIT(LENGTH_MEASURE(0.01),#728,
'DISTANCE_ACCURACY_VALUE',
'Maximum model space distance between geometric entities at asserted c
onnectivities');
#725=UNCERTAINTY_MEASURE_WITH_UNIT(LENGTH_MEASURE(0.01),#728,
'DISTANCE_ACCURACY_VALUE',
'Maximum model space distance between geometric entities at asserted c
onnectivities');
#726=(
GEOMETRIC_REPRESENTATION_CONTEXT(3)
GLOBAL_UNCERTAINTY_ASSIGNED_CONTEXT((#724))
GLOBAL_UNIT_ASSIGNED_CONTEXT((#728,#730,#731))
REPRESENTATION_CONTEXT('','3D')
);
#727=(
GEOMETRIC_REPRESENTATION_CONTEXT(3)
GLOBAL_UNCERTAINTY_ASSIGNED_CONTEXT((#725))
GLOBAL_UNIT_ASSIGNED_CONTEXT((#728,#730,#731))
REPRESENTATION_CONTEXT('','3D')
);
#728=(
LENGTH_UNIT()
NAMED_UNIT(*)
SI_UNIT(.MILLI.,.METRE.)
);
#729=(
LENGTH_UNIT()
NAMED_UNIT(*)
SI_UNIT($,.METRE.)
);
#730=(
NAMED_UNIT(*)
PLANE_ANGLE_UNIT()
SI_UNIT($,.RADIAN.)
);
#731=(
NAMED_UNIT(*)
SI_UNIT($,.STERADIAN.)
SOLID_ANGLE_UNIT()
);
#732=SHAPE_DEFINITION_REPRESENTATION(#733,#734);
#733=PRODUCT_DEFINITION_SHAPE('',$,#736);
#734=SHAPE_REPRESENTATION('',(#394),#726);
#735=PRODUCT_DEFINITION_CONTEXT('part definition',#740,'design');
#736=PRODUCT_DEFINITION('carcasas','carcasas',#737,#735);
#737=PRODUCT_DEFINITION_FORMATION('',$,#742);
#738=PRODUCT_RELATED_PRODUCT_CATEGORY('carcasas','carcasas',(#742));
#739=APPLICATION_PROTOCOL_DEFINITION('international standard',
'automotive_design',2009,#740);
#740=APPLICATION_CONTEXT(
'Core Data for Automotive Mechanical Design Process');
#741=PRODUCT_CONTEXT('part definition',#740,'mechanical');
#742=PRODUCT('carcasas','carcasas',$,(#741));
#743=PRESENTATION_STYLE_ASSIGNMENT((#744));
#744=SURFACE_STYLE_USAGE(.BOTH.,#745);
#745=SURFACE_SIDE_STYLE('',(#746));
#746=SURFACE_STYLE_FILL_AREA(#747);
#747=FILL_AREA_STYLE('Acero - Satinado',(#748));
#748=FILL_AREA_STYLE_COLOUR('Acero - Satinado',#749);
#749=COLOUR_RGB('Acero - Satinado',0.627450980392157,0.627450980392157,
0.627450980392157);
ENDSEC;
END-ISO-10303-21;
