ISO-10303-21;
HEADER;
/* Generated by software containing ST-Developer
 * from STEP Tools, Inc. (www.steptools.com) 
 */

FILE_DESCRIPTION(
/* description */ (''),
/* implementation_level */ '2;1');

FILE_NAME(
/* name */ 'carcasa abajop.step',
/* time_stamp */ '2026-07-13T17:07:16-04:00',
/* author */ (''),
/* organization */ (''),
/* preprocessor_version */ 'ST-DEVELOPER v20.1',
/* originating_system */ 'Autodesk Translation Framework v15.8.0.0',
/* authorisation */ '');

FILE_SCHEMA (('AUTOMOTIVE_DESIGN { 1 0 10303 214 3 1 1 }'));
ENDSEC;

DATA;
#10=MECHANICAL_DESIGN_GEOMETRIC_PRESENTATION_REPRESENTATION('',(#19,#20,
#21),#947);
#11=SHAPE_REPRESENTATION_RELATIONSHIP('SRR','None',#954,#12);
#12=ADVANCED_BREP_SHAPE_REPRESENTATION('',(#22,#23,#24),#946);
#13=CYLINDRICAL_SURFACE('',#535,4.);
#14=CYLINDRICAL_SURFACE('',#537,3.);
#15=CYLINDRICAL_SURFACE('',#539,4.);
#16=CYLINDRICAL_SURFACE('',#546,4.);
#17=CYLINDRICAL_SURFACE('',#550,3.);
#18=CYLINDRICAL_SURFACE('',#554,4.);
#19=STYLED_ITEM('',(#963),#22);
#20=STYLED_ITEM('',(#963),#23);
#21=STYLED_ITEM('',(#963),#24);
#22=MANIFOLD_SOLID_BREP('Cuerpo1',#499);
#23=MANIFOLD_SOLID_BREP('Cuerpo1',#500);
#24=MANIFOLD_SOLID_BREP('Cuerpo2',#501);
#25=CIRCLE('',#518,18.160079221041);
#26=CIRCLE('',#519,22.5345123973372);
#27=CIRCLE('',#521,52.499316847934);
#28=CIRCLE('',#524,45.);
#29=CIRCLE('',#528,4.);
#30=CIRCLE('',#529,4.);
#31=CIRCLE('',#530,3.);
#32=CIRCLE('',#532,4.);
#33=CIRCLE('',#533,3.);
#34=CIRCLE('',#534,4.);
#35=CIRCLE('',#547,4.);
#36=CIRCLE('',#548,4.);
#37=CIRCLE('',#551,3.);
#38=CIRCLE('',#552,3.);
#39=CIRCLE('',#555,4.);
#40=CIRCLE('',#556,4.);
#41=CONICAL_SURFACE('',#517,22.5345123973372,0.0872664625997165);
#42=CONICAL_SURFACE('',#526,45.,0.148876585195116);
#43=(
BOUNDED_SURFACE()
B_SPLINE_SURFACE(5,1,((#730,#731),(#732,#733),(#734,#735),(#736,#737),(#738,
#739),(#740,#741),(#742,#743),(#744,#745),(#746,#747),(#748,#749),(#750,
#751),(#752,#753),(#754,#755),(#756,#757),(#758,#759)),.UNSPECIFIED.,.F.,
 .F.,.F.)
B_SPLINE_SURFACE_WITH_KNOTS((6,1,1,1,1,1,1,1,1,1,6),(2,2),(-1.,-0.9,-0.8,
-0.7,-0.6,-0.5,-0.4,-0.3,-0.2,-0.1,0.),(0.,6.4),.UNSPECIFIED.)
GEOMETRIC_REPRESENTATION_ITEM()
RATIONAL_B_SPLINE_SURFACE(((1.,1.),(1.,1.),(1.,1.),(1.,1.),(1.,1.),(1.,
1.),(1.,1.),(1.,1.),(1.,1.),(1.,1.),(1.,1.),(1.,1.),(1.,1.),(1.,1.),(1.,
1.)))
REPRESENTATION_ITEM('')
SURFACE()
);
#44=(
BOUNDED_SURFACE()
B_SPLINE_SURFACE(5,1,((#775,#776),(#777,#778),(#779,#780),(#781,#782),(#783,
#784),(#785,#786),(#787,#788),(#789,#790),(#791,#792),(#793,#794),(#795,
#796),(#797,#798),(#799,#800),(#801,#802),(#803,#804)),.UNSPECIFIED.,.F.,
 .F.,.F.)
B_SPLINE_SURFACE_WITH_KNOTS((6,1,1,1,1,1,1,1,1,1,6),(2,2),(-1.,-0.9,-0.8,
-0.7,-0.6,-0.5,-0.4,-0.3,-0.2,-0.1,0.),(0.,6.4),.UNSPECIFIED.)
GEOMETRIC_REPRESENTATION_ITEM()
RATIONAL_B_SPLINE_SURFACE(((1.,1.),(1.,1.),(1.,1.),(1.,1.),(1.,1.),(1.,
1.),(1.,1.),(1.,1.),(1.,1.),(1.,1.),(1.,1.),(1.,1.),(1.,1.),(1.,1.),(1.,
1.)))
REPRESENTATION_ITEM('')
SURFACE()
);
#45=FACE_OUTER_BOUND('',#75,.T.);
#46=FACE_OUTER_BOUND('',#76,.T.);
#47=FACE_OUTER_BOUND('',#77,.T.);
#48=FACE_OUTER_BOUND('',#78,.T.);
#49=FACE_OUTER_BOUND('',#79,.T.);
#50=FACE_OUTER_BOUND('',#80,.T.);
#51=FACE_OUTER_BOUND('',#81,.T.);
#52=FACE_OUTER_BOUND('',#82,.T.);
#53=FACE_OUTER_BOUND('',#83,.T.);
#54=FACE_OUTER_BOUND('',#84,.T.);
#55=FACE_OUTER_BOUND('',#85,.T.);
#56=FACE_OUTER_BOUND('',#86,.T.);
#57=FACE_OUTER_BOUND('',#87,.T.);
#58=FACE_OUTER_BOUND('',#88,.T.);
#59=FACE_OUTER_BOUND('',#89,.T.);
#60=FACE_OUTER_BOUND('',#90,.T.);
#61=FACE_OUTER_BOUND('',#91,.T.);
#62=FACE_OUTER_BOUND('',#92,.T.);
#63=FACE_OUTER_BOUND('',#93,.T.);
#64=FACE_OUTER_BOUND('',#94,.T.);
#65=FACE_OUTER_BOUND('',#95,.T.);
#66=FACE_OUTER_BOUND('',#96,.T.);
#67=FACE_OUTER_BOUND('',#97,.T.);
#68=FACE_OUTER_BOUND('',#98,.T.);
#69=FACE_OUTER_BOUND('',#99,.T.);
#70=FACE_OUTER_BOUND('',#100,.T.);
#71=FACE_OUTER_BOUND('',#101,.T.);
#72=FACE_OUTER_BOUND('',#102,.T.);
#73=FACE_OUTER_BOUND('',#103,.T.);
#74=FACE_OUTER_BOUND('',#104,.T.);
#75=EDGE_LOOP('',(#313,#314,#315));
#76=EDGE_LOOP('',(#316,#317,#318));
#77=EDGE_LOOP('',(#319,#320,#321));
#78=EDGE_LOOP('',(#322,#323,#324));
#79=EDGE_LOOP('',(#325,#326,#327,#328));
#80=EDGE_LOOP('',(#329,#330,#331,#332));
#81=EDGE_LOOP('',(#333,#334,#335,#336));
#82=EDGE_LOOP('',(#337,#338,#339,#340,#341,#342,#343,#344));
#83=EDGE_LOOP('',(#345,#346,#347,#348));
#84=EDGE_LOOP('',(#349,#350,#351,#352));
#85=EDGE_LOOP('',(#353,#354,#355,#356,#357,#358,#359,#360));
#86=EDGE_LOOP('',(#361,#362,#363,#364,#365,#366,#367,#368));
#87=EDGE_LOOP('',(#369,#370,#371,#372));
#88=EDGE_LOOP('',(#373,#374,#375,#376));
#89=EDGE_LOOP('',(#377,#378,#379,#380));
#90=EDGE_LOOP('',(#381,#382,#383,#384));
#91=EDGE_LOOP('',(#385,#386,#387,#388));
#92=EDGE_LOOP('',(#389,#390,#391,#392));
#93=EDGE_LOOP('',(#393,#394,#395,#396));
#94=EDGE_LOOP('',(#397,#398,#399,#400));
#95=EDGE_LOOP('',(#401,#402,#403,#404));
#96=EDGE_LOOP('',(#405,#406,#407,#408));
#97=EDGE_LOOP('',(#409,#410,#411,#412));
#98=EDGE_LOOP('',(#413,#414,#415,#416));
#99=EDGE_LOOP('',(#417,#418,#419,#420));
#100=EDGE_LOOP('',(#421,#422,#423,#424));
#101=EDGE_LOOP('',(#425,#426,#427,#428));
#102=EDGE_LOOP('',(#429,#430,#431,#432));
#103=EDGE_LOOP('',(#433,#434,#435,#436,#437,#438,#439,#440));
#104=EDGE_LOOP('',(#441,#442,#443,#444,#445,#446,#447,#448));
#105=(
BOUNDED_CURVE()
B_SPLINE_CURVE(2,(#709,#710,#711),.UNSPECIFIED.,.F.,.F.)
B_SPLINE_CURVE_WITH_KNOTS((3,3),(0.477114329490421,5.4476395633772),
 .UNSPECIFIED.)
CURVE()
GEOMETRIC_REPRESENTATION_ITEM()
RATIONAL_B_SPLINE_CURVE((1.,1.,1.))
REPRESENTATION_ITEM('')
);
#106=(
BOUNDED_CURVE()
B_SPLINE_CURVE(2,(#717,#718,#719),.UNSPECIFIED.,.F.,.F.)
B_SPLINE_CURVE_WITH_KNOTS((3,3),(0.477114329490423,5.4476395633772),
 .UNSPECIFIED.)
CURVE()
GEOMETRIC_REPRESENTATION_ITEM()
RATIONAL_B_SPLINE_CURVE((1.,1.,1.))
REPRESENTATION_ITEM('')
);
#107=(
BOUNDED_CURVE()
B_SPLINE_CURVE(2,(#832,#833,#834),.UNSPECIFIED.,.F.,.F.)
B_SPLINE_CURVE_WITH_KNOTS((3,3),(0.,5.07596677013518),.UNSPECIFIED.)
CURVE()
GEOMETRIC_REPRESENTATION_ITEM()
RATIONAL_B_SPLINE_CURVE((1.,1.00404974373513,1.))
REPRESENTATION_ITEM('')
);
#108=(
BOUNDED_CURVE()
B_SPLINE_CURVE(2,(#840,#841,#842),.UNSPECIFIED.,.F.,.F.)
B_SPLINE_CURVE_WITH_KNOTS((3,3),(0.,5.07596677013518),.UNSPECIFIED.)
CURVE()
GEOMETRIC_REPRESENTATION_ITEM()
RATIONAL_B_SPLINE_CURVE((1.,1.00404974373513,1.))
REPRESENTATION_ITEM('')
);
#109=B_SPLINE_CURVE_WITH_KNOTS('',3,(#699,#700,#701,#702,#703,#704,#705,
#706,#707,#708),.UNSPECIFIED.,.F.,.F.,(4,3,3,4),(-5.02441367252406,-2.45881291665942,
-0.12756035705103,0.),.UNSPECIFIED.);
#110=B_SPLINE_CURVE_WITH_KNOTS('',3,(#720,#721,#722,#723,#724,#725,#726,
#727,#728,#729),.UNSPECIFIED.,.F.,.F.,(4,3,3,4),(-5.01966332027822,-3.05690157306744,
-2.47818678712712,0.),.UNSPECIFIED.);
#111=B_SPLINE_CURVE_WITH_KNOTS('',3,(#761,#762,#763,#764,#765,#766,#767,
#768,#769,#770,#771,#772,#773),.UNSPECIFIED.,.F.,.F.,(4,3,3,3,4),(0.,0.182264308146612,
0.359405280842944,0.544231256714696,0.729057232586447),.UNSPECIFIED.);
#112=B_SPLINE_CURVE_WITH_KNOTS('',3,(#807,#808,#809,#810,#811,#812,#813,
#814,#815,#816,#817,#818,#819),.UNSPECIFIED.,.F.,.F.,(4,3,3,3,4),(5.08489418536727,
5.32914135778463,5.56885491767149,5.81536889635409,6.06188287503669),
 .UNSPECIFIED.);
#113=LINE('',#697,#157);
#114=LINE('',#715,#158);
#115=LINE('',#774,#159);
#116=LINE('',#806,#160);
#117=LINE('',#825,#161);
#118=LINE('',#828,#162);
#119=LINE('',#831,#163);
#120=LINE('',#837,#164);
#121=LINE('',#849,#165);
#122=LINE('',#851,#166);
#123=LINE('',#853,#167);
#124=LINE('',#857,#168);
#125=LINE('',#860,#169);
#126=LINE('',#866,#170);
#127=LINE('',#870,#171);
#128=LINE('',#874,#172);
#129=LINE('',#876,#173);
#130=LINE('',#877,#174);
#131=LINE('',#879,#175);
#132=LINE('',#880,#176);
#133=LINE('',#882,#177);
#134=LINE('',#884,#178);
#135=LINE('',#886,#179);
#136=LINE('',#888,#180);
#137=LINE('',#890,#181);
#138=LINE('',#892,#182);
#139=LINE('',#897,#183);
#140=LINE('',#899,#184);
#141=LINE('',#901,#185);
#142=LINE('',#902,#186);
#143=LINE('',#905,#187);
#144=LINE('',#907,#188);
#145=LINE('',#908,#189);
#146=LINE('',#911,#190);
#147=LINE('',#913,#191);
#148=LINE('',#914,#192);
#149=LINE('',#920,#193);
#150=LINE('',#923,#194);
#151=LINE('',#925,#195);
#152=LINE('',#926,#196);
#153=LINE('',#932,#197);
#154=LINE('',#935,#198);
#155=LINE('',#937,#199);
#156=LINE('',#938,#200);
#157=VECTOR('',#563,10.);
#158=VECTOR('',#566,10.);
#159=VECTOR('',#567,10.);
#160=VECTOR('',#568,10.);
#161=VECTOR('',#577,10.);
#162=VECTOR('',#580,10.);
#163=VECTOR('',#583,10.);
#164=VECTOR('',#586,10.);
#165=VECTOR('',#597,10.);
#166=VECTOR('',#598,10.);
#167=VECTOR('',#599,10.);
#168=VECTOR('',#602,10.);
#169=VECTOR('',#605,10.);
#170=VECTOR('',#610,10.);
#171=VECTOR('',#613,10.);
#172=VECTOR('',#616,10.);
#173=VECTOR('',#617,10.);
#174=VECTOR('',#618,10.);
#175=VECTOR('',#621,10.);
#176=VECTOR('',#622,10.);
#177=VECTOR('',#625,10.);
#178=VECTOR('',#628,10.);
#179=VECTOR('',#631,10.);
#180=VECTOR('',#634,10.);
#181=VECTOR('',#637,10.);
#182=VECTOR('',#640,10.);
#183=VECTOR('',#645,10.);
#184=VECTOR('',#646,10.);
#185=VECTOR('',#647,10.);
#186=VECTOR('',#648,10.);
#187=VECTOR('',#651,10.);
#188=VECTOR('',#652,10.);
#189=VECTOR('',#653,10.);
#190=VECTOR('',#656,10.);
#191=VECTOR('',#657,10.);
#192=VECTOR('',#658,10.);
#193=VECTOR('',#665,10.);
#194=VECTOR('',#668,10.);
#195=VECTOR('',#669,10.);
#196=VECTOR('',#670,10.);
#197=VECTOR('',#677,10.);
#198=VECTOR('',#680,10.);
#199=VECTOR('',#681,10.);
#200=VECTOR('',#682,10.);
#201=VERTEX_POINT('',#695);
#202=VERTEX_POINT('',#696);
#203=VERTEX_POINT('',#698);
#204=VERTEX_POINT('',#713);
#205=VERTEX_POINT('',#714);
#206=VERTEX_POINT('',#716);
#207=VERTEX_POINT('',#760);
#208=VERTEX_POINT('',#805);
#209=VERTEX_POINT('',#824);
#210=VERTEX_POINT('',#826);
#211=VERTEX_POINT('',#830);
#212=VERTEX_POINT('',#836);
#213=VERTEX_POINT('',#845);
#214=VERTEX_POINT('',#846);
#215=VERTEX_POINT('',#848);
#216=VERTEX_POINT('',#850);
#217=VERTEX_POINT('',#852);
#218=VERTEX_POINT('',#854);
#219=VERTEX_POINT('',#856);
#220=VERTEX_POINT('',#858);
#221=VERTEX_POINT('',#862);
#222=VERTEX_POINT('',#863);
#223=VERTEX_POINT('',#865);
#224=VERTEX_POINT('',#867);
#225=VERTEX_POINT('',#869);
#226=VERTEX_POINT('',#871);
#227=VERTEX_POINT('',#873);
#228=VERTEX_POINT('',#875);
#229=VERTEX_POINT('',#895);
#230=VERTEX_POINT('',#896);
#231=VERTEX_POINT('',#898);
#232=VERTEX_POINT('',#900);
#233=VERTEX_POINT('',#904);
#234=VERTEX_POINT('',#906);
#235=VERTEX_POINT('',#910);
#236=VERTEX_POINT('',#912);
#237=VERTEX_POINT('',#916);
#238=VERTEX_POINT('',#918);
#239=VERTEX_POINT('',#922);
#240=VERTEX_POINT('',#924);
#241=VERTEX_POINT('',#928);
#242=VERTEX_POINT('',#930);
#243=VERTEX_POINT('',#934);
#244=VERTEX_POINT('',#936);
#245=EDGE_CURVE('',#201,#202,#113,.T.);
#246=EDGE_CURVE('',#203,#201,#109,.T.);
#247=EDGE_CURVE('',#203,#202,#105,.T.);
#248=EDGE_CURVE('',#204,#205,#114,.T.);
#249=EDGE_CURVE('',#206,#204,#106,.T.);
#250=EDGE_CURVE('',#205,#206,#110,.T.);
#251=EDGE_CURVE('',#207,#201,#111,.T.);
#252=EDGE_CURVE('',#203,#207,#115,.T.);
#253=EDGE_CURVE('',#208,#206,#116,.T.);
#254=EDGE_CURVE('',#205,#208,#112,.T.);
#255=EDGE_CURVE('',#202,#204,#25,.T.);
#256=EDGE_CURVE('',#206,#203,#26,.T.);
#257=EDGE_CURVE('',#203,#209,#117,.T.);
#258=EDGE_CURVE('',#210,#209,#27,.T.);
#259=EDGE_CURVE('',#210,#206,#118,.T.);
#260=EDGE_CURVE('',#211,#207,#119,.T.);
#261=EDGE_CURVE('',#209,#211,#107,.T.);
#262=EDGE_CURVE('',#208,#212,#120,.T.);
#263=EDGE_CURVE('',#211,#212,#28,.T.);
#264=EDGE_CURVE('',#212,#210,#108,.T.);
#265=EDGE_CURVE('',#213,#214,#29,.T.);
#266=EDGE_CURVE('',#215,#213,#121,.T.);
#267=EDGE_CURVE('',#215,#216,#122,.T.);
#268=EDGE_CURVE('',#217,#216,#123,.T.);
#269=EDGE_CURVE('',#218,#217,#30,.T.);
#270=EDGE_CURVE('',#219,#218,#124,.T.);
#271=EDGE_CURVE('',#219,#220,#31,.T.);
#272=EDGE_CURVE('',#214,#220,#125,.T.);
#273=EDGE_CURVE('',#221,#222,#32,.T.);
#274=EDGE_CURVE('',#222,#223,#126,.T.);
#275=EDGE_CURVE('',#223,#224,#33,.T.);
#276=EDGE_CURVE('',#224,#225,#127,.T.);
#277=EDGE_CURVE('',#225,#226,#34,.T.);
#278=EDGE_CURVE('',#226,#227,#128,.T.);
#279=EDGE_CURVE('',#227,#228,#129,.T.);
#280=EDGE_CURVE('',#228,#221,#130,.T.);
#281=EDGE_CURVE('',#214,#222,#131,.T.);
#282=EDGE_CURVE('',#213,#221,#132,.T.);
#283=EDGE_CURVE('',#220,#223,#133,.T.);
#284=EDGE_CURVE('',#219,#224,#134,.T.);
#285=EDGE_CURVE('',#218,#225,#135,.T.);
#286=EDGE_CURVE('',#217,#226,#136,.T.);
#287=EDGE_CURVE('',#216,#227,#137,.T.);
#288=EDGE_CURVE('',#215,#228,#138,.T.);
#289=EDGE_CURVE('',#229,#230,#139,.T.);
#290=EDGE_CURVE('',#229,#231,#140,.T.);
#291=EDGE_CURVE('',#232,#231,#141,.T.);
#292=EDGE_CURVE('',#230,#232,#142,.T.);
#293=EDGE_CURVE('',#230,#233,#143,.T.);
#294=EDGE_CURVE('',#234,#232,#144,.T.);
#295=EDGE_CURVE('',#233,#234,#145,.T.);
#296=EDGE_CURVE('',#233,#235,#146,.T.);
#297=EDGE_CURVE('',#236,#234,#147,.T.);
#298=EDGE_CURVE('',#235,#236,#148,.T.);
#299=EDGE_CURVE('',#237,#235,#35,.T.);
#300=EDGE_CURVE('',#238,#236,#36,.T.);
#301=EDGE_CURVE('',#237,#238,#149,.T.);
#302=EDGE_CURVE('',#237,#239,#150,.T.);
#303=EDGE_CURVE('',#240,#238,#151,.T.);
#304=EDGE_CURVE('',#239,#240,#152,.T.);
#305=EDGE_CURVE('',#239,#241,#37,.T.);
#306=EDGE_CURVE('',#242,#240,#38,.T.);
#307=EDGE_CURVE('',#241,#242,#153,.T.);
#308=EDGE_CURVE('',#241,#243,#154,.T.);
#309=EDGE_CURVE('',#244,#242,#155,.T.);
#310=EDGE_CURVE('',#243,#244,#156,.T.);
#311=EDGE_CURVE('',#229,#243,#39,.T.);
#312=EDGE_CURVE('',#231,#244,#40,.T.);
#313=ORIENTED_EDGE('',*,*,#245,.F.);
#314=ORIENTED_EDGE('',*,*,#246,.F.);
#315=ORIENTED_EDGE('',*,*,#247,.T.);
#316=ORIENTED_EDGE('',*,*,#248,.F.);
#317=ORIENTED_EDGE('',*,*,#249,.F.);
#318=ORIENTED_EDGE('',*,*,#250,.F.);
#319=ORIENTED_EDGE('',*,*,#246,.T.);
#320=ORIENTED_EDGE('',*,*,#251,.F.);
#321=ORIENTED_EDGE('',*,*,#252,.F.);
#322=ORIENTED_EDGE('',*,*,#250,.T.);
#323=ORIENTED_EDGE('',*,*,#253,.F.);
#324=ORIENTED_EDGE('',*,*,#254,.F.);
#325=ORIENTED_EDGE('',*,*,#255,.F.);
#326=ORIENTED_EDGE('',*,*,#247,.F.);
#327=ORIENTED_EDGE('',*,*,#256,.F.);
#328=ORIENTED_EDGE('',*,*,#249,.T.);
#329=ORIENTED_EDGE('',*,*,#256,.T.);
#330=ORIENTED_EDGE('',*,*,#257,.T.);
#331=ORIENTED_EDGE('',*,*,#258,.F.);
#332=ORIENTED_EDGE('',*,*,#259,.T.);
#333=ORIENTED_EDGE('',*,*,#252,.T.);
#334=ORIENTED_EDGE('',*,*,#260,.F.);
#335=ORIENTED_EDGE('',*,*,#261,.F.);
#336=ORIENTED_EDGE('',*,*,#257,.F.);
#337=ORIENTED_EDGE('',*,*,#248,.T.);
#338=ORIENTED_EDGE('',*,*,#254,.T.);
#339=ORIENTED_EDGE('',*,*,#262,.T.);
#340=ORIENTED_EDGE('',*,*,#263,.F.);
#341=ORIENTED_EDGE('',*,*,#260,.T.);
#342=ORIENTED_EDGE('',*,*,#251,.T.);
#343=ORIENTED_EDGE('',*,*,#245,.T.);
#344=ORIENTED_EDGE('',*,*,#255,.T.);
#345=ORIENTED_EDGE('',*,*,#253,.T.);
#346=ORIENTED_EDGE('',*,*,#259,.F.);
#347=ORIENTED_EDGE('',*,*,#264,.F.);
#348=ORIENTED_EDGE('',*,*,#262,.F.);
#349=ORIENTED_EDGE('',*,*,#264,.T.);
#350=ORIENTED_EDGE('',*,*,#258,.T.);
#351=ORIENTED_EDGE('',*,*,#261,.T.);
#352=ORIENTED_EDGE('',*,*,#263,.T.);
#353=ORIENTED_EDGE('',*,*,#265,.F.);
#354=ORIENTED_EDGE('',*,*,#266,.F.);
#355=ORIENTED_EDGE('',*,*,#267,.T.);
#356=ORIENTED_EDGE('',*,*,#268,.F.);
#357=ORIENTED_EDGE('',*,*,#269,.F.);
#358=ORIENTED_EDGE('',*,*,#270,.F.);
#359=ORIENTED_EDGE('',*,*,#271,.T.);
#360=ORIENTED_EDGE('',*,*,#272,.F.);
#361=ORIENTED_EDGE('',*,*,#273,.T.);
#362=ORIENTED_EDGE('',*,*,#274,.T.);
#363=ORIENTED_EDGE('',*,*,#275,.T.);
#364=ORIENTED_EDGE('',*,*,#276,.T.);
#365=ORIENTED_EDGE('',*,*,#277,.T.);
#366=ORIENTED_EDGE('',*,*,#278,.T.);
#367=ORIENTED_EDGE('',*,*,#279,.T.);
#368=ORIENTED_EDGE('',*,*,#280,.T.);
#369=ORIENTED_EDGE('',*,*,#265,.T.);
#370=ORIENTED_EDGE('',*,*,#281,.T.);
#371=ORIENTED_EDGE('',*,*,#273,.F.);
#372=ORIENTED_EDGE('',*,*,#282,.F.);
#373=ORIENTED_EDGE('',*,*,#272,.T.);
#374=ORIENTED_EDGE('',*,*,#283,.T.);
#375=ORIENTED_EDGE('',*,*,#274,.F.);
#376=ORIENTED_EDGE('',*,*,#281,.F.);
#377=ORIENTED_EDGE('',*,*,#271,.F.);
#378=ORIENTED_EDGE('',*,*,#284,.T.);
#379=ORIENTED_EDGE('',*,*,#275,.F.);
#380=ORIENTED_EDGE('',*,*,#283,.F.);
#381=ORIENTED_EDGE('',*,*,#270,.T.);
#382=ORIENTED_EDGE('',*,*,#285,.T.);
#383=ORIENTED_EDGE('',*,*,#276,.F.);
#384=ORIENTED_EDGE('',*,*,#284,.F.);
#385=ORIENTED_EDGE('',*,*,#269,.T.);
#386=ORIENTED_EDGE('',*,*,#286,.T.);
#387=ORIENTED_EDGE('',*,*,#277,.F.);
#388=ORIENTED_EDGE('',*,*,#285,.F.);
#389=ORIENTED_EDGE('',*,*,#268,.T.);
#390=ORIENTED_EDGE('',*,*,#287,.T.);
#391=ORIENTED_EDGE('',*,*,#278,.F.);
#392=ORIENTED_EDGE('',*,*,#286,.F.);
#393=ORIENTED_EDGE('',*,*,#267,.F.);
#394=ORIENTED_EDGE('',*,*,#288,.T.);
#395=ORIENTED_EDGE('',*,*,#279,.F.);
#396=ORIENTED_EDGE('',*,*,#287,.F.);
#397=ORIENTED_EDGE('',*,*,#266,.T.);
#398=ORIENTED_EDGE('',*,*,#282,.T.);
#399=ORIENTED_EDGE('',*,*,#280,.F.);
#400=ORIENTED_EDGE('',*,*,#288,.F.);
#401=ORIENTED_EDGE('',*,*,#289,.F.);
#402=ORIENTED_EDGE('',*,*,#290,.T.);
#403=ORIENTED_EDGE('',*,*,#291,.F.);
#404=ORIENTED_EDGE('',*,*,#292,.F.);
#405=ORIENTED_EDGE('',*,*,#293,.F.);
#406=ORIENTED_EDGE('',*,*,#292,.T.);
#407=ORIENTED_EDGE('',*,*,#294,.F.);
#408=ORIENTED_EDGE('',*,*,#295,.F.);
#409=ORIENTED_EDGE('',*,*,#296,.F.);
#410=ORIENTED_EDGE('',*,*,#295,.T.);
#411=ORIENTED_EDGE('',*,*,#297,.F.);
#412=ORIENTED_EDGE('',*,*,#298,.F.);
#413=ORIENTED_EDGE('',*,*,#299,.T.);
#414=ORIENTED_EDGE('',*,*,#298,.T.);
#415=ORIENTED_EDGE('',*,*,#300,.F.);
#416=ORIENTED_EDGE('',*,*,#301,.F.);
#417=ORIENTED_EDGE('',*,*,#302,.F.);
#418=ORIENTED_EDGE('',*,*,#301,.T.);
#419=ORIENTED_EDGE('',*,*,#303,.F.);
#420=ORIENTED_EDGE('',*,*,#304,.F.);
#421=ORIENTED_EDGE('',*,*,#305,.F.);
#422=ORIENTED_EDGE('',*,*,#304,.T.);
#423=ORIENTED_EDGE('',*,*,#306,.F.);
#424=ORIENTED_EDGE('',*,*,#307,.F.);
#425=ORIENTED_EDGE('',*,*,#308,.F.);
#426=ORIENTED_EDGE('',*,*,#307,.T.);
#427=ORIENTED_EDGE('',*,*,#309,.F.);
#428=ORIENTED_EDGE('',*,*,#310,.F.);
#429=ORIENTED_EDGE('',*,*,#311,.T.);
#430=ORIENTED_EDGE('',*,*,#310,.T.);
#431=ORIENTED_EDGE('',*,*,#312,.F.);
#432=ORIENTED_EDGE('',*,*,#290,.F.);
#433=ORIENTED_EDGE('',*,*,#312,.T.);
#434=ORIENTED_EDGE('',*,*,#309,.T.);
#435=ORIENTED_EDGE('',*,*,#306,.T.);
#436=ORIENTED_EDGE('',*,*,#303,.T.);
#437=ORIENTED_EDGE('',*,*,#300,.T.);
#438=ORIENTED_EDGE('',*,*,#297,.T.);
#439=ORIENTED_EDGE('',*,*,#294,.T.);
#440=ORIENTED_EDGE('',*,*,#291,.T.);
#441=ORIENTED_EDGE('',*,*,#311,.F.);
#442=ORIENTED_EDGE('',*,*,#289,.T.);
#443=ORIENTED_EDGE('',*,*,#293,.T.);
#444=ORIENTED_EDGE('',*,*,#296,.T.);
#445=ORIENTED_EDGE('',*,*,#299,.F.);
#446=ORIENTED_EDGE('',*,*,#302,.T.);
#447=ORIENTED_EDGE('',*,*,#305,.T.);
#448=ORIENTED_EDGE('',*,*,#308,.T.);
#449=PLANE('',#515);
#450=PLANE('',#516);
#451=PLANE('',#520);
#452=PLANE('',#522);
#453=PLANE('',#523);
#454=PLANE('',#525);
#455=PLANE('',#527);
#456=PLANE('',#531);
#457=PLANE('',#536);
#458=PLANE('',#538);
#459=PLANE('',#540);
#460=PLANE('',#541);
#461=PLANE('',#542);
#462=PLANE('',#543);
#463=PLANE('',#544);
#464=PLANE('',#545);
#465=PLANE('',#549);
#466=PLANE('',#553);
#467=PLANE('',#557);
#468=PLANE('',#558);
#469=ADVANCED_FACE('',(#45),#449,.F.);
#470=ADVANCED_FACE('',(#46),#450,.F.);
#471=ADVANCED_FACE('',(#47),#43,.F.);
#472=ADVANCED_FACE('',(#48),#44,.F.);
#473=ADVANCED_FACE('',(#49),#41,.F.);
#474=ADVANCED_FACE('',(#50),#451,.T.);
#475=ADVANCED_FACE('',(#51),#452,.F.);
#476=ADVANCED_FACE('',(#52),#453,.F.);
#477=ADVANCED_FACE('',(#53),#454,.F.);
#478=ADVANCED_FACE('',(#54),#42,.T.);
#479=ADVANCED_FACE('',(#55),#455,.F.);
#480=ADVANCED_FACE('',(#56),#456,.T.);
#481=ADVANCED_FACE('',(#57),#13,.T.);
#482=ADVANCED_FACE('',(#58),#457,.T.);
#483=ADVANCED_FACE('',(#59),#14,.F.);
#484=ADVANCED_FACE('',(#60),#458,.T.);
#485=ADVANCED_FACE('',(#61),#15,.T.);
#486=ADVANCED_FACE('',(#62),#459,.T.);
#487=ADVANCED_FACE('',(#63),#460,.T.);
#488=ADVANCED_FACE('',(#64),#461,.T.);
#489=ADVANCED_FACE('',(#65),#462,.T.);
#490=ADVANCED_FACE('',(#66),#463,.T.);
#491=ADVANCED_FACE('',(#67),#464,.T.);
#492=ADVANCED_FACE('',(#68),#16,.T.);
#493=ADVANCED_FACE('',(#69),#465,.T.);
#494=ADVANCED_FACE('',(#70),#17,.F.);
#495=ADVANCED_FACE('',(#71),#466,.T.);
#496=ADVANCED_FACE('',(#72),#18,.T.);
#497=ADVANCED_FACE('',(#73),#467,.T.);
#498=ADVANCED_FACE('',(#74),#468,.F.);
#499=CLOSED_SHELL('',(#469,#470,#471,#472,#473,#474,#475,#476,#477,#478));
#500=CLOSED_SHELL('',(#479,#480,#481,#482,#483,#484,#485,#486,#487,#488));
#501=CLOSED_SHELL('',(#489,#490,#491,#492,#493,#494,#495,#496,#497,#498));
#502=DERIVED_UNIT_ELEMENT(#504,1.);
#503=DERIVED_UNIT_ELEMENT(#949,-3.);
#504=(
MASS_UNIT()
NAMED_UNIT(*)
SI_UNIT(.KILO.,.GRAM.)
);
#505=DERIVED_UNIT((#502,#503));
#506=MEASURE_REPRESENTATION_ITEM('density measure',
POSITIVE_RATIO_MEASURE(7850.),#505);
#507=PROPERTY_DEFINITION_REPRESENTATION(#512,#509);
#508=PROPERTY_DEFINITION_REPRESENTATION(#513,#510);
#509=REPRESENTATION('material name',(#511),#946);
#510=REPRESENTATION('density',(#506),#946);
#511=DESCRIPTIVE_REPRESENTATION_ITEM('Acero','Acero');
#512=PROPERTY_DEFINITION('material property','material name',#956);
#513=PROPERTY_DEFINITION('material property','density of part',#956);
#514=AXIS2_PLACEMENT_3D('',#693,#559,#560);
#515=AXIS2_PLACEMENT_3D('',#694,#561,#562);
#516=AXIS2_PLACEMENT_3D('',#712,#564,#565);
#517=AXIS2_PLACEMENT_3D('',#820,#569,#570);
#518=AXIS2_PLACEMENT_3D('',#821,#571,#572);
#519=AXIS2_PLACEMENT_3D('',#822,#573,#574);
#520=AXIS2_PLACEMENT_3D('',#823,#575,#576);
#521=AXIS2_PLACEMENT_3D('',#827,#578,#579);
#522=AXIS2_PLACEMENT_3D('',#829,#581,#582);
#523=AXIS2_PLACEMENT_3D('',#835,#584,#585);
#524=AXIS2_PLACEMENT_3D('',#838,#587,#588);
#525=AXIS2_PLACEMENT_3D('',#839,#589,#590);
#526=AXIS2_PLACEMENT_3D('',#843,#591,#592);
#527=AXIS2_PLACEMENT_3D('',#844,#593,#594);
#528=AXIS2_PLACEMENT_3D('',#847,#595,#596);
#529=AXIS2_PLACEMENT_3D('',#855,#600,#601);
#530=AXIS2_PLACEMENT_3D('',#859,#603,#604);
#531=AXIS2_PLACEMENT_3D('',#861,#606,#607);
#532=AXIS2_PLACEMENT_3D('',#864,#608,#609);
#533=AXIS2_PLACEMENT_3D('',#868,#611,#612);
#534=AXIS2_PLACEMENT_3D('',#872,#614,#615);
#535=AXIS2_PLACEMENT_3D('',#878,#619,#620);
#536=AXIS2_PLACEMENT_3D('',#881,#623,#624);
#537=AXIS2_PLACEMENT_3D('',#883,#626,#627);
#538=AXIS2_PLACEMENT_3D('',#885,#629,#630);
#539=AXIS2_PLACEMENT_3D('',#887,#632,#633);
#540=AXIS2_PLACEMENT_3D('',#889,#635,#636);
#541=AXIS2_PLACEMENT_3D('',#891,#638,#639);
#542=AXIS2_PLACEMENT_3D('',#893,#641,#642);
#543=AXIS2_PLACEMENT_3D('',#894,#643,#644);
#544=AXIS2_PLACEMENT_3D('',#903,#649,#650);
#545=AXIS2_PLACEMENT_3D('',#909,#654,#655);
#546=AXIS2_PLACEMENT_3D('',#915,#659,#660);
#547=AXIS2_PLACEMENT_3D('',#917,#661,#662);
#548=AXIS2_PLACEMENT_3D('',#919,#663,#664);
#549=AXIS2_PLACEMENT_3D('',#921,#666,#667);
#550=AXIS2_PLACEMENT_3D('',#927,#671,#672);
#551=AXIS2_PLACEMENT_3D('',#929,#673,#674);
#552=AXIS2_PLACEMENT_3D('',#931,#675,#676);
#553=AXIS2_PLACEMENT_3D('',#933,#678,#679);
#554=AXIS2_PLACEMENT_3D('',#939,#683,#684);
#555=AXIS2_PLACEMENT_3D('',#940,#685,#686);
#556=AXIS2_PLACEMENT_3D('',#941,#687,#688);
#557=AXIS2_PLACEMENT_3D('',#942,#689,#690);
#558=AXIS2_PLACEMENT_3D('',#943,#691,#692);
#559=DIRECTION('axis',(0.,0.,1.));
#560=DIRECTION('refdir',(1.,0.,0.));
#561=DIRECTION('center_axis',(-0.0871557427476581,0.,0.996194698091746));
#562=DIRECTION('ref_axis',(0.,1.,0.));
#563=DIRECTION('',(0.,-1.,0.));
#564=DIRECTION('center_axis',(-0.0871557427476581,0.,0.996194698091746));
#565=DIRECTION('ref_axis',(0.,1.,0.));
#566=DIRECTION('',(0.,-1.,0.));
#567=DIRECTION('',(-1.,0.,0.));
#568=DIRECTION('',(1.,0.,0.));
#569=DIRECTION('center_axis',(1.,0.,0.));
#570=DIRECTION('ref_axis',(0.,-1.8475377984377E-17,-1.));
#571=DIRECTION('center_axis',(1.,0.,0.));
#572=DIRECTION('ref_axis',(0.,-0.998468479749971,0.0553235478416078));
#573=DIRECTION('center_axis',(-1.,0.,0.));
#574=DIRECTION('ref_axis',(0.,-0.998468479749971,0.0553235478416078));
#575=DIRECTION('center_axis',(1.,0.,0.));
#576=DIRECTION('ref_axis',(0.,0.,-1.));
#577=DIRECTION('',(0.,-1.,0.));
#578=DIRECTION('center_axis',(-1.,0.,0.));
#579=DIRECTION('ref_axis',(0.,-0.832050294337844,-0.554700196225229));
#580=DIRECTION('',(0.,-1.,0.));
#581=DIRECTION('center_axis',(0.,0.,-1.));
#582=DIRECTION('ref_axis',(0.,1.,0.));
#583=DIRECTION('',(0.,1.,0.));
#584=DIRECTION('center_axis',(1.,0.,0.));
#585=DIRECTION('ref_axis',(0.,0.,-1.));
#586=DIRECTION('',(0.,1.,0.));
#587=DIRECTION('center_axis',(1.,0.,0.));
#588=DIRECTION('ref_axis',(0.,-0.832050294337844,-0.554700196225229));
#589=DIRECTION('center_axis',(0.,0.,-1.));
#590=DIRECTION('ref_axis',(0.,1.,0.));
#591=DIRECTION('center_axis',(1.,0.,0.));
#592=DIRECTION('ref_axis',(0.,-0.832050294337844,-0.554700196225229));
#593=DIRECTION('center_axis',(1.,0.,0.));
#594=DIRECTION('ref_axis',(0.,0.,-1.));
#595=DIRECTION('center_axis',(1.,0.,0.));
#596=DIRECTION('ref_axis',(0.,0.993701433953355,-0.112060073884703));
#597=DIRECTION('',(0.,-0.609544899926879,0.792751546812197));
#598=DIRECTION('',(0.,-0.999996893461617,-0.00249260247829045));
#599=DIRECTION('',(0.,-0.664216309754445,-0.74754042957969));
#600=DIRECTION('center_axis',(1.,0.,0.));
#601=DIRECTION('ref_axis',(0.,-0.608711430055188,0.793391703334594));
#602=DIRECTION('',(0.,0.,1.));
#603=DIRECTION('center_axis',(1.,0.,0.));
#604=DIRECTION('ref_axis',(0.,-0.811615240073583,0.584192350241168));
#605=DIRECTION('',(0.,0.,-1.));
#606=DIRECTION('center_axis',(1.,0.,0.));
#607=DIRECTION('ref_axis',(0.,0.,-1.));
#608=DIRECTION('center_axis',(1.,0.,0.));
#609=DIRECTION('ref_axis',(0.,0.993701433953355,-0.112060073884703));
#610=DIRECTION('',(0.,0.,-1.));
#611=DIRECTION('center_axis',(-1.,0.,0.));
#612=DIRECTION('ref_axis',(0.,-0.811615240073583,0.584192350241168));
#613=DIRECTION('',(0.,0.,1.));
#614=DIRECTION('center_axis',(1.,0.,0.));
#615=DIRECTION('ref_axis',(0.,-0.608711430055188,0.793391703334594));
#616=DIRECTION('',(0.,-0.664216309754445,-0.74754042957969));
#617=DIRECTION('',(0.,0.999996893461617,0.00249260247829045));
#618=DIRECTION('',(0.,-0.609544899926879,0.792751546812197));
#619=DIRECTION('center_axis',(1.,0.,0.));
#620=DIRECTION('ref_axis',(0.,0.993701433953355,-0.112060073884703));
#621=DIRECTION('',(1.,0.,0.));
#622=DIRECTION('',(1.,0.,0.));
#623=DIRECTION('center_axis',(0.,-1.,0.));
#624=DIRECTION('ref_axis',(0.,0.,-1.));
#625=DIRECTION('',(1.,0.,0.));
#626=DIRECTION('center_axis',(1.,0.,0.));
#627=DIRECTION('ref_axis',(0.,-1.85037170770859E-16,-1.));
#628=DIRECTION('',(1.,0.,0.));
#629=DIRECTION('center_axis',(0.,1.,0.));
#630=DIRECTION('ref_axis',(0.,0.,1.));
#631=DIRECTION('',(1.,0.,0.));
#632=DIRECTION('center_axis',(1.,0.,0.));
#633=DIRECTION('ref_axis',(0.,-0.608711430055188,0.793391703334594));
#634=DIRECTION('',(1.,0.,0.));
#635=DIRECTION('center_axis',(0.,-0.74754042957969,0.664216309754445));
#636=DIRECTION('ref_axis',(0.,-0.664216309754445,-0.74754042957969));
#637=DIRECTION('',(1.,0.,0.));
#638=DIRECTION('center_axis',(0.,0.00249260247829045,-0.999996893461617));
#639=DIRECTION('ref_axis',(0.,0.999996893461617,0.00249260247829045));
#640=DIRECTION('',(1.,0.,0.));
#641=DIRECTION('center_axis',(0.,0.792751546812197,0.609544899926879));
#642=DIRECTION('ref_axis',(0.,-0.609544899926879,0.792751546812197));
#643=DIRECTION('center_axis',(0.,0.827430529829276,0.561568088753665));
#644=DIRECTION('ref_axis',(0.,-0.561568088753665,0.827430529829276));
#645=DIRECTION('',(0.,0.561568088753665,-0.827430529829276));
#646=DIRECTION('',(1.,0.,0.));
#647=DIRECTION('',(0.,-0.561568088753665,0.827430529829276));
#648=DIRECTION('',(1.,0.,0.));
#649=DIRECTION('center_axis',(0.,0.,-1.));
#650=DIRECTION('ref_axis',(0.,1.,0.));
#651=DIRECTION('',(0.,-1.,0.));
#652=DIRECTION('',(0.,1.,0.));
#653=DIRECTION('',(1.,0.,0.));
#654=DIRECTION('center_axis',(0.,-0.791241293329286,0.611504060273191));
#655=DIRECTION('ref_axis',(0.,-0.611504060273191,-0.791241293329286));
#656=DIRECTION('',(0.,0.611504060273191,0.791241293329286));
#657=DIRECTION('',(0.,-0.611504060273191,-0.791241293329286));
#658=DIRECTION('',(1.,0.,0.));
#659=DIRECTION('center_axis',(1.,0.,0.));
#660=DIRECTION('ref_axis',(0.,-0.612357805514191,0.790580747315443));
#661=DIRECTION('center_axis',(1.,0.,0.));
#662=DIRECTION('ref_axis',(0.,-0.612357805514191,0.790580747315443));
#663=DIRECTION('center_axis',(1.,0.,0.));
#664=DIRECTION('ref_axis',(0.,-0.612357805514191,0.790580747315443));
#665=DIRECTION('',(1.,0.,0.));
#666=DIRECTION('center_axis',(0.,1.,0.));
#667=DIRECTION('ref_axis',(0.,0.,1.));
#668=DIRECTION('',(0.,0.,-1.));
#669=DIRECTION('',(0.,0.,1.));
#670=DIRECTION('',(1.,0.,0.));
#671=DIRECTION('center_axis',(1.,0.,0.));
#672=DIRECTION('ref_axis',(0.,9.25185853854298E-17,-1.));
#673=DIRECTION('center_axis',(1.,0.,0.));
#674=DIRECTION('ref_axis',(0.,-0.816477074018922,0.577377855136046));
#675=DIRECTION('center_axis',(-1.,0.,0.));
#676=DIRECTION('ref_axis',(0.,-0.816477074018922,0.577377855136046));
#677=DIRECTION('',(1.,0.,0.));
#678=DIRECTION('center_axis',(0.,-1.,0.));
#679=DIRECTION('ref_axis',(0.,0.,-1.));
#680=DIRECTION('',(0.,0.,1.));
#681=DIRECTION('',(0.,0.,-1.));
#682=DIRECTION('',(1.,0.,0.));
#683=DIRECTION('center_axis',(1.,0.,0.));
#684=DIRECTION('ref_axis',(0.,0.992911185870891,-0.118858642817682));
#685=DIRECTION('center_axis',(1.,0.,0.));
#686=DIRECTION('ref_axis',(0.,0.992911185870891,-0.118858642817682));
#687=DIRECTION('center_axis',(1.,0.,0.));
#688=DIRECTION('ref_axis',(0.,0.992911185870891,-0.118858642817682));
#689=DIRECTION('center_axis',(1.,0.,0.));
#690=DIRECTION('ref_axis',(0.,0.,-1.));
#691=DIRECTION('center_axis',(1.,0.,0.));
#692=DIRECTION('ref_axis',(0.,0.,-1.));
#693=CARTESIAN_POINT('',(0.,0.,0.));
#694=CARTESIAN_POINT('Origin',(50.,22.0000003278255,-25.000000372529));
#695=CARTESIAN_POINT('',(1.05141202856912E-11,-16.9906358283322,-29.3744335487032));
#696=CARTESIAN_POINT('',(4.16333634234434E-16,-18.3887030005402,-29.3744335488252));
#697=CARTESIAN_POINT('',(0.,11.0000001639128,-29.3744335488252));
#698=CARTESIAN_POINT('',(50.,-23.0000003427267,-25.000000372529));
#699=CARTESIAN_POINT('Ctrl Pts',(50.,-23.0000003427267,-25.000000372529));
#700=CARTESIAN_POINT('Ctrl Pts',(41.5292801508179,-22.0958319358779,-25.7410923312365));
#701=CARTESIAN_POINT('Ctrl Pts',(32.9449822045072,-21.1344443224142,-26.4921210858675));
#702=CARTESIAN_POINT('Ctrl Pts',(24.4864131710434,-20.1239242934632,-27.2321499859471));
#703=CARTESIAN_POINT('Ctrl Pts',(16.8004703505124,-19.2057076151112,-27.904582851252));
#704=CARTESIAN_POINT('Ctrl Pts',(8.94865319169291,-18.214704332173,-28.5915287367175));
#705=CARTESIAN_POINT('Ctrl Pts',(1.26050510830007,-17.1636980533606,-29.2641537152085));
#706=CARTESIAN_POINT('Ctrl Pts',(0.839828716745339,-17.1061895969578,-29.3009580854876));
#707=CARTESIAN_POINT('Ctrl Pts',(0.419642351535753,-17.0485014905258,-29.3377196003305));
#708=CARTESIAN_POINT('Ctrl Pts',(-2.98427949019242E-13,-16.9906358279504,
-29.3744335488253));
#709=CARTESIAN_POINT('Ctrl Pts',(50.,-23.0000003427267,-25.000000372529));
#710=CARTESIAN_POINT('Ctrl Pts',(22.1456762892985,-20.6943516716335,-27.4369379273968));
#711=CARTESIAN_POINT('Ctrl Pts',(8.32667268468867E-16,-18.3887030005402,
-29.3744335488252));
#712=CARTESIAN_POINT('Origin',(50.,22.0000003278255,-25.000000372529));
#713=CARTESIAN_POINT('',(-1.2490009027033E-15,17.388702985639,-29.3744335488252));
#714=CARTESIAN_POINT('',(6.90684547272775E-12,16.2859296235364,-29.3744335487451));
#715=CARTESIAN_POINT('',(0.,11.0000001639128,-29.3744335488252));
#716=CARTESIAN_POINT('',(50.,22.0000003278255,-25.000000372529));
#717=CARTESIAN_POINT('Ctrl Pts',(50.,22.0000003278255,-25.000000372529));
#718=CARTESIAN_POINT('Ctrl Pts',(22.1456762892986,19.6943516567323,-27.4369379273967));
#719=CARTESIAN_POINT('Ctrl Pts',(-2.4980018054066E-15,17.388702985639,-29.3744335488252));
#720=CARTESIAN_POINT('Ctrl Pts',(-2.98427949019242E-13,16.2859296232964,
-29.3744335488253));
#721=CARTESIAN_POINT('Ctrl Pts',(6.46295800837061,17.1386722676382,-28.8089979902487));
#722=CARTESIAN_POINT('Ctrl Pts',(13.0580356841015,17.9490594956287,-28.2320044580994));
#723=CARTESIAN_POINT('Ctrl Pts',(19.5892826310989,18.7106146701284,-27.6605936613649));
#724=CARTESIAN_POINT('Ctrl Pts',(21.5150024410688,18.9351570734123,-27.4921147935725));
#725=CARTESIAN_POINT('Ctrl Pts',(23.435173135222,19.1554542780441,-27.3241215716246));
#726=CARTESIAN_POINT('Ctrl Pts',(25.3447720148721,19.3713402705069,-27.1570533177734));
#727=CARTESIAN_POINT('Ctrl Pts',(33.5221036249023,20.2958126134382,-26.4416295040036));
#728=CARTESIAN_POINT('Ctrl Pts',(41.8120502611867,21.1740439719209,-25.7163531521952));
#729=CARTESIAN_POINT('Ctrl Pts',(50.,22.0000003278255,-25.000000372529));
#730=CARTESIAN_POINT('Ctrl Pts',(50.,22.0000003278255,-25.000000372529));
#731=CARTESIAN_POINT('Ctrl Pts',(-14.,22.0000003278255,-25.000000372529));
#732=CARTESIAN_POINT('Ctrl Pts',(50.,21.1228356392536,-25.7607661907124));
#733=CARTESIAN_POINT('Ctrl Pts',(-14.,21.1228356392536,-25.7607661907124));
#734=CARTESIAN_POINT('Ctrl Pts',(50.,19.3665037871928,-27.2155847639259));
#735=CARTESIAN_POINT('Ctrl Pts',(-14.,19.3665037871928,-27.2155847639259));
#736=CARTESIAN_POINT('Ctrl Pts',(50.,16.7259987260255,-29.1976781542355));
#737=CARTESIAN_POINT('Ctrl Pts',(-14.,16.7259987260255,-29.1976781542355));
#738=CARTESIAN_POINT('Ctrl Pts',(50.,13.1931118585651,-31.4335744405251));
#739=CARTESIAN_POINT('Ctrl Pts',(-14.,13.1931118585651,-31.4335744405251));
#740=CARTESIAN_POINT('Ctrl Pts',(50.,8.75527323491414,-33.5045019046587));
#741=CARTESIAN_POINT('Ctrl Pts',(-14.,8.75527323491414,-33.5045019046587));
#742=CARTESIAN_POINT('Ctrl Pts',(50.,4.29379085574555,-34.7877304358089));
#743=CARTESIAN_POINT('Ctrl Pts',(-14.,4.29379085574555,-34.7877304358089));
#744=CARTESIAN_POINT('Ctrl Pts',(50.,-0.193220720649917,-35.220445967741));
#745=CARTESIAN_POINT('Ctrl Pts',(-14.,-0.193220720649917,-35.220445967741));
#746=CARTESIAN_POINT('Ctrl Pts',(50.,-4.70670972810303,-34.7710578008004));
#747=CARTESIAN_POINT('Ctrl Pts',(-14.,-4.70670972810303,-34.7710578008004));
#748=CARTESIAN_POINT('Ctrl Pts',(50.,-9.24553278388916,-33.4776580794153));
#749=CARTESIAN_POINT('Ctrl Pts',(-14.,-9.24553278388916,-33.4776580794153));
#750=CARTESIAN_POINT('Ctrl Pts',(50.,-13.8077383697789,-31.4052622290676));
#751=CARTESIAN_POINT('Ctrl Pts',(-14.,-13.8077383697789,-31.4052622290676));
#752=CARTESIAN_POINT('Ctrl Pts',(50.,-17.474654114241,-29.1759455609002));
#753=CARTESIAN_POINT('Ctrl Pts',(-14.,-17.474654114241,-29.1759455609002));
#754=CARTESIAN_POINT('Ctrl Pts',(50.,-20.2338723743001,-27.2030724886301));
#755=CARTESIAN_POINT('Ctrl Pts',(-14.,-20.2338723743001,-27.2030724886301));
#756=CARTESIAN_POINT('Ctrl Pts',(50.,-22.0772995980929,-25.756282163578));
#757=CARTESIAN_POINT('Ctrl Pts',(-14.,-22.0772995980929,-25.756282163578));
#758=CARTESIAN_POINT('Ctrl Pts',(50.,-23.0000003427267,-25.000000372529));
#759=CARTESIAN_POINT('Ctrl Pts',(-14.,-23.0000003427267,-25.000000372529));
#760=CARTESIAN_POINT('',(0.,-23.0000003427267,-25.000000372529));
#761=CARTESIAN_POINT('Ctrl Pts',(0.,-23.0000003427267,-25.000000372529));
#762=CARTESIAN_POINT('Ctrl Pts',(0.,-22.4978067572041,-25.4116179706736));
#763=CARTESIAN_POINT('Ctrl Pts',(0.,-21.9959639130306,-25.8115505136879));
#764=CARTESIAN_POINT('Ctrl Pts',(0.,-21.4944727237115,-26.1997675678686));
#765=CARTESIAN_POINT('Ctrl Pts',(0.,-21.0070781373662,-26.5770720840087));
#766=CARTESIAN_POINT('Ctrl Pts',(0.,-20.5200157261614,-26.9433100839292));
#767=CARTESIAN_POINT('Ctrl Pts',(0.,-20.0332879625282,-27.2983991978305));
#768=CARTESIAN_POINT('Ctrl Pts',(0.,-19.5254442235667,-27.668893335913));
#769=CARTESIAN_POINT('Ctrl Pts',(0.,-19.0179647905759,-28.0272505093582));
#770=CARTESIAN_POINT('Ctrl Pts',(0.,-18.5108542702813,-28.3733172436978));
#771=CARTESIAN_POINT('Ctrl Pts',(0.,-18.0037437499868,-28.7193839780374));
#772=CARTESIAN_POINT('Ctrl Pts',(0.,-17.4970021507595,-29.0531599943875));
#773=CARTESIAN_POINT('Ctrl Pts',(0.,-16.9906358283625,-29.3744335485638));
#774=CARTESIAN_POINT('',(50.,-23.0000003427267,-25.000000372529));
#775=CARTESIAN_POINT('Ctrl Pts',(50.,22.0000003278255,-25.000000372529));
#776=CARTESIAN_POINT('Ctrl Pts',(-14.,22.0000003278255,-25.000000372529));
#777=CARTESIAN_POINT('Ctrl Pts',(50.,21.1228356392536,-25.7607661907124));
#778=CARTESIAN_POINT('Ctrl Pts',(-14.,21.1228356392536,-25.7607661907124));
#779=CARTESIAN_POINT('Ctrl Pts',(50.,19.3665037871928,-27.2155847639259));
#780=CARTESIAN_POINT('Ctrl Pts',(-14.,19.3665037871928,-27.2155847639259));
#781=CARTESIAN_POINT('Ctrl Pts',(50.,16.7259987260255,-29.1976781542355));
#782=CARTESIAN_POINT('Ctrl Pts',(-14.,16.7259987260255,-29.1976781542355));
#783=CARTESIAN_POINT('Ctrl Pts',(50.,13.1931118585651,-31.4335744405251));
#784=CARTESIAN_POINT('Ctrl Pts',(-14.,13.1931118585651,-31.4335744405251));
#785=CARTESIAN_POINT('Ctrl Pts',(50.,8.75527323491414,-33.5045019046587));
#786=CARTESIAN_POINT('Ctrl Pts',(-14.,8.75527323491414,-33.5045019046587));
#787=CARTESIAN_POINT('Ctrl Pts',(50.,4.29379085574555,-34.7877304358089));
#788=CARTESIAN_POINT('Ctrl Pts',(-14.,4.29379085574555,-34.7877304358089));
#789=CARTESIAN_POINT('Ctrl Pts',(50.,-0.193220720649917,-35.220445967741));
#790=CARTESIAN_POINT('Ctrl Pts',(-14.,-0.193220720649917,-35.220445967741));
#791=CARTESIAN_POINT('Ctrl Pts',(50.,-4.70670972810303,-34.7710578008004));
#792=CARTESIAN_POINT('Ctrl Pts',(-14.,-4.70670972810303,-34.7710578008004));
#793=CARTESIAN_POINT('Ctrl Pts',(50.,-9.24553278388916,-33.4776580794153));
#794=CARTESIAN_POINT('Ctrl Pts',(-14.,-9.24553278388916,-33.4776580794153));
#795=CARTESIAN_POINT('Ctrl Pts',(50.,-13.8077383697789,-31.4052622290676));
#796=CARTESIAN_POINT('Ctrl Pts',(-14.,-13.8077383697789,-31.4052622290676));
#797=CARTESIAN_POINT('Ctrl Pts',(50.,-17.474654114241,-29.1759455609002));
#798=CARTESIAN_POINT('Ctrl Pts',(-14.,-17.474654114241,-29.1759455609002));
#799=CARTESIAN_POINT('Ctrl Pts',(50.,-20.2338723743001,-27.2030724886301));
#800=CARTESIAN_POINT('Ctrl Pts',(-14.,-20.2338723743001,-27.2030724886301));
#801=CARTESIAN_POINT('Ctrl Pts',(50.,-22.0772995980929,-25.756282163578));
#802=CARTESIAN_POINT('Ctrl Pts',(-14.,-22.0772995980929,-25.756282163578));
#803=CARTESIAN_POINT('Ctrl Pts',(50.,-23.0000003427267,-25.000000372529));
#804=CARTESIAN_POINT('Ctrl Pts',(-14.,-23.0000003427267,-25.000000372529));
#805=CARTESIAN_POINT('',(0.,22.0000003278255,-25.000000372529));
#806=CARTESIAN_POINT('',(0.,22.0000003278259,-25.000000372529));
#807=CARTESIAN_POINT('Ctrl Pts',(0.,16.285929623553,-29.3744335486551));
#808=CARTESIAN_POINT('Ctrl Pts',(0.,16.7635382768816,-29.0577413819486));
#809=CARTESIAN_POINT('Ctrl Pts',(0.,17.2407811281932,-28.7288624093728));
#810=CARTESIAN_POINT('Ctrl Pts',(0.,17.7176641793394,-28.3879965844522));
#811=CARTESIAN_POINT('Ctrl Pts',(0.,18.1856955293385,-28.053457766554));
#812=CARTESIAN_POINT('Ctrl Pts',(0.,18.653380315207,-27.7073730588498));
#813=CARTESIAN_POINT('Ctrl Pts',(0.,19.1207226972036,-27.349881061625));
#814=CARTESIAN_POINT('Ctrl Pts',(0.,19.6013230856311,-26.9822473965763));
#815=CARTESIAN_POINT('Ctrl Pts',(0.,20.0815613802118,-26.6025504644832));
#816=CARTESIAN_POINT('Ctrl Pts',(0.,20.5614403626175,-26.2108829375969));
#817=CARTESIAN_POINT('Ctrl Pts',(0.,21.0413193450233,-25.8192154107106));
#818=CARTESIAN_POINT('Ctrl Pts',(0.,21.5208390203056,-25.4155774573188));
#819=CARTESIAN_POINT('Ctrl Pts',(0.,22.0000003278255,-25.000000372529));
#820=CARTESIAN_POINT('Origin',(50.,-0.500000007450575,-26.2466895472304));
#821=CARTESIAN_POINT('Origin',(0.,-0.500000007450575,-26.2466895472304));
#822=CARTESIAN_POINT('Origin',(50.,-0.500000007450575,-26.2466895472304));
#823=CARTESIAN_POINT('Origin',(50.,4.44089209850063E-15,-34.9807544150677));
#824=CARTESIAN_POINT('',(50.,-46.1646861883986,-25.000000372529));
#825=CARTESIAN_POINT('',(50.,-25.,-25.000000372529));
#826=CARTESIAN_POINT('',(50.,46.1646861883986,-25.000000372529));
#827=CARTESIAN_POINT('Origin',(50.,0.,0.));
#828=CARTESIAN_POINT('',(50.,-25.,-25.000000372529));
#829=CARTESIAN_POINT('Origin',(0.,-50.,-25.000000372529));
#830=CARTESIAN_POINT('',(0.,-37.416573618833,-25.000000372529));
#831=CARTESIAN_POINT('',(0.,-25.,-25.000000372529));
#832=CARTESIAN_POINT('Ctrl Pts',(50.,-46.1646861883986,-25.000000372529));
#833=CARTESIAN_POINT('Ctrl Pts',(22.3833510676832,-41.4541923258955,-25.000000372529));
#834=CARTESIAN_POINT('Ctrl Pts',(0.,-37.416573618833,-25.000000372529));
#835=CARTESIAN_POINT('Origin',(0.,4.44089209850063E-15,-34.9807544150677));
#836=CARTESIAN_POINT('',(0.,37.416573618833,-25.000000372529));
#837=CARTESIAN_POINT('',(0.,-25.,-25.000000372529));
#838=CARTESIAN_POINT('Origin',(0.,0.,0.));
#839=CARTESIAN_POINT('Origin',(0.,-50.,-25.000000372529));
#840=CARTESIAN_POINT('Ctrl Pts',(0.,37.416573618833,-25.000000372529));
#841=CARTESIAN_POINT('Ctrl Pts',(22.3833510676832,41.4541923258955,-25.000000372529));
#842=CARTESIAN_POINT('Ctrl Pts',(50.,46.1646861883986,-25.000000372529));
#843=CARTESIAN_POINT('Origin',(0.,0.,0.));
#844=CARTESIAN_POINT('Origin',(0.,29.7211317865143,-20.9198510468936));
#845=CARTESIAN_POINT('',(0.,33.9822232607956,-20.4615088301353));
#846=CARTESIAN_POINT('',(0.,32.442263245203,-16.8397017212581));
#847=CARTESIAN_POINT('Origin',(0.,30.0074175249822,-20.0132685345965));
#848=CARTESIAN_POINT('',(0.,37.442263245203,-24.9615088301353));
#849=CARTESIAN_POINT('',(0.,37.442263245203,-24.9615088301353));
#850=CARTESIAN_POINT('',(0.,22.0000003278255,-25.000000372529));
#851=CARTESIAN_POINT('',(0.,37.442263245203,-24.9615088301353));
#852=CARTESIAN_POINT('',(0.,26.0326117891688,-20.4615088301353));
#853=CARTESIAN_POINT('',(0.,26.0326117891688,-20.4615088301353));
#854=CARTESIAN_POINT('',(0.,27.5725718047615,-16.8397017212581));
#855=CARTESIAN_POINT('Origin',(0.,30.0074175249822,-20.0132685345965));
#856=CARTESIAN_POINT('',(0.,27.5725718047615,-18.260691483873));
#857=CARTESIAN_POINT('',(0.,27.5725718047615,-18.260691483873));
#858=CARTESIAN_POINT('',(0.,32.442263245203,-18.260691483873));
#859=CARTESIAN_POINT('Origin',(0.,30.0074175249822,-20.0132685345965));
#860=CARTESIAN_POINT('',(0.,32.442263245203,-16.8397017212581));
#861=CARTESIAN_POINT('Origin',(50.,29.7211317865143,-20.9198510468936));
#862=CARTESIAN_POINT('',(50.,33.9822232607956,-20.4615088301353));
#863=CARTESIAN_POINT('',(50.,32.442263245203,-16.8397017212581));
#864=CARTESIAN_POINT('Origin',(50.,30.0074175249822,-20.0132685345965));
#865=CARTESIAN_POINT('',(50.,32.442263245203,-18.260691483873));
#866=CARTESIAN_POINT('',(50.,32.442263245203,-16.8397017212581));
#867=CARTESIAN_POINT('',(50.,27.5725718047615,-18.260691483873));
#868=CARTESIAN_POINT('Origin',(50.,30.0074175249822,-20.0132685345965));
#869=CARTESIAN_POINT('',(50.,27.5725718047615,-16.8397017212581));
#870=CARTESIAN_POINT('',(50.,27.5725718047615,-18.260691483873));
#871=CARTESIAN_POINT('',(50.,26.0326117891688,-20.4615088301353));
#872=CARTESIAN_POINT('Origin',(50.,30.0074175249822,-20.0132685345965));
#873=CARTESIAN_POINT('',(50.,22.0000003278255,-25.000000372529));
#874=CARTESIAN_POINT('',(50.,26.0326117891688,-20.4615088301353));
#875=CARTESIAN_POINT('',(50.,37.442263245203,-24.9615088301353));
#876=CARTESIAN_POINT('',(50.,37.442263245203,-24.9615088301353));
#877=CARTESIAN_POINT('',(50.,37.442263245203,-24.9615088301353));
#878=CARTESIAN_POINT('Origin',(0.,30.0074175249822,-20.0132685345965));
#879=CARTESIAN_POINT('',(0.,32.442263245203,-16.8397017212581));
#880=CARTESIAN_POINT('',(0.,33.9822232607956,-20.4615088301353));
#881=CARTESIAN_POINT('Origin',(0.,32.442263245203,-16.8397017212581));
#882=CARTESIAN_POINT('',(0.,32.442263245203,-18.260691483873));
#883=CARTESIAN_POINT('Origin',(0.,30.0074175249822,-20.0132685345965));
#884=CARTESIAN_POINT('',(0.,27.5725718047615,-18.260691483873));
#885=CARTESIAN_POINT('Origin',(0.,27.5725718047615,-18.260691483873));
#886=CARTESIAN_POINT('',(0.,27.5725718047615,-16.8397017212581));
#887=CARTESIAN_POINT('Origin',(0.,30.0074175249822,-20.0132685345965));
#888=CARTESIAN_POINT('',(0.,26.0326117891688,-20.4615088301353));
#889=CARTESIAN_POINT('Origin',(0.,26.0326117891688,-20.4615088301353));
#890=CARTESIAN_POINT('',(0.,22.0000003278259,-25.000000372529));
#891=CARTESIAN_POINT('Origin',(0.,22.0000003278255,-25.000000372529));
#892=CARTESIAN_POINT('',(0.,37.442263245203,-24.9615088301353));
#893=CARTESIAN_POINT('Origin',(0.,37.442263245203,-24.9615088301353));
#894=CARTESIAN_POINT('Origin',(0.,-22.9670862907701,-24.9615088301353));
#895=CARTESIAN_POINT('',(0.,-26.0211872796626,-20.4615088301353));
#896=CARTESIAN_POINT('',(0.,-22.9670862907701,-24.9615088301353));
#897=CARTESIAN_POINT('',(0.,-26.0211872796626,-20.4615088301353));
#898=CARTESIAN_POINT('',(50.,-26.0211872796626,-20.4615088301353));
#899=CARTESIAN_POINT('',(0.,-26.0211872796626,-20.4615088301353));
#900=CARTESIAN_POINT('',(50.,-22.9670862907701,-24.9615088301353));
#901=CARTESIAN_POINT('',(50.,-26.0211872796626,-20.4615088301353));
#902=CARTESIAN_POINT('',(0.,-22.9670862907701,-24.9615088301353));
#903=CARTESIAN_POINT('Origin',(0.,-37.442263245203,-24.9615088301353));
#904=CARTESIAN_POINT('',(0.,-37.442263245203,-24.9615088301353));
#905=CARTESIAN_POINT('',(0.,-22.9670862907701,-24.9615088301353));
#906=CARTESIAN_POINT('',(50.,-37.442263245203,-24.9615088301353));
#907=CARTESIAN_POINT('',(50.,-22.9670862907701,-24.9615088301353));
#908=CARTESIAN_POINT('',(0.,-37.442263245203,-24.9615088301353));
#909=CARTESIAN_POINT('Origin',(0.,-33.9644767666298,-20.4615088301353));
#910=CARTESIAN_POINT('',(0.,-33.9644767666298,-20.4615088301353));
#911=CARTESIAN_POINT('',(0.,-37.442263245203,-24.9615088301353));
#912=CARTESIAN_POINT('',(50.,-33.9644767666298,-20.4615088301353));
#913=CARTESIAN_POINT('',(50.,-37.442263245203,-24.9615088301353));
#914=CARTESIAN_POINT('',(0.,-33.9644767666298,-20.4615088301353));
#915=CARTESIAN_POINT('Origin',(0.,-29.9928320231462,-19.9860742588646));
#916=CARTESIAN_POINT('',(0.,-32.442263245203,-16.8237512696028));
#917=CARTESIAN_POINT('Origin',(0.,-29.9928320231462,-19.9860742588646));
#918=CARTESIAN_POINT('',(50.,-32.442263245203,-16.8237512696028));
#919=CARTESIAN_POINT('Origin',(50.,-29.9928320231462,-19.9860742588646));
#920=CARTESIAN_POINT('',(0.,-32.442263245203,-16.8237512696028));
#921=CARTESIAN_POINT('Origin',(0.,-32.442263245203,-18.2539406934564));
#922=CARTESIAN_POINT('',(0.,-32.442263245203,-18.2539406934564));
#923=CARTESIAN_POINT('',(0.,-32.442263245203,-16.8237512696028));
#924=CARTESIAN_POINT('',(50.,-32.442263245203,-18.2539406934564));
#925=CARTESIAN_POINT('',(50.,-32.442263245203,-16.8237512696028));
#926=CARTESIAN_POINT('',(0.,-32.442263245203,-18.2539406934564));
#927=CARTESIAN_POINT('Origin',(0.,-29.9928320231462,-19.9860742588646));
#928=CARTESIAN_POINT('',(0.,-27.5434008010894,-18.2539406934564));
#929=CARTESIAN_POINT('Origin',(0.,-29.9928320231462,-19.9860742588646));
#930=CARTESIAN_POINT('',(50.,-27.5434008010894,-18.2539406934564));
#931=CARTESIAN_POINT('Origin',(50.,-29.9928320231462,-19.9860742588646));
#932=CARTESIAN_POINT('',(0.,-27.5434008010894,-18.2539406934564));
#933=CARTESIAN_POINT('Origin',(0.,-27.5434008010894,-16.8237512696028));
#934=CARTESIAN_POINT('',(0.,-27.5434008010894,-16.8237512696028));
#935=CARTESIAN_POINT('',(0.,-27.5434008010894,-18.2539406934564));
#936=CARTESIAN_POINT('',(50.,-27.5434008010894,-16.8237512696028));
#937=CARTESIAN_POINT('',(50.,-27.5434008010894,-18.2539406934564));
#938=CARTESIAN_POINT('',(0.,-27.5434008010894,-16.8237512696028));
#939=CARTESIAN_POINT('Origin',(0.,-29.9928320231462,-19.9860742588646));
#940=CARTESIAN_POINT('Origin',(0.,-29.9928320231462,-19.9860742588646));
#941=CARTESIAN_POINT('Origin',(50.,-29.9928320231462,-19.9860742588646));
#942=CARTESIAN_POINT('Origin',(50.,-30.2046747679865,-20.8926300498691));
#943=CARTESIAN_POINT('Origin',(0.,-30.2046747679865,-20.8926300498691));
#944=UNCERTAINTY_MEASURE_WITH_UNIT(LENGTH_MEASURE(0.01),#948,
'DISTANCE_ACCURACY_VALUE',
'Maximum model space distance between geometric entities at asserted c
onnectivities');
#945=UNCERTAINTY_MEASURE_WITH_UNIT(LENGTH_MEASURE(0.01),#948,
'DISTANCE_ACCURACY_VALUE',
'Maximum model space distance between geometric entities at asserted c
onnectivities');
#946=(
GEOMETRIC_REPRESENTATION_CONTEXT(3)
GLOBAL_UNCERTAINTY_ASSIGNED_CONTEXT((#944))
GLOBAL_UNIT_ASSIGNED_CONTEXT((#948,#950,#951))
REPRESENTATION_CONTEXT('','3D')
);
#947=(
GEOMETRIC_REPRESENTATION_CONTEXT(3)
GLOBAL_UNCERTAINTY_ASSIGNED_CONTEXT((#945))
GLOBAL_UNIT_ASSIGNED_CONTEXT((#948,#950,#951))
REPRESENTATION_CONTEXT('','3D')
);
#948=(
LENGTH_UNIT()
NAMED_UNIT(*)
SI_UNIT(.MILLI.,.METRE.)
);
#949=(
LENGTH_UNIT()
NAMED_UNIT(*)
SI_UNIT($,.METRE.)
);
#950=(
NAMED_UNIT(*)
PLANE_ANGLE_UNIT()
SI_UNIT($,.RADIAN.)
);
#951=(
NAMED_UNIT(*)
SI_UNIT($,.STERADIAN.)
SOLID_ANGLE_UNIT()
);
#952=SHAPE_DEFINITION_REPRESENTATION(#953,#954);
#953=PRODUCT_DEFINITION_SHAPE('',$,#956);
#954=SHAPE_REPRESENTATION('',(#514),#946);
#955=PRODUCT_DEFINITION_CONTEXT('part definition',#960,'design');
#956=PRODUCT_DEFINITION('2026-06-29-23-31-24-398','carcasa abajop',#957,
#955);
#957=PRODUCT_DEFINITION_FORMATION('',$,#962);
#958=PRODUCT_RELATED_PRODUCT_CATEGORY('carcasa abajop','carcasa abajop',
(#962));
#959=APPLICATION_PROTOCOL_DEFINITION('international standard',
'automotive_design',2009,#960);
#960=APPLICATION_CONTEXT(
'Core Data for Automotive Mechanical Design Process');
#961=PRODUCT_CONTEXT('part definition',#960,'mechanical');
#962=PRODUCT('2026-06-29-23-31-24-398','carcasa abajop',$,(#961));
#963=PRESENTATION_STYLE_ASSIGNMENT((#964));
#964=SURFACE_STYLE_USAGE(.BOTH.,#965);
#965=SURFACE_SIDE_STYLE('',(#966));
#966=SURFACE_STYLE_FILL_AREA(#967);
#967=FILL_AREA_STYLE('Acero - Satinado',(#968));
#968=FILL_AREA_STYLE_COLOUR('Acero - Satinado',#969);
#969=COLOUR_RGB('Acero - Satinado',0.627450980392157,0.627450980392157,
0.627450980392157);
ENDSEC;
END-ISO-10303-21;
