ISO-10303-21;
HEADER;
/* Generated by software containing ST-Developer
 * from STEP Tools, Inc. (www.steptools.com) 
 */

FILE_DESCRIPTION(
/* description */ (''),
/* implementation_level */ '2;1');

FILE_NAME(
/* name */ 'placa base.step',
/* time_stamp */ '2026-07-13T16:53:06-04:00',
/* author */ (''),
/* organization */ (''),
/* preprocessor_version */ 'ST-DEVELOPER v20.1',
/* originating_system */ 'Autodesk Translation Framework v15.8.0.0',
/* authorisation */ '');

FILE_SCHEMA (('AUTOMOTIVE_DESIGN { 1 0 10303 214 3 1 1 }'));
ENDSEC;

DATA;
#10=MECHANICAL_DESIGN_GEOMETRIC_PRESENTATION_REPRESENTATION('',(#13),#849);
#11=SHAPE_REPRESENTATION_RELATIONSHIP('SRR','None',#856,#12);
#12=ADVANCED_BREP_SHAPE_REPRESENTATION('',(#14),#848);
#13=STYLED_ITEM('',(#865),#14);
#14=MANIFOLD_SOLID_BREP('Cuerpo1',#509);
#15=FACE_BOUND('',#98,.T.);
#16=FACE_BOUND('',#99,.T.);
#17=FACE_BOUND('',#100,.T.);
#18=FACE_BOUND('',#101,.T.);
#19=FACE_BOUND('',#102,.T.);
#20=FACE_BOUND('',#103,.T.);
#21=FACE_BOUND('',#104,.T.);
#22=FACE_BOUND('',#105,.T.);
#23=FACE_BOUND('',#106,.T.);
#24=FACE_BOUND('',#107,.T.);
#25=FACE_BOUND('',#108,.T.);
#26=FACE_BOUND('',#109,.T.);
#27=FACE_BOUND('',#111,.T.);
#28=FACE_BOUND('',#112,.T.);
#29=FACE_BOUND('',#113,.T.);
#30=FACE_BOUND('',#114,.T.);
#31=FACE_BOUND('',#115,.T.);
#32=FACE_BOUND('',#116,.T.);
#33=FACE_BOUND('',#117,.T.);
#34=FACE_BOUND('',#118,.T.);
#35=FACE_BOUND('',#119,.T.);
#36=FACE_BOUND('',#120,.T.);
#37=FACE_BOUND('',#121,.T.);
#38=FACE_BOUND('',#122,.T.);
#39=PLANE('',#529);
#40=PLANE('',#530);
#41=PLANE('',#531);
#42=PLANE('',#532);
#43=PLANE('',#533);
#44=PLANE('',#534);
#45=PLANE('',#535);
#46=PLANE('',#536);
#47=PLANE('',#561);
#48=PLANE('',#565);
#49=PLANE('',#569);
#50=PLANE('',#570);
#51=FACE_OUTER_BOUND('',#75,.T.);
#52=FACE_OUTER_BOUND('',#76,.T.);
#53=FACE_OUTER_BOUND('',#77,.T.);
#54=FACE_OUTER_BOUND('',#78,.T.);
#55=FACE_OUTER_BOUND('',#79,.T.);
#56=FACE_OUTER_BOUND('',#80,.T.);
#57=FACE_OUTER_BOUND('',#81,.T.);
#58=FACE_OUTER_BOUND('',#82,.T.);
#59=FACE_OUTER_BOUND('',#83,.T.);
#60=FACE_OUTER_BOUND('',#84,.T.);
#61=FACE_OUTER_BOUND('',#85,.T.);
#62=FACE_OUTER_BOUND('',#86,.T.);
#63=FACE_OUTER_BOUND('',#87,.T.);
#64=FACE_OUTER_BOUND('',#88,.T.);
#65=FACE_OUTER_BOUND('',#89,.T.);
#66=FACE_OUTER_BOUND('',#90,.T.);
#67=FACE_OUTER_BOUND('',#91,.T.);
#68=FACE_OUTER_BOUND('',#92,.T.);
#69=FACE_OUTER_BOUND('',#93,.T.);
#70=FACE_OUTER_BOUND('',#94,.T.);
#71=FACE_OUTER_BOUND('',#95,.T.);
#72=FACE_OUTER_BOUND('',#96,.T.);
#73=FACE_OUTER_BOUND('',#97,.T.);
#74=FACE_OUTER_BOUND('',#110,.T.);
#75=EDGE_LOOP('',(#341,#342,#343,#344));
#76=EDGE_LOOP('',(#345,#346,#347,#348));
#77=EDGE_LOOP('',(#349,#350,#351,#352));
#78=EDGE_LOOP('',(#353,#354,#355,#356));
#79=EDGE_LOOP('',(#357,#358,#359,#360));
#80=EDGE_LOOP('',(#361,#362,#363,#364));
#81=EDGE_LOOP('',(#365,#366,#367,#368));
#82=EDGE_LOOP('',(#369,#370,#371,#372));
#83=EDGE_LOOP('',(#373,#374,#375,#376));
#84=EDGE_LOOP('',(#377,#378,#379,#380));
#85=EDGE_LOOP('',(#381,#382,#383,#384));
#86=EDGE_LOOP('',(#385,#386,#387,#388));
#87=EDGE_LOOP('',(#389,#390,#391,#392));
#88=EDGE_LOOP('',(#393,#394,#395,#396));
#89=EDGE_LOOP('',(#397,#398,#399,#400));
#90=EDGE_LOOP('',(#401,#402,#403,#404));
#91=EDGE_LOOP('',(#405,#406,#407,#408));
#92=EDGE_LOOP('',(#409,#410,#411,#412));
#93=EDGE_LOOP('',(#413,#414,#415,#416));
#94=EDGE_LOOP('',(#417,#418,#419,#420));
#95=EDGE_LOOP('',(#421,#422,#423,#424));
#96=EDGE_LOOP('',(#425,#426,#427,#428));
#97=EDGE_LOOP('',(#429,#430,#431,#432));
#98=EDGE_LOOP('',(#433,#434,#435,#436));
#99=EDGE_LOOP('',(#437,#438,#439,#440));
#100=EDGE_LOOP('',(#441));
#101=EDGE_LOOP('',(#442));
#102=EDGE_LOOP('',(#443));
#103=EDGE_LOOP('',(#444));
#104=EDGE_LOOP('',(#445));
#105=EDGE_LOOP('',(#446));
#106=EDGE_LOOP('',(#447));
#107=EDGE_LOOP('',(#448));
#108=EDGE_LOOP('',(#449));
#109=EDGE_LOOP('',(#450));
#110=EDGE_LOOP('',(#451,#452,#453,#454));
#111=EDGE_LOOP('',(#455,#456,#457,#458));
#112=EDGE_LOOP('',(#459,#460,#461,#462));
#113=EDGE_LOOP('',(#463));
#114=EDGE_LOOP('',(#464));
#115=EDGE_LOOP('',(#465));
#116=EDGE_LOOP('',(#466));
#117=EDGE_LOOP('',(#467));
#118=EDGE_LOOP('',(#468));
#119=EDGE_LOOP('',(#469));
#120=EDGE_LOOP('',(#470));
#121=EDGE_LOOP('',(#471));
#122=EDGE_LOOP('',(#472));
#123=LINE('',#716,#165);
#124=LINE('',#722,#166);
#125=LINE('',#727,#167);
#126=LINE('',#729,#168);
#127=LINE('',#731,#169);
#128=LINE('',#732,#170);
#129=LINE('',#735,#171);
#130=LINE('',#737,#172);
#131=LINE('',#738,#173);
#132=LINE('',#741,#174);
#133=LINE('',#743,#175);
#134=LINE('',#744,#176);
#135=LINE('',#746,#177);
#136=LINE('',#747,#178);
#137=LINE('',#751,#179);
#138=LINE('',#753,#180);
#139=LINE('',#755,#181);
#140=LINE('',#756,#182);
#141=LINE('',#759,#183);
#142=LINE('',#761,#184);
#143=LINE('',#762,#185);
#144=LINE('',#765,#186);
#145=LINE('',#767,#187);
#146=LINE('',#768,#188);
#147=LINE('',#770,#189);
#148=LINE('',#771,#190);
#149=LINE('',#776,#191);
#150=LINE('',#782,#192);
#151=LINE('',#788,#193);
#152=LINE('',#794,#194);
#153=LINE('',#800,#195);
#154=LINE('',#806,#196);
#155=LINE('',#812,#197);
#156=LINE('',#818,#198);
#157=LINE('',#823,#199);
#158=LINE('',#825,#200);
#159=LINE('',#827,#201);
#160=LINE('',#828,#202);
#161=LINE('',#834,#203);
#162=LINE('',#837,#204);
#163=LINE('',#839,#205);
#164=LINE('',#840,#206);
#165=VECTOR('',#577,1.525);
#166=VECTOR('',#584,1.525);
#167=VECTOR('',#589,10.);
#168=VECTOR('',#590,10.);
#169=VECTOR('',#591,10.);
#170=VECTOR('',#592,10.);
#171=VECTOR('',#595,10.);
#172=VECTOR('',#596,10.);
#173=VECTOR('',#597,10.);
#174=VECTOR('',#600,10.);
#175=VECTOR('',#601,10.);
#176=VECTOR('',#602,10.);
#177=VECTOR('',#605,10.);
#178=VECTOR('',#606,10.);
#179=VECTOR('',#609,10.);
#180=VECTOR('',#610,10.);
#181=VECTOR('',#611,10.);
#182=VECTOR('',#612,10.);
#183=VECTOR('',#615,10.);
#184=VECTOR('',#616,10.);
#185=VECTOR('',#617,10.);
#186=VECTOR('',#620,10.);
#187=VECTOR('',#621,10.);
#188=VECTOR('',#622,10.);
#189=VECTOR('',#625,10.);
#190=VECTOR('',#626,10.);
#191=VECTOR('',#631,1.525);
#192=VECTOR('',#638,1.525);
#193=VECTOR('',#645,1.525);
#194=VECTOR('',#652,1.525);
#195=VECTOR('',#659,1.525);
#196=VECTOR('',#666,1.525);
#197=VECTOR('',#673,1.525);
#198=VECTOR('',#680,1.525);
#199=VECTOR('',#685,10.);
#200=VECTOR('',#686,10.);
#201=VECTOR('',#687,10.);
#202=VECTOR('',#688,10.);
#203=VECTOR('',#695,10.);
#204=VECTOR('',#698,10.);
#205=VECTOR('',#699,10.);
#206=VECTOR('',#700,10.);
#207=CIRCLE('',#524,1.525);
#208=CIRCLE('',#525,1.525);
#209=CIRCLE('',#527,1.525);
#210=CIRCLE('',#528,1.525);
#211=CIRCLE('',#538,1.525);
#212=CIRCLE('',#539,1.525);
#213=CIRCLE('',#541,1.525);
#214=CIRCLE('',#542,1.525);
#215=CIRCLE('',#544,1.525);
#216=CIRCLE('',#545,1.525);
#217=CIRCLE('',#547,1.525);
#218=CIRCLE('',#548,1.525);
#219=CIRCLE('',#550,1.525);
#220=CIRCLE('',#551,1.525);
#221=CIRCLE('',#553,1.525);
#222=CIRCLE('',#554,1.525);
#223=CIRCLE('',#556,1.525);
#224=CIRCLE('',#557,1.525);
#225=CIRCLE('',#559,1.525);
#226=CIRCLE('',#560,1.525);
#227=CIRCLE('',#563,45.);
#228=CIRCLE('',#564,45.);
#229=CIRCLE('',#567,45.);
#230=CIRCLE('',#568,45.);
#231=VERTEX_POINT('',#713);
#232=VERTEX_POINT('',#715);
#233=VERTEX_POINT('',#719);
#234=VERTEX_POINT('',#721);
#235=VERTEX_POINT('',#725);
#236=VERTEX_POINT('',#726);
#237=VERTEX_POINT('',#728);
#238=VERTEX_POINT('',#730);
#239=VERTEX_POINT('',#734);
#240=VERTEX_POINT('',#736);
#241=VERTEX_POINT('',#740);
#242=VERTEX_POINT('',#742);
#243=VERTEX_POINT('',#749);
#244=VERTEX_POINT('',#750);
#245=VERTEX_POINT('',#752);
#246=VERTEX_POINT('',#754);
#247=VERTEX_POINT('',#758);
#248=VERTEX_POINT('',#760);
#249=VERTEX_POINT('',#764);
#250=VERTEX_POINT('',#766);
#251=VERTEX_POINT('',#773);
#252=VERTEX_POINT('',#775);
#253=VERTEX_POINT('',#779);
#254=VERTEX_POINT('',#781);
#255=VERTEX_POINT('',#785);
#256=VERTEX_POINT('',#787);
#257=VERTEX_POINT('',#791);
#258=VERTEX_POINT('',#793);
#259=VERTEX_POINT('',#797);
#260=VERTEX_POINT('',#799);
#261=VERTEX_POINT('',#803);
#262=VERTEX_POINT('',#805);
#263=VERTEX_POINT('',#809);
#264=VERTEX_POINT('',#811);
#265=VERTEX_POINT('',#815);
#266=VERTEX_POINT('',#817);
#267=VERTEX_POINT('',#821);
#268=VERTEX_POINT('',#822);
#269=VERTEX_POINT('',#824);
#270=VERTEX_POINT('',#826);
#271=VERTEX_POINT('',#830);
#272=VERTEX_POINT('',#832);
#273=VERTEX_POINT('',#836);
#274=VERTEX_POINT('',#838);
#275=EDGE_CURVE('',#231,#231,#207,.T.);
#276=EDGE_CURVE('',#231,#232,#123,.T.);
#277=EDGE_CURVE('',#232,#232,#208,.T.);
#278=EDGE_CURVE('',#233,#233,#209,.T.);
#279=EDGE_CURVE('',#233,#234,#124,.T.);
#280=EDGE_CURVE('',#234,#234,#210,.T.);
#281=EDGE_CURVE('',#235,#236,#125,.T.);
#282=EDGE_CURVE('',#237,#235,#126,.T.);
#283=EDGE_CURVE('',#238,#237,#127,.T.);
#284=EDGE_CURVE('',#238,#236,#128,.T.);
#285=EDGE_CURVE('',#236,#239,#129,.T.);
#286=EDGE_CURVE('',#240,#238,#130,.T.);
#287=EDGE_CURVE('',#240,#239,#131,.T.);
#288=EDGE_CURVE('',#239,#241,#132,.T.);
#289=EDGE_CURVE('',#242,#240,#133,.T.);
#290=EDGE_CURVE('',#242,#241,#134,.T.);
#291=EDGE_CURVE('',#241,#235,#135,.T.);
#292=EDGE_CURVE('',#237,#242,#136,.T.);
#293=EDGE_CURVE('',#243,#244,#137,.T.);
#294=EDGE_CURVE('',#245,#243,#138,.T.);
#295=EDGE_CURVE('',#246,#245,#139,.T.);
#296=EDGE_CURVE('',#246,#244,#140,.T.);
#297=EDGE_CURVE('',#244,#247,#141,.T.);
#298=EDGE_CURVE('',#248,#246,#142,.T.);
#299=EDGE_CURVE('',#248,#247,#143,.T.);
#300=EDGE_CURVE('',#247,#249,#144,.T.);
#301=EDGE_CURVE('',#250,#248,#145,.T.);
#302=EDGE_CURVE('',#250,#249,#146,.T.);
#303=EDGE_CURVE('',#249,#243,#147,.T.);
#304=EDGE_CURVE('',#245,#250,#148,.T.);
#305=EDGE_CURVE('',#251,#251,#211,.T.);
#306=EDGE_CURVE('',#251,#252,#149,.T.);
#307=EDGE_CURVE('',#252,#252,#212,.T.);
#308=EDGE_CURVE('',#253,#253,#213,.T.);
#309=EDGE_CURVE('',#253,#254,#150,.T.);
#310=EDGE_CURVE('',#254,#254,#214,.T.);
#311=EDGE_CURVE('',#255,#255,#215,.T.);
#312=EDGE_CURVE('',#255,#256,#151,.T.);
#313=EDGE_CURVE('',#256,#256,#216,.T.);
#314=EDGE_CURVE('',#257,#257,#217,.T.);
#315=EDGE_CURVE('',#257,#258,#152,.T.);
#316=EDGE_CURVE('',#258,#258,#218,.T.);
#317=EDGE_CURVE('',#259,#259,#219,.T.);
#318=EDGE_CURVE('',#259,#260,#153,.T.);
#319=EDGE_CURVE('',#260,#260,#220,.T.);
#320=EDGE_CURVE('',#261,#261,#221,.T.);
#321=EDGE_CURVE('',#261,#262,#154,.T.);
#322=EDGE_CURVE('',#262,#262,#222,.T.);
#323=EDGE_CURVE('',#263,#263,#223,.T.);
#324=EDGE_CURVE('',#263,#264,#155,.T.);
#325=EDGE_CURVE('',#264,#264,#224,.T.);
#326=EDGE_CURVE('',#265,#265,#225,.T.);
#327=EDGE_CURVE('',#265,#266,#156,.T.);
#328=EDGE_CURVE('',#266,#266,#226,.T.);
#329=EDGE_CURVE('',#267,#268,#157,.T.);
#330=EDGE_CURVE('',#268,#269,#158,.T.);
#331=EDGE_CURVE('',#270,#269,#159,.T.);
#332=EDGE_CURVE('',#267,#270,#160,.T.);
#333=EDGE_CURVE('',#271,#267,#227,.T.);
#334=EDGE_CURVE('',#272,#270,#228,.T.);
#335=EDGE_CURVE('',#271,#272,#161,.T.);
#336=EDGE_CURVE('',#273,#271,#162,.T.);
#337=EDGE_CURVE('',#274,#272,#163,.T.);
#338=EDGE_CURVE('',#273,#274,#164,.T.);
#339=EDGE_CURVE('',#268,#273,#229,.T.);
#340=EDGE_CURVE('',#269,#274,#230,.T.);
#341=ORIENTED_EDGE('',*,*,#275,.F.);
#342=ORIENTED_EDGE('',*,*,#276,.T.);
#343=ORIENTED_EDGE('',*,*,#277,.F.);
#344=ORIENTED_EDGE('',*,*,#276,.F.);
#345=ORIENTED_EDGE('',*,*,#278,.F.);
#346=ORIENTED_EDGE('',*,*,#279,.T.);
#347=ORIENTED_EDGE('',*,*,#280,.F.);
#348=ORIENTED_EDGE('',*,*,#279,.F.);
#349=ORIENTED_EDGE('',*,*,#281,.F.);
#350=ORIENTED_EDGE('',*,*,#282,.F.);
#351=ORIENTED_EDGE('',*,*,#283,.F.);
#352=ORIENTED_EDGE('',*,*,#284,.T.);
#353=ORIENTED_EDGE('',*,*,#285,.F.);
#354=ORIENTED_EDGE('',*,*,#284,.F.);
#355=ORIENTED_EDGE('',*,*,#286,.F.);
#356=ORIENTED_EDGE('',*,*,#287,.T.);
#357=ORIENTED_EDGE('',*,*,#288,.F.);
#358=ORIENTED_EDGE('',*,*,#287,.F.);
#359=ORIENTED_EDGE('',*,*,#289,.F.);
#360=ORIENTED_EDGE('',*,*,#290,.T.);
#361=ORIENTED_EDGE('',*,*,#291,.F.);
#362=ORIENTED_EDGE('',*,*,#290,.F.);
#363=ORIENTED_EDGE('',*,*,#292,.F.);
#364=ORIENTED_EDGE('',*,*,#282,.T.);
#365=ORIENTED_EDGE('',*,*,#293,.F.);
#366=ORIENTED_EDGE('',*,*,#294,.F.);
#367=ORIENTED_EDGE('',*,*,#295,.F.);
#368=ORIENTED_EDGE('',*,*,#296,.T.);
#369=ORIENTED_EDGE('',*,*,#297,.F.);
#370=ORIENTED_EDGE('',*,*,#296,.F.);
#371=ORIENTED_EDGE('',*,*,#298,.F.);
#372=ORIENTED_EDGE('',*,*,#299,.T.);
#373=ORIENTED_EDGE('',*,*,#300,.F.);
#374=ORIENTED_EDGE('',*,*,#299,.F.);
#375=ORIENTED_EDGE('',*,*,#301,.F.);
#376=ORIENTED_EDGE('',*,*,#302,.T.);
#377=ORIENTED_EDGE('',*,*,#303,.F.);
#378=ORIENTED_EDGE('',*,*,#302,.F.);
#379=ORIENTED_EDGE('',*,*,#304,.F.);
#380=ORIENTED_EDGE('',*,*,#294,.T.);
#381=ORIENTED_EDGE('',*,*,#305,.F.);
#382=ORIENTED_EDGE('',*,*,#306,.T.);
#383=ORIENTED_EDGE('',*,*,#307,.T.);
#384=ORIENTED_EDGE('',*,*,#306,.F.);
#385=ORIENTED_EDGE('',*,*,#308,.F.);
#386=ORIENTED_EDGE('',*,*,#309,.T.);
#387=ORIENTED_EDGE('',*,*,#310,.T.);
#388=ORIENTED_EDGE('',*,*,#309,.F.);
#389=ORIENTED_EDGE('',*,*,#311,.F.);
#390=ORIENTED_EDGE('',*,*,#312,.T.);
#391=ORIENTED_EDGE('',*,*,#313,.T.);
#392=ORIENTED_EDGE('',*,*,#312,.F.);
#393=ORIENTED_EDGE('',*,*,#314,.F.);
#394=ORIENTED_EDGE('',*,*,#315,.T.);
#395=ORIENTED_EDGE('',*,*,#316,.T.);
#396=ORIENTED_EDGE('',*,*,#315,.F.);
#397=ORIENTED_EDGE('',*,*,#317,.F.);
#398=ORIENTED_EDGE('',*,*,#318,.T.);
#399=ORIENTED_EDGE('',*,*,#319,.T.);
#400=ORIENTED_EDGE('',*,*,#318,.F.);
#401=ORIENTED_EDGE('',*,*,#320,.F.);
#402=ORIENTED_EDGE('',*,*,#321,.T.);
#403=ORIENTED_EDGE('',*,*,#322,.T.);
#404=ORIENTED_EDGE('',*,*,#321,.F.);
#405=ORIENTED_EDGE('',*,*,#323,.F.);
#406=ORIENTED_EDGE('',*,*,#324,.T.);
#407=ORIENTED_EDGE('',*,*,#325,.T.);
#408=ORIENTED_EDGE('',*,*,#324,.F.);
#409=ORIENTED_EDGE('',*,*,#326,.F.);
#410=ORIENTED_EDGE('',*,*,#327,.T.);
#411=ORIENTED_EDGE('',*,*,#328,.T.);
#412=ORIENTED_EDGE('',*,*,#327,.F.);
#413=ORIENTED_EDGE('',*,*,#329,.T.);
#414=ORIENTED_EDGE('',*,*,#330,.T.);
#415=ORIENTED_EDGE('',*,*,#331,.F.);
#416=ORIENTED_EDGE('',*,*,#332,.F.);
#417=ORIENTED_EDGE('',*,*,#333,.T.);
#418=ORIENTED_EDGE('',*,*,#332,.T.);
#419=ORIENTED_EDGE('',*,*,#334,.F.);
#420=ORIENTED_EDGE('',*,*,#335,.F.);
#421=ORIENTED_EDGE('',*,*,#336,.T.);
#422=ORIENTED_EDGE('',*,*,#335,.T.);
#423=ORIENTED_EDGE('',*,*,#337,.F.);
#424=ORIENTED_EDGE('',*,*,#338,.F.);
#425=ORIENTED_EDGE('',*,*,#339,.T.);
#426=ORIENTED_EDGE('',*,*,#338,.T.);
#427=ORIENTED_EDGE('',*,*,#340,.F.);
#428=ORIENTED_EDGE('',*,*,#330,.F.);
#429=ORIENTED_EDGE('',*,*,#340,.T.);
#430=ORIENTED_EDGE('',*,*,#337,.T.);
#431=ORIENTED_EDGE('',*,*,#334,.T.);
#432=ORIENTED_EDGE('',*,*,#331,.T.);
#433=ORIENTED_EDGE('',*,*,#289,.T.);
#434=ORIENTED_EDGE('',*,*,#286,.T.);
#435=ORIENTED_EDGE('',*,*,#283,.T.);
#436=ORIENTED_EDGE('',*,*,#292,.T.);
#437=ORIENTED_EDGE('',*,*,#301,.T.);
#438=ORIENTED_EDGE('',*,*,#298,.T.);
#439=ORIENTED_EDGE('',*,*,#295,.T.);
#440=ORIENTED_EDGE('',*,*,#304,.T.);
#441=ORIENTED_EDGE('',*,*,#326,.T.);
#442=ORIENTED_EDGE('',*,*,#323,.T.);
#443=ORIENTED_EDGE('',*,*,#320,.T.);
#444=ORIENTED_EDGE('',*,*,#317,.T.);
#445=ORIENTED_EDGE('',*,*,#314,.T.);
#446=ORIENTED_EDGE('',*,*,#311,.T.);
#447=ORIENTED_EDGE('',*,*,#308,.T.);
#448=ORIENTED_EDGE('',*,*,#305,.T.);
#449=ORIENTED_EDGE('',*,*,#280,.T.);
#450=ORIENTED_EDGE('',*,*,#277,.T.);
#451=ORIENTED_EDGE('',*,*,#339,.F.);
#452=ORIENTED_EDGE('',*,*,#329,.F.);
#453=ORIENTED_EDGE('',*,*,#333,.F.);
#454=ORIENTED_EDGE('',*,*,#336,.F.);
#455=ORIENTED_EDGE('',*,*,#288,.T.);
#456=ORIENTED_EDGE('',*,*,#291,.T.);
#457=ORIENTED_EDGE('',*,*,#281,.T.);
#458=ORIENTED_EDGE('',*,*,#285,.T.);
#459=ORIENTED_EDGE('',*,*,#300,.T.);
#460=ORIENTED_EDGE('',*,*,#303,.T.);
#461=ORIENTED_EDGE('',*,*,#293,.T.);
#462=ORIENTED_EDGE('',*,*,#297,.T.);
#463=ORIENTED_EDGE('',*,*,#328,.F.);
#464=ORIENTED_EDGE('',*,*,#325,.F.);
#465=ORIENTED_EDGE('',*,*,#322,.F.);
#466=ORIENTED_EDGE('',*,*,#319,.F.);
#467=ORIENTED_EDGE('',*,*,#316,.F.);
#468=ORIENTED_EDGE('',*,*,#313,.F.);
#469=ORIENTED_EDGE('',*,*,#310,.F.);
#470=ORIENTED_EDGE('',*,*,#307,.F.);
#471=ORIENTED_EDGE('',*,*,#278,.T.);
#472=ORIENTED_EDGE('',*,*,#275,.T.);
#473=CYLINDRICAL_SURFACE('',#523,1.525);
#474=CYLINDRICAL_SURFACE('',#526,1.525);
#475=CYLINDRICAL_SURFACE('',#537,1.525);
#476=CYLINDRICAL_SURFACE('',#540,1.525);
#477=CYLINDRICAL_SURFACE('',#543,1.525);
#478=CYLINDRICAL_SURFACE('',#546,1.525);
#479=CYLINDRICAL_SURFACE('',#549,1.525);
#480=CYLINDRICAL_SURFACE('',#552,1.525);
#481=CYLINDRICAL_SURFACE('',#555,1.525);
#482=CYLINDRICAL_SURFACE('',#558,1.525);
#483=CYLINDRICAL_SURFACE('',#562,45.);
#484=CYLINDRICAL_SURFACE('',#566,45.);
#485=ADVANCED_FACE('',(#51),#473,.F.);
#486=ADVANCED_FACE('',(#52),#474,.F.);
#487=ADVANCED_FACE('',(#53),#39,.F.);
#488=ADVANCED_FACE('',(#54),#40,.F.);
#489=ADVANCED_FACE('',(#55),#41,.F.);
#490=ADVANCED_FACE('',(#56),#42,.F.);
#491=ADVANCED_FACE('',(#57),#43,.F.);
#492=ADVANCED_FACE('',(#58),#44,.F.);
#493=ADVANCED_FACE('',(#59),#45,.F.);
#494=ADVANCED_FACE('',(#60),#46,.F.);
#495=ADVANCED_FACE('',(#61),#475,.F.);
#496=ADVANCED_FACE('',(#62),#476,.F.);
#497=ADVANCED_FACE('',(#63),#477,.F.);
#498=ADVANCED_FACE('',(#64),#478,.F.);
#499=ADVANCED_FACE('',(#65),#479,.F.);
#500=ADVANCED_FACE('',(#66),#480,.F.);
#501=ADVANCED_FACE('',(#67),#481,.F.);
#502=ADVANCED_FACE('',(#68),#482,.F.);
#503=ADVANCED_FACE('',(#69),#47,.T.);
#504=ADVANCED_FACE('',(#70),#483,.T.);
#505=ADVANCED_FACE('',(#71),#48,.T.);
#506=ADVANCED_FACE('',(#72),#484,.T.);
#507=ADVANCED_FACE('',(#73,#15,#16,#17,#18,#19,#20,#21,#22,#23,#24,#25,
#26),#49,.T.);
#508=ADVANCED_FACE('',(#74,#27,#28,#29,#30,#31,#32,#33,#34,#35,#36,#37,
#38),#50,.F.);
#509=CLOSED_SHELL('',(#485,#486,#487,#488,#489,#490,#491,#492,#493,#494,
#495,#496,#497,#498,#499,#500,#501,#502,#503,#504,#505,#506,#507,#508));
#510=DERIVED_UNIT_ELEMENT(#512,1.);
#511=DERIVED_UNIT_ELEMENT(#851,-3.);
#512=(
MASS_UNIT()
NAMED_UNIT(*)
SI_UNIT(.KILO.,.GRAM.)
);
#513=DERIVED_UNIT((#510,#511));
#514=MEASURE_REPRESENTATION_ITEM('density measure',
POSITIVE_RATIO_MEASURE(7850.),#513);
#515=PROPERTY_DEFINITION_REPRESENTATION(#520,#517);
#516=PROPERTY_DEFINITION_REPRESENTATION(#521,#518);
#517=REPRESENTATION('material name',(#519),#848);
#518=REPRESENTATION('density',(#514),#848);
#519=DESCRIPTIVE_REPRESENTATION_ITEM('Acero','Acero');
#520=PROPERTY_DEFINITION('material property','material name',#858);
#521=PROPERTY_DEFINITION('material property','density of part',#858);
#522=AXIS2_PLACEMENT_3D('',#711,#571,#572);
#523=AXIS2_PLACEMENT_3D('',#712,#573,#574);
#524=AXIS2_PLACEMENT_3D('',#714,#575,#576);
#525=AXIS2_PLACEMENT_3D('',#717,#578,#579);
#526=AXIS2_PLACEMENT_3D('',#718,#580,#581);
#527=AXIS2_PLACEMENT_3D('',#720,#582,#583);
#528=AXIS2_PLACEMENT_3D('',#723,#585,#586);
#529=AXIS2_PLACEMENT_3D('',#724,#587,#588);
#530=AXIS2_PLACEMENT_3D('',#733,#593,#594);
#531=AXIS2_PLACEMENT_3D('',#739,#598,#599);
#532=AXIS2_PLACEMENT_3D('',#745,#603,#604);
#533=AXIS2_PLACEMENT_3D('',#748,#607,#608);
#534=AXIS2_PLACEMENT_3D('',#757,#613,#614);
#535=AXIS2_PLACEMENT_3D('',#763,#618,#619);
#536=AXIS2_PLACEMENT_3D('',#769,#623,#624);
#537=AXIS2_PLACEMENT_3D('',#772,#627,#628);
#538=AXIS2_PLACEMENT_3D('',#774,#629,#630);
#539=AXIS2_PLACEMENT_3D('',#777,#632,#633);
#540=AXIS2_PLACEMENT_3D('',#778,#634,#635);
#541=AXIS2_PLACEMENT_3D('',#780,#636,#637);
#542=AXIS2_PLACEMENT_3D('',#783,#639,#640);
#543=AXIS2_PLACEMENT_3D('',#784,#641,#642);
#544=AXIS2_PLACEMENT_3D('',#786,#643,#644);
#545=AXIS2_PLACEMENT_3D('',#789,#646,#647);
#546=AXIS2_PLACEMENT_3D('',#790,#648,#649);
#547=AXIS2_PLACEMENT_3D('',#792,#650,#651);
#548=AXIS2_PLACEMENT_3D('',#795,#653,#654);
#549=AXIS2_PLACEMENT_3D('',#796,#655,#656);
#550=AXIS2_PLACEMENT_3D('',#798,#657,#658);
#551=AXIS2_PLACEMENT_3D('',#801,#660,#661);
#552=AXIS2_PLACEMENT_3D('',#802,#662,#663);
#553=AXIS2_PLACEMENT_3D('',#804,#664,#665);
#554=AXIS2_PLACEMENT_3D('',#807,#667,#668);
#555=AXIS2_PLACEMENT_3D('',#808,#669,#670);
#556=AXIS2_PLACEMENT_3D('',#810,#671,#672);
#557=AXIS2_PLACEMENT_3D('',#813,#674,#675);
#558=AXIS2_PLACEMENT_3D('',#814,#676,#677);
#559=AXIS2_PLACEMENT_3D('',#816,#678,#679);
#560=AXIS2_PLACEMENT_3D('',#819,#681,#682);
#561=AXIS2_PLACEMENT_3D('',#820,#683,#684);
#562=AXIS2_PLACEMENT_3D('',#829,#689,#690);
#563=AXIS2_PLACEMENT_3D('',#831,#691,#692);
#564=AXIS2_PLACEMENT_3D('',#833,#693,#694);
#565=AXIS2_PLACEMENT_3D('',#835,#696,#697);
#566=AXIS2_PLACEMENT_3D('',#841,#701,#702);
#567=AXIS2_PLACEMENT_3D('',#842,#703,#704);
#568=AXIS2_PLACEMENT_3D('',#843,#705,#706);
#569=AXIS2_PLACEMENT_3D('',#844,#707,#708);
#570=AXIS2_PLACEMENT_3D('',#845,#709,#710);
#571=DIRECTION('axis',(0.,0.,1.));
#572=DIRECTION('refdir',(1.,0.,0.));
#573=DIRECTION('center_axis',(0.,1.,0.));
#574=DIRECTION('ref_axis',(1.,0.,0.));
#575=DIRECTION('center_axis',(0.,1.,0.));
#576=DIRECTION('ref_axis',(1.,0.,0.));
#577=DIRECTION('',(0.,1.,0.));
#578=DIRECTION('center_axis',(0.,-1.,0.));
#579=DIRECTION('ref_axis',(1.,0.,0.));
#580=DIRECTION('center_axis',(0.,1.,0.));
#581=DIRECTION('ref_axis',(1.,0.,0.));
#582=DIRECTION('center_axis',(0.,1.,0.));
#583=DIRECTION('ref_axis',(1.,0.,0.));
#584=DIRECTION('',(0.,1.,0.));
#585=DIRECTION('center_axis',(0.,-1.,0.));
#586=DIRECTION('ref_axis',(1.,0.,0.));
#587=DIRECTION('center_axis',(-1.,0.,0.));
#588=DIRECTION('ref_axis',(0.,0.,-1.));
#589=DIRECTION('',(0.,0.,1.));
#590=DIRECTION('',(0.,-1.,0.));
#591=DIRECTION('',(0.,0.,-1.));
#592=DIRECTION('',(0.,-1.,0.));
#593=DIRECTION('center_axis',(8.94069662749075E-9,0.,1.));
#594=DIRECTION('ref_axis',(-1.,0.,8.94069662749075E-9));
#595=DIRECTION('',(1.,0.,-8.94069662749075E-9));
#596=DIRECTION('',(-1.,0.,8.94069662749075E-9));
#597=DIRECTION('',(0.,-1.,0.));
#598=DIRECTION('center_axis',(1.,0.,0.));
#599=DIRECTION('ref_axis',(0.,0.,1.));
#600=DIRECTION('',(0.,0.,-1.));
#601=DIRECTION('',(0.,0.,1.));
#602=DIRECTION('',(0.,-1.,0.));
#603=DIRECTION('center_axis',(0.,0.,-1.));
#604=DIRECTION('ref_axis',(1.,0.,0.));
#605=DIRECTION('',(-1.,0.,0.));
#606=DIRECTION('',(1.,0.,0.));
#607=DIRECTION('center_axis',(-8.94069662749075E-9,0.,1.));
#608=DIRECTION('ref_axis',(-1.,0.,-8.94069662749075E-9));
#609=DIRECTION('',(1.,0.,8.94069662749075E-9));
#610=DIRECTION('',(0.,-1.,0.));
#611=DIRECTION('',(-1.,0.,-8.94069662749075E-9));
#612=DIRECTION('',(0.,-1.,0.));
#613=DIRECTION('center_axis',(1.,0.,0.));
#614=DIRECTION('ref_axis',(0.,0.,1.));
#615=DIRECTION('',(0.,0.,-1.));
#616=DIRECTION('',(0.,0.,1.));
#617=DIRECTION('',(0.,-1.,0.));
#618=DIRECTION('center_axis',(0.,0.,-1.));
#619=DIRECTION('ref_axis',(1.,0.,0.));
#620=DIRECTION('',(-1.,0.,0.));
#621=DIRECTION('',(1.,0.,0.));
#622=DIRECTION('',(0.,-1.,0.));
#623=DIRECTION('center_axis',(-1.,0.,0.));
#624=DIRECTION('ref_axis',(0.,0.,-1.));
#625=DIRECTION('',(0.,0.,1.));
#626=DIRECTION('',(0.,0.,-1.));
#627=DIRECTION('center_axis',(0.,1.,0.));
#628=DIRECTION('ref_axis',(1.,0.,0.));
#629=DIRECTION('center_axis',(0.,-1.,0.));
#630=DIRECTION('ref_axis',(1.,0.,0.));
#631=DIRECTION('',(0.,-1.,0.));
#632=DIRECTION('center_axis',(0.,-1.,0.));
#633=DIRECTION('ref_axis',(1.,0.,0.));
#634=DIRECTION('center_axis',(0.,1.,0.));
#635=DIRECTION('ref_axis',(1.,0.,0.));
#636=DIRECTION('center_axis',(0.,-1.,0.));
#637=DIRECTION('ref_axis',(1.,0.,0.));
#638=DIRECTION('',(0.,-1.,0.));
#639=DIRECTION('center_axis',(0.,-1.,0.));
#640=DIRECTION('ref_axis',(1.,0.,0.));
#641=DIRECTION('center_axis',(0.,1.,0.));
#642=DIRECTION('ref_axis',(1.,0.,0.));
#643=DIRECTION('center_axis',(0.,-1.,0.));
#644=DIRECTION('ref_axis',(1.,0.,0.));
#645=DIRECTION('',(0.,-1.,0.));
#646=DIRECTION('center_axis',(0.,-1.,0.));
#647=DIRECTION('ref_axis',(1.,0.,0.));
#648=DIRECTION('center_axis',(0.,1.,0.));
#649=DIRECTION('ref_axis',(1.,0.,0.));
#650=DIRECTION('center_axis',(0.,-1.,0.));
#651=DIRECTION('ref_axis',(1.,0.,0.));
#652=DIRECTION('',(0.,-1.,0.));
#653=DIRECTION('center_axis',(0.,-1.,0.));
#654=DIRECTION('ref_axis',(1.,0.,0.));
#655=DIRECTION('center_axis',(0.,1.,0.));
#656=DIRECTION('ref_axis',(1.,0.,0.));
#657=DIRECTION('center_axis',(0.,-1.,0.));
#658=DIRECTION('ref_axis',(1.,0.,0.));
#659=DIRECTION('',(0.,-1.,0.));
#660=DIRECTION('center_axis',(0.,-1.,0.));
#661=DIRECTION('ref_axis',(1.,0.,0.));
#662=DIRECTION('center_axis',(0.,1.,0.));
#663=DIRECTION('ref_axis',(1.,0.,0.));
#664=DIRECTION('center_axis',(0.,-1.,0.));
#665=DIRECTION('ref_axis',(1.,0.,0.));
#666=DIRECTION('',(0.,-1.,0.));
#667=DIRECTION('center_axis',(0.,-1.,0.));
#668=DIRECTION('ref_axis',(1.,0.,0.));
#669=DIRECTION('center_axis',(0.,1.,0.));
#670=DIRECTION('ref_axis',(1.,0.,0.));
#671=DIRECTION('center_axis',(0.,-1.,0.));
#672=DIRECTION('ref_axis',(1.,0.,0.));
#673=DIRECTION('',(0.,-1.,0.));
#674=DIRECTION('center_axis',(0.,-1.,0.));
#675=DIRECTION('ref_axis',(1.,0.,0.));
#676=DIRECTION('center_axis',(0.,1.,0.));
#677=DIRECTION('ref_axis',(1.,0.,0.));
#678=DIRECTION('center_axis',(0.,-1.,0.));
#679=DIRECTION('ref_axis',(1.,0.,0.));
#680=DIRECTION('',(0.,-1.,0.));
#681=DIRECTION('center_axis',(0.,-1.,0.));
#682=DIRECTION('ref_axis',(1.,0.,0.));
#683=DIRECTION('center_axis',(0.,0.,-1.));
#684=DIRECTION('ref_axis',(-1.,0.,0.));
#685=DIRECTION('',(-1.,0.,0.));
#686=DIRECTION('',(0.,1.,0.));
#687=DIRECTION('',(-1.,0.,0.));
#688=DIRECTION('',(0.,1.,0.));
#689=DIRECTION('center_axis',(0.,1.,0.));
#690=DIRECTION('ref_axis',(0.554700196225229,0.,0.832050294337844));
#691=DIRECTION('center_axis',(0.,1.,0.));
#692=DIRECTION('ref_axis',(0.554700196225229,0.,0.832050294337844));
#693=DIRECTION('center_axis',(0.,1.,0.));
#694=DIRECTION('ref_axis',(0.554700196225229,0.,0.832050294337844));
#695=DIRECTION('',(0.,1.,0.));
#696=DIRECTION('center_axis',(0.,0.,1.));
#697=DIRECTION('ref_axis',(1.,0.,0.));
#698=DIRECTION('',(1.,0.,0.));
#699=DIRECTION('',(1.,0.,0.));
#700=DIRECTION('',(0.,1.,0.));
#701=DIRECTION('center_axis',(0.,1.,0.));
#702=DIRECTION('ref_axis',(-0.554700196225229,0.,-0.832050294337844));
#703=DIRECTION('center_axis',(0.,1.,0.));
#704=DIRECTION('ref_axis',(-0.554700196225229,0.,-0.832050294337844));
#705=DIRECTION('center_axis',(0.,1.,0.));
#706=DIRECTION('ref_axis',(-0.554700196225229,0.,-0.832050294337844));
#707=DIRECTION('center_axis',(0.,1.,0.));
#708=DIRECTION('ref_axis',(1.,0.,0.));
#709=DIRECTION('center_axis',(0.,1.,0.));
#710=DIRECTION('ref_axis',(1.,0.,0.));
#711=CARTESIAN_POINT('',(0.,0.,0.));
#712=CARTESIAN_POINT('Origin',(-9.6,0.,0.));
#713=CARTESIAN_POINT('',(-11.125,1.,1.86758636869971E-16));
#714=CARTESIAN_POINT('Origin',(-9.6,1.,0.));
#715=CARTESIAN_POINT('',(-11.125,4.,-1.86758636869971E-16));
#716=CARTESIAN_POINT('',(-11.125,0.,1.86758636869971E-16));
#717=CARTESIAN_POINT('Origin',(-9.6,4.,0.));
#718=CARTESIAN_POINT('Origin',(9.6,0.,0.));
#719=CARTESIAN_POINT('',(8.075,1.,1.86758636869971E-16));
#720=CARTESIAN_POINT('Origin',(9.6,1.,0.));
#721=CARTESIAN_POINT('',(8.075,4.,-1.86758636869971E-16));
#722=CARTESIAN_POINT('',(8.075,0.,1.86758636869971E-16));
#723=CARTESIAN_POINT('Origin',(9.6,4.,0.));
#724=CARTESIAN_POINT('Origin',(-37.5,4.,3.00000004470348));
#725=CARTESIAN_POINT('',(-37.5,1.,-3.));
#726=CARTESIAN_POINT('',(-37.5,1.,3.00000004470348));
#727=CARTESIAN_POINT('',(-37.5,1.,1.50000002235174));
#728=CARTESIAN_POINT('',(-37.5,4.,-3.));
#729=CARTESIAN_POINT('',(-37.5,4.,-3.));
#730=CARTESIAN_POINT('',(-37.5,4.,3.00000004470348));
#731=CARTESIAN_POINT('',(-37.5,4.,1.50000002235174));
#732=CARTESIAN_POINT('',(-37.5,4.,3.00000004470348));
#733=CARTESIAN_POINT('Origin',(-32.5,4.,3.));
#734=CARTESIAN_POINT('',(-32.5,1.,3.));
#735=CARTESIAN_POINT('',(-16.249999986589,1.,2.99999985471368));
#736=CARTESIAN_POINT('',(-32.5,4.,3.));
#737=CARTESIAN_POINT('',(-16.249999986589,4.,2.99999985471368));
#738=CARTESIAN_POINT('',(-32.5,4.,3.));
#739=CARTESIAN_POINT('Origin',(-32.5,4.,-3.));
#740=CARTESIAN_POINT('',(-32.5,1.,-3.));
#741=CARTESIAN_POINT('',(-32.5,1.,-1.5));
#742=CARTESIAN_POINT('',(-32.5,4.,-3.));
#743=CARTESIAN_POINT('',(-32.5,4.,-1.5));
#744=CARTESIAN_POINT('',(-32.5,4.,-3.));
#745=CARTESIAN_POINT('Origin',(-37.5,4.,-3.));
#746=CARTESIAN_POINT('',(-18.75,1.,-3.));
#747=CARTESIAN_POINT('',(-18.75,4.,-3.));
#748=CARTESIAN_POINT('Origin',(37.5,4.,3.00000004470348));
#749=CARTESIAN_POINT('',(32.5,1.,3.));
#750=CARTESIAN_POINT('',(37.5,1.,3.00000004470348));
#751=CARTESIAN_POINT('',(18.749999986589,1.,2.99999987706542));
#752=CARTESIAN_POINT('',(32.5,4.,3.));
#753=CARTESIAN_POINT('',(32.5,4.,3.));
#754=CARTESIAN_POINT('',(37.5,4.,3.00000004470348));
#755=CARTESIAN_POINT('',(18.749999986589,4.,2.99999987706542));
#756=CARTESIAN_POINT('',(37.5,4.,3.00000004470348));
#757=CARTESIAN_POINT('Origin',(37.5,4.,-3.));
#758=CARTESIAN_POINT('',(37.5,1.,-3.));
#759=CARTESIAN_POINT('',(37.5,1.,-1.5));
#760=CARTESIAN_POINT('',(37.5,4.,-3.));
#761=CARTESIAN_POINT('',(37.5,4.,-1.5));
#762=CARTESIAN_POINT('',(37.5,4.,-3.));
#763=CARTESIAN_POINT('Origin',(32.5,4.,-3.));
#764=CARTESIAN_POINT('',(32.5,1.,-3.));
#765=CARTESIAN_POINT('',(16.25,1.,-3.));
#766=CARTESIAN_POINT('',(32.5,4.,-3.));
#767=CARTESIAN_POINT('',(16.25,4.,-3.));
#768=CARTESIAN_POINT('',(32.5,4.,-3.));
#769=CARTESIAN_POINT('Origin',(32.5,4.,3.));
#770=CARTESIAN_POINT('',(32.5,1.,1.5));
#771=CARTESIAN_POINT('',(32.5,4.,1.5));
#772=CARTESIAN_POINT('Origin',(-20.029453915915,0.,-29.9915996065078));
#773=CARTESIAN_POINT('',(-21.554453915915,4.,-29.9915996065078));
#774=CARTESIAN_POINT('Origin',(-20.029453915915,4.,-29.9915996065078));
#775=CARTESIAN_POINT('',(-21.554453915915,1.,-29.9915996065078));
#776=CARTESIAN_POINT('',(-21.554453915915,0.,-29.9915996065078));
#777=CARTESIAN_POINT('Origin',(-20.029453915915,1.,-29.9915996065078));
#778=CARTESIAN_POINT('Origin',(-20.0139227122407,0.,30.0083983833398));
#779=CARTESIAN_POINT('',(-21.5389227122407,4.,30.0083983833398));
#780=CARTESIAN_POINT('Origin',(-20.0139227122407,4.,30.0083983833398));
#781=CARTESIAN_POINT('',(-21.5389227122407,1.,30.0083983833398));
#782=CARTESIAN_POINT('',(-21.5389227122407,0.,30.0083983833398));
#783=CARTESIAN_POINT('Origin',(-20.0139227122407,1.,30.0083983833398));
#784=CARTESIAN_POINT('Origin',(6.99999999999999,0.,25.442263245203));
#785=CARTESIAN_POINT('',(5.47499999999999,4.,25.442263245203));
#786=CARTESIAN_POINT('Origin',(6.99999999999999,4.,25.442263245203));
#787=CARTESIAN_POINT('',(5.475,1.,25.442263245203));
#788=CARTESIAN_POINT('',(5.475,0.,25.442263245203));
#789=CARTESIAN_POINT('Origin',(6.99999999999999,1.,25.442263245203));
#790=CARTESIAN_POINT('Origin',(-7.,0.,25.442263245203));
#791=CARTESIAN_POINT('',(-8.525,4.,25.442263245203));
#792=CARTESIAN_POINT('Origin',(-7.,4.,25.442263245203));
#793=CARTESIAN_POINT('',(-8.525,1.,25.442263245203));
#794=CARTESIAN_POINT('',(-8.525,0.,25.442263245203));
#795=CARTESIAN_POINT('Origin',(-7.,1.,25.442263245203));
#796=CARTESIAN_POINT('Origin',(-7.,0.,-25.442263245203));
#797=CARTESIAN_POINT('',(-8.525,4.,-25.442263245203));
#798=CARTESIAN_POINT('Origin',(-7.,4.,-25.442263245203));
#799=CARTESIAN_POINT('',(-8.525,1.,-25.442263245203));
#800=CARTESIAN_POINT('',(-8.525,0.,-25.442263245203));
#801=CARTESIAN_POINT('Origin',(-7.,1.,-25.442263245203));
#802=CARTESIAN_POINT('Origin',(7.,0.,-25.442263245203));
#803=CARTESIAN_POINT('',(5.475,4.,-25.442263245203));
#804=CARTESIAN_POINT('Origin',(7.,4.,-25.442263245203));
#805=CARTESIAN_POINT('',(5.475,1.,-25.442263245203));
#806=CARTESIAN_POINT('',(5.475,0.,-25.442263245203));
#807=CARTESIAN_POINT('Origin',(7.,1.,-25.442263245203));
#808=CARTESIAN_POINT('Origin',(19.9860742588646,0.,29.9928320231462));
#809=CARTESIAN_POINT('',(18.4610742588646,4.,29.9928320231462));
#810=CARTESIAN_POINT('Origin',(19.9860742588646,4.,29.9928320231462));
#811=CARTESIAN_POINT('',(18.4610742588646,1.,29.9928320231462));
#812=CARTESIAN_POINT('',(18.4610742588646,0.,29.9928320231462));
#813=CARTESIAN_POINT('Origin',(19.9860742588646,1.,29.9928320231462));
#814=CARTESIAN_POINT('Origin',(20.0132685345965,0.,-30.0074175249822));
#815=CARTESIAN_POINT('',(18.4882685345965,4.,-30.0074175249822));
#816=CARTESIAN_POINT('Origin',(20.0132685345965,4.,-30.0074175249822));
#817=CARTESIAN_POINT('',(18.4882685345965,1.,-30.0074175249822));
#818=CARTESIAN_POINT('',(18.4882685345965,0.,-30.0074175249822));
#819=CARTESIAN_POINT('Origin',(20.0132685345965,1.,-30.0074175249822));
#820=CARTESIAN_POINT('Origin',(24.9615088301353,0.,-37.442263245203));
#821=CARTESIAN_POINT('',(24.9615088301353,1.,-37.442263245203));
#822=CARTESIAN_POINT('',(-24.9615088301353,1.,-37.442263245203));
#823=CARTESIAN_POINT('',(12.4807544150676,1.,-37.442263245203));
#824=CARTESIAN_POINT('',(-24.9615088301353,4.,-37.442263245203));
#825=CARTESIAN_POINT('',(-24.9615088301353,0.,-37.442263245203));
#826=CARTESIAN_POINT('',(24.9615088301353,4.,-37.442263245203));
#827=CARTESIAN_POINT('',(24.9615088301353,4.,-37.442263245203));
#828=CARTESIAN_POINT('',(24.9615088301353,0.,-37.442263245203));
#829=CARTESIAN_POINT('Origin',(0.,0.,0.));
#830=CARTESIAN_POINT('',(24.9615088301353,1.,37.442263245203));
#831=CARTESIAN_POINT('Origin',(0.,1.,0.));
#832=CARTESIAN_POINT('',(24.9615088301353,4.,37.442263245203));
#833=CARTESIAN_POINT('Origin',(0.,4.,0.));
#834=CARTESIAN_POINT('',(24.9615088301353,0.,37.442263245203));
#835=CARTESIAN_POINT('Origin',(-24.9615088301353,0.,37.442263245203));
#836=CARTESIAN_POINT('',(-24.9615088301353,1.,37.442263245203));
#837=CARTESIAN_POINT('',(-12.4807544150677,1.,37.442263245203));
#838=CARTESIAN_POINT('',(-24.9615088301353,4.,37.442263245203));
#839=CARTESIAN_POINT('',(-24.9615088301353,4.,37.442263245203));
#840=CARTESIAN_POINT('',(-24.9615088301353,0.,37.442263245203));
#841=CARTESIAN_POINT('Origin',(0.,0.,0.));
#842=CARTESIAN_POINT('Origin',(0.,1.,0.));
#843=CARTESIAN_POINT('Origin',(0.,4.,0.));
#844=CARTESIAN_POINT('Origin',(0.,4.,-4.44089209850063E-15));
#845=CARTESIAN_POINT('Origin',(0.,1.,-4.44089209850063E-15));
#846=UNCERTAINTY_MEASURE_WITH_UNIT(LENGTH_MEASURE(0.01),#850,
'DISTANCE_ACCURACY_VALUE',
'Maximum model space distance between geometric entities at asserted c
onnectivities');
#847=UNCERTAINTY_MEASURE_WITH_UNIT(LENGTH_MEASURE(0.01),#850,
'DISTANCE_ACCURACY_VALUE',
'Maximum model space distance between geometric entities at asserted c
onnectivities');
#848=(
GEOMETRIC_REPRESENTATION_CONTEXT(3)
GLOBAL_UNCERTAINTY_ASSIGNED_CONTEXT((#846))
GLOBAL_UNIT_ASSIGNED_CONTEXT((#850,#852,#853))
REPRESENTATION_CONTEXT('','3D')
);
#849=(
GEOMETRIC_REPRESENTATION_CONTEXT(3)
GLOBAL_UNCERTAINTY_ASSIGNED_CONTEXT((#847))
GLOBAL_UNIT_ASSIGNED_CONTEXT((#850,#852,#853))
REPRESENTATION_CONTEXT('','3D')
);
#850=(
LENGTH_UNIT()
NAMED_UNIT(*)
SI_UNIT(.MILLI.,.METRE.)
);
#851=(
LENGTH_UNIT()
NAMED_UNIT(*)
SI_UNIT($,.METRE.)
);
#852=(
NAMED_UNIT(*)
PLANE_ANGLE_UNIT()
SI_UNIT($,.RADIAN.)
);
#853=(
NAMED_UNIT(*)
SI_UNIT($,.STERADIAN.)
SOLID_ANGLE_UNIT()
);
#854=SHAPE_DEFINITION_REPRESENTATION(#855,#856);
#855=PRODUCT_DEFINITION_SHAPE('',$,#858);
#856=SHAPE_REPRESENTATION('',(#522),#848);
#857=PRODUCT_DEFINITION_CONTEXT('part definition',#862,'design');
#858=PRODUCT_DEFINITION('2026-06-22-13-13-37-902','placa base',#859,#857);
#859=PRODUCT_DEFINITION_FORMATION('',$,#864);
#860=PRODUCT_RELATED_PRODUCT_CATEGORY('placa base','placa base',(#864));
#861=APPLICATION_PROTOCOL_DEFINITION('international standard',
'automotive_design',2009,#862);
#862=APPLICATION_CONTEXT(
'Core Data for Automotive Mechanical Design Process');
#863=PRODUCT_CONTEXT('part definition',#862,'mechanical');
#864=PRODUCT('2026-06-22-13-13-37-902','placa base',$,(#863));
#865=PRESENTATION_STYLE_ASSIGNMENT((#866));
#866=SURFACE_STYLE_USAGE(.BOTH.,#867);
#867=SURFACE_SIDE_STYLE('',(#868));
#868=SURFACE_STYLE_FILL_AREA(#869);
#869=FILL_AREA_STYLE('Acero - Satinado',(#870));
#870=FILL_AREA_STYLE_COLOUR('Acero - Satinado',#871);
#871=COLOUR_RGB('Acero - Satinado',0.627450980392157,0.627450980392157,
0.627450980392157);
ENDSEC;
END-ISO-10303-21;
