ISO-10303-21;
HEADER;
/* Generated by software containing ST-Developer
 * from STEP Tools, Inc. (www.steptools.com) 
 */

FILE_DESCRIPTION(
/* description */ (''),
/* implementation_level */ '2;1');

FILE_NAME(
/* name */ 'placa superior.step',
/* time_stamp */ '2026-07-13T16:57:00-04:00',
/* author */ (''),
/* organization */ (''),
/* preprocessor_version */ 'ST-DEVELOPER v20.1',
/* originating_system */ 'Autodesk Translation Framework v15.8.0.0',
/* authorisation */ '');

FILE_SCHEMA (('AUTOMOTIVE_DESIGN { 1 0 10303 214 3 1 1 }'));
ENDSEC;

DATA;
#10=MECHANICAL_DESIGN_GEOMETRIC_PRESENTATION_REPRESENTATION('',(#13),#1075);
#11=SHAPE_REPRESENTATION_RELATIONSHIP('SRR','None',#1082,#12);
#12=ADVANCED_BREP_SHAPE_REPRESENTATION('',(#14),#1074);
#13=STYLED_ITEM('',(#1091),#14);
#14=MANIFOLD_SOLID_BREP('Cuerpo1',#631);
#15=FACE_BOUND('',#106,.T.);
#16=FACE_BOUND('',#107,.T.);
#17=FACE_BOUND('',#108,.T.);
#18=FACE_BOUND('',#109,.T.);
#19=FACE_BOUND('',#110,.T.);
#20=FACE_BOUND('',#111,.T.);
#21=FACE_BOUND('',#112,.T.);
#22=FACE_BOUND('',#113,.T.);
#23=FACE_BOUND('',#114,.T.);
#24=FACE_BOUND('',#115,.T.);
#25=FACE_BOUND('',#116,.T.);
#26=FACE_BOUND('',#117,.T.);
#27=FACE_BOUND('',#118,.T.);
#28=FACE_BOUND('',#119,.T.);
#29=FACE_BOUND('',#120,.T.);
#30=FACE_BOUND('',#130,.T.);
#31=FACE_BOUND('',#131,.T.);
#32=FACE_BOUND('',#132,.T.);
#33=FACE_BOUND('',#133,.T.);
#34=FACE_BOUND('',#134,.T.);
#35=FACE_BOUND('',#135,.T.);
#36=FACE_BOUND('',#136,.T.);
#37=FACE_BOUND('',#137,.T.);
#38=FACE_BOUND('',#138,.T.);
#39=FACE_BOUND('',#139,.T.);
#40=FACE_BOUND('',#140,.T.);
#41=FACE_BOUND('',#141,.T.);
#42=FACE_BOUND('',#142,.T.);
#43=FACE_BOUND('',#143,.T.);
#44=FACE_BOUND('',#144,.T.);
#45=PLANE('',#648);
#46=PLANE('',#652);
#47=PLANE('',#656);
#48=PLANE('',#660);
#49=PLANE('',#664);
#50=PLANE('',#668);
#51=PLANE('',#672);
#52=PLANE('',#676);
#53=PLANE('',#689);
#54=PLANE('',#714);
#55=FACE_OUTER_BOUND('',#85,.T.);
#56=FACE_OUTER_BOUND('',#86,.T.);
#57=FACE_OUTER_BOUND('',#87,.T.);
#58=FACE_OUTER_BOUND('',#88,.T.);
#59=FACE_OUTER_BOUND('',#89,.T.);
#60=FACE_OUTER_BOUND('',#90,.T.);
#61=FACE_OUTER_BOUND('',#91,.T.);
#62=FACE_OUTER_BOUND('',#92,.T.);
#63=FACE_OUTER_BOUND('',#93,.T.);
#64=FACE_OUTER_BOUND('',#94,.T.);
#65=FACE_OUTER_BOUND('',#95,.T.);
#66=FACE_OUTER_BOUND('',#96,.T.);
#67=FACE_OUTER_BOUND('',#97,.T.);
#68=FACE_OUTER_BOUND('',#98,.T.);
#69=FACE_OUTER_BOUND('',#99,.T.);
#70=FACE_OUTER_BOUND('',#100,.T.);
#71=FACE_OUTER_BOUND('',#101,.T.);
#72=FACE_OUTER_BOUND('',#102,.T.);
#73=FACE_OUTER_BOUND('',#103,.T.);
#74=FACE_OUTER_BOUND('',#104,.T.);
#75=FACE_OUTER_BOUND('',#105,.T.);
#76=FACE_OUTER_BOUND('',#121,.T.);
#77=FACE_OUTER_BOUND('',#122,.T.);
#78=FACE_OUTER_BOUND('',#123,.T.);
#79=FACE_OUTER_BOUND('',#124,.T.);
#80=FACE_OUTER_BOUND('',#125,.T.);
#81=FACE_OUTER_BOUND('',#126,.T.);
#82=FACE_OUTER_BOUND('',#127,.T.);
#83=FACE_OUTER_BOUND('',#128,.T.);
#84=FACE_OUTER_BOUND('',#129,.T.);
#85=EDGE_LOOP('',(#413,#414,#415,#416));
#86=EDGE_LOOP('',(#417,#418,#419,#420));
#87=EDGE_LOOP('',(#421,#422,#423,#424));
#88=EDGE_LOOP('',(#425,#426,#427,#428));
#89=EDGE_LOOP('',(#429,#430,#431,#432));
#90=EDGE_LOOP('',(#433,#434,#435,#436));
#91=EDGE_LOOP('',(#437,#438,#439,#440));
#92=EDGE_LOOP('',(#441,#442,#443,#444));
#93=EDGE_LOOP('',(#445,#446,#447,#448));
#94=EDGE_LOOP('',(#449,#450,#451,#452));
#95=EDGE_LOOP('',(#453,#454,#455,#456));
#96=EDGE_LOOP('',(#457,#458,#459,#460));
#97=EDGE_LOOP('',(#461,#462,#463,#464));
#98=EDGE_LOOP('',(#465,#466,#467,#468));
#99=EDGE_LOOP('',(#469,#470,#471,#472));
#100=EDGE_LOOP('',(#473,#474,#475,#476));
#101=EDGE_LOOP('',(#477,#478,#479,#480));
#102=EDGE_LOOP('',(#481,#482,#483,#484));
#103=EDGE_LOOP('',(#485,#486,#487,#488));
#104=EDGE_LOOP('',(#489,#490,#491,#492));
#105=EDGE_LOOP('',(#493));
#106=EDGE_LOOP('',(#494));
#107=EDGE_LOOP('',(#495));
#108=EDGE_LOOP('',(#496));
#109=EDGE_LOOP('',(#497));
#110=EDGE_LOOP('',(#498));
#111=EDGE_LOOP('',(#499));
#112=EDGE_LOOP('',(#500));
#113=EDGE_LOOP('',(#501));
#114=EDGE_LOOP('',(#502));
#115=EDGE_LOOP('',(#503));
#116=EDGE_LOOP('',(#504));
#117=EDGE_LOOP('',(#505,#506,#507,#508));
#118=EDGE_LOOP('',(#509,#510,#511,#512));
#119=EDGE_LOOP('',(#513,#514,#515,#516));
#120=EDGE_LOOP('',(#517,#518,#519,#520));
#121=EDGE_LOOP('',(#521,#522,#523,#524));
#122=EDGE_LOOP('',(#525,#526,#527,#528));
#123=EDGE_LOOP('',(#529,#530,#531,#532));
#124=EDGE_LOOP('',(#533,#534,#535,#536));
#125=EDGE_LOOP('',(#537,#538,#539,#540));
#126=EDGE_LOOP('',(#541,#542,#543,#544));
#127=EDGE_LOOP('',(#545,#546,#547,#548));
#128=EDGE_LOOP('',(#549,#550,#551,#552));
#129=EDGE_LOOP('',(#553));
#130=EDGE_LOOP('',(#554));
#131=EDGE_LOOP('',(#555));
#132=EDGE_LOOP('',(#556));
#133=EDGE_LOOP('',(#557));
#134=EDGE_LOOP('',(#558));
#135=EDGE_LOOP('',(#559));
#136=EDGE_LOOP('',(#560));
#137=EDGE_LOOP('',(#561));
#138=EDGE_LOOP('',(#562));
#139=EDGE_LOOP('',(#563));
#140=EDGE_LOOP('',(#564));
#141=EDGE_LOOP('',(#565,#566,#567,#568));
#142=EDGE_LOOP('',(#569,#570,#571,#572));
#143=EDGE_LOOP('',(#573,#574,#575,#576));
#144=EDGE_LOOP('',(#577,#578,#579,#580));
#145=LINE('',#907,#189);
#146=LINE('',#910,#190);
#147=LINE('',#913,#191);
#148=LINE('',#915,#192);
#149=LINE('',#916,#193);
#150=LINE('',#922,#194);
#151=LINE('',#924,#195);
#152=LINE('',#925,#196);
#153=LINE('',#931,#197);
#154=LINE('',#934,#198);
#155=LINE('',#937,#199);
#156=LINE('',#939,#200);
#157=LINE('',#940,#201);
#158=LINE('',#946,#202);
#159=LINE('',#948,#203);
#160=LINE('',#949,#204);
#161=LINE('',#955,#205);
#162=LINE('',#958,#206);
#163=LINE('',#961,#207);
#164=LINE('',#963,#208);
#165=LINE('',#964,#209);
#166=LINE('',#970,#210);
#167=LINE('',#972,#211);
#168=LINE('',#973,#212);
#169=LINE('',#979,#213);
#170=LINE('',#982,#214);
#171=LINE('',#985,#215);
#172=LINE('',#987,#216);
#173=LINE('',#988,#217);
#174=LINE('',#994,#218);
#175=LINE('',#996,#219);
#176=LINE('',#997,#220);
#177=LINE('',#1002,#221);
#178=LINE('',#1008,#222);
#179=LINE('',#1014,#223);
#180=LINE('',#1020,#224);
#181=LINE('',#1041,#225);
#182=LINE('',#1045,#226);
#183=LINE('',#1049,#227);
#184=LINE('',#1053,#228);
#185=LINE('',#1057,#229);
#186=LINE('',#1061,#230);
#187=LINE('',#1065,#231);
#188=LINE('',#1069,#232);
#189=VECTOR('',#721,10.);
#190=VECTOR('',#724,10.);
#191=VECTOR('',#727,10.);
#192=VECTOR('',#728,10.);
#193=VECTOR('',#729,10.);
#194=VECTOR('',#736,10.);
#195=VECTOR('',#739,10.);
#196=VECTOR('',#740,10.);
#197=VECTOR('',#745,10.);
#198=VECTOR('',#748,10.);
#199=VECTOR('',#751,10.);
#200=VECTOR('',#752,10.);
#201=VECTOR('',#753,10.);
#202=VECTOR('',#760,10.);
#203=VECTOR('',#763,10.);
#204=VECTOR('',#764,10.);
#205=VECTOR('',#769,10.);
#206=VECTOR('',#772,10.);
#207=VECTOR('',#775,10.);
#208=VECTOR('',#776,10.);
#209=VECTOR('',#777,10.);
#210=VECTOR('',#784,10.);
#211=VECTOR('',#787,10.);
#212=VECTOR('',#788,10.);
#213=VECTOR('',#793,10.);
#214=VECTOR('',#796,10.);
#215=VECTOR('',#799,10.);
#216=VECTOR('',#800,10.);
#217=VECTOR('',#801,10.);
#218=VECTOR('',#808,10.);
#219=VECTOR('',#811,10.);
#220=VECTOR('',#812,10.);
#221=VECTOR('',#817,1.5);
#222=VECTOR('',#824,1.5);
#223=VECTOR('',#831,1.5);
#224=VECTOR('',#838,20.);
#225=VECTOR('',#861,1.525);
#226=VECTOR('',#866,1.525);
#227=VECTOR('',#871,1.525);
#228=VECTOR('',#876,1.525);
#229=VECTOR('',#881,1.525);
#230=VECTOR('',#886,1.525);
#231=VECTOR('',#891,1.525);
#232=VECTOR('',#896,57.5);
#233=CIRCLE('',#646,47.5);
#234=CIRCLE('',#647,47.5);
#235=CIRCLE('',#650,52.5);
#236=CIRCLE('',#651,52.5);
#237=CIRCLE('',#654,47.5);
#238=CIRCLE('',#655,47.5);
#239=CIRCLE('',#658,52.5);
#240=CIRCLE('',#659,52.5);
#241=CIRCLE('',#662,47.5);
#242=CIRCLE('',#663,47.5);
#243=CIRCLE('',#666,52.5);
#244=CIRCLE('',#667,52.5);
#245=CIRCLE('',#670,47.5);
#246=CIRCLE('',#671,47.5);
#247=CIRCLE('',#674,52.5);
#248=CIRCLE('',#675,52.5);
#249=CIRCLE('',#678,1.5);
#250=CIRCLE('',#679,1.5);
#251=CIRCLE('',#681,1.5);
#252=CIRCLE('',#682,1.5);
#253=CIRCLE('',#684,1.5);
#254=CIRCLE('',#685,1.5);
#255=CIRCLE('',#687,20.);
#256=CIRCLE('',#688,20.);
#257=CIRCLE('',#690,57.5);
#258=CIRCLE('',#691,1.525);
#259=CIRCLE('',#692,1.525);
#260=CIRCLE('',#693,1.525);
#261=CIRCLE('',#694,1.525);
#262=CIRCLE('',#695,1.525);
#263=CIRCLE('',#696,1.525);
#264=CIRCLE('',#697,1.525);
#265=CIRCLE('',#699,1.525);
#266=CIRCLE('',#701,1.525);
#267=CIRCLE('',#703,1.525);
#268=CIRCLE('',#705,1.525);
#269=CIRCLE('',#707,1.525);
#270=CIRCLE('',#709,1.525);
#271=CIRCLE('',#711,1.525);
#272=CIRCLE('',#713,57.5);
#273=VERTEX_POINT('',#903);
#274=VERTEX_POINT('',#904);
#275=VERTEX_POINT('',#906);
#276=VERTEX_POINT('',#908);
#277=VERTEX_POINT('',#912);
#278=VERTEX_POINT('',#914);
#279=VERTEX_POINT('',#918);
#280=VERTEX_POINT('',#920);
#281=VERTEX_POINT('',#927);
#282=VERTEX_POINT('',#928);
#283=VERTEX_POINT('',#930);
#284=VERTEX_POINT('',#932);
#285=VERTEX_POINT('',#936);
#286=VERTEX_POINT('',#938);
#287=VERTEX_POINT('',#942);
#288=VERTEX_POINT('',#944);
#289=VERTEX_POINT('',#951);
#290=VERTEX_POINT('',#952);
#291=VERTEX_POINT('',#954);
#292=VERTEX_POINT('',#956);
#293=VERTEX_POINT('',#960);
#294=VERTEX_POINT('',#962);
#295=VERTEX_POINT('',#966);
#296=VERTEX_POINT('',#968);
#297=VERTEX_POINT('',#975);
#298=VERTEX_POINT('',#976);
#299=VERTEX_POINT('',#978);
#300=VERTEX_POINT('',#980);
#301=VERTEX_POINT('',#984);
#302=VERTEX_POINT('',#986);
#303=VERTEX_POINT('',#990);
#304=VERTEX_POINT('',#992);
#305=VERTEX_POINT('',#999);
#306=VERTEX_POINT('',#1001);
#307=VERTEX_POINT('',#1005);
#308=VERTEX_POINT('',#1007);
#309=VERTEX_POINT('',#1011);
#310=VERTEX_POINT('',#1013);
#311=VERTEX_POINT('',#1017);
#312=VERTEX_POINT('',#1019);
#313=VERTEX_POINT('',#1023);
#314=VERTEX_POINT('',#1025);
#315=VERTEX_POINT('',#1027);
#316=VERTEX_POINT('',#1029);
#317=VERTEX_POINT('',#1031);
#318=VERTEX_POINT('',#1033);
#319=VERTEX_POINT('',#1035);
#320=VERTEX_POINT('',#1037);
#321=VERTEX_POINT('',#1040);
#322=VERTEX_POINT('',#1044);
#323=VERTEX_POINT('',#1048);
#324=VERTEX_POINT('',#1052);
#325=VERTEX_POINT('',#1056);
#326=VERTEX_POINT('',#1060);
#327=VERTEX_POINT('',#1064);
#328=VERTEX_POINT('',#1068);
#329=EDGE_CURVE('',#273,#274,#233,.T.);
#330=EDGE_CURVE('',#275,#273,#145,.T.);
#331=EDGE_CURVE('',#276,#275,#234,.T.);
#332=EDGE_CURVE('',#276,#274,#146,.T.);
#333=EDGE_CURVE('',#274,#277,#147,.T.);
#334=EDGE_CURVE('',#278,#276,#148,.T.);
#335=EDGE_CURVE('',#278,#277,#149,.T.);
#336=EDGE_CURVE('',#277,#279,#235,.T.);
#337=EDGE_CURVE('',#280,#278,#236,.T.);
#338=EDGE_CURVE('',#280,#279,#150,.T.);
#339=EDGE_CURVE('',#279,#273,#151,.T.);
#340=EDGE_CURVE('',#275,#280,#152,.T.);
#341=EDGE_CURVE('',#281,#282,#237,.T.);
#342=EDGE_CURVE('',#283,#281,#153,.T.);
#343=EDGE_CURVE('',#284,#283,#238,.T.);
#344=EDGE_CURVE('',#284,#282,#154,.T.);
#345=EDGE_CURVE('',#282,#285,#155,.T.);
#346=EDGE_CURVE('',#286,#284,#156,.T.);
#347=EDGE_CURVE('',#286,#285,#157,.T.);
#348=EDGE_CURVE('',#285,#287,#239,.T.);
#349=EDGE_CURVE('',#288,#286,#240,.T.);
#350=EDGE_CURVE('',#288,#287,#158,.T.);
#351=EDGE_CURVE('',#287,#281,#159,.T.);
#352=EDGE_CURVE('',#283,#288,#160,.T.);
#353=EDGE_CURVE('',#289,#290,#241,.T.);
#354=EDGE_CURVE('',#291,#289,#161,.T.);
#355=EDGE_CURVE('',#292,#291,#242,.T.);
#356=EDGE_CURVE('',#292,#290,#162,.T.);
#357=EDGE_CURVE('',#290,#293,#163,.T.);
#358=EDGE_CURVE('',#294,#292,#164,.T.);
#359=EDGE_CURVE('',#294,#293,#165,.T.);
#360=EDGE_CURVE('',#293,#295,#243,.T.);
#361=EDGE_CURVE('',#296,#294,#244,.T.);
#362=EDGE_CURVE('',#296,#295,#166,.T.);
#363=EDGE_CURVE('',#295,#289,#167,.T.);
#364=EDGE_CURVE('',#291,#296,#168,.T.);
#365=EDGE_CURVE('',#297,#298,#245,.T.);
#366=EDGE_CURVE('',#299,#297,#169,.T.);
#367=EDGE_CURVE('',#300,#299,#246,.T.);
#368=EDGE_CURVE('',#300,#298,#170,.T.);
#369=EDGE_CURVE('',#298,#301,#171,.T.);
#370=EDGE_CURVE('',#302,#300,#172,.T.);
#371=EDGE_CURVE('',#302,#301,#173,.T.);
#372=EDGE_CURVE('',#301,#303,#247,.T.);
#373=EDGE_CURVE('',#304,#302,#248,.T.);
#374=EDGE_CURVE('',#304,#303,#174,.T.);
#375=EDGE_CURVE('',#303,#297,#175,.T.);
#376=EDGE_CURVE('',#299,#304,#176,.T.);
#377=EDGE_CURVE('',#305,#305,#249,.T.);
#378=EDGE_CURVE('',#305,#306,#177,.T.);
#379=EDGE_CURVE('',#306,#306,#250,.T.);
#380=EDGE_CURVE('',#307,#307,#251,.T.);
#381=EDGE_CURVE('',#307,#308,#178,.T.);
#382=EDGE_CURVE('',#308,#308,#252,.T.);
#383=EDGE_CURVE('',#309,#309,#253,.T.);
#384=EDGE_CURVE('',#309,#310,#179,.T.);
#385=EDGE_CURVE('',#310,#310,#254,.T.);
#386=EDGE_CURVE('',#311,#311,#255,.T.);
#387=EDGE_CURVE('',#311,#312,#180,.T.);
#388=EDGE_CURVE('',#312,#312,#256,.T.);
#389=EDGE_CURVE('',#313,#313,#257,.T.);
#390=EDGE_CURVE('',#314,#314,#258,.T.);
#391=EDGE_CURVE('',#315,#315,#259,.T.);
#392=EDGE_CURVE('',#316,#316,#260,.T.);
#393=EDGE_CURVE('',#317,#317,#261,.T.);
#394=EDGE_CURVE('',#318,#318,#262,.T.);
#395=EDGE_CURVE('',#319,#319,#263,.T.);
#396=EDGE_CURVE('',#320,#320,#264,.T.);
#397=EDGE_CURVE('',#320,#321,#181,.T.);
#398=EDGE_CURVE('',#321,#321,#265,.T.);
#399=EDGE_CURVE('',#319,#322,#182,.T.);
#400=EDGE_CURVE('',#322,#322,#266,.T.);
#401=EDGE_CURVE('',#318,#323,#183,.T.);
#402=EDGE_CURVE('',#323,#323,#267,.T.);
#403=EDGE_CURVE('',#314,#324,#184,.T.);
#404=EDGE_CURVE('',#324,#324,#268,.T.);
#405=EDGE_CURVE('',#315,#325,#185,.T.);
#406=EDGE_CURVE('',#325,#325,#269,.T.);
#407=EDGE_CURVE('',#316,#326,#186,.T.);
#408=EDGE_CURVE('',#326,#326,#270,.T.);
#409=EDGE_CURVE('',#317,#327,#187,.T.);
#410=EDGE_CURVE('',#327,#327,#271,.T.);
#411=EDGE_CURVE('',#313,#328,#188,.T.);
#412=EDGE_CURVE('',#328,#328,#272,.T.);
#413=ORIENTED_EDGE('',*,*,#329,.F.);
#414=ORIENTED_EDGE('',*,*,#330,.F.);
#415=ORIENTED_EDGE('',*,*,#331,.F.);
#416=ORIENTED_EDGE('',*,*,#332,.T.);
#417=ORIENTED_EDGE('',*,*,#333,.F.);
#418=ORIENTED_EDGE('',*,*,#332,.F.);
#419=ORIENTED_EDGE('',*,*,#334,.F.);
#420=ORIENTED_EDGE('',*,*,#335,.T.);
#421=ORIENTED_EDGE('',*,*,#336,.F.);
#422=ORIENTED_EDGE('',*,*,#335,.F.);
#423=ORIENTED_EDGE('',*,*,#337,.F.);
#424=ORIENTED_EDGE('',*,*,#338,.T.);
#425=ORIENTED_EDGE('',*,*,#339,.F.);
#426=ORIENTED_EDGE('',*,*,#338,.F.);
#427=ORIENTED_EDGE('',*,*,#340,.F.);
#428=ORIENTED_EDGE('',*,*,#330,.T.);
#429=ORIENTED_EDGE('',*,*,#341,.F.);
#430=ORIENTED_EDGE('',*,*,#342,.F.);
#431=ORIENTED_EDGE('',*,*,#343,.F.);
#432=ORIENTED_EDGE('',*,*,#344,.T.);
#433=ORIENTED_EDGE('',*,*,#345,.F.);
#434=ORIENTED_EDGE('',*,*,#344,.F.);
#435=ORIENTED_EDGE('',*,*,#346,.F.);
#436=ORIENTED_EDGE('',*,*,#347,.T.);
#437=ORIENTED_EDGE('',*,*,#348,.F.);
#438=ORIENTED_EDGE('',*,*,#347,.F.);
#439=ORIENTED_EDGE('',*,*,#349,.F.);
#440=ORIENTED_EDGE('',*,*,#350,.T.);
#441=ORIENTED_EDGE('',*,*,#351,.F.);
#442=ORIENTED_EDGE('',*,*,#350,.F.);
#443=ORIENTED_EDGE('',*,*,#352,.F.);
#444=ORIENTED_EDGE('',*,*,#342,.T.);
#445=ORIENTED_EDGE('',*,*,#353,.F.);
#446=ORIENTED_EDGE('',*,*,#354,.F.);
#447=ORIENTED_EDGE('',*,*,#355,.F.);
#448=ORIENTED_EDGE('',*,*,#356,.T.);
#449=ORIENTED_EDGE('',*,*,#357,.F.);
#450=ORIENTED_EDGE('',*,*,#356,.F.);
#451=ORIENTED_EDGE('',*,*,#358,.F.);
#452=ORIENTED_EDGE('',*,*,#359,.T.);
#453=ORIENTED_EDGE('',*,*,#360,.F.);
#454=ORIENTED_EDGE('',*,*,#359,.F.);
#455=ORIENTED_EDGE('',*,*,#361,.F.);
#456=ORIENTED_EDGE('',*,*,#362,.T.);
#457=ORIENTED_EDGE('',*,*,#363,.F.);
#458=ORIENTED_EDGE('',*,*,#362,.F.);
#459=ORIENTED_EDGE('',*,*,#364,.F.);
#460=ORIENTED_EDGE('',*,*,#354,.T.);
#461=ORIENTED_EDGE('',*,*,#365,.F.);
#462=ORIENTED_EDGE('',*,*,#366,.F.);
#463=ORIENTED_EDGE('',*,*,#367,.F.);
#464=ORIENTED_EDGE('',*,*,#368,.T.);
#465=ORIENTED_EDGE('',*,*,#369,.F.);
#466=ORIENTED_EDGE('',*,*,#368,.F.);
#467=ORIENTED_EDGE('',*,*,#370,.F.);
#468=ORIENTED_EDGE('',*,*,#371,.T.);
#469=ORIENTED_EDGE('',*,*,#372,.F.);
#470=ORIENTED_EDGE('',*,*,#371,.F.);
#471=ORIENTED_EDGE('',*,*,#373,.F.);
#472=ORIENTED_EDGE('',*,*,#374,.T.);
#473=ORIENTED_EDGE('',*,*,#375,.F.);
#474=ORIENTED_EDGE('',*,*,#374,.F.);
#475=ORIENTED_EDGE('',*,*,#376,.F.);
#476=ORIENTED_EDGE('',*,*,#366,.T.);
#477=ORIENTED_EDGE('',*,*,#377,.F.);
#478=ORIENTED_EDGE('',*,*,#378,.T.);
#479=ORIENTED_EDGE('',*,*,#379,.F.);
#480=ORIENTED_EDGE('',*,*,#378,.F.);
#481=ORIENTED_EDGE('',*,*,#380,.F.);
#482=ORIENTED_EDGE('',*,*,#381,.T.);
#483=ORIENTED_EDGE('',*,*,#382,.F.);
#484=ORIENTED_EDGE('',*,*,#381,.F.);
#485=ORIENTED_EDGE('',*,*,#383,.F.);
#486=ORIENTED_EDGE('',*,*,#384,.T.);
#487=ORIENTED_EDGE('',*,*,#385,.F.);
#488=ORIENTED_EDGE('',*,*,#384,.F.);
#489=ORIENTED_EDGE('',*,*,#386,.F.);
#490=ORIENTED_EDGE('',*,*,#387,.T.);
#491=ORIENTED_EDGE('',*,*,#388,.F.);
#492=ORIENTED_EDGE('',*,*,#387,.F.);
#493=ORIENTED_EDGE('',*,*,#389,.F.);
#494=ORIENTED_EDGE('',*,*,#377,.T.);
#495=ORIENTED_EDGE('',*,*,#386,.T.);
#496=ORIENTED_EDGE('',*,*,#390,.F.);
#497=ORIENTED_EDGE('',*,*,#391,.F.);
#498=ORIENTED_EDGE('',*,*,#392,.F.);
#499=ORIENTED_EDGE('',*,*,#393,.F.);
#500=ORIENTED_EDGE('',*,*,#394,.F.);
#501=ORIENTED_EDGE('',*,*,#395,.F.);
#502=ORIENTED_EDGE('',*,*,#396,.F.);
#503=ORIENTED_EDGE('',*,*,#383,.T.);
#504=ORIENTED_EDGE('',*,*,#380,.T.);
#505=ORIENTED_EDGE('',*,*,#373,.T.);
#506=ORIENTED_EDGE('',*,*,#370,.T.);
#507=ORIENTED_EDGE('',*,*,#367,.T.);
#508=ORIENTED_EDGE('',*,*,#376,.T.);
#509=ORIENTED_EDGE('',*,*,#361,.T.);
#510=ORIENTED_EDGE('',*,*,#358,.T.);
#511=ORIENTED_EDGE('',*,*,#355,.T.);
#512=ORIENTED_EDGE('',*,*,#364,.T.);
#513=ORIENTED_EDGE('',*,*,#349,.T.);
#514=ORIENTED_EDGE('',*,*,#346,.T.);
#515=ORIENTED_EDGE('',*,*,#343,.T.);
#516=ORIENTED_EDGE('',*,*,#352,.T.);
#517=ORIENTED_EDGE('',*,*,#337,.T.);
#518=ORIENTED_EDGE('',*,*,#334,.T.);
#519=ORIENTED_EDGE('',*,*,#331,.T.);
#520=ORIENTED_EDGE('',*,*,#340,.T.);
#521=ORIENTED_EDGE('',*,*,#396,.T.);
#522=ORIENTED_EDGE('',*,*,#397,.T.);
#523=ORIENTED_EDGE('',*,*,#398,.F.);
#524=ORIENTED_EDGE('',*,*,#397,.F.);
#525=ORIENTED_EDGE('',*,*,#395,.T.);
#526=ORIENTED_EDGE('',*,*,#399,.T.);
#527=ORIENTED_EDGE('',*,*,#400,.F.);
#528=ORIENTED_EDGE('',*,*,#399,.F.);
#529=ORIENTED_EDGE('',*,*,#394,.T.);
#530=ORIENTED_EDGE('',*,*,#401,.T.);
#531=ORIENTED_EDGE('',*,*,#402,.F.);
#532=ORIENTED_EDGE('',*,*,#401,.F.);
#533=ORIENTED_EDGE('',*,*,#390,.T.);
#534=ORIENTED_EDGE('',*,*,#403,.T.);
#535=ORIENTED_EDGE('',*,*,#404,.T.);
#536=ORIENTED_EDGE('',*,*,#403,.F.);
#537=ORIENTED_EDGE('',*,*,#391,.T.);
#538=ORIENTED_EDGE('',*,*,#405,.T.);
#539=ORIENTED_EDGE('',*,*,#406,.T.);
#540=ORIENTED_EDGE('',*,*,#405,.F.);
#541=ORIENTED_EDGE('',*,*,#392,.T.);
#542=ORIENTED_EDGE('',*,*,#407,.T.);
#543=ORIENTED_EDGE('',*,*,#408,.T.);
#544=ORIENTED_EDGE('',*,*,#407,.F.);
#545=ORIENTED_EDGE('',*,*,#393,.T.);
#546=ORIENTED_EDGE('',*,*,#409,.T.);
#547=ORIENTED_EDGE('',*,*,#410,.T.);
#548=ORIENTED_EDGE('',*,*,#409,.F.);
#549=ORIENTED_EDGE('',*,*,#389,.T.);
#550=ORIENTED_EDGE('',*,*,#411,.T.);
#551=ORIENTED_EDGE('',*,*,#412,.T.);
#552=ORIENTED_EDGE('',*,*,#411,.F.);
#553=ORIENTED_EDGE('',*,*,#412,.F.);
#554=ORIENTED_EDGE('',*,*,#379,.T.);
#555=ORIENTED_EDGE('',*,*,#388,.T.);
#556=ORIENTED_EDGE('',*,*,#404,.F.);
#557=ORIENTED_EDGE('',*,*,#406,.F.);
#558=ORIENTED_EDGE('',*,*,#408,.F.);
#559=ORIENTED_EDGE('',*,*,#410,.F.);
#560=ORIENTED_EDGE('',*,*,#402,.T.);
#561=ORIENTED_EDGE('',*,*,#400,.T.);
#562=ORIENTED_EDGE('',*,*,#398,.T.);
#563=ORIENTED_EDGE('',*,*,#385,.T.);
#564=ORIENTED_EDGE('',*,*,#382,.T.);
#565=ORIENTED_EDGE('',*,*,#372,.T.);
#566=ORIENTED_EDGE('',*,*,#375,.T.);
#567=ORIENTED_EDGE('',*,*,#365,.T.);
#568=ORIENTED_EDGE('',*,*,#369,.T.);
#569=ORIENTED_EDGE('',*,*,#360,.T.);
#570=ORIENTED_EDGE('',*,*,#363,.T.);
#571=ORIENTED_EDGE('',*,*,#353,.T.);
#572=ORIENTED_EDGE('',*,*,#357,.T.);
#573=ORIENTED_EDGE('',*,*,#348,.T.);
#574=ORIENTED_EDGE('',*,*,#351,.T.);
#575=ORIENTED_EDGE('',*,*,#341,.T.);
#576=ORIENTED_EDGE('',*,*,#345,.T.);
#577=ORIENTED_EDGE('',*,*,#336,.T.);
#578=ORIENTED_EDGE('',*,*,#339,.T.);
#579=ORIENTED_EDGE('',*,*,#329,.T.);
#580=ORIENTED_EDGE('',*,*,#333,.T.);
#581=CYLINDRICAL_SURFACE('',#645,47.5);
#582=CYLINDRICAL_SURFACE('',#649,52.5);
#583=CYLINDRICAL_SURFACE('',#653,47.5);
#584=CYLINDRICAL_SURFACE('',#657,52.5);
#585=CYLINDRICAL_SURFACE('',#661,47.5);
#586=CYLINDRICAL_SURFACE('',#665,52.5);
#587=CYLINDRICAL_SURFACE('',#669,47.5);
#588=CYLINDRICAL_SURFACE('',#673,52.5);
#589=CYLINDRICAL_SURFACE('',#677,1.5);
#590=CYLINDRICAL_SURFACE('',#680,1.5);
#591=CYLINDRICAL_SURFACE('',#683,1.5);
#592=CYLINDRICAL_SURFACE('',#686,20.);
#593=CYLINDRICAL_SURFACE('',#698,1.525);
#594=CYLINDRICAL_SURFACE('',#700,1.525);
#595=CYLINDRICAL_SURFACE('',#702,1.525);
#596=CYLINDRICAL_SURFACE('',#704,1.525);
#597=CYLINDRICAL_SURFACE('',#706,1.525);
#598=CYLINDRICAL_SURFACE('',#708,1.525);
#599=CYLINDRICAL_SURFACE('',#710,1.525);
#600=CYLINDRICAL_SURFACE('',#712,57.5);
#601=ADVANCED_FACE('',(#55),#581,.T.);
#602=ADVANCED_FACE('',(#56),#45,.F.);
#603=ADVANCED_FACE('',(#57),#582,.F.);
#604=ADVANCED_FACE('',(#58),#46,.F.);
#605=ADVANCED_FACE('',(#59),#583,.T.);
#606=ADVANCED_FACE('',(#60),#47,.F.);
#607=ADVANCED_FACE('',(#61),#584,.F.);
#608=ADVANCED_FACE('',(#62),#48,.F.);
#609=ADVANCED_FACE('',(#63),#585,.T.);
#610=ADVANCED_FACE('',(#64),#49,.F.);
#611=ADVANCED_FACE('',(#65),#586,.F.);
#612=ADVANCED_FACE('',(#66),#50,.F.);
#613=ADVANCED_FACE('',(#67),#587,.T.);
#614=ADVANCED_FACE('',(#68),#51,.F.);
#615=ADVANCED_FACE('',(#69),#588,.F.);
#616=ADVANCED_FACE('',(#70),#52,.F.);
#617=ADVANCED_FACE('',(#71),#589,.F.);
#618=ADVANCED_FACE('',(#72),#590,.F.);
#619=ADVANCED_FACE('',(#73),#591,.F.);
#620=ADVANCED_FACE('',(#74),#592,.F.);
#621=ADVANCED_FACE('',(#75,#15,#16,#17,#18,#19,#20,#21,#22,#23,#24,#25,
#26,#27,#28,#29),#53,.T.);
#622=ADVANCED_FACE('',(#76),#593,.F.);
#623=ADVANCED_FACE('',(#77),#594,.F.);
#624=ADVANCED_FACE('',(#78),#595,.F.);
#625=ADVANCED_FACE('',(#79),#596,.F.);
#626=ADVANCED_FACE('',(#80),#597,.F.);
#627=ADVANCED_FACE('',(#81),#598,.F.);
#628=ADVANCED_FACE('',(#82),#599,.F.);
#629=ADVANCED_FACE('',(#83),#600,.T.);
#630=ADVANCED_FACE('',(#84,#30,#31,#32,#33,#34,#35,#36,#37,#38,#39,#40,
#41,#42,#43,#44),#54,.F.);
#631=CLOSED_SHELL('',(#601,#602,#603,#604,#605,#606,#607,#608,#609,#610,
#611,#612,#613,#614,#615,#616,#617,#618,#619,#620,#621,#622,#623,#624,#625,
#626,#627,#628,#629,#630));
#632=DERIVED_UNIT_ELEMENT(#634,1.);
#633=DERIVED_UNIT_ELEMENT(#1077,-3.);
#634=(
MASS_UNIT()
NAMED_UNIT(*)
SI_UNIT(.KILO.,.GRAM.)
);
#635=DERIVED_UNIT((#632,#633));
#636=MEASURE_REPRESENTATION_ITEM('density measure',
POSITIVE_RATIO_MEASURE(7850.),#635);
#637=PROPERTY_DEFINITION_REPRESENTATION(#642,#639);
#638=PROPERTY_DEFINITION_REPRESENTATION(#643,#640);
#639=REPRESENTATION('material name',(#641),#1074);
#640=REPRESENTATION('density',(#636),#1074);
#641=DESCRIPTIVE_REPRESENTATION_ITEM('Acero','Acero');
#642=PROPERTY_DEFINITION('material property','material name',#1084);
#643=PROPERTY_DEFINITION('material property','density of part',#1084);
#644=AXIS2_PLACEMENT_3D('',#901,#715,#716);
#645=AXIS2_PLACEMENT_3D('',#902,#717,#718);
#646=AXIS2_PLACEMENT_3D('',#905,#719,#720);
#647=AXIS2_PLACEMENT_3D('',#909,#722,#723);
#648=AXIS2_PLACEMENT_3D('',#911,#725,#726);
#649=AXIS2_PLACEMENT_3D('',#917,#730,#731);
#650=AXIS2_PLACEMENT_3D('',#919,#732,#733);
#651=AXIS2_PLACEMENT_3D('',#921,#734,#735);
#652=AXIS2_PLACEMENT_3D('',#923,#737,#738);
#653=AXIS2_PLACEMENT_3D('',#926,#741,#742);
#654=AXIS2_PLACEMENT_3D('',#929,#743,#744);
#655=AXIS2_PLACEMENT_3D('',#933,#746,#747);
#656=AXIS2_PLACEMENT_3D('',#935,#749,#750);
#657=AXIS2_PLACEMENT_3D('',#941,#754,#755);
#658=AXIS2_PLACEMENT_3D('',#943,#756,#757);
#659=AXIS2_PLACEMENT_3D('',#945,#758,#759);
#660=AXIS2_PLACEMENT_3D('',#947,#761,#762);
#661=AXIS2_PLACEMENT_3D('',#950,#765,#766);
#662=AXIS2_PLACEMENT_3D('',#953,#767,#768);
#663=AXIS2_PLACEMENT_3D('',#957,#770,#771);
#664=AXIS2_PLACEMENT_3D('',#959,#773,#774);
#665=AXIS2_PLACEMENT_3D('',#965,#778,#779);
#666=AXIS2_PLACEMENT_3D('',#967,#780,#781);
#667=AXIS2_PLACEMENT_3D('',#969,#782,#783);
#668=AXIS2_PLACEMENT_3D('',#971,#785,#786);
#669=AXIS2_PLACEMENT_3D('',#974,#789,#790);
#670=AXIS2_PLACEMENT_3D('',#977,#791,#792);
#671=AXIS2_PLACEMENT_3D('',#981,#794,#795);
#672=AXIS2_PLACEMENT_3D('',#983,#797,#798);
#673=AXIS2_PLACEMENT_3D('',#989,#802,#803);
#674=AXIS2_PLACEMENT_3D('',#991,#804,#805);
#675=AXIS2_PLACEMENT_3D('',#993,#806,#807);
#676=AXIS2_PLACEMENT_3D('',#995,#809,#810);
#677=AXIS2_PLACEMENT_3D('',#998,#813,#814);
#678=AXIS2_PLACEMENT_3D('',#1000,#815,#816);
#679=AXIS2_PLACEMENT_3D('',#1003,#818,#819);
#680=AXIS2_PLACEMENT_3D('',#1004,#820,#821);
#681=AXIS2_PLACEMENT_3D('',#1006,#822,#823);
#682=AXIS2_PLACEMENT_3D('',#1009,#825,#826);
#683=AXIS2_PLACEMENT_3D('',#1010,#827,#828);
#684=AXIS2_PLACEMENT_3D('',#1012,#829,#830);
#685=AXIS2_PLACEMENT_3D('',#1015,#832,#833);
#686=AXIS2_PLACEMENT_3D('',#1016,#834,#835);
#687=AXIS2_PLACEMENT_3D('',#1018,#836,#837);
#688=AXIS2_PLACEMENT_3D('',#1021,#839,#840);
#689=AXIS2_PLACEMENT_3D('',#1022,#841,#842);
#690=AXIS2_PLACEMENT_3D('',#1024,#843,#844);
#691=AXIS2_PLACEMENT_3D('',#1026,#845,#846);
#692=AXIS2_PLACEMENT_3D('',#1028,#847,#848);
#693=AXIS2_PLACEMENT_3D('',#1030,#849,#850);
#694=AXIS2_PLACEMENT_3D('',#1032,#851,#852);
#695=AXIS2_PLACEMENT_3D('',#1034,#853,#854);
#696=AXIS2_PLACEMENT_3D('',#1036,#855,#856);
#697=AXIS2_PLACEMENT_3D('',#1038,#857,#858);
#698=AXIS2_PLACEMENT_3D('',#1039,#859,#860);
#699=AXIS2_PLACEMENT_3D('',#1042,#862,#863);
#700=AXIS2_PLACEMENT_3D('',#1043,#864,#865);
#701=AXIS2_PLACEMENT_3D('',#1046,#867,#868);
#702=AXIS2_PLACEMENT_3D('',#1047,#869,#870);
#703=AXIS2_PLACEMENT_3D('',#1050,#872,#873);
#704=AXIS2_PLACEMENT_3D('',#1051,#874,#875);
#705=AXIS2_PLACEMENT_3D('',#1054,#877,#878);
#706=AXIS2_PLACEMENT_3D('',#1055,#879,#880);
#707=AXIS2_PLACEMENT_3D('',#1058,#882,#883);
#708=AXIS2_PLACEMENT_3D('',#1059,#884,#885);
#709=AXIS2_PLACEMENT_3D('',#1062,#887,#888);
#710=AXIS2_PLACEMENT_3D('',#1063,#889,#890);
#711=AXIS2_PLACEMENT_3D('',#1066,#892,#893);
#712=AXIS2_PLACEMENT_3D('',#1067,#894,#895);
#713=AXIS2_PLACEMENT_3D('',#1070,#897,#898);
#714=AXIS2_PLACEMENT_3D('',#1071,#899,#900);
#715=DIRECTION('axis',(0.,0.,1.));
#716=DIRECTION('refdir',(1.,0.,0.));
#717=DIRECTION('center_axis',(0.,0.,-1.));
#718=DIRECTION('ref_axis',(-0.994444401457431,-0.105263157894737,0.));
#719=DIRECTION('center_axis',(0.,0.,-1.));
#720=DIRECTION('ref_axis',(-0.994444401457431,-0.105263157894737,0.));
#721=DIRECTION('',(0.,0.,-1.));
#722=DIRECTION('center_axis',(0.,0.,1.));
#723=DIRECTION('ref_axis',(-0.994444401457431,-0.105263157894737,0.));
#724=DIRECTION('',(0.,0.,-1.));
#725=DIRECTION('center_axis',(0.,1.,0.));
#726=DIRECTION('ref_axis',(1.,0.,0.));
#727=DIRECTION('',(-1.,0.,0.));
#728=DIRECTION('',(1.,0.,0.));
#729=DIRECTION('',(0.,0.,-1.));
#730=DIRECTION('center_axis',(0.,0.,-1.));
#731=DIRECTION('ref_axis',(-0.995454521922232,-0.0952380952380952,0.));
#732=DIRECTION('center_axis',(0.,0.,1.));
#733=DIRECTION('ref_axis',(-0.995454521922232,-0.0952380952380952,0.));
#734=DIRECTION('center_axis',(0.,0.,-1.));
#735=DIRECTION('ref_axis',(-0.995454521922232,-0.0952380952380952,0.));
#736=DIRECTION('',(0.,0.,-1.));
#737=DIRECTION('center_axis',(1.,0.,0.));
#738=DIRECTION('ref_axis',(0.,-1.,0.));
#739=DIRECTION('',(0.,1.,0.));
#740=DIRECTION('',(0.,-1.,0.));
#741=DIRECTION('center_axis',(0.,0.,-1.));
#742=DIRECTION('ref_axis',(0.994444401457431,0.105263157894737,0.));
#743=DIRECTION('center_axis',(0.,0.,-1.));
#744=DIRECTION('ref_axis',(0.994444401457431,0.105263157894737,0.));
#745=DIRECTION('',(0.,0.,-1.));
#746=DIRECTION('center_axis',(0.,0.,1.));
#747=DIRECTION('ref_axis',(0.994444401457431,0.105263157894737,0.));
#748=DIRECTION('',(0.,0.,-1.));
#749=DIRECTION('center_axis',(-2.2092876743628E-16,-1.,0.));
#750=DIRECTION('ref_axis',(-1.,2.2092876743628E-16,0.));
#751=DIRECTION('',(1.,-2.2092876743628E-16,0.));
#752=DIRECTION('',(-1.,2.2092876743628E-16,0.));
#753=DIRECTION('',(0.,0.,-1.));
#754=DIRECTION('center_axis',(0.,0.,-1.));
#755=DIRECTION('ref_axis',(0.995454521922232,0.0952380952380952,0.));
#756=DIRECTION('center_axis',(0.,0.,1.));
#757=DIRECTION('ref_axis',(0.995454521922232,0.0952380952380952,0.));
#758=DIRECTION('center_axis',(0.,0.,-1.));
#759=DIRECTION('ref_axis',(0.995454521922232,0.0952380952380952,0.));
#760=DIRECTION('',(0.,0.,-1.));
#761=DIRECTION('center_axis',(-1.,0.,0.));
#762=DIRECTION('ref_axis',(0.,1.,0.));
#763=DIRECTION('',(0.,-1.,0.));
#764=DIRECTION('',(0.,1.,0.));
#765=DIRECTION('center_axis',(0.,0.,-1.));
#766=DIRECTION('ref_axis',(-0.105263157894737,0.994444401457431,0.));
#767=DIRECTION('center_axis',(0.,0.,-1.));
#768=DIRECTION('ref_axis',(-0.105263157894737,0.994444401457431,0.));
#769=DIRECTION('',(0.,0.,-1.));
#770=DIRECTION('center_axis',(0.,0.,1.));
#771=DIRECTION('ref_axis',(-0.105263157894737,0.994444401457431,0.));
#772=DIRECTION('',(0.,0.,-1.));
#773=DIRECTION('center_axis',(1.,0.,0.));
#774=DIRECTION('ref_axis',(0.,-1.,0.));
#775=DIRECTION('',(0.,1.,0.));
#776=DIRECTION('',(0.,-1.,0.));
#777=DIRECTION('',(0.,0.,-1.));
#778=DIRECTION('center_axis',(0.,0.,-1.));
#779=DIRECTION('ref_axis',(-0.0952380952380952,0.995454521922232,0.));
#780=DIRECTION('center_axis',(0.,0.,1.));
#781=DIRECTION('ref_axis',(-0.0952380952380952,0.995454521922232,0.));
#782=DIRECTION('center_axis',(0.,0.,-1.));
#783=DIRECTION('ref_axis',(-0.0952380952380952,0.995454521922232,0.));
#784=DIRECTION('',(0.,0.,-1.));
#785=DIRECTION('center_axis',(0.,-1.,0.));
#786=DIRECTION('ref_axis',(-1.,0.,0.));
#787=DIRECTION('',(1.,0.,0.));
#788=DIRECTION('',(-1.,0.,0.));
#789=DIRECTION('center_axis',(0.,0.,-1.));
#790=DIRECTION('ref_axis',(0.105263157894737,-0.994444401457431,0.));
#791=DIRECTION('center_axis',(0.,0.,-1.));
#792=DIRECTION('ref_axis',(0.105263157894737,-0.994444401457431,0.));
#793=DIRECTION('',(0.,0.,-1.));
#794=DIRECTION('center_axis',(0.,0.,1.));
#795=DIRECTION('ref_axis',(0.105263157894737,-0.994444401457431,0.));
#796=DIRECTION('',(0.,0.,-1.));
#797=DIRECTION('center_axis',(-1.,0.,0.));
#798=DIRECTION('ref_axis',(0.,1.,0.));
#799=DIRECTION('',(0.,-1.,0.));
#800=DIRECTION('',(0.,1.,0.));
#801=DIRECTION('',(0.,0.,-1.));
#802=DIRECTION('center_axis',(0.,0.,-1.));
#803=DIRECTION('ref_axis',(0.0952380952380952,-0.995454521922232,0.));
#804=DIRECTION('center_axis',(0.,0.,1.));
#805=DIRECTION('ref_axis',(0.0952380952380952,-0.995454521922232,0.));
#806=DIRECTION('center_axis',(0.,0.,-1.));
#807=DIRECTION('ref_axis',(0.0952380952380952,-0.995454521922232,0.));
#808=DIRECTION('',(0.,0.,-1.));
#809=DIRECTION('center_axis',(-4.41857534872561E-16,1.,0.));
#810=DIRECTION('ref_axis',(1.,4.41857534872561E-16,0.));
#811=DIRECTION('',(-1.,-4.41857534872561E-16,0.));
#812=DIRECTION('',(1.,4.41857534872561E-16,0.));
#813=DIRECTION('center_axis',(0.,0.,-1.));
#814=DIRECTION('ref_axis',(1.,0.,0.));
#815=DIRECTION('center_axis',(0.,0.,-1.));
#816=DIRECTION('ref_axis',(1.,0.,0.));
#817=DIRECTION('',(0.,0.,-1.));
#818=DIRECTION('center_axis',(0.,0.,1.));
#819=DIRECTION('ref_axis',(1.,0.,0.));
#820=DIRECTION('center_axis',(0.,0.,-1.));
#821=DIRECTION('ref_axis',(1.,0.,0.));
#822=DIRECTION('center_axis',(0.,0.,-1.));
#823=DIRECTION('ref_axis',(1.,0.,0.));
#824=DIRECTION('',(0.,0.,-1.));
#825=DIRECTION('center_axis',(0.,0.,1.));
#826=DIRECTION('ref_axis',(1.,0.,0.));
#827=DIRECTION('center_axis',(0.,0.,-1.));
#828=DIRECTION('ref_axis',(1.,0.,0.));
#829=DIRECTION('center_axis',(0.,0.,-1.));
#830=DIRECTION('ref_axis',(1.,0.,0.));
#831=DIRECTION('',(0.,0.,-1.));
#832=DIRECTION('center_axis',(0.,0.,1.));
#833=DIRECTION('ref_axis',(1.,0.,0.));
#834=DIRECTION('center_axis',(0.,0.,-1.));
#835=DIRECTION('ref_axis',(-1.,0.,0.));
#836=DIRECTION('center_axis',(0.,0.,-1.));
#837=DIRECTION('ref_axis',(-1.,0.,0.));
#838=DIRECTION('',(0.,0.,-1.));
#839=DIRECTION('center_axis',(0.,0.,1.));
#840=DIRECTION('ref_axis',(-1.,0.,0.));
#841=DIRECTION('center_axis',(0.,0.,1.));
#842=DIRECTION('ref_axis',(1.,0.,0.));
#843=DIRECTION('center_axis',(0.,0.,-1.));
#844=DIRECTION('ref_axis',(1.,0.,0.));
#845=DIRECTION('center_axis',(0.,0.,1.));
#846=DIRECTION('ref_axis',(1.,0.,0.));
#847=DIRECTION('center_axis',(0.,0.,1.));
#848=DIRECTION('ref_axis',(1.,0.,0.));
#849=DIRECTION('center_axis',(0.,0.,1.));
#850=DIRECTION('ref_axis',(1.,0.,0.));
#851=DIRECTION('center_axis',(0.,0.,1.));
#852=DIRECTION('ref_axis',(1.,0.,0.));
#853=DIRECTION('center_axis',(0.,0.,1.));
#854=DIRECTION('ref_axis',(-1.,0.,0.));
#855=DIRECTION('center_axis',(0.,0.,1.));
#856=DIRECTION('ref_axis',(-1.,0.,0.));
#857=DIRECTION('center_axis',(0.,0.,1.));
#858=DIRECTION('ref_axis',(-1.,0.,0.));
#859=DIRECTION('center_axis',(0.,0.,-1.));
#860=DIRECTION('ref_axis',(-1.,0.,0.));
#861=DIRECTION('',(0.,0.,-1.));
#862=DIRECTION('center_axis',(0.,0.,1.));
#863=DIRECTION('ref_axis',(-1.,0.,0.));
#864=DIRECTION('center_axis',(0.,0.,-1.));
#865=DIRECTION('ref_axis',(-1.,0.,0.));
#866=DIRECTION('',(0.,0.,-1.));
#867=DIRECTION('center_axis',(0.,0.,1.));
#868=DIRECTION('ref_axis',(-1.,0.,0.));
#869=DIRECTION('center_axis',(0.,0.,-1.));
#870=DIRECTION('ref_axis',(-1.,0.,0.));
#871=DIRECTION('',(0.,0.,-1.));
#872=DIRECTION('center_axis',(0.,0.,1.));
#873=DIRECTION('ref_axis',(-1.,0.,0.));
#874=DIRECTION('center_axis',(0.,0.,1.));
#875=DIRECTION('ref_axis',(1.,0.,0.));
#876=DIRECTION('',(0.,0.,-1.));
#877=DIRECTION('center_axis',(0.,0.,-1.));
#878=DIRECTION('ref_axis',(1.,0.,0.));
#879=DIRECTION('center_axis',(0.,0.,1.));
#880=DIRECTION('ref_axis',(1.,0.,0.));
#881=DIRECTION('',(0.,0.,-1.));
#882=DIRECTION('center_axis',(0.,0.,-1.));
#883=DIRECTION('ref_axis',(1.,0.,0.));
#884=DIRECTION('center_axis',(0.,0.,1.));
#885=DIRECTION('ref_axis',(1.,0.,0.));
#886=DIRECTION('',(0.,0.,-1.));
#887=DIRECTION('center_axis',(0.,0.,-1.));
#888=DIRECTION('ref_axis',(1.,0.,0.));
#889=DIRECTION('center_axis',(0.,0.,1.));
#890=DIRECTION('ref_axis',(1.,0.,0.));
#891=DIRECTION('',(0.,0.,-1.));
#892=DIRECTION('center_axis',(0.,0.,-1.));
#893=DIRECTION('ref_axis',(1.,0.,0.));
#894=DIRECTION('center_axis',(0.,0.,1.));
#895=DIRECTION('ref_axis',(1.,0.,0.));
#896=DIRECTION('',(0.,0.,-1.));
#897=DIRECTION('center_axis',(0.,0.,1.));
#898=DIRECTION('ref_axis',(1.,0.,0.));
#899=DIRECTION('center_axis',(0.,0.,1.));
#900=DIRECTION('ref_axis',(1.,0.,0.));
#901=CARTESIAN_POINT('',(0.,0.,0.));
#902=CARTESIAN_POINT('Origin',(0.,0.,3.));
#903=CARTESIAN_POINT('',(-5.,-47.236109069228,0.));
#904=CARTESIAN_POINT('',(-47.236109069228,-5.,0.));
#905=CARTESIAN_POINT('Origin',(0.,0.,0.));
#906=CARTESIAN_POINT('',(-5.,-47.236109069228,3.));
#907=CARTESIAN_POINT('',(-5.,-47.236109069228,3.));
#908=CARTESIAN_POINT('',(-47.236109069228,-5.,3.));
#909=CARTESIAN_POINT('Origin',(0.,0.,3.));
#910=CARTESIAN_POINT('',(-47.236109069228,-5.,3.));
#911=CARTESIAN_POINT('Origin',(-52.2613624009172,-5.,3.));
#912=CARTESIAN_POINT('',(-52.2613624009172,-5.,0.));
#913=CARTESIAN_POINT('',(-26.1306812004586,-5.,0.));
#914=CARTESIAN_POINT('',(-52.2613624009172,-5.,3.));
#915=CARTESIAN_POINT('',(-26.1306812004586,-5.,3.));
#916=CARTESIAN_POINT('',(-52.2613624009172,-5.,3.));
#917=CARTESIAN_POINT('Origin',(0.,0.,3.));
#918=CARTESIAN_POINT('',(-5.00000000000001,-52.2613624009172,0.));
#919=CARTESIAN_POINT('Origin',(0.,0.,0.));
#920=CARTESIAN_POINT('',(-5.00000000000001,-52.2613624009172,3.));
#921=CARTESIAN_POINT('Origin',(0.,0.,3.));
#922=CARTESIAN_POINT('',(-5.00000000000001,-52.2613624009172,3.));
#923=CARTESIAN_POINT('Origin',(-5.,-47.236109069228,3.));
#924=CARTESIAN_POINT('',(-5.,-23.618054534614,0.));
#925=CARTESIAN_POINT('',(-5.,-23.618054534614,3.));
#926=CARTESIAN_POINT('Origin',(0.,0.,3.));
#927=CARTESIAN_POINT('',(5.,47.236109069228,0.));
#928=CARTESIAN_POINT('',(47.236109069228,5.,0.));
#929=CARTESIAN_POINT('Origin',(0.,0.,0.));
#930=CARTESIAN_POINT('',(5.,47.236109069228,3.));
#931=CARTESIAN_POINT('',(5.,47.236109069228,3.));
#932=CARTESIAN_POINT('',(47.236109069228,5.,3.));
#933=CARTESIAN_POINT('Origin',(0.,0.,3.));
#934=CARTESIAN_POINT('',(47.236109069228,5.,3.));
#935=CARTESIAN_POINT('Origin',(52.2613624009172,5.,3.));
#936=CARTESIAN_POINT('',(52.2613624009172,5.,0.));
#937=CARTESIAN_POINT('',(26.1306812004586,5.00000000000001,0.));
#938=CARTESIAN_POINT('',(52.2613624009172,5.,3.));
#939=CARTESIAN_POINT('',(26.1306812004586,5.00000000000001,3.));
#940=CARTESIAN_POINT('',(52.2613624009172,5.,3.));
#941=CARTESIAN_POINT('Origin',(0.,0.,3.));
#942=CARTESIAN_POINT('',(5.00000000000001,52.2613624009172,0.));
#943=CARTESIAN_POINT('Origin',(0.,0.,0.));
#944=CARTESIAN_POINT('',(5.00000000000001,52.2613624009172,3.));
#945=CARTESIAN_POINT('Origin',(0.,0.,3.));
#946=CARTESIAN_POINT('',(5.00000000000001,52.2613624009172,3.));
#947=CARTESIAN_POINT('Origin',(5.,47.236109069228,3.));
#948=CARTESIAN_POINT('',(5.,23.618054534614,0.));
#949=CARTESIAN_POINT('',(5.,23.618054534614,3.));
#950=CARTESIAN_POINT('Origin',(0.,0.,3.));
#951=CARTESIAN_POINT('',(-47.236109069228,5.,0.));
#952=CARTESIAN_POINT('',(-5.,47.236109069228,0.));
#953=CARTESIAN_POINT('Origin',(0.,0.,0.));
#954=CARTESIAN_POINT('',(-47.236109069228,5.,3.));
#955=CARTESIAN_POINT('',(-47.236109069228,5.,3.));
#956=CARTESIAN_POINT('',(-5.,47.236109069228,3.));
#957=CARTESIAN_POINT('Origin',(0.,0.,3.));
#958=CARTESIAN_POINT('',(-5.,47.236109069228,3.));
#959=CARTESIAN_POINT('Origin',(-5.,52.2613624009172,3.));
#960=CARTESIAN_POINT('',(-5.,52.2613624009172,0.));
#961=CARTESIAN_POINT('',(-5.,26.1306812004586,0.));
#962=CARTESIAN_POINT('',(-5.,52.2613624009172,3.));
#963=CARTESIAN_POINT('',(-5.,26.1306812004586,3.));
#964=CARTESIAN_POINT('',(-5.,52.2613624009172,3.));
#965=CARTESIAN_POINT('Origin',(0.,0.,3.));
#966=CARTESIAN_POINT('',(-52.2613624009172,5.00000000000001,0.));
#967=CARTESIAN_POINT('Origin',(0.,0.,0.));
#968=CARTESIAN_POINT('',(-52.2613624009172,5.00000000000001,3.));
#969=CARTESIAN_POINT('Origin',(0.,0.,3.));
#970=CARTESIAN_POINT('',(-52.2613624009172,5.00000000000001,3.));
#971=CARTESIAN_POINT('Origin',(-47.236109069228,5.,3.));
#972=CARTESIAN_POINT('',(-23.618054534614,5.,0.));
#973=CARTESIAN_POINT('',(-23.618054534614,5.,3.));
#974=CARTESIAN_POINT('Origin',(0.,0.,3.));
#975=CARTESIAN_POINT('',(47.236109069228,-5.,0.));
#976=CARTESIAN_POINT('',(5.,-47.236109069228,0.));
#977=CARTESIAN_POINT('Origin',(0.,0.,0.));
#978=CARTESIAN_POINT('',(47.236109069228,-5.,3.));
#979=CARTESIAN_POINT('',(47.236109069228,-5.,3.));
#980=CARTESIAN_POINT('',(5.,-47.236109069228,3.));
#981=CARTESIAN_POINT('Origin',(0.,0.,3.));
#982=CARTESIAN_POINT('',(5.,-47.236109069228,3.));
#983=CARTESIAN_POINT('Origin',(5.,-52.2613624009172,3.));
#984=CARTESIAN_POINT('',(5.,-52.2613624009172,0.));
#985=CARTESIAN_POINT('',(5.,-26.1306812004586,0.));
#986=CARTESIAN_POINT('',(5.,-52.2613624009172,3.));
#987=CARTESIAN_POINT('',(5.,-26.1306812004586,3.));
#988=CARTESIAN_POINT('',(5.,-52.2613624009172,3.));
#989=CARTESIAN_POINT('Origin',(0.,0.,3.));
#990=CARTESIAN_POINT('',(52.2613624009172,-5.00000000000001,0.));
#991=CARTESIAN_POINT('Origin',(0.,0.,0.));
#992=CARTESIAN_POINT('',(52.2613624009172,-5.00000000000001,3.));
#993=CARTESIAN_POINT('Origin',(0.,0.,3.));
#994=CARTESIAN_POINT('',(52.2613624009172,-5.00000000000001,3.));
#995=CARTESIAN_POINT('Origin',(47.236109069228,-5.,3.));
#996=CARTESIAN_POINT('',(23.618054534614,-5.00000000000001,0.));
#997=CARTESIAN_POINT('',(23.618054534614,-5.00000000000001,3.));
#998=CARTESIAN_POINT('Origin',(-20.0000002980232,-24.998,-1.));
#999=CARTESIAN_POINT('',(-21.5000002980232,-24.998,3.));
#1000=CARTESIAN_POINT('Origin',(-20.0000002980232,-24.998,3.));
#1001=CARTESIAN_POINT('',(-21.5000002980232,-24.998,0.));
#1002=CARTESIAN_POINT('',(-21.5000002980232,-24.998,-1.));
#1003=CARTESIAN_POINT('Origin',(-20.0000002980232,-24.998,0.));
#1004=CARTESIAN_POINT('Origin',(32.142,-9.758,-1.));
#1005=CARTESIAN_POINT('',(30.642,-9.758,3.));
#1006=CARTESIAN_POINT('Origin',(32.142,-9.758,3.));
#1007=CARTESIAN_POINT('',(30.642,-9.758,0.));
#1008=CARTESIAN_POINT('',(30.642,-9.758,-1.));
#1009=CARTESIAN_POINT('Origin',(32.142,-9.758,0.));
#1010=CARTESIAN_POINT('Origin',(32.142,18.182,-1.));
#1011=CARTESIAN_POINT('',(30.642,18.182,3.));
#1012=CARTESIAN_POINT('Origin',(32.142,18.182,3.));
#1013=CARTESIAN_POINT('',(30.642,18.182,0.));
#1014=CARTESIAN_POINT('',(30.642,18.182,-1.));
#1015=CARTESIAN_POINT('Origin',(32.142,18.182,0.));
#1016=CARTESIAN_POINT('Origin',(0.,0.,3.));
#1017=CARTESIAN_POINT('',(20.,2.44929359829471E-15,3.));
#1018=CARTESIAN_POINT('Origin',(0.,0.,3.));
#1019=CARTESIAN_POINT('',(20.,2.44929359829471E-15,0.));
#1020=CARTESIAN_POINT('',(20.,-2.44929359829471E-15,3.));
#1021=CARTESIAN_POINT('Origin',(0.,0.,0.));
#1022=CARTESIAN_POINT('Origin',(0.,0.,3.));
#1023=CARTESIAN_POINT('',(-57.5,-8.88178419700125E-15,3.));
#1024=CARTESIAN_POINT('Origin',(0.,0.,3.));
#1025=CARTESIAN_POINT('',(38.475,0.,3.));
#1026=CARTESIAN_POINT('Origin',(40.,0.,3.));
#1027=CARTESIAN_POINT('',(-41.525,0.,3.));
#1028=CARTESIAN_POINT('Origin',(-40.,0.,3.));
#1029=CARTESIAN_POINT('',(-1.525,-32.,3.));
#1030=CARTESIAN_POINT('Origin',(0.,-32.,3.));
#1031=CARTESIAN_POINT('',(-1.525,32.,3.));
#1032=CARTESIAN_POINT('Origin',(0.,32.,3.));
#1033=CARTESIAN_POINT('',(-17.2049995529652,23.0999994836748,3.));
#1034=CARTESIAN_POINT('Origin',(-18.7299995529652,23.0999994836748,3.));
#1035=CARTESIAN_POINT('',(33.667,-19.9270931091808,3.));
#1036=CARTESIAN_POINT('Origin',(32.142,-19.9270931091808,3.));
#1037=CARTESIAN_POINT('',(33.667,7.95537289471272,3.));
#1038=CARTESIAN_POINT('Origin',(32.142,7.95537289471272,3.));
#1039=CARTESIAN_POINT('Origin',(32.142,7.95537289471272,4.));
#1040=CARTESIAN_POINT('',(33.667,7.95537289471272,0.));
#1041=CARTESIAN_POINT('',(33.667,7.95537289471272,4.));
#1042=CARTESIAN_POINT('Origin',(32.142,7.95537289471272,0.));
#1043=CARTESIAN_POINT('Origin',(32.142,-19.9270931091808,4.));
#1044=CARTESIAN_POINT('',(33.667,-19.9270931091808,0.));
#1045=CARTESIAN_POINT('',(33.667,-19.9270931091808,4.));
#1046=CARTESIAN_POINT('Origin',(32.142,-19.9270931091808,0.));
#1047=CARTESIAN_POINT('Origin',(-18.7299995529652,23.0999994836748,4.));
#1048=CARTESIAN_POINT('',(-17.2049995529652,23.0999994836748,0.));
#1049=CARTESIAN_POINT('',(-17.2049995529652,23.0999994836748,4.));
#1050=CARTESIAN_POINT('Origin',(-18.7299995529652,23.0999994836748,0.));
#1051=CARTESIAN_POINT('Origin',(40.,0.,0.));
#1052=CARTESIAN_POINT('',(38.475,-1.86758636869971E-16,0.));
#1053=CARTESIAN_POINT('',(38.475,-1.86758636869971E-16,0.));
#1054=CARTESIAN_POINT('Origin',(40.,0.,0.));
#1055=CARTESIAN_POINT('Origin',(-40.,0.,0.));
#1056=CARTESIAN_POINT('',(-41.525,-1.86758636869971E-16,0.));
#1057=CARTESIAN_POINT('',(-41.525,-1.86758636869971E-16,0.));
#1058=CARTESIAN_POINT('Origin',(-40.,0.,0.));
#1059=CARTESIAN_POINT('Origin',(0.,-32.,0.));
#1060=CARTESIAN_POINT('',(-1.525,-32.,0.));
#1061=CARTESIAN_POINT('',(-1.525,-32.,0.));
#1062=CARTESIAN_POINT('Origin',(0.,-32.,0.));
#1063=CARTESIAN_POINT('Origin',(0.,32.,0.));
#1064=CARTESIAN_POINT('',(-1.525,32.,0.));
#1065=CARTESIAN_POINT('',(-1.525,32.,0.));
#1066=CARTESIAN_POINT('Origin',(0.,32.,0.));
#1067=CARTESIAN_POINT('Origin',(0.,0.,0.));
#1068=CARTESIAN_POINT('',(-57.5,-7.04171909509728E-15,0.));
#1069=CARTESIAN_POINT('',(-57.5,-7.04171909509728E-15,0.));
#1070=CARTESIAN_POINT('Origin',(0.,0.,0.));
#1071=CARTESIAN_POINT('Origin',(0.,0.,0.));
#1072=UNCERTAINTY_MEASURE_WITH_UNIT(LENGTH_MEASURE(0.01),#1076,
'DISTANCE_ACCURACY_VALUE',
'Maximum model space distance between geometric entities at asserted c
onnectivities');
#1073=UNCERTAINTY_MEASURE_WITH_UNIT(LENGTH_MEASURE(0.01),#1076,
'DISTANCE_ACCURACY_VALUE',
'Maximum model space distance between geometric entities at asserted c
onnectivities');
#1074=(
GEOMETRIC_REPRESENTATION_CONTEXT(3)
GLOBAL_UNCERTAINTY_ASSIGNED_CONTEXT((#1072))
GLOBAL_UNIT_ASSIGNED_CONTEXT((#1076,#1078,#1079))
REPRESENTATION_CONTEXT('','3D')
);
#1075=(
GEOMETRIC_REPRESENTATION_CONTEXT(3)
GLOBAL_UNCERTAINTY_ASSIGNED_CONTEXT((#1073))
GLOBAL_UNIT_ASSIGNED_CONTEXT((#1076,#1078,#1079))
REPRESENTATION_CONTEXT('','3D')
);
#1076=(
LENGTH_UNIT()
NAMED_UNIT(*)
SI_UNIT(.MILLI.,.METRE.)
);
#1077=(
LENGTH_UNIT()
NAMED_UNIT(*)
SI_UNIT($,.METRE.)
);
#1078=(
NAMED_UNIT(*)
PLANE_ANGLE_UNIT()
SI_UNIT($,.RADIAN.)
);
#1079=(
NAMED_UNIT(*)
SI_UNIT($,.STERADIAN.)
SOLID_ANGLE_UNIT()
);
#1080=SHAPE_DEFINITION_REPRESENTATION(#1081,#1082);
#1081=PRODUCT_DEFINITION_SHAPE('',$,#1084);
#1082=SHAPE_REPRESENTATION('',(#644),#1074);
#1083=PRODUCT_DEFINITION_CONTEXT('part definition',#1088,'design');
#1084=PRODUCT_DEFINITION('2026-06-22-13-42-12-689','placa superior',#1085,
#1083);
#1085=PRODUCT_DEFINITION_FORMATION('',$,#1090);
#1086=PRODUCT_RELATED_PRODUCT_CATEGORY('placa superior',
'placa superior',(#1090));
#1087=APPLICATION_PROTOCOL_DEFINITION('international standard',
'automotive_design',2009,#1088);
#1088=APPLICATION_CONTEXT(
'Core Data for Automotive Mechanical Design Process');
#1089=PRODUCT_CONTEXT('part definition',#1088,'mechanical');
#1090=PRODUCT('2026-06-22-13-42-12-689','placa superior',$,(#1089));
#1091=PRESENTATION_STYLE_ASSIGNMENT((#1092));
#1092=SURFACE_STYLE_USAGE(.BOTH.,#1093);
#1093=SURFACE_SIDE_STYLE('',(#1094));
#1094=SURFACE_STYLE_FILL_AREA(#1095);
#1095=FILL_AREA_STYLE('Acero - Satinado',(#1096));
#1096=FILL_AREA_STYLE_COLOUR('Acero - Satinado',#1097);
#1097=COLOUR_RGB('Acero - Satinado',0.627450980392157,0.627450980392157,
0.627450980392157);
ENDSEC;
END-ISO-10303-21;
