ISO-10303-21;
HEADER;
/* Generated by software containing ST-Developer
 * from STEP Tools, Inc. (www.steptools.com) 
 */

FILE_DESCRIPTION(
/* description */ (''),
/* implementation_level */ '2;1');

FILE_NAME(
/* name */ 'placa media.step',
/* time_stamp */ '2026-07-13T16:56:27-04:00',
/* author */ (''),
/* organization */ (''),
/* preprocessor_version */ 'ST-DEVELOPER v20.1',
/* originating_system */ 'Autodesk Translation Framework v15.8.0.0',
/* authorisation */ '');

FILE_SCHEMA (('AUTOMOTIVE_DESIGN { 1 0 10303 214 3 1 1 }'));
ENDSEC;

DATA;
#10=MECHANICAL_DESIGN_GEOMETRIC_PRESENTATION_REPRESENTATION('',(#13),#1153);
#11=SHAPE_REPRESENTATION_RELATIONSHIP('SRR','None',#1160,#12);
#12=ADVANCED_BREP_SHAPE_REPRESENTATION('',(#14),#1152);
#13=STYLED_ITEM('',(#1169),#14);
#14=MANIFOLD_SOLID_BREP('Cuerpo1',#677);
#15=FACE_BOUND('',#109,.T.);
#16=FACE_BOUND('',#110,.T.);
#17=FACE_BOUND('',#111,.T.);
#18=FACE_BOUND('',#112,.T.);
#19=FACE_BOUND('',#113,.T.);
#20=FACE_BOUND('',#114,.T.);
#21=FACE_BOUND('',#115,.T.);
#22=FACE_BOUND('',#116,.T.);
#23=FACE_BOUND('',#117,.T.);
#24=FACE_BOUND('',#118,.T.);
#25=FACE_BOUND('',#119,.T.);
#26=FACE_BOUND('',#120,.T.);
#27=FACE_BOUND('',#121,.T.);
#28=FACE_BOUND('',#122,.T.);
#29=FACE_BOUND('',#123,.T.);
#30=FACE_BOUND('',#124,.T.);
#31=FACE_BOUND('',#125,.T.);
#32=FACE_BOUND('',#140,.T.);
#33=FACE_BOUND('',#141,.T.);
#34=FACE_BOUND('',#142,.T.);
#35=FACE_BOUND('',#143,.T.);
#36=FACE_BOUND('',#144,.T.);
#37=FACE_BOUND('',#145,.T.);
#38=FACE_BOUND('',#146,.T.);
#39=FACE_BOUND('',#147,.T.);
#40=FACE_BOUND('',#148,.T.);
#41=FACE_BOUND('',#149,.T.);
#42=FACE_BOUND('',#150,.T.);
#43=FACE_BOUND('',#151,.T.);
#44=FACE_BOUND('',#152,.T.);
#45=FACE_BOUND('',#153,.T.);
#46=FACE_BOUND('',#154,.T.);
#47=FACE_BOUND('',#155,.T.);
#48=FACE_BOUND('',#156,.T.);
#49=PLANE('',#694);
#50=PLANE('',#698);
#51=PLANE('',#702);
#52=PLANE('',#706);
#53=PLANE('',#710);
#54=PLANE('',#714);
#55=PLANE('',#718);
#56=PLANE('',#722);
#57=PLANE('',#726);
#58=PLANE('',#766);
#59=FACE_OUTER_BOUND('',#91,.T.);
#60=FACE_OUTER_BOUND('',#92,.T.);
#61=FACE_OUTER_BOUND('',#93,.T.);
#62=FACE_OUTER_BOUND('',#94,.T.);
#63=FACE_OUTER_BOUND('',#95,.T.);
#64=FACE_OUTER_BOUND('',#96,.T.);
#65=FACE_OUTER_BOUND('',#97,.T.);
#66=FACE_OUTER_BOUND('',#98,.T.);
#67=FACE_OUTER_BOUND('',#99,.T.);
#68=FACE_OUTER_BOUND('',#100,.T.);
#69=FACE_OUTER_BOUND('',#101,.T.);
#70=FACE_OUTER_BOUND('',#102,.T.);
#71=FACE_OUTER_BOUND('',#103,.T.);
#72=FACE_OUTER_BOUND('',#104,.T.);
#73=FACE_OUTER_BOUND('',#105,.T.);
#74=FACE_OUTER_BOUND('',#106,.T.);
#75=FACE_OUTER_BOUND('',#107,.T.);
#76=FACE_OUTER_BOUND('',#108,.T.);
#77=FACE_OUTER_BOUND('',#126,.T.);
#78=FACE_OUTER_BOUND('',#127,.T.);
#79=FACE_OUTER_BOUND('',#128,.T.);
#80=FACE_OUTER_BOUND('',#129,.T.);
#81=FACE_OUTER_BOUND('',#130,.T.);
#82=FACE_OUTER_BOUND('',#131,.T.);
#83=FACE_OUTER_BOUND('',#132,.T.);
#84=FACE_OUTER_BOUND('',#133,.T.);
#85=FACE_OUTER_BOUND('',#134,.T.);
#86=FACE_OUTER_BOUND('',#135,.T.);
#87=FACE_OUTER_BOUND('',#136,.T.);
#88=FACE_OUTER_BOUND('',#137,.T.);
#89=FACE_OUTER_BOUND('',#138,.T.);
#90=FACE_OUTER_BOUND('',#139,.T.);
#91=EDGE_LOOP('',(#443,#444,#445,#446));
#92=EDGE_LOOP('',(#447,#448,#449,#450));
#93=EDGE_LOOP('',(#451,#452,#453,#454));
#94=EDGE_LOOP('',(#455,#456,#457,#458));
#95=EDGE_LOOP('',(#459,#460,#461,#462));
#96=EDGE_LOOP('',(#463,#464,#465,#466));
#97=EDGE_LOOP('',(#467,#468,#469,#470));
#98=EDGE_LOOP('',(#471,#472,#473,#474));
#99=EDGE_LOOP('',(#475,#476,#477,#478));
#100=EDGE_LOOP('',(#479,#480,#481,#482));
#101=EDGE_LOOP('',(#483,#484,#485,#486));
#102=EDGE_LOOP('',(#487,#488,#489,#490));
#103=EDGE_LOOP('',(#491,#492,#493,#494));
#104=EDGE_LOOP('',(#495,#496,#497,#498));
#105=EDGE_LOOP('',(#499,#500,#501,#502));
#106=EDGE_LOOP('',(#503,#504,#505,#506));
#107=EDGE_LOOP('',(#507,#508,#509,#510));
#108=EDGE_LOOP('',(#511));
#109=EDGE_LOOP('',(#512));
#110=EDGE_LOOP('',(#513));
#111=EDGE_LOOP('',(#514));
#112=EDGE_LOOP('',(#515));
#113=EDGE_LOOP('',(#516));
#114=EDGE_LOOP('',(#517));
#115=EDGE_LOOP('',(#518));
#116=EDGE_LOOP('',(#519));
#117=EDGE_LOOP('',(#520));
#118=EDGE_LOOP('',(#521));
#119=EDGE_LOOP('',(#522));
#120=EDGE_LOOP('',(#523));
#121=EDGE_LOOP('',(#524));
#122=EDGE_LOOP('',(#525,#526,#527,#528));
#123=EDGE_LOOP('',(#529,#530,#531,#532));
#124=EDGE_LOOP('',(#533,#534,#535,#536));
#125=EDGE_LOOP('',(#537,#538,#539,#540));
#126=EDGE_LOOP('',(#541,#542,#543,#544));
#127=EDGE_LOOP('',(#545,#546,#547,#548));
#128=EDGE_LOOP('',(#549,#550,#551,#552));
#129=EDGE_LOOP('',(#553,#554,#555,#556));
#130=EDGE_LOOP('',(#557,#558,#559,#560));
#131=EDGE_LOOP('',(#561,#562,#563,#564));
#132=EDGE_LOOP('',(#565,#566,#567,#568));
#133=EDGE_LOOP('',(#569,#570,#571,#572));
#134=EDGE_LOOP('',(#573,#574,#575,#576));
#135=EDGE_LOOP('',(#577,#578,#579,#580));
#136=EDGE_LOOP('',(#581,#582,#583,#584));
#137=EDGE_LOOP('',(#585,#586,#587,#588));
#138=EDGE_LOOP('',(#589,#590,#591,#592));
#139=EDGE_LOOP('',(#593));
#140=EDGE_LOOP('',(#594));
#141=EDGE_LOOP('',(#595));
#142=EDGE_LOOP('',(#596));
#143=EDGE_LOOP('',(#597));
#144=EDGE_LOOP('',(#598));
#145=EDGE_LOOP('',(#599));
#146=EDGE_LOOP('',(#600));
#147=EDGE_LOOP('',(#601));
#148=EDGE_LOOP('',(#602));
#149=EDGE_LOOP('',(#603));
#150=EDGE_LOOP('',(#604));
#151=EDGE_LOOP('',(#605));
#152=EDGE_LOOP('',(#606));
#153=EDGE_LOOP('',(#607,#608,#609,#610));
#154=EDGE_LOOP('',(#611,#612,#613,#614));
#155=EDGE_LOOP('',(#615,#616,#617,#618));
#156=EDGE_LOOP('',(#619,#620,#621,#622));
#157=LINE('',#973,#203);
#158=LINE('',#976,#204);
#159=LINE('',#979,#205);
#160=LINE('',#981,#206);
#161=LINE('',#982,#207);
#162=LINE('',#988,#208);
#163=LINE('',#990,#209);
#164=LINE('',#991,#210);
#165=LINE('',#997,#211);
#166=LINE('',#1000,#212);
#167=LINE('',#1003,#213);
#168=LINE('',#1005,#214);
#169=LINE('',#1006,#215);
#170=LINE('',#1012,#216);
#171=LINE('',#1014,#217);
#172=LINE('',#1015,#218);
#173=LINE('',#1021,#219);
#174=LINE('',#1024,#220);
#175=LINE('',#1027,#221);
#176=LINE('',#1029,#222);
#177=LINE('',#1030,#223);
#178=LINE('',#1036,#224);
#179=LINE('',#1038,#225);
#180=LINE('',#1039,#226);
#181=LINE('',#1045,#227);
#182=LINE('',#1048,#228);
#183=LINE('',#1051,#229);
#184=LINE('',#1053,#230);
#185=LINE('',#1054,#231);
#186=LINE('',#1060,#232);
#187=LINE('',#1062,#233);
#188=LINE('',#1063,#234);
#189=LINE('',#1068,#235);
#190=LINE('',#1100,#236);
#191=LINE('',#1104,#237);
#192=LINE('',#1108,#238);
#193=LINE('',#1112,#239);
#194=LINE('',#1115,#240);
#195=LINE('',#1119,#241);
#196=LINE('',#1123,#242);
#197=LINE('',#1127,#243);
#198=LINE('',#1131,#244);
#199=LINE('',#1135,#245);
#200=LINE('',#1139,#246);
#201=LINE('',#1143,#247);
#202=LINE('',#1147,#248);
#203=VECTOR('',#773,10.);
#204=VECTOR('',#776,10.);
#205=VECTOR('',#779,10.);
#206=VECTOR('',#780,10.);
#207=VECTOR('',#781,10.);
#208=VECTOR('',#788,10.);
#209=VECTOR('',#791,10.);
#210=VECTOR('',#792,10.);
#211=VECTOR('',#797,10.);
#212=VECTOR('',#800,10.);
#213=VECTOR('',#803,10.);
#214=VECTOR('',#804,10.);
#215=VECTOR('',#805,10.);
#216=VECTOR('',#812,10.);
#217=VECTOR('',#815,10.);
#218=VECTOR('',#816,10.);
#219=VECTOR('',#821,10.);
#220=VECTOR('',#824,10.);
#221=VECTOR('',#827,10.);
#222=VECTOR('',#828,10.);
#223=VECTOR('',#829,10.);
#224=VECTOR('',#836,10.);
#225=VECTOR('',#839,10.);
#226=VECTOR('',#840,10.);
#227=VECTOR('',#845,10.);
#228=VECTOR('',#848,10.);
#229=VECTOR('',#851,10.);
#230=VECTOR('',#852,10.);
#231=VECTOR('',#853,10.);
#232=VECTOR('',#860,10.);
#233=VECTOR('',#863,10.);
#234=VECTOR('',#864,10.);
#235=VECTOR('',#869,15.);
#236=VECTOR('',#904,1.525);
#237=VECTOR('',#909,1.525);
#238=VECTOR('',#914,1.525);
#239=VECTOR('',#919,1.525);
#240=VECTOR('',#922,1.525);
#241=VECTOR('',#927,1.525);
#242=VECTOR('',#932,1.525);
#243=VECTOR('',#937,1.525);
#244=VECTOR('',#942,1.525);
#245=VECTOR('',#947,1.525);
#246=VECTOR('',#952,1.525);
#247=VECTOR('',#957,1.525);
#248=VECTOR('',#962,52.5);
#249=CIRCLE('',#692,45.0000006705522);
#250=CIRCLE('',#693,45.0000006705522);
#251=CIRCLE('',#696,47.5);
#252=CIRCLE('',#697,47.5);
#253=CIRCLE('',#700,45.0000006705522);
#254=CIRCLE('',#701,45.0000006705522);
#255=CIRCLE('',#704,47.5);
#256=CIRCLE('',#705,47.5);
#257=CIRCLE('',#708,45.0000006705522);
#258=CIRCLE('',#709,45.0000006705522);
#259=CIRCLE('',#712,47.5);
#260=CIRCLE('',#713,47.5);
#261=CIRCLE('',#716,45.0000006705522);
#262=CIRCLE('',#717,45.0000006705522);
#263=CIRCLE('',#720,47.5);
#264=CIRCLE('',#721,47.5);
#265=CIRCLE('',#724,15.);
#266=CIRCLE('',#725,15.);
#267=CIRCLE('',#727,52.5);
#268=CIRCLE('',#728,1.525);
#269=CIRCLE('',#729,1.525);
#270=CIRCLE('',#730,1.525);
#271=CIRCLE('',#731,1.525);
#272=CIRCLE('',#732,1.525);
#273=CIRCLE('',#733,1.525);
#274=CIRCLE('',#734,1.525);
#275=CIRCLE('',#735,1.525);
#276=CIRCLE('',#736,1.525);
#277=CIRCLE('',#737,1.525);
#278=CIRCLE('',#738,1.525);
#279=CIRCLE('',#739,1.525);
#280=CIRCLE('',#741,1.525);
#281=CIRCLE('',#743,1.525);
#282=CIRCLE('',#745,1.525);
#283=CIRCLE('',#747,1.525);
#284=CIRCLE('',#749,1.525);
#285=CIRCLE('',#751,1.525);
#286=CIRCLE('',#753,1.525);
#287=CIRCLE('',#755,1.525);
#288=CIRCLE('',#757,1.525);
#289=CIRCLE('',#759,1.525);
#290=CIRCLE('',#761,1.525);
#291=CIRCLE('',#763,1.525);
#292=CIRCLE('',#765,52.5);
#293=VERTEX_POINT('',#969);
#294=VERTEX_POINT('',#970);
#295=VERTEX_POINT('',#972);
#296=VERTEX_POINT('',#974);
#297=VERTEX_POINT('',#978);
#298=VERTEX_POINT('',#980);
#299=VERTEX_POINT('',#984);
#300=VERTEX_POINT('',#986);
#301=VERTEX_POINT('',#993);
#302=VERTEX_POINT('',#994);
#303=VERTEX_POINT('',#996);
#304=VERTEX_POINT('',#998);
#305=VERTEX_POINT('',#1002);
#306=VERTEX_POINT('',#1004);
#307=VERTEX_POINT('',#1008);
#308=VERTEX_POINT('',#1010);
#309=VERTEX_POINT('',#1017);
#310=VERTEX_POINT('',#1018);
#311=VERTEX_POINT('',#1020);
#312=VERTEX_POINT('',#1022);
#313=VERTEX_POINT('',#1026);
#314=VERTEX_POINT('',#1028);
#315=VERTEX_POINT('',#1032);
#316=VERTEX_POINT('',#1034);
#317=VERTEX_POINT('',#1041);
#318=VERTEX_POINT('',#1042);
#319=VERTEX_POINT('',#1044);
#320=VERTEX_POINT('',#1046);
#321=VERTEX_POINT('',#1050);
#322=VERTEX_POINT('',#1052);
#323=VERTEX_POINT('',#1056);
#324=VERTEX_POINT('',#1058);
#325=VERTEX_POINT('',#1065);
#326=VERTEX_POINT('',#1067);
#327=VERTEX_POINT('',#1071);
#328=VERTEX_POINT('',#1073);
#329=VERTEX_POINT('',#1075);
#330=VERTEX_POINT('',#1077);
#331=VERTEX_POINT('',#1079);
#332=VERTEX_POINT('',#1081);
#333=VERTEX_POINT('',#1083);
#334=VERTEX_POINT('',#1085);
#335=VERTEX_POINT('',#1087);
#336=VERTEX_POINT('',#1089);
#337=VERTEX_POINT('',#1091);
#338=VERTEX_POINT('',#1093);
#339=VERTEX_POINT('',#1095);
#340=VERTEX_POINT('',#1098);
#341=VERTEX_POINT('',#1102);
#342=VERTEX_POINT('',#1106);
#343=VERTEX_POINT('',#1110);
#344=VERTEX_POINT('',#1114);
#345=VERTEX_POINT('',#1118);
#346=VERTEX_POINT('',#1122);
#347=VERTEX_POINT('',#1126);
#348=VERTEX_POINT('',#1130);
#349=VERTEX_POINT('',#1134);
#350=VERTEX_POINT('',#1138);
#351=VERTEX_POINT('',#1142);
#352=VERTEX_POINT('',#1146);
#353=EDGE_CURVE('',#293,#294,#249,.T.);
#354=EDGE_CURVE('',#295,#293,#157,.T.);
#355=EDGE_CURVE('',#296,#295,#250,.T.);
#356=EDGE_CURVE('',#296,#294,#158,.T.);
#357=EDGE_CURVE('',#294,#297,#159,.T.);
#358=EDGE_CURVE('',#298,#296,#160,.T.);
#359=EDGE_CURVE('',#298,#297,#161,.T.);
#360=EDGE_CURVE('',#297,#299,#251,.T.);
#361=EDGE_CURVE('',#300,#298,#252,.T.);
#362=EDGE_CURVE('',#300,#299,#162,.T.);
#363=EDGE_CURVE('',#299,#293,#163,.T.);
#364=EDGE_CURVE('',#295,#300,#164,.T.);
#365=EDGE_CURVE('',#301,#302,#253,.T.);
#366=EDGE_CURVE('',#303,#301,#165,.T.);
#367=EDGE_CURVE('',#304,#303,#254,.T.);
#368=EDGE_CURVE('',#304,#302,#166,.T.);
#369=EDGE_CURVE('',#302,#305,#167,.T.);
#370=EDGE_CURVE('',#306,#304,#168,.T.);
#371=EDGE_CURVE('',#306,#305,#169,.T.);
#372=EDGE_CURVE('',#305,#307,#255,.T.);
#373=EDGE_CURVE('',#308,#306,#256,.T.);
#374=EDGE_CURVE('',#308,#307,#170,.T.);
#375=EDGE_CURVE('',#307,#301,#171,.T.);
#376=EDGE_CURVE('',#303,#308,#172,.T.);
#377=EDGE_CURVE('',#309,#310,#257,.T.);
#378=EDGE_CURVE('',#311,#309,#173,.T.);
#379=EDGE_CURVE('',#312,#311,#258,.T.);
#380=EDGE_CURVE('',#312,#310,#174,.T.);
#381=EDGE_CURVE('',#310,#313,#175,.T.);
#382=EDGE_CURVE('',#314,#312,#176,.T.);
#383=EDGE_CURVE('',#314,#313,#177,.T.);
#384=EDGE_CURVE('',#313,#315,#259,.T.);
#385=EDGE_CURVE('',#316,#314,#260,.T.);
#386=EDGE_CURVE('',#316,#315,#178,.T.);
#387=EDGE_CURVE('',#315,#309,#179,.T.);
#388=EDGE_CURVE('',#311,#316,#180,.T.);
#389=EDGE_CURVE('',#317,#318,#261,.T.);
#390=EDGE_CURVE('',#319,#317,#181,.T.);
#391=EDGE_CURVE('',#320,#319,#262,.T.);
#392=EDGE_CURVE('',#320,#318,#182,.T.);
#393=EDGE_CURVE('',#318,#321,#183,.T.);
#394=EDGE_CURVE('',#322,#320,#184,.T.);
#395=EDGE_CURVE('',#322,#321,#185,.T.);
#396=EDGE_CURVE('',#321,#323,#263,.T.);
#397=EDGE_CURVE('',#324,#322,#264,.T.);
#398=EDGE_CURVE('',#324,#323,#186,.T.);
#399=EDGE_CURVE('',#323,#317,#187,.T.);
#400=EDGE_CURVE('',#319,#324,#188,.T.);
#401=EDGE_CURVE('',#325,#325,#265,.T.);
#402=EDGE_CURVE('',#325,#326,#189,.T.);
#403=EDGE_CURVE('',#326,#326,#266,.T.);
#404=EDGE_CURVE('',#327,#327,#267,.T.);
#405=EDGE_CURVE('',#328,#328,#268,.T.);
#406=EDGE_CURVE('',#329,#329,#269,.T.);
#407=EDGE_CURVE('',#330,#330,#270,.T.);
#408=EDGE_CURVE('',#331,#331,#271,.T.);
#409=EDGE_CURVE('',#332,#332,#272,.T.);
#410=EDGE_CURVE('',#333,#333,#273,.T.);
#411=EDGE_CURVE('',#334,#334,#274,.T.);
#412=EDGE_CURVE('',#335,#335,#275,.T.);
#413=EDGE_CURVE('',#336,#336,#276,.T.);
#414=EDGE_CURVE('',#337,#337,#277,.T.);
#415=EDGE_CURVE('',#338,#338,#278,.T.);
#416=EDGE_CURVE('',#339,#339,#279,.T.);
#417=EDGE_CURVE('',#340,#340,#280,.T.);
#418=EDGE_CURVE('',#340,#332,#190,.T.);
#419=EDGE_CURVE('',#341,#341,#281,.T.);
#420=EDGE_CURVE('',#341,#333,#191,.T.);
#421=EDGE_CURVE('',#342,#342,#282,.T.);
#422=EDGE_CURVE('',#342,#335,#192,.T.);
#423=EDGE_CURVE('',#343,#343,#283,.T.);
#424=EDGE_CURVE('',#343,#337,#193,.T.);
#425=EDGE_CURVE('',#336,#344,#194,.T.);
#426=EDGE_CURVE('',#344,#344,#284,.T.);
#427=EDGE_CURVE('',#330,#345,#195,.T.);
#428=EDGE_CURVE('',#345,#345,#285,.T.);
#429=EDGE_CURVE('',#339,#346,#196,.T.);
#430=EDGE_CURVE('',#346,#346,#286,.T.);
#431=EDGE_CURVE('',#328,#347,#197,.T.);
#432=EDGE_CURVE('',#347,#347,#287,.T.);
#433=EDGE_CURVE('',#338,#348,#198,.T.);
#434=EDGE_CURVE('',#348,#348,#288,.T.);
#435=EDGE_CURVE('',#331,#349,#199,.T.);
#436=EDGE_CURVE('',#349,#349,#289,.T.);
#437=EDGE_CURVE('',#329,#350,#200,.T.);
#438=EDGE_CURVE('',#350,#350,#290,.T.);
#439=EDGE_CURVE('',#334,#351,#201,.T.);
#440=EDGE_CURVE('',#351,#351,#291,.T.);
#441=EDGE_CURVE('',#327,#352,#202,.T.);
#442=EDGE_CURVE('',#352,#352,#292,.T.);
#443=ORIENTED_EDGE('',*,*,#353,.F.);
#444=ORIENTED_EDGE('',*,*,#354,.F.);
#445=ORIENTED_EDGE('',*,*,#355,.F.);
#446=ORIENTED_EDGE('',*,*,#356,.T.);
#447=ORIENTED_EDGE('',*,*,#357,.F.);
#448=ORIENTED_EDGE('',*,*,#356,.F.);
#449=ORIENTED_EDGE('',*,*,#358,.F.);
#450=ORIENTED_EDGE('',*,*,#359,.T.);
#451=ORIENTED_EDGE('',*,*,#360,.F.);
#452=ORIENTED_EDGE('',*,*,#359,.F.);
#453=ORIENTED_EDGE('',*,*,#361,.F.);
#454=ORIENTED_EDGE('',*,*,#362,.T.);
#455=ORIENTED_EDGE('',*,*,#363,.F.);
#456=ORIENTED_EDGE('',*,*,#362,.F.);
#457=ORIENTED_EDGE('',*,*,#364,.F.);
#458=ORIENTED_EDGE('',*,*,#354,.T.);
#459=ORIENTED_EDGE('',*,*,#365,.F.);
#460=ORIENTED_EDGE('',*,*,#366,.F.);
#461=ORIENTED_EDGE('',*,*,#367,.F.);
#462=ORIENTED_EDGE('',*,*,#368,.T.);
#463=ORIENTED_EDGE('',*,*,#369,.F.);
#464=ORIENTED_EDGE('',*,*,#368,.F.);
#465=ORIENTED_EDGE('',*,*,#370,.F.);
#466=ORIENTED_EDGE('',*,*,#371,.T.);
#467=ORIENTED_EDGE('',*,*,#372,.F.);
#468=ORIENTED_EDGE('',*,*,#371,.F.);
#469=ORIENTED_EDGE('',*,*,#373,.F.);
#470=ORIENTED_EDGE('',*,*,#374,.T.);
#471=ORIENTED_EDGE('',*,*,#375,.F.);
#472=ORIENTED_EDGE('',*,*,#374,.F.);
#473=ORIENTED_EDGE('',*,*,#376,.F.);
#474=ORIENTED_EDGE('',*,*,#366,.T.);
#475=ORIENTED_EDGE('',*,*,#377,.F.);
#476=ORIENTED_EDGE('',*,*,#378,.F.);
#477=ORIENTED_EDGE('',*,*,#379,.F.);
#478=ORIENTED_EDGE('',*,*,#380,.T.);
#479=ORIENTED_EDGE('',*,*,#381,.F.);
#480=ORIENTED_EDGE('',*,*,#380,.F.);
#481=ORIENTED_EDGE('',*,*,#382,.F.);
#482=ORIENTED_EDGE('',*,*,#383,.T.);
#483=ORIENTED_EDGE('',*,*,#384,.F.);
#484=ORIENTED_EDGE('',*,*,#383,.F.);
#485=ORIENTED_EDGE('',*,*,#385,.F.);
#486=ORIENTED_EDGE('',*,*,#386,.T.);
#487=ORIENTED_EDGE('',*,*,#387,.F.);
#488=ORIENTED_EDGE('',*,*,#386,.F.);
#489=ORIENTED_EDGE('',*,*,#388,.F.);
#490=ORIENTED_EDGE('',*,*,#378,.T.);
#491=ORIENTED_EDGE('',*,*,#389,.F.);
#492=ORIENTED_EDGE('',*,*,#390,.F.);
#493=ORIENTED_EDGE('',*,*,#391,.F.);
#494=ORIENTED_EDGE('',*,*,#392,.T.);
#495=ORIENTED_EDGE('',*,*,#393,.F.);
#496=ORIENTED_EDGE('',*,*,#392,.F.);
#497=ORIENTED_EDGE('',*,*,#394,.F.);
#498=ORIENTED_EDGE('',*,*,#395,.T.);
#499=ORIENTED_EDGE('',*,*,#396,.F.);
#500=ORIENTED_EDGE('',*,*,#395,.F.);
#501=ORIENTED_EDGE('',*,*,#397,.F.);
#502=ORIENTED_EDGE('',*,*,#398,.T.);
#503=ORIENTED_EDGE('',*,*,#399,.F.);
#504=ORIENTED_EDGE('',*,*,#398,.F.);
#505=ORIENTED_EDGE('',*,*,#400,.F.);
#506=ORIENTED_EDGE('',*,*,#390,.T.);
#507=ORIENTED_EDGE('',*,*,#401,.F.);
#508=ORIENTED_EDGE('',*,*,#402,.T.);
#509=ORIENTED_EDGE('',*,*,#403,.F.);
#510=ORIENTED_EDGE('',*,*,#402,.F.);
#511=ORIENTED_EDGE('',*,*,#404,.F.);
#512=ORIENTED_EDGE('',*,*,#401,.T.);
#513=ORIENTED_EDGE('',*,*,#405,.F.);
#514=ORIENTED_EDGE('',*,*,#406,.F.);
#515=ORIENTED_EDGE('',*,*,#407,.F.);
#516=ORIENTED_EDGE('',*,*,#408,.F.);
#517=ORIENTED_EDGE('',*,*,#409,.F.);
#518=ORIENTED_EDGE('',*,*,#410,.F.);
#519=ORIENTED_EDGE('',*,*,#411,.F.);
#520=ORIENTED_EDGE('',*,*,#412,.F.);
#521=ORIENTED_EDGE('',*,*,#413,.F.);
#522=ORIENTED_EDGE('',*,*,#414,.F.);
#523=ORIENTED_EDGE('',*,*,#415,.F.);
#524=ORIENTED_EDGE('',*,*,#416,.F.);
#525=ORIENTED_EDGE('',*,*,#397,.T.);
#526=ORIENTED_EDGE('',*,*,#394,.T.);
#527=ORIENTED_EDGE('',*,*,#391,.T.);
#528=ORIENTED_EDGE('',*,*,#400,.T.);
#529=ORIENTED_EDGE('',*,*,#385,.T.);
#530=ORIENTED_EDGE('',*,*,#382,.T.);
#531=ORIENTED_EDGE('',*,*,#379,.T.);
#532=ORIENTED_EDGE('',*,*,#388,.T.);
#533=ORIENTED_EDGE('',*,*,#373,.T.);
#534=ORIENTED_EDGE('',*,*,#370,.T.);
#535=ORIENTED_EDGE('',*,*,#367,.T.);
#536=ORIENTED_EDGE('',*,*,#376,.T.);
#537=ORIENTED_EDGE('',*,*,#361,.T.);
#538=ORIENTED_EDGE('',*,*,#358,.T.);
#539=ORIENTED_EDGE('',*,*,#355,.T.);
#540=ORIENTED_EDGE('',*,*,#364,.T.);
#541=ORIENTED_EDGE('',*,*,#417,.F.);
#542=ORIENTED_EDGE('',*,*,#418,.T.);
#543=ORIENTED_EDGE('',*,*,#409,.T.);
#544=ORIENTED_EDGE('',*,*,#418,.F.);
#545=ORIENTED_EDGE('',*,*,#419,.F.);
#546=ORIENTED_EDGE('',*,*,#420,.T.);
#547=ORIENTED_EDGE('',*,*,#410,.T.);
#548=ORIENTED_EDGE('',*,*,#420,.F.);
#549=ORIENTED_EDGE('',*,*,#421,.F.);
#550=ORIENTED_EDGE('',*,*,#422,.T.);
#551=ORIENTED_EDGE('',*,*,#412,.T.);
#552=ORIENTED_EDGE('',*,*,#422,.F.);
#553=ORIENTED_EDGE('',*,*,#423,.F.);
#554=ORIENTED_EDGE('',*,*,#424,.T.);
#555=ORIENTED_EDGE('',*,*,#414,.T.);
#556=ORIENTED_EDGE('',*,*,#424,.F.);
#557=ORIENTED_EDGE('',*,*,#413,.T.);
#558=ORIENTED_EDGE('',*,*,#425,.T.);
#559=ORIENTED_EDGE('',*,*,#426,.F.);
#560=ORIENTED_EDGE('',*,*,#425,.F.);
#561=ORIENTED_EDGE('',*,*,#407,.T.);
#562=ORIENTED_EDGE('',*,*,#427,.T.);
#563=ORIENTED_EDGE('',*,*,#428,.F.);
#564=ORIENTED_EDGE('',*,*,#427,.F.);
#565=ORIENTED_EDGE('',*,*,#416,.T.);
#566=ORIENTED_EDGE('',*,*,#429,.T.);
#567=ORIENTED_EDGE('',*,*,#430,.F.);
#568=ORIENTED_EDGE('',*,*,#429,.F.);
#569=ORIENTED_EDGE('',*,*,#405,.T.);
#570=ORIENTED_EDGE('',*,*,#431,.T.);
#571=ORIENTED_EDGE('',*,*,#432,.F.);
#572=ORIENTED_EDGE('',*,*,#431,.F.);
#573=ORIENTED_EDGE('',*,*,#415,.T.);
#574=ORIENTED_EDGE('',*,*,#433,.T.);
#575=ORIENTED_EDGE('',*,*,#434,.F.);
#576=ORIENTED_EDGE('',*,*,#433,.F.);
#577=ORIENTED_EDGE('',*,*,#408,.T.);
#578=ORIENTED_EDGE('',*,*,#435,.T.);
#579=ORIENTED_EDGE('',*,*,#436,.F.);
#580=ORIENTED_EDGE('',*,*,#435,.F.);
#581=ORIENTED_EDGE('',*,*,#406,.T.);
#582=ORIENTED_EDGE('',*,*,#437,.T.);
#583=ORIENTED_EDGE('',*,*,#438,.F.);
#584=ORIENTED_EDGE('',*,*,#437,.F.);
#585=ORIENTED_EDGE('',*,*,#411,.T.);
#586=ORIENTED_EDGE('',*,*,#439,.T.);
#587=ORIENTED_EDGE('',*,*,#440,.F.);
#588=ORIENTED_EDGE('',*,*,#439,.F.);
#589=ORIENTED_EDGE('',*,*,#404,.T.);
#590=ORIENTED_EDGE('',*,*,#441,.T.);
#591=ORIENTED_EDGE('',*,*,#442,.T.);
#592=ORIENTED_EDGE('',*,*,#441,.F.);
#593=ORIENTED_EDGE('',*,*,#442,.F.);
#594=ORIENTED_EDGE('',*,*,#403,.T.);
#595=ORIENTED_EDGE('',*,*,#426,.T.);
#596=ORIENTED_EDGE('',*,*,#428,.T.);
#597=ORIENTED_EDGE('',*,*,#430,.T.);
#598=ORIENTED_EDGE('',*,*,#432,.T.);
#599=ORIENTED_EDGE('',*,*,#434,.T.);
#600=ORIENTED_EDGE('',*,*,#436,.T.);
#601=ORIENTED_EDGE('',*,*,#438,.T.);
#602=ORIENTED_EDGE('',*,*,#440,.T.);
#603=ORIENTED_EDGE('',*,*,#423,.T.);
#604=ORIENTED_EDGE('',*,*,#421,.T.);
#605=ORIENTED_EDGE('',*,*,#419,.T.);
#606=ORIENTED_EDGE('',*,*,#417,.T.);
#607=ORIENTED_EDGE('',*,*,#396,.T.);
#608=ORIENTED_EDGE('',*,*,#399,.T.);
#609=ORIENTED_EDGE('',*,*,#389,.T.);
#610=ORIENTED_EDGE('',*,*,#393,.T.);
#611=ORIENTED_EDGE('',*,*,#384,.T.);
#612=ORIENTED_EDGE('',*,*,#387,.T.);
#613=ORIENTED_EDGE('',*,*,#377,.T.);
#614=ORIENTED_EDGE('',*,*,#381,.T.);
#615=ORIENTED_EDGE('',*,*,#372,.T.);
#616=ORIENTED_EDGE('',*,*,#375,.T.);
#617=ORIENTED_EDGE('',*,*,#365,.T.);
#618=ORIENTED_EDGE('',*,*,#369,.T.);
#619=ORIENTED_EDGE('',*,*,#360,.T.);
#620=ORIENTED_EDGE('',*,*,#363,.T.);
#621=ORIENTED_EDGE('',*,*,#353,.T.);
#622=ORIENTED_EDGE('',*,*,#357,.T.);
#623=CYLINDRICAL_SURFACE('',#691,45.0000006705522);
#624=CYLINDRICAL_SURFACE('',#695,47.5);
#625=CYLINDRICAL_SURFACE('',#699,45.0000006705522);
#626=CYLINDRICAL_SURFACE('',#703,47.5);
#627=CYLINDRICAL_SURFACE('',#707,45.0000006705522);
#628=CYLINDRICAL_SURFACE('',#711,47.5);
#629=CYLINDRICAL_SURFACE('',#715,45.0000006705522);
#630=CYLINDRICAL_SURFACE('',#719,47.5);
#631=CYLINDRICAL_SURFACE('',#723,15.);
#632=CYLINDRICAL_SURFACE('',#740,1.525);
#633=CYLINDRICAL_SURFACE('',#742,1.525);
#634=CYLINDRICAL_SURFACE('',#744,1.525);
#635=CYLINDRICAL_SURFACE('',#746,1.525);
#636=CYLINDRICAL_SURFACE('',#748,1.525);
#637=CYLINDRICAL_SURFACE('',#750,1.525);
#638=CYLINDRICAL_SURFACE('',#752,1.525);
#639=CYLINDRICAL_SURFACE('',#754,1.525);
#640=CYLINDRICAL_SURFACE('',#756,1.525);
#641=CYLINDRICAL_SURFACE('',#758,1.525);
#642=CYLINDRICAL_SURFACE('',#760,1.525);
#643=CYLINDRICAL_SURFACE('',#762,1.525);
#644=CYLINDRICAL_SURFACE('',#764,52.5);
#645=ADVANCED_FACE('',(#59),#623,.T.);
#646=ADVANCED_FACE('',(#60),#49,.F.);
#647=ADVANCED_FACE('',(#61),#624,.F.);
#648=ADVANCED_FACE('',(#62),#50,.F.);
#649=ADVANCED_FACE('',(#63),#625,.T.);
#650=ADVANCED_FACE('',(#64),#51,.F.);
#651=ADVANCED_FACE('',(#65),#626,.F.);
#652=ADVANCED_FACE('',(#66),#52,.F.);
#653=ADVANCED_FACE('',(#67),#627,.T.);
#654=ADVANCED_FACE('',(#68),#53,.F.);
#655=ADVANCED_FACE('',(#69),#628,.F.);
#656=ADVANCED_FACE('',(#70),#54,.F.);
#657=ADVANCED_FACE('',(#71),#629,.T.);
#658=ADVANCED_FACE('',(#72),#55,.F.);
#659=ADVANCED_FACE('',(#73),#630,.F.);
#660=ADVANCED_FACE('',(#74),#56,.F.);
#661=ADVANCED_FACE('',(#75),#631,.F.);
#662=ADVANCED_FACE('',(#76,#15,#16,#17,#18,#19,#20,#21,#22,#23,#24,#25,
#26,#27,#28,#29,#30,#31),#57,.T.);
#663=ADVANCED_FACE('',(#77),#632,.F.);
#664=ADVANCED_FACE('',(#78),#633,.F.);
#665=ADVANCED_FACE('',(#79),#634,.F.);
#666=ADVANCED_FACE('',(#80),#635,.F.);
#667=ADVANCED_FACE('',(#81),#636,.F.);
#668=ADVANCED_FACE('',(#82),#637,.F.);
#669=ADVANCED_FACE('',(#83),#638,.F.);
#670=ADVANCED_FACE('',(#84),#639,.F.);
#671=ADVANCED_FACE('',(#85),#640,.F.);
#672=ADVANCED_FACE('',(#86),#641,.F.);
#673=ADVANCED_FACE('',(#87),#642,.F.);
#674=ADVANCED_FACE('',(#88),#643,.F.);
#675=ADVANCED_FACE('',(#89),#644,.T.);
#676=ADVANCED_FACE('',(#90,#32,#33,#34,#35,#36,#37,#38,#39,#40,#41,#42,
#43,#44,#45,#46,#47,#48),#58,.F.);
#677=CLOSED_SHELL('',(#645,#646,#647,#648,#649,#650,#651,#652,#653,#654,
#655,#656,#657,#658,#659,#660,#661,#662,#663,#664,#665,#666,#667,#668,#669,
#670,#671,#672,#673,#674,#675,#676));
#678=DERIVED_UNIT_ELEMENT(#680,1.);
#679=DERIVED_UNIT_ELEMENT(#1155,-3.);
#680=(
MASS_UNIT()
NAMED_UNIT(*)
SI_UNIT(.KILO.,.GRAM.)
);
#681=DERIVED_UNIT((#678,#679));
#682=MEASURE_REPRESENTATION_ITEM('density measure',
POSITIVE_RATIO_MEASURE(7850.),#681);
#683=PROPERTY_DEFINITION_REPRESENTATION(#688,#685);
#684=PROPERTY_DEFINITION_REPRESENTATION(#689,#686);
#685=REPRESENTATION('material name',(#687),#1152);
#686=REPRESENTATION('density',(#682),#1152);
#687=DESCRIPTIVE_REPRESENTATION_ITEM('Acero','Acero');
#688=PROPERTY_DEFINITION('material property','material name',#1162);
#689=PROPERTY_DEFINITION('material property','density of part',#1162);
#690=AXIS2_PLACEMENT_3D('',#967,#767,#768);
#691=AXIS2_PLACEMENT_3D('',#968,#769,#770);
#692=AXIS2_PLACEMENT_3D('',#971,#771,#772);
#693=AXIS2_PLACEMENT_3D('',#975,#774,#775);
#694=AXIS2_PLACEMENT_3D('',#977,#777,#778);
#695=AXIS2_PLACEMENT_3D('',#983,#782,#783);
#696=AXIS2_PLACEMENT_3D('',#985,#784,#785);
#697=AXIS2_PLACEMENT_3D('',#987,#786,#787);
#698=AXIS2_PLACEMENT_3D('',#989,#789,#790);
#699=AXIS2_PLACEMENT_3D('',#992,#793,#794);
#700=AXIS2_PLACEMENT_3D('',#995,#795,#796);
#701=AXIS2_PLACEMENT_3D('',#999,#798,#799);
#702=AXIS2_PLACEMENT_3D('',#1001,#801,#802);
#703=AXIS2_PLACEMENT_3D('',#1007,#806,#807);
#704=AXIS2_PLACEMENT_3D('',#1009,#808,#809);
#705=AXIS2_PLACEMENT_3D('',#1011,#810,#811);
#706=AXIS2_PLACEMENT_3D('',#1013,#813,#814);
#707=AXIS2_PLACEMENT_3D('',#1016,#817,#818);
#708=AXIS2_PLACEMENT_3D('',#1019,#819,#820);
#709=AXIS2_PLACEMENT_3D('',#1023,#822,#823);
#710=AXIS2_PLACEMENT_3D('',#1025,#825,#826);
#711=AXIS2_PLACEMENT_3D('',#1031,#830,#831);
#712=AXIS2_PLACEMENT_3D('',#1033,#832,#833);
#713=AXIS2_PLACEMENT_3D('',#1035,#834,#835);
#714=AXIS2_PLACEMENT_3D('',#1037,#837,#838);
#715=AXIS2_PLACEMENT_3D('',#1040,#841,#842);
#716=AXIS2_PLACEMENT_3D('',#1043,#843,#844);
#717=AXIS2_PLACEMENT_3D('',#1047,#846,#847);
#718=AXIS2_PLACEMENT_3D('',#1049,#849,#850);
#719=AXIS2_PLACEMENT_3D('',#1055,#854,#855);
#720=AXIS2_PLACEMENT_3D('',#1057,#856,#857);
#721=AXIS2_PLACEMENT_3D('',#1059,#858,#859);
#722=AXIS2_PLACEMENT_3D('',#1061,#861,#862);
#723=AXIS2_PLACEMENT_3D('',#1064,#865,#866);
#724=AXIS2_PLACEMENT_3D('',#1066,#867,#868);
#725=AXIS2_PLACEMENT_3D('',#1069,#870,#871);
#726=AXIS2_PLACEMENT_3D('',#1070,#872,#873);
#727=AXIS2_PLACEMENT_3D('',#1072,#874,#875);
#728=AXIS2_PLACEMENT_3D('',#1074,#876,#877);
#729=AXIS2_PLACEMENT_3D('',#1076,#878,#879);
#730=AXIS2_PLACEMENT_3D('',#1078,#880,#881);
#731=AXIS2_PLACEMENT_3D('',#1080,#882,#883);
#732=AXIS2_PLACEMENT_3D('',#1082,#884,#885);
#733=AXIS2_PLACEMENT_3D('',#1084,#886,#887);
#734=AXIS2_PLACEMENT_3D('',#1086,#888,#889);
#735=AXIS2_PLACEMENT_3D('',#1088,#890,#891);
#736=AXIS2_PLACEMENT_3D('',#1090,#892,#893);
#737=AXIS2_PLACEMENT_3D('',#1092,#894,#895);
#738=AXIS2_PLACEMENT_3D('',#1094,#896,#897);
#739=AXIS2_PLACEMENT_3D('',#1096,#898,#899);
#740=AXIS2_PLACEMENT_3D('',#1097,#900,#901);
#741=AXIS2_PLACEMENT_3D('',#1099,#902,#903);
#742=AXIS2_PLACEMENT_3D('',#1101,#905,#906);
#743=AXIS2_PLACEMENT_3D('',#1103,#907,#908);
#744=AXIS2_PLACEMENT_3D('',#1105,#910,#911);
#745=AXIS2_PLACEMENT_3D('',#1107,#912,#913);
#746=AXIS2_PLACEMENT_3D('',#1109,#915,#916);
#747=AXIS2_PLACEMENT_3D('',#1111,#917,#918);
#748=AXIS2_PLACEMENT_3D('',#1113,#920,#921);
#749=AXIS2_PLACEMENT_3D('',#1116,#923,#924);
#750=AXIS2_PLACEMENT_3D('',#1117,#925,#926);
#751=AXIS2_PLACEMENT_3D('',#1120,#928,#929);
#752=AXIS2_PLACEMENT_3D('',#1121,#930,#931);
#753=AXIS2_PLACEMENT_3D('',#1124,#933,#934);
#754=AXIS2_PLACEMENT_3D('',#1125,#935,#936);
#755=AXIS2_PLACEMENT_3D('',#1128,#938,#939);
#756=AXIS2_PLACEMENT_3D('',#1129,#940,#941);
#757=AXIS2_PLACEMENT_3D('',#1132,#943,#944);
#758=AXIS2_PLACEMENT_3D('',#1133,#945,#946);
#759=AXIS2_PLACEMENT_3D('',#1136,#948,#949);
#760=AXIS2_PLACEMENT_3D('',#1137,#950,#951);
#761=AXIS2_PLACEMENT_3D('',#1140,#953,#954);
#762=AXIS2_PLACEMENT_3D('',#1141,#955,#956);
#763=AXIS2_PLACEMENT_3D('',#1144,#958,#959);
#764=AXIS2_PLACEMENT_3D('',#1145,#960,#961);
#765=AXIS2_PLACEMENT_3D('',#1148,#963,#964);
#766=AXIS2_PLACEMENT_3D('',#1149,#965,#966);
#767=DIRECTION('axis',(0.,0.,1.));
#768=DIRECTION('refdir',(1.,0.,0.));
#769=DIRECTION('center_axis',(0.,0.,-1.));
#770=DIRECTION('ref_axis',(-0.111111109455427,0.993807990185018,0.));
#771=DIRECTION('center_axis',(0.,0.,-1.));
#772=DIRECTION('ref_axis',(-0.111111109455427,0.993807990185018,0.));
#773=DIRECTION('',(0.,0.,-1.));
#774=DIRECTION('center_axis',(0.,0.,1.));
#775=DIRECTION('ref_axis',(-0.111111109455427,0.993807990185018,0.));
#776=DIRECTION('',(0.,0.,-1.));
#777=DIRECTION('center_axis',(1.,4.41484654442704E-16,0.));
#778=DIRECTION('ref_axis',(4.41484654442705E-16,-1.,0.));
#779=DIRECTION('',(-4.41484654442705E-16,1.,0.));
#780=DIRECTION('',(4.41484654442705E-16,-1.,0.));
#781=DIRECTION('',(0.,0.,-1.));
#782=DIRECTION('center_axis',(0.,0.,-1.));
#783=DIRECTION('ref_axis',(-0.105263157894737,0.994444401457431,0.));
#784=DIRECTION('center_axis',(0.,0.,1.));
#785=DIRECTION('ref_axis',(-0.105263157894737,0.994444401457431,0.));
#786=DIRECTION('center_axis',(0.,0.,-1.));
#787=DIRECTION('ref_axis',(-0.105263157894737,0.994444401457431,0.));
#788=DIRECTION('',(0.,0.,-1.));
#789=DIRECTION('center_axis',(0.,-1.,0.));
#790=DIRECTION('ref_axis',(-1.,0.,0.));
#791=DIRECTION('',(1.,0.,0.));
#792=DIRECTION('',(-1.,0.,0.));
#793=DIRECTION('center_axis',(0.,0.,-1.));
#794=DIRECTION('ref_axis',(0.993807990185018,0.111111109455427,0.));
#795=DIRECTION('center_axis',(0.,0.,-1.));
#796=DIRECTION('ref_axis',(0.993807990185018,0.111111109455427,0.));
#797=DIRECTION('',(0.,0.,-1.));
#798=DIRECTION('center_axis',(0.,0.,1.));
#799=DIRECTION('ref_axis',(0.993807990185018,0.111111109455427,0.));
#800=DIRECTION('',(0.,0.,-1.));
#801=DIRECTION('center_axis',(0.,-1.,0.));
#802=DIRECTION('ref_axis',(-1.,0.,0.));
#803=DIRECTION('',(1.,0.,0.));
#804=DIRECTION('',(-1.,0.,0.));
#805=DIRECTION('',(0.,0.,-1.));
#806=DIRECTION('center_axis',(0.,0.,-1.));
#807=DIRECTION('ref_axis',(0.994444401457431,0.105263157894737,0.));
#808=DIRECTION('center_axis',(0.,0.,1.));
#809=DIRECTION('ref_axis',(0.994444401457431,0.105263157894737,0.));
#810=DIRECTION('center_axis',(0.,0.,-1.));
#811=DIRECTION('ref_axis',(0.994444401457431,0.105263157894737,0.));
#812=DIRECTION('',(0.,0.,-1.));
#813=DIRECTION('center_axis',(-1.,2.20742327221352E-16,0.));
#814=DIRECTION('ref_axis',(2.20742327221352E-16,1.,0.));
#815=DIRECTION('',(-2.20742327221352E-16,-1.,0.));
#816=DIRECTION('',(2.20742327221352E-16,1.,0.));
#817=DIRECTION('center_axis',(0.,0.,-1.));
#818=DIRECTION('ref_axis',(-0.993807990185018,-0.111111109455427,0.));
#819=DIRECTION('center_axis',(0.,0.,-1.));
#820=DIRECTION('ref_axis',(-0.993807990185018,-0.111111109455427,0.));
#821=DIRECTION('',(0.,0.,-1.));
#822=DIRECTION('center_axis',(0.,0.,1.));
#823=DIRECTION('ref_axis',(-0.993807990185018,-0.111111109455427,0.));
#824=DIRECTION('',(0.,0.,-1.));
#825=DIRECTION('center_axis',(0.,1.,0.));
#826=DIRECTION('ref_axis',(1.,0.,0.));
#827=DIRECTION('',(-1.,0.,0.));
#828=DIRECTION('',(1.,0.,0.));
#829=DIRECTION('',(0.,0.,-1.));
#830=DIRECTION('center_axis',(0.,0.,-1.));
#831=DIRECTION('ref_axis',(-0.994444401457431,-0.105263157894737,0.));
#832=DIRECTION('center_axis',(0.,0.,1.));
#833=DIRECTION('ref_axis',(-0.994444401457431,-0.105263157894737,0.));
#834=DIRECTION('center_axis',(0.,0.,-1.));
#835=DIRECTION('ref_axis',(-0.994444401457431,-0.105263157894737,0.));
#836=DIRECTION('',(0.,0.,-1.));
#837=DIRECTION('center_axis',(1.,-2.20742327221352E-16,0.));
#838=DIRECTION('ref_axis',(-2.20742327221352E-16,-1.,0.));
#839=DIRECTION('',(2.20742327221352E-16,1.,0.));
#840=DIRECTION('',(-2.20742327221352E-16,-1.,0.));
#841=DIRECTION('center_axis',(0.,0.,-1.));
#842=DIRECTION('ref_axis',(0.111111109455427,-0.993807990185018,0.));
#843=DIRECTION('center_axis',(0.,0.,-1.));
#844=DIRECTION('ref_axis',(0.111111109455427,-0.993807990185018,0.));
#845=DIRECTION('',(0.,0.,-1.));
#846=DIRECTION('center_axis',(0.,0.,1.));
#847=DIRECTION('ref_axis',(0.111111109455427,-0.993807990185018,0.));
#848=DIRECTION('',(0.,0.,-1.));
#849=DIRECTION('center_axis',(-1.,-4.41484654442704E-16,0.));
#850=DIRECTION('ref_axis',(-4.41484654442705E-16,1.,0.));
#851=DIRECTION('',(4.41484654442705E-16,-1.,0.));
#852=DIRECTION('',(-4.41484654442705E-16,1.,0.));
#853=DIRECTION('',(0.,0.,-1.));
#854=DIRECTION('center_axis',(0.,0.,-1.));
#855=DIRECTION('ref_axis',(0.105263157894737,-0.994444401457431,0.));
#856=DIRECTION('center_axis',(0.,0.,1.));
#857=DIRECTION('ref_axis',(0.105263157894737,-0.994444401457431,0.));
#858=DIRECTION('center_axis',(0.,0.,-1.));
#859=DIRECTION('ref_axis',(0.105263157894737,-0.994444401457431,0.));
#860=DIRECTION('',(0.,0.,-1.));
#861=DIRECTION('center_axis',(2.20742327221352E-16,1.,0.));
#862=DIRECTION('ref_axis',(1.,-2.20742327221352E-16,0.));
#863=DIRECTION('',(-1.,2.20742327221352E-16,0.));
#864=DIRECTION('',(1.,-2.20742327221352E-16,0.));
#865=DIRECTION('center_axis',(0.,0.,-1.));
#866=DIRECTION('ref_axis',(-1.,0.,0.));
#867=DIRECTION('center_axis',(0.,0.,-1.));
#868=DIRECTION('ref_axis',(-1.,0.,0.));
#869=DIRECTION('',(0.,0.,-1.));
#870=DIRECTION('center_axis',(0.,0.,1.));
#871=DIRECTION('ref_axis',(-1.,0.,0.));
#872=DIRECTION('center_axis',(0.,0.,1.));
#873=DIRECTION('ref_axis',(-1.,0.,0.));
#874=DIRECTION('center_axis',(0.,0.,-1.));
#875=DIRECTION('ref_axis',(1.,0.,0.));
#876=DIRECTION('center_axis',(0.,0.,1.));
#877=DIRECTION('ref_axis',(-1.,0.,0.));
#878=DIRECTION('center_axis',(0.,0.,1.));
#879=DIRECTION('ref_axis',(-1.,0.,0.));
#880=DIRECTION('center_axis',(0.,0.,1.));
#881=DIRECTION('ref_axis',(-1.,0.,0.));
#882=DIRECTION('center_axis',(0.,0.,1.));
#883=DIRECTION('ref_axis',(-1.,0.,0.));
#884=DIRECTION('center_axis',(0.,0.,1.));
#885=DIRECTION('ref_axis',(1.,0.,0.));
#886=DIRECTION('center_axis',(0.,0.,1.));
#887=DIRECTION('ref_axis',(1.,0.,0.));
#888=DIRECTION('center_axis',(0.,0.,1.));
#889=DIRECTION('ref_axis',(-1.,0.,0.));
#890=DIRECTION('center_axis',(0.,0.,1.));
#891=DIRECTION('ref_axis',(1.,0.,0.));
#892=DIRECTION('center_axis',(0.,0.,1.));
#893=DIRECTION('ref_axis',(-1.,0.,0.));
#894=DIRECTION('center_axis',(0.,0.,1.));
#895=DIRECTION('ref_axis',(1.,0.,0.));
#896=DIRECTION('center_axis',(0.,0.,1.));
#897=DIRECTION('ref_axis',(-1.,0.,0.));
#898=DIRECTION('center_axis',(0.,0.,1.));
#899=DIRECTION('ref_axis',(-1.,0.,0.));
#900=DIRECTION('center_axis',(0.,0.,1.));
#901=DIRECTION('ref_axis',(1.,0.,0.));
#902=DIRECTION('center_axis',(0.,0.,1.));
#903=DIRECTION('ref_axis',(1.,0.,0.));
#904=DIRECTION('',(0.,0.,1.));
#905=DIRECTION('center_axis',(0.,0.,1.));
#906=DIRECTION('ref_axis',(1.,0.,0.));
#907=DIRECTION('center_axis',(0.,0.,1.));
#908=DIRECTION('ref_axis',(1.,0.,0.));
#909=DIRECTION('',(0.,0.,1.));
#910=DIRECTION('center_axis',(0.,0.,1.));
#911=DIRECTION('ref_axis',(1.,0.,0.));
#912=DIRECTION('center_axis',(0.,0.,1.));
#913=DIRECTION('ref_axis',(1.,0.,0.));
#914=DIRECTION('',(0.,0.,1.));
#915=DIRECTION('center_axis',(0.,0.,1.));
#916=DIRECTION('ref_axis',(1.,0.,0.));
#917=DIRECTION('center_axis',(0.,0.,1.));
#918=DIRECTION('ref_axis',(1.,0.,0.));
#919=DIRECTION('',(0.,0.,1.));
#920=DIRECTION('center_axis',(0.,0.,-1.));
#921=DIRECTION('ref_axis',(-1.,0.,0.));
#922=DIRECTION('',(0.,0.,-1.));
#923=DIRECTION('center_axis',(0.,0.,1.));
#924=DIRECTION('ref_axis',(-1.,0.,0.));
#925=DIRECTION('center_axis',(0.,0.,-1.));
#926=DIRECTION('ref_axis',(-1.,0.,0.));
#927=DIRECTION('',(0.,0.,-1.));
#928=DIRECTION('center_axis',(0.,0.,1.));
#929=DIRECTION('ref_axis',(-1.,0.,0.));
#930=DIRECTION('center_axis',(0.,0.,-1.));
#931=DIRECTION('ref_axis',(-1.,0.,0.));
#932=DIRECTION('',(0.,0.,-1.));
#933=DIRECTION('center_axis',(0.,0.,1.));
#934=DIRECTION('ref_axis',(-1.,0.,0.));
#935=DIRECTION('center_axis',(0.,0.,-1.));
#936=DIRECTION('ref_axis',(-1.,0.,0.));
#937=DIRECTION('',(0.,0.,-1.));
#938=DIRECTION('center_axis',(0.,0.,1.));
#939=DIRECTION('ref_axis',(-1.,0.,0.));
#940=DIRECTION('center_axis',(0.,0.,-1.));
#941=DIRECTION('ref_axis',(-1.,0.,0.));
#942=DIRECTION('',(0.,0.,-1.));
#943=DIRECTION('center_axis',(0.,0.,1.));
#944=DIRECTION('ref_axis',(-1.,0.,0.));
#945=DIRECTION('center_axis',(0.,0.,-1.));
#946=DIRECTION('ref_axis',(-1.,0.,0.));
#947=DIRECTION('',(0.,0.,-1.));
#948=DIRECTION('center_axis',(0.,0.,1.));
#949=DIRECTION('ref_axis',(-1.,0.,0.));
#950=DIRECTION('center_axis',(0.,0.,-1.));
#951=DIRECTION('ref_axis',(-1.,0.,0.));
#952=DIRECTION('',(0.,0.,-1.));
#953=DIRECTION('center_axis',(0.,0.,1.));
#954=DIRECTION('ref_axis',(-1.,0.,0.));
#955=DIRECTION('center_axis',(0.,0.,-1.));
#956=DIRECTION('ref_axis',(-1.,0.,0.));
#957=DIRECTION('',(0.,0.,-1.));
#958=DIRECTION('center_axis',(0.,0.,1.));
#959=DIRECTION('ref_axis',(-1.,0.,0.));
#960=DIRECTION('center_axis',(0.,0.,1.));
#961=DIRECTION('ref_axis',(1.,0.,0.));
#962=DIRECTION('',(0.,0.,-1.));
#963=DIRECTION('center_axis',(0.,0.,1.));
#964=DIRECTION('ref_axis',(1.,0.,0.));
#965=DIRECTION('center_axis',(0.,0.,1.));
#966=DIRECTION('ref_axis',(1.,0.,0.));
#967=CARTESIAN_POINT('',(0.,0.,0.));
#968=CARTESIAN_POINT('Origin',(0.,0.,3.));
#969=CARTESIAN_POINT('',(-44.721360224726,5.,0.));
#970=CARTESIAN_POINT('',(-5.,44.721360224726,0.));
#971=CARTESIAN_POINT('Origin',(0.,0.,0.));
#972=CARTESIAN_POINT('',(-44.721360224726,5.,3.));
#973=CARTESIAN_POINT('',(-44.721360224726,5.,3.));
#974=CARTESIAN_POINT('',(-5.,44.721360224726,3.));
#975=CARTESIAN_POINT('Origin',(0.,0.,3.));
#976=CARTESIAN_POINT('',(-5.,44.721360224726,3.));
#977=CARTESIAN_POINT('Origin',(-5.,47.236109069228,3.));
#978=CARTESIAN_POINT('',(-5.,47.236109069228,0.));
#979=CARTESIAN_POINT('',(-4.99999999999999,23.618054534614,0.));
#980=CARTESIAN_POINT('',(-5.,47.236109069228,3.));
#981=CARTESIAN_POINT('',(-4.99999999999999,23.618054534614,3.));
#982=CARTESIAN_POINT('',(-5.,47.236109069228,3.));
#983=CARTESIAN_POINT('Origin',(0.,0.,3.));
#984=CARTESIAN_POINT('',(-47.236109069228,5.,0.));
#985=CARTESIAN_POINT('Origin',(0.,0.,0.));
#986=CARTESIAN_POINT('',(-47.236109069228,5.,3.));
#987=CARTESIAN_POINT('Origin',(0.,0.,3.));
#988=CARTESIAN_POINT('',(-47.236109069228,5.,3.));
#989=CARTESIAN_POINT('Origin',(-44.721360224726,5.,3.));
#990=CARTESIAN_POINT('',(-22.360680112363,5.,0.));
#991=CARTESIAN_POINT('',(-22.360680112363,5.,3.));
#992=CARTESIAN_POINT('Origin',(0.,0.,3.));
#993=CARTESIAN_POINT('',(5.,44.721360224726,0.));
#994=CARTESIAN_POINT('',(44.721360224726,5.,0.));
#995=CARTESIAN_POINT('Origin',(0.,0.,0.));
#996=CARTESIAN_POINT('',(5.,44.721360224726,3.));
#997=CARTESIAN_POINT('',(5.,44.721360224726,3.));
#998=CARTESIAN_POINT('',(44.721360224726,5.,3.));
#999=CARTESIAN_POINT('Origin',(0.,0.,3.));
#1000=CARTESIAN_POINT('',(44.721360224726,5.,3.));
#1001=CARTESIAN_POINT('Origin',(47.236109069228,5.,3.));
#1002=CARTESIAN_POINT('',(47.236109069228,5.,0.));
#1003=CARTESIAN_POINT('',(23.618054534614,5.,0.));
#1004=CARTESIAN_POINT('',(47.236109069228,5.,3.));
#1005=CARTESIAN_POINT('',(23.618054534614,5.,3.));
#1006=CARTESIAN_POINT('',(47.236109069228,5.,3.));
#1007=CARTESIAN_POINT('Origin',(0.,0.,3.));
#1008=CARTESIAN_POINT('',(5.,47.236109069228,0.));
#1009=CARTESIAN_POINT('Origin',(0.,0.,0.));
#1010=CARTESIAN_POINT('',(5.,47.236109069228,3.));
#1011=CARTESIAN_POINT('Origin',(0.,0.,3.));
#1012=CARTESIAN_POINT('',(5.,47.236109069228,3.));
#1013=CARTESIAN_POINT('Origin',(5.,44.721360224726,3.));
#1014=CARTESIAN_POINT('',(4.99999999999999,22.360680112363,0.));
#1015=CARTESIAN_POINT('',(4.99999999999999,22.360680112363,3.));
#1016=CARTESIAN_POINT('Origin',(0.,0.,3.));
#1017=CARTESIAN_POINT('',(-5.,-44.721360224726,0.));
#1018=CARTESIAN_POINT('',(-44.721360224726,-5.,0.));
#1019=CARTESIAN_POINT('Origin',(0.,0.,0.));
#1020=CARTESIAN_POINT('',(-5.,-44.721360224726,3.));
#1021=CARTESIAN_POINT('',(-5.,-44.721360224726,3.));
#1022=CARTESIAN_POINT('',(-44.721360224726,-5.,3.));
#1023=CARTESIAN_POINT('Origin',(0.,0.,3.));
#1024=CARTESIAN_POINT('',(-44.721360224726,-5.,3.));
#1025=CARTESIAN_POINT('Origin',(-47.236109069228,-5.,3.));
#1026=CARTESIAN_POINT('',(-47.236109069228,-5.,0.));
#1027=CARTESIAN_POINT('',(-23.618054534614,-5.,0.));
#1028=CARTESIAN_POINT('',(-47.236109069228,-5.,3.));
#1029=CARTESIAN_POINT('',(-23.618054534614,-5.,3.));
#1030=CARTESIAN_POINT('',(-47.236109069228,-5.,3.));
#1031=CARTESIAN_POINT('Origin',(0.,0.,3.));
#1032=CARTESIAN_POINT('',(-5.,-47.236109069228,0.));
#1033=CARTESIAN_POINT('Origin',(0.,0.,0.));
#1034=CARTESIAN_POINT('',(-5.,-47.236109069228,3.));
#1035=CARTESIAN_POINT('Origin',(0.,0.,3.));
#1036=CARTESIAN_POINT('',(-5.,-47.236109069228,3.));
#1037=CARTESIAN_POINT('Origin',(-5.,-44.721360224726,3.));
#1038=CARTESIAN_POINT('',(-4.99999999999999,-22.360680112363,0.));
#1039=CARTESIAN_POINT('',(-4.99999999999999,-22.360680112363,3.));
#1040=CARTESIAN_POINT('Origin',(0.,0.,3.));
#1041=CARTESIAN_POINT('',(44.721360224726,-5.,0.));
#1042=CARTESIAN_POINT('',(5.,-44.721360224726,0.));
#1043=CARTESIAN_POINT('Origin',(0.,0.,0.));
#1044=CARTESIAN_POINT('',(44.721360224726,-5.,3.));
#1045=CARTESIAN_POINT('',(44.721360224726,-5.,3.));
#1046=CARTESIAN_POINT('',(5.,-44.721360224726,3.));
#1047=CARTESIAN_POINT('Origin',(0.,0.,3.));
#1048=CARTESIAN_POINT('',(5.,-44.721360224726,3.));
#1049=CARTESIAN_POINT('Origin',(5.,-47.236109069228,3.));
#1050=CARTESIAN_POINT('',(5.,-47.236109069228,0.));
#1051=CARTESIAN_POINT('',(4.99999999999999,-23.618054534614,0.));
#1052=CARTESIAN_POINT('',(5.,-47.236109069228,3.));
#1053=CARTESIAN_POINT('',(4.99999999999999,-23.618054534614,3.));
#1054=CARTESIAN_POINT('',(5.,-47.236109069228,3.));
#1055=CARTESIAN_POINT('Origin',(0.,0.,3.));
#1056=CARTESIAN_POINT('',(47.236109069228,-5.,0.));
#1057=CARTESIAN_POINT('Origin',(0.,0.,0.));
#1058=CARTESIAN_POINT('',(47.236109069228,-5.,3.));
#1059=CARTESIAN_POINT('Origin',(0.,0.,3.));
#1060=CARTESIAN_POINT('',(47.236109069228,-5.,3.));
#1061=CARTESIAN_POINT('Origin',(44.721360224726,-5.,3.));
#1062=CARTESIAN_POINT('',(22.360680112363,-4.99999999999999,0.));
#1063=CARTESIAN_POINT('',(22.360680112363,-4.99999999999999,3.));
#1064=CARTESIAN_POINT('Origin',(0.,0.,3.));
#1065=CARTESIAN_POINT('',(15.,1.83697019872103E-15,3.));
#1066=CARTESIAN_POINT('Origin',(0.,0.,3.));
#1067=CARTESIAN_POINT('',(15.,1.83697019872103E-15,0.));
#1068=CARTESIAN_POINT('',(15.,-1.83697019872103E-15,3.));
#1069=CARTESIAN_POINT('Origin',(0.,0.,0.));
#1070=CARTESIAN_POINT('Origin',(0.,0.,3.));
#1071=CARTESIAN_POINT('',(-52.5,-6.4293956955236E-15,3.));
#1072=CARTESIAN_POINT('Origin',(0.,0.,3.));
#1073=CARTESIAN_POINT('',(1.52500014901161,-32.0000004768372,3.));
#1074=CARTESIAN_POINT('Origin',(1.49011611938477E-7,-32.0000004768372,3.));
#1075=CARTESIAN_POINT('',(-18.475,30.,3.));
#1076=CARTESIAN_POINT('Origin',(-20.,30.,3.));
#1077=CARTESIAN_POINT('',(41.525,-4.76837147544984E-7,3.));
#1078=CARTESIAN_POINT('Origin',(40.,-4.76837149321341E-7,3.));
#1079=CARTESIAN_POINT('',(21.5250002980232,-30.,3.));
#1080=CARTESIAN_POINT('Origin',(20.0000002980232,-30.,3.));
#1081=CARTESIAN_POINT('',(16.825,18.35,3.));
#1082=CARTESIAN_POINT('Origin',(18.35,18.35,3.));
#1083=CARTESIAN_POINT('',(-19.875,18.35,3.));
#1084=CARTESIAN_POINT('Origin',(-18.35,18.35,3.));
#1085=CARTESIAN_POINT('',(-18.4750002980232,-30.,3.));
#1086=CARTESIAN_POINT('Origin',(-20.0000002980232,-30.,3.));
#1087=CARTESIAN_POINT('',(16.825,-18.35,3.));
#1088=CARTESIAN_POINT('Origin',(18.35,-18.35,3.));
#1089=CARTESIAN_POINT('',(1.52500014901161,32.,3.));
#1090=CARTESIAN_POINT('Origin',(1.49011611938477E-7,32.,3.));
#1091=CARTESIAN_POINT('',(-19.875,-18.35,3.));
#1092=CARTESIAN_POINT('Origin',(-18.35,-18.35,3.));
#1093=CARTESIAN_POINT('',(21.525,30.0000004470348,3.));
#1094=CARTESIAN_POINT('Origin',(20.,30.0000004470348,3.));
#1095=CARTESIAN_POINT('',(-38.475,-4.76837156426768E-7,3.));
#1096=CARTESIAN_POINT('Origin',(-40.,-4.76837156426768E-7,3.));
#1097=CARTESIAN_POINT('Origin',(18.35,18.35,0.));
#1098=CARTESIAN_POINT('',(16.825,18.35,0.));
#1099=CARTESIAN_POINT('Origin',(18.35,18.35,0.));
#1100=CARTESIAN_POINT('',(16.825,18.35,0.));
#1101=CARTESIAN_POINT('Origin',(-18.35,18.35,0.));
#1102=CARTESIAN_POINT('',(-19.875,18.35,0.));
#1103=CARTESIAN_POINT('Origin',(-18.35,18.35,0.));
#1104=CARTESIAN_POINT('',(-19.875,18.35,0.));
#1105=CARTESIAN_POINT('Origin',(18.35,-18.35,0.));
#1106=CARTESIAN_POINT('',(16.825,-18.35,0.));
#1107=CARTESIAN_POINT('Origin',(18.35,-18.35,0.));
#1108=CARTESIAN_POINT('',(16.825,-18.35,0.));
#1109=CARTESIAN_POINT('Origin',(-18.35,-18.35,0.));
#1110=CARTESIAN_POINT('',(-19.875,-18.35,0.));
#1111=CARTESIAN_POINT('Origin',(-18.35,-18.35,0.));
#1112=CARTESIAN_POINT('',(-19.875,-18.35,0.));
#1113=CARTESIAN_POINT('Origin',(1.49011611938477E-7,32.,4.));
#1114=CARTESIAN_POINT('',(1.52500014901161,32.,0.));
#1115=CARTESIAN_POINT('',(1.52500014901161,32.,4.));
#1116=CARTESIAN_POINT('Origin',(1.49011611938477E-7,32.,0.));
#1117=CARTESIAN_POINT('Origin',(40.,-4.76837149321341E-7,4.));
#1118=CARTESIAN_POINT('',(41.525,-4.76837149134582E-7,0.));
#1119=CARTESIAN_POINT('',(41.525,-4.768371495081E-7,4.));
#1120=CARTESIAN_POINT('Origin',(40.,-4.76837149321341E-7,0.));
#1121=CARTESIAN_POINT('Origin',(-40.,-4.76837156426768E-7,4.));
#1122=CARTESIAN_POINT('',(-38.475,-4.7683715624001E-7,0.));
#1123=CARTESIAN_POINT('',(-38.475,-4.76837156613527E-7,4.));
#1124=CARTESIAN_POINT('Origin',(-40.,-4.76837156426768E-7,0.));
#1125=CARTESIAN_POINT('Origin',(1.49011611938477E-7,-32.0000004768372,4.));
#1126=CARTESIAN_POINT('',(1.52500014901161,-32.0000004768372,0.));
#1127=CARTESIAN_POINT('',(1.52500014901161,-32.0000004768372,4.));
#1128=CARTESIAN_POINT('Origin',(1.49011611938477E-7,-32.0000004768372,0.));
#1129=CARTESIAN_POINT('Origin',(20.,30.0000004470348,4.));
#1130=CARTESIAN_POINT('',(21.525,30.0000004470348,0.));
#1131=CARTESIAN_POINT('',(21.525,30.0000004470348,4.));
#1132=CARTESIAN_POINT('Origin',(20.,30.0000004470348,0.));
#1133=CARTESIAN_POINT('Origin',(20.0000002980232,-30.,4.));
#1134=CARTESIAN_POINT('',(21.5250002980232,-30.,0.));
#1135=CARTESIAN_POINT('',(21.5250002980232,-30.,4.));
#1136=CARTESIAN_POINT('Origin',(20.0000002980232,-30.,0.));
#1137=CARTESIAN_POINT('Origin',(-20.,30.,4.));
#1138=CARTESIAN_POINT('',(-18.475,30.,0.));
#1139=CARTESIAN_POINT('',(-18.475,30.,4.));
#1140=CARTESIAN_POINT('Origin',(-20.,30.,0.));
#1141=CARTESIAN_POINT('Origin',(-20.0000002980232,-30.,4.));
#1142=CARTESIAN_POINT('',(-18.4750002980232,-30.,0.));
#1143=CARTESIAN_POINT('',(-18.4750002980232,-30.,4.));
#1144=CARTESIAN_POINT('Origin',(-20.0000002980232,-30.,0.));
#1145=CARTESIAN_POINT('Origin',(0.,0.,0.));
#1146=CARTESIAN_POINT('',(-52.5,-6.4293956955236E-15,0.));
#1147=CARTESIAN_POINT('',(-52.5,-6.4293956955236E-15,0.));
#1148=CARTESIAN_POINT('Origin',(0.,0.,0.));
#1149=CARTESIAN_POINT('Origin',(0.,0.,0.));
#1150=UNCERTAINTY_MEASURE_WITH_UNIT(LENGTH_MEASURE(0.01),#1154,
'DISTANCE_ACCURACY_VALUE',
'Maximum model space distance between geometric entities at asserted c
onnectivities');
#1151=UNCERTAINTY_MEASURE_WITH_UNIT(LENGTH_MEASURE(0.01),#1154,
'DISTANCE_ACCURACY_VALUE',
'Maximum model space distance between geometric entities at asserted c
onnectivities');
#1152=(
GEOMETRIC_REPRESENTATION_CONTEXT(3)
GLOBAL_UNCERTAINTY_ASSIGNED_CONTEXT((#1150))
GLOBAL_UNIT_ASSIGNED_CONTEXT((#1154,#1156,#1157))
REPRESENTATION_CONTEXT('','3D')
);
#1153=(
GEOMETRIC_REPRESENTATION_CONTEXT(3)
GLOBAL_UNCERTAINTY_ASSIGNED_CONTEXT((#1151))
GLOBAL_UNIT_ASSIGNED_CONTEXT((#1154,#1156,#1157))
REPRESENTATION_CONTEXT('','3D')
);
#1154=(
LENGTH_UNIT()
NAMED_UNIT(*)
SI_UNIT(.MILLI.,.METRE.)
);
#1155=(
LENGTH_UNIT()
NAMED_UNIT(*)
SI_UNIT($,.METRE.)
);
#1156=(
NAMED_UNIT(*)
PLANE_ANGLE_UNIT()
SI_UNIT($,.RADIAN.)
);
#1157=(
NAMED_UNIT(*)
SI_UNIT($,.STERADIAN.)
SOLID_ANGLE_UNIT()
);
#1158=SHAPE_DEFINITION_REPRESENTATION(#1159,#1160);
#1159=PRODUCT_DEFINITION_SHAPE('',$,#1162);
#1160=SHAPE_REPRESENTATION('',(#690),#1152);
#1161=PRODUCT_DEFINITION_CONTEXT('part definition',#1166,'design');
#1162=PRODUCT_DEFINITION('2026-06-22-13-13-54-487','placa media',#1163,
#1161);
#1163=PRODUCT_DEFINITION_FORMATION('',$,#1168);
#1164=PRODUCT_RELATED_PRODUCT_CATEGORY('placa media','placa media',(#1168));
#1165=APPLICATION_PROTOCOL_DEFINITION('international standard',
'automotive_design',2009,#1166);
#1166=APPLICATION_CONTEXT(
'Core Data for Automotive Mechanical Design Process');
#1167=PRODUCT_CONTEXT('part definition',#1166,'mechanical');
#1168=PRODUCT('2026-06-22-13-13-54-487','placa media',$,(#1167));
#1169=PRESENTATION_STYLE_ASSIGNMENT((#1170));
#1170=SURFACE_STYLE_USAGE(.BOTH.,#1171);
#1171=SURFACE_SIDE_STYLE('',(#1172));
#1172=SURFACE_STYLE_FILL_AREA(#1173);
#1173=FILL_AREA_STYLE('Acero - Satinado',(#1174));
#1174=FILL_AREA_STYLE_COLOUR('Acero - Satinado',#1175);
#1175=COLOUR_RGB('Acero - Satinado',0.627450980392157,0.627450980392157,
0.627450980392157);
ENDSEC;
END-ISO-10303-21;
