ISO-10303-21;
HEADER;
/* Generated by software containing ST-Developer
 * from STEP Tools, Inc. (www.steptools.com) 
 */

FILE_DESCRIPTION(
/* description */ (''),
/* implementation_level */ '2;1');

FILE_NAME(
/* name */ 'soporte motores.step',
/* time_stamp */ '2026-07-13T17:05:50-04:00',
/* author */ (''),
/* organization */ (''),
/* preprocessor_version */ 'ST-DEVELOPER v20.1',
/* originating_system */ 'Autodesk Translation Framework v15.8.0.0',
/* authorisation */ '');

FILE_SCHEMA (('AUTOMOTIVE_DESIGN { 1 0 10303 214 3 1 1 }'));
ENDSEC;

DATA;
#10=MECHANICAL_DESIGN_GEOMETRIC_PRESENTATION_REPRESENTATION('',(#13),#440);
#11=SHAPE_REPRESENTATION_RELATIONSHIP('SRR','None',#447,#12);
#12=ADVANCED_BREP_SHAPE_REPRESENTATION('',(#14),#439);
#13=STYLED_ITEM('',(#456),#14);
#14=MANIFOLD_SOLID_BREP('Cuerpo1',#260);
#15=CYLINDRICAL_SURFACE('',#280,1.5);
#16=CYLINDRICAL_SURFACE('',#283,1.5);
#17=CYLINDRICAL_SURFACE('',#286,3.);
#18=CYLINDRICAL_SURFACE('',#290,1.5);
#19=CYLINDRICAL_SURFACE('',#292,1.5);
#20=FACE_BOUND('',#53,.T.);
#21=FACE_BOUND('',#54,.T.);
#22=FACE_BOUND('',#60,.T.);
#23=FACE_BOUND('',#61,.T.);
#24=FACE_BOUND('',#66,.T.);
#25=FACE_BOUND('',#67,.T.);
#26=FACE_BOUND('',#69,.T.);
#27=FACE_BOUND('',#70,.T.);
#28=CIRCLE('',#276,1.5);
#29=CIRCLE('',#277,1.5);
#30=CIRCLE('',#279,3.);
#31=CIRCLE('',#281,1.5);
#32=CIRCLE('',#282,1.5);
#33=CIRCLE('',#284,1.5);
#34=CIRCLE('',#285,1.5);
#35=CIRCLE('',#287,3.);
#36=CIRCLE('',#291,1.5);
#37=CIRCLE('',#293,1.5);
#38=FACE_OUTER_BOUND('',#51,.T.);
#39=FACE_OUTER_BOUND('',#52,.T.);
#40=FACE_OUTER_BOUND('',#55,.T.);
#41=FACE_OUTER_BOUND('',#56,.T.);
#42=FACE_OUTER_BOUND('',#57,.T.);
#43=FACE_OUTER_BOUND('',#58,.T.);
#44=FACE_OUTER_BOUND('',#59,.T.);
#45=FACE_OUTER_BOUND('',#62,.T.);
#46=FACE_OUTER_BOUND('',#63,.T.);
#47=FACE_OUTER_BOUND('',#64,.T.);
#48=FACE_OUTER_BOUND('',#65,.T.);
#49=FACE_OUTER_BOUND('',#68,.T.);
#50=FACE_OUTER_BOUND('',#71,.T.);
#51=EDGE_LOOP('',(#173,#174,#175,#176));
#52=EDGE_LOOP('',(#177,#178,#179,#180));
#53=EDGE_LOOP('',(#181));
#54=EDGE_LOOP('',(#182));
#55=EDGE_LOOP('',(#183,#184,#185,#186,#187,#188,#189));
#56=EDGE_LOOP('',(#190,#191,#192,#193));
#57=EDGE_LOOP('',(#194,#195,#196,#197));
#58=EDGE_LOOP('',(#198,#199,#200,#201));
#59=EDGE_LOOP('',(#202,#203,#204,#205));
#60=EDGE_LOOP('',(#206));
#61=EDGE_LOOP('',(#207));
#62=EDGE_LOOP('',(#208,#209,#210,#211));
#63=EDGE_LOOP('',(#212,#213,#214,#215));
#64=EDGE_LOOP('',(#216,#217,#218,#219));
#65=EDGE_LOOP('',(#220,#221,#222,#223));
#66=EDGE_LOOP('',(#224));
#67=EDGE_LOOP('',(#225));
#68=EDGE_LOOP('',(#226,#227,#228,#229));
#69=EDGE_LOOP('',(#230));
#70=EDGE_LOOP('',(#231));
#71=EDGE_LOOP('',(#232,#233,#234,#235,#236,#237,#238));
#72=LINE('',#372,#95);
#73=LINE('',#374,#96);
#74=LINE('',#376,#97);
#75=LINE('',#377,#98);
#76=LINE('',#380,#99);
#77=LINE('',#382,#100);
#78=LINE('',#383,#101);
#79=LINE('',#390,#102);
#80=LINE('',#394,#103);
#81=LINE('',#396,#104);
#82=LINE('',#397,#105);
#83=LINE('',#402,#106);
#84=LINE('',#408,#107);
#85=LINE('',#414,#108);
#86=LINE('',#415,#109);
#87=LINE('',#418,#110);
#88=LINE('',#419,#111);
#89=LINE('',#422,#112);
#90=LINE('',#423,#113);
#91=LINE('',#427,#114);
#92=LINE('',#431,#115);
#93=LINE('',#433,#116);
#94=LINE('',#435,#117);
#95=VECTOR('',#301,10.);
#96=VECTOR('',#302,10.);
#97=VECTOR('',#303,10.);
#98=VECTOR('',#304,10.);
#99=VECTOR('',#307,10.);
#100=VECTOR('',#308,10.);
#101=VECTOR('',#309,10.);
#102=VECTOR('',#316,10.);
#103=VECTOR('',#319,10.);
#104=VECTOR('',#320,10.);
#105=VECTOR('',#321,10.);
#106=VECTOR('',#326,1.5);
#107=VECTOR('',#333,1.5);
#108=VECTOR('',#340,10.);
#109=VECTOR('',#341,10.);
#110=VECTOR('',#344,10.);
#111=VECTOR('',#345,10.);
#112=VECTOR('',#348,10.);
#113=VECTOR('',#349,10.);
#114=VECTOR('',#354,1.5);
#115=VECTOR('',#359,1.5);
#116=VECTOR('',#362,10.);
#117=VECTOR('',#365,10.);
#118=VERTEX_POINT('',#370);
#119=VERTEX_POINT('',#371);
#120=VERTEX_POINT('',#373);
#121=VERTEX_POINT('',#375);
#122=VERTEX_POINT('',#379);
#123=VERTEX_POINT('',#381);
#124=VERTEX_POINT('',#384);
#125=VERTEX_POINT('',#386);
#126=VERTEX_POINT('',#389);
#127=VERTEX_POINT('',#391);
#128=VERTEX_POINT('',#393);
#129=VERTEX_POINT('',#395);
#130=VERTEX_POINT('',#399);
#131=VERTEX_POINT('',#401);
#132=VERTEX_POINT('',#405);
#133=VERTEX_POINT('',#407);
#134=VERTEX_POINT('',#411);
#135=VERTEX_POINT('',#412);
#136=VERTEX_POINT('',#417);
#137=VERTEX_POINT('',#421);
#138=VERTEX_POINT('',#425);
#139=VERTEX_POINT('',#429);
#140=EDGE_CURVE('',#118,#119,#72,.T.);
#141=EDGE_CURVE('',#120,#118,#73,.T.);
#142=EDGE_CURVE('',#121,#120,#74,.T.);
#143=EDGE_CURVE('',#119,#121,#75,.T.);
#144=EDGE_CURVE('',#119,#122,#76,.T.);
#145=EDGE_CURVE('',#122,#123,#77,.T.);
#146=EDGE_CURVE('',#118,#123,#78,.T.);
#147=EDGE_CURVE('',#124,#124,#28,.T.);
#148=EDGE_CURVE('',#125,#125,#29,.T.);
#149=EDGE_CURVE('',#126,#121,#79,.T.);
#150=EDGE_CURVE('',#127,#126,#30,.T.);
#151=EDGE_CURVE('',#127,#128,#80,.T.);
#152=EDGE_CURVE('',#129,#128,#81,.T.);
#153=EDGE_CURVE('',#122,#129,#82,.T.);
#154=EDGE_CURVE('',#130,#130,#31,.T.);
#155=EDGE_CURVE('',#130,#131,#83,.T.);
#156=EDGE_CURVE('',#131,#131,#32,.T.);
#157=EDGE_CURVE('',#132,#132,#33,.T.);
#158=EDGE_CURVE('',#132,#133,#84,.T.);
#159=EDGE_CURVE('',#133,#133,#34,.T.);
#160=EDGE_CURVE('',#134,#135,#35,.T.);
#161=EDGE_CURVE('',#135,#127,#85,.T.);
#162=EDGE_CURVE('',#126,#134,#86,.T.);
#163=EDGE_CURVE('',#135,#136,#87,.T.);
#164=EDGE_CURVE('',#128,#136,#88,.T.);
#165=EDGE_CURVE('',#136,#137,#89,.T.);
#166=EDGE_CURVE('',#137,#129,#90,.T.);
#167=EDGE_CURVE('',#138,#138,#36,.T.);
#168=EDGE_CURVE('',#138,#125,#91,.T.);
#169=EDGE_CURVE('',#139,#139,#37,.T.);
#170=EDGE_CURVE('',#139,#124,#92,.T.);
#171=EDGE_CURVE('',#134,#120,#93,.T.);
#172=EDGE_CURVE('',#123,#137,#94,.T.);
#173=ORIENTED_EDGE('',*,*,#140,.F.);
#174=ORIENTED_EDGE('',*,*,#141,.F.);
#175=ORIENTED_EDGE('',*,*,#142,.F.);
#176=ORIENTED_EDGE('',*,*,#143,.F.);
#177=ORIENTED_EDGE('',*,*,#140,.T.);
#178=ORIENTED_EDGE('',*,*,#144,.T.);
#179=ORIENTED_EDGE('',*,*,#145,.T.);
#180=ORIENTED_EDGE('',*,*,#146,.F.);
#181=ORIENTED_EDGE('',*,*,#147,.T.);
#182=ORIENTED_EDGE('',*,*,#148,.T.);
#183=ORIENTED_EDGE('',*,*,#143,.T.);
#184=ORIENTED_EDGE('',*,*,#149,.F.);
#185=ORIENTED_EDGE('',*,*,#150,.F.);
#186=ORIENTED_EDGE('',*,*,#151,.T.);
#187=ORIENTED_EDGE('',*,*,#152,.F.);
#188=ORIENTED_EDGE('',*,*,#153,.F.);
#189=ORIENTED_EDGE('',*,*,#144,.F.);
#190=ORIENTED_EDGE('',*,*,#154,.F.);
#191=ORIENTED_EDGE('',*,*,#155,.T.);
#192=ORIENTED_EDGE('',*,*,#156,.F.);
#193=ORIENTED_EDGE('',*,*,#155,.F.);
#194=ORIENTED_EDGE('',*,*,#157,.F.);
#195=ORIENTED_EDGE('',*,*,#158,.T.);
#196=ORIENTED_EDGE('',*,*,#159,.F.);
#197=ORIENTED_EDGE('',*,*,#158,.F.);
#198=ORIENTED_EDGE('',*,*,#160,.T.);
#199=ORIENTED_EDGE('',*,*,#161,.T.);
#200=ORIENTED_EDGE('',*,*,#150,.T.);
#201=ORIENTED_EDGE('',*,*,#162,.T.);
#202=ORIENTED_EDGE('',*,*,#161,.F.);
#203=ORIENTED_EDGE('',*,*,#163,.T.);
#204=ORIENTED_EDGE('',*,*,#164,.F.);
#205=ORIENTED_EDGE('',*,*,#151,.F.);
#206=ORIENTED_EDGE('',*,*,#154,.T.);
#207=ORIENTED_EDGE('',*,*,#157,.T.);
#208=ORIENTED_EDGE('',*,*,#165,.T.);
#209=ORIENTED_EDGE('',*,*,#166,.T.);
#210=ORIENTED_EDGE('',*,*,#152,.T.);
#211=ORIENTED_EDGE('',*,*,#164,.T.);
#212=ORIENTED_EDGE('',*,*,#167,.F.);
#213=ORIENTED_EDGE('',*,*,#168,.T.);
#214=ORIENTED_EDGE('',*,*,#148,.F.);
#215=ORIENTED_EDGE('',*,*,#168,.F.);
#216=ORIENTED_EDGE('',*,*,#169,.F.);
#217=ORIENTED_EDGE('',*,*,#170,.T.);
#218=ORIENTED_EDGE('',*,*,#147,.F.);
#219=ORIENTED_EDGE('',*,*,#170,.F.);
#220=ORIENTED_EDGE('',*,*,#142,.T.);
#221=ORIENTED_EDGE('',*,*,#171,.F.);
#222=ORIENTED_EDGE('',*,*,#162,.F.);
#223=ORIENTED_EDGE('',*,*,#149,.T.);
#224=ORIENTED_EDGE('',*,*,#167,.T.);
#225=ORIENTED_EDGE('',*,*,#169,.T.);
#226=ORIENTED_EDGE('',*,*,#153,.T.);
#227=ORIENTED_EDGE('',*,*,#166,.F.);
#228=ORIENTED_EDGE('',*,*,#172,.F.);
#229=ORIENTED_EDGE('',*,*,#145,.F.);
#230=ORIENTED_EDGE('',*,*,#156,.T.);
#231=ORIENTED_EDGE('',*,*,#159,.T.);
#232=ORIENTED_EDGE('',*,*,#141,.T.);
#233=ORIENTED_EDGE('',*,*,#146,.T.);
#234=ORIENTED_EDGE('',*,*,#172,.T.);
#235=ORIENTED_EDGE('',*,*,#165,.F.);
#236=ORIENTED_EDGE('',*,*,#163,.F.);
#237=ORIENTED_EDGE('',*,*,#160,.F.);
#238=ORIENTED_EDGE('',*,*,#171,.T.);
#239=PLANE('',#274);
#240=PLANE('',#275);
#241=PLANE('',#278);
#242=PLANE('',#288);
#243=PLANE('',#289);
#244=PLANE('',#294);
#245=PLANE('',#295);
#246=PLANE('',#296);
#247=ADVANCED_FACE('',(#38),#239,.F.);
#248=ADVANCED_FACE('',(#39,#20,#21),#240,.T.);
#249=ADVANCED_FACE('',(#40),#241,.F.);
#250=ADVANCED_FACE('',(#41),#15,.F.);
#251=ADVANCED_FACE('',(#42),#16,.F.);
#252=ADVANCED_FACE('',(#43),#17,.F.);
#253=ADVANCED_FACE('',(#44,#22,#23),#242,.T.);
#254=ADVANCED_FACE('',(#45),#243,.T.);
#255=ADVANCED_FACE('',(#46),#18,.F.);
#256=ADVANCED_FACE('',(#47),#19,.F.);
#257=ADVANCED_FACE('',(#48,#24,#25),#244,.T.);
#258=ADVANCED_FACE('',(#49,#26,#27),#245,.T.);
#259=ADVANCED_FACE('',(#50),#246,.T.);
#260=CLOSED_SHELL('',(#247,#248,#249,#250,#251,#252,#253,#254,#255,#256,
#257,#258,#259));
#261=DERIVED_UNIT_ELEMENT(#263,1.);
#262=DERIVED_UNIT_ELEMENT(#442,-3.);
#263=(
MASS_UNIT()
NAMED_UNIT(*)
SI_UNIT(.KILO.,.GRAM.)
);
#264=DERIVED_UNIT((#261,#262));
#265=MEASURE_REPRESENTATION_ITEM('density measure',
POSITIVE_RATIO_MEASURE(7850.),#264);
#266=PROPERTY_DEFINITION_REPRESENTATION(#271,#268);
#267=PROPERTY_DEFINITION_REPRESENTATION(#272,#269);
#268=REPRESENTATION('material name',(#270),#439);
#269=REPRESENTATION('density',(#265),#439);
#270=DESCRIPTIVE_REPRESENTATION_ITEM('Acero','Acero');
#271=PROPERTY_DEFINITION('material property','material name',#449);
#272=PROPERTY_DEFINITION('material property','density of part',#449);
#273=AXIS2_PLACEMENT_3D('',#368,#297,#298);
#274=AXIS2_PLACEMENT_3D('',#369,#299,#300);
#275=AXIS2_PLACEMENT_3D('',#378,#305,#306);
#276=AXIS2_PLACEMENT_3D('',#385,#310,#311);
#277=AXIS2_PLACEMENT_3D('',#387,#312,#313);
#278=AXIS2_PLACEMENT_3D('',#388,#314,#315);
#279=AXIS2_PLACEMENT_3D('',#392,#317,#318);
#280=AXIS2_PLACEMENT_3D('',#398,#322,#323);
#281=AXIS2_PLACEMENT_3D('',#400,#324,#325);
#282=AXIS2_PLACEMENT_3D('',#403,#327,#328);
#283=AXIS2_PLACEMENT_3D('',#404,#329,#330);
#284=AXIS2_PLACEMENT_3D('',#406,#331,#332);
#285=AXIS2_PLACEMENT_3D('',#409,#334,#335);
#286=AXIS2_PLACEMENT_3D('',#410,#336,#337);
#287=AXIS2_PLACEMENT_3D('',#413,#338,#339);
#288=AXIS2_PLACEMENT_3D('',#416,#342,#343);
#289=AXIS2_PLACEMENT_3D('',#420,#346,#347);
#290=AXIS2_PLACEMENT_3D('',#424,#350,#351);
#291=AXIS2_PLACEMENT_3D('',#426,#352,#353);
#292=AXIS2_PLACEMENT_3D('',#428,#355,#356);
#293=AXIS2_PLACEMENT_3D('',#430,#357,#358);
#294=AXIS2_PLACEMENT_3D('',#432,#360,#361);
#295=AXIS2_PLACEMENT_3D('',#434,#363,#364);
#296=AXIS2_PLACEMENT_3D('',#436,#366,#367);
#297=DIRECTION('axis',(0.,0.,1.));
#298=DIRECTION('refdir',(1.,0.,0.));
#299=DIRECTION('center_axis',(0.,-1.,0.));
#300=DIRECTION('ref_axis',(0.,0.,1.));
#301=DIRECTION('',(0.,0.,-1.));
#302=DIRECTION('',(-1.,0.,0.));
#303=DIRECTION('',(0.,0.,1.));
#304=DIRECTION('',(1.,0.,0.));
#305=DIRECTION('center_axis',(-1.,0.,0.));
#306=DIRECTION('ref_axis',(0.,-1.,0.));
#307=DIRECTION('',(0.,-1.,0.));
#308=DIRECTION('',(0.,0.,1.));
#309=DIRECTION('',(0.,-1.,0.));
#310=DIRECTION('center_axis',(1.,0.,0.));
#311=DIRECTION('ref_axis',(0.,1.,0.));
#312=DIRECTION('center_axis',(1.,0.,0.));
#313=DIRECTION('ref_axis',(0.,1.,0.));
#314=DIRECTION('center_axis',(0.,0.,1.));
#315=DIRECTION('ref_axis',(1.,0.,0.));
#316=DIRECTION('',(0.,1.,0.));
#317=DIRECTION('center_axis',(0.,0.,-1.));
#318=DIRECTION('ref_axis',(-0.707106781186548,-0.707106781186548,0.));
#319=DIRECTION('',(1.,0.,0.));
#320=DIRECTION('',(0.,1.,0.));
#321=DIRECTION('',(1.,0.,0.));
#322=DIRECTION('center_axis',(0.,-1.,0.));
#323=DIRECTION('ref_axis',(0.,0.,1.));
#324=DIRECTION('center_axis',(0.,-1.,0.));
#325=DIRECTION('ref_axis',(0.,0.,1.));
#326=DIRECTION('',(0.,-1.,0.));
#327=DIRECTION('center_axis',(0.,1.,0.));
#328=DIRECTION('ref_axis',(0.,0.,1.));
#329=DIRECTION('center_axis',(0.,-1.,0.));
#330=DIRECTION('ref_axis',(0.,0.,1.));
#331=DIRECTION('center_axis',(0.,-1.,0.));
#332=DIRECTION('ref_axis',(0.,0.,1.));
#333=DIRECTION('',(0.,-1.,0.));
#334=DIRECTION('center_axis',(0.,1.,0.));
#335=DIRECTION('ref_axis',(0.,0.,1.));
#336=DIRECTION('center_axis',(0.,0.,-1.));
#337=DIRECTION('ref_axis',(-0.707106781186548,-0.707106781186548,0.));
#338=DIRECTION('center_axis',(0.,0.,1.));
#339=DIRECTION('ref_axis',(-0.707106781186548,-0.707106781186548,0.));
#340=DIRECTION('',(0.,0.,-1.));
#341=DIRECTION('',(0.,0.,1.));
#342=DIRECTION('center_axis',(0.,1.,0.));
#343=DIRECTION('ref_axis',(0.,0.,1.));
#344=DIRECTION('',(1.,0.,0.));
#345=DIRECTION('',(0.,0.,1.));
#346=DIRECTION('center_axis',(1.,0.,0.));
#347=DIRECTION('ref_axis',(0.,0.,-1.));
#348=DIRECTION('',(0.,-1.,0.));
#349=DIRECTION('',(0.,0.,-1.));
#350=DIRECTION('center_axis',(-1.,0.,0.));
#351=DIRECTION('ref_axis',(0.,1.,0.));
#352=DIRECTION('center_axis',(-1.,0.,0.));
#353=DIRECTION('ref_axis',(0.,1.,0.));
#354=DIRECTION('',(-1.,0.,0.));
#355=DIRECTION('center_axis',(-1.,0.,0.));
#356=DIRECTION('ref_axis',(0.,1.,0.));
#357=DIRECTION('center_axis',(-1.,0.,0.));
#358=DIRECTION('ref_axis',(0.,1.,0.));
#359=DIRECTION('',(-1.,0.,0.));
#360=DIRECTION('center_axis',(1.,0.,0.));
#361=DIRECTION('ref_axis',(0.,1.,0.));
#362=DIRECTION('',(0.,1.,0.));
#363=DIRECTION('center_axis',(0.,-1.,0.));
#364=DIRECTION('ref_axis',(1.,0.,0.));
#365=DIRECTION('',(1.,0.,0.));
#366=DIRECTION('center_axis',(0.,0.,1.));
#367=DIRECTION('ref_axis',(1.,0.,0.));
#368=CARTESIAN_POINT('',(0.,0.,0.));
#369=CARTESIAN_POINT('Origin',(3.,17.4,0.));
#370=CARTESIAN_POINT('',(0.,17.4,30.));
#371=CARTESIAN_POINT('',(0.,17.4,0.));
#372=CARTESIAN_POINT('',(0.,17.4,0.));
#373=CARTESIAN_POINT('',(3.,17.4,30.));
#374=CARTESIAN_POINT('',(2.25,17.4,30.));
#375=CARTESIAN_POINT('',(3.,17.4,0.));
#376=CARTESIAN_POINT('',(3.,17.4,0.));
#377=CARTESIAN_POINT('',(2.25,17.4,0.));
#378=CARTESIAN_POINT('Origin',(0.,22.4,0.));
#379=CARTESIAN_POINT('',(0.,0.,0.));
#380=CARTESIAN_POINT('',(0.,22.4,0.));
#381=CARTESIAN_POINT('',(0.,0.,30.));
#382=CARTESIAN_POINT('',(0.,0.,0.));
#383=CARTESIAN_POINT('',(0.,22.4,30.));
#384=CARTESIAN_POINT('',(0.,9.49999975413084,6.24999986030161));
#385=CARTESIAN_POINT('Origin',(0.,10.9999997541308,6.24999986030161));
#386=CARTESIAN_POINT('',(0.,9.49999975413084,23.7499994691461));
#387=CARTESIAN_POINT('Origin',(0.,10.9999997541308,23.7499994691461));
#388=CARTESIAN_POINT('Origin',(1.5,11.2,0.));
#389=CARTESIAN_POINT('',(3.,6.,0.));
#390=CARTESIAN_POINT('',(3.,0.,0.));
#391=CARTESIAN_POINT('',(6.,3.,0.));
#392=CARTESIAN_POINT('Origin',(6.,6.,0.));
#393=CARTESIAN_POINT('',(18.,3.,0.));
#394=CARTESIAN_POINT('',(3.,3.,0.));
#395=CARTESIAN_POINT('',(18.,0.,0.));
#396=CARTESIAN_POINT('',(18.,0.,0.));
#397=CARTESIAN_POINT('',(0.,0.,0.));
#398=CARTESIAN_POINT('Origin',(12.,-2.,22.0000003278255));
#399=CARTESIAN_POINT('',(12.,3.,20.5000003278255));
#400=CARTESIAN_POINT('Origin',(12.,3.,22.0000003278255));
#401=CARTESIAN_POINT('',(12.,0.,20.5000003278255));
#402=CARTESIAN_POINT('',(12.,-2.,20.5000003278255));
#403=CARTESIAN_POINT('Origin',(12.,0.,22.0000003278255));
#404=CARTESIAN_POINT('Origin',(12.,-2.,8.00000011920929));
#405=CARTESIAN_POINT('',(12.,3.,6.50000011920929));
#406=CARTESIAN_POINT('Origin',(12.,3.,8.00000011920929));
#407=CARTESIAN_POINT('',(12.,0.,6.50000011920929));
#408=CARTESIAN_POINT('',(12.,-2.,6.50000011920929));
#409=CARTESIAN_POINT('Origin',(12.,0.,8.00000011920929));
#410=CARTESIAN_POINT('Origin',(6.,6.,0.));
#411=CARTESIAN_POINT('',(3.,6.,30.));
#412=CARTESIAN_POINT('',(6.,3.,30.));
#413=CARTESIAN_POINT('Origin',(6.,6.,30.));
#414=CARTESIAN_POINT('',(6.,3.,0.));
#415=CARTESIAN_POINT('',(3.,6.,0.));
#416=CARTESIAN_POINT('Origin',(3.,3.,0.));
#417=CARTESIAN_POINT('',(18.,3.,30.));
#418=CARTESIAN_POINT('',(3.,3.,30.));
#419=CARTESIAN_POINT('',(18.,3.,0.));
#420=CARTESIAN_POINT('Origin',(18.,1.5,15.));
#421=CARTESIAN_POINT('',(18.,0.,30.));
#422=CARTESIAN_POINT('',(18.,3.,30.));
#423=CARTESIAN_POINT('',(18.,0.,30.));
#424=CARTESIAN_POINT('Origin',(-2.,10.9999997541308,23.7499994691461));
#425=CARTESIAN_POINT('',(3.,9.49999975413084,23.7499994691461));
#426=CARTESIAN_POINT('Origin',(3.,10.9999997541308,23.7499994691461));
#427=CARTESIAN_POINT('',(-2.,9.49999975413084,23.7499994691461));
#428=CARTESIAN_POINT('Origin',(-2.,10.9999997541308,6.24999986030161));
#429=CARTESIAN_POINT('',(3.,9.49999975413084,6.24999986030161));
#430=CARTESIAN_POINT('Origin',(3.,10.9999997541308,6.24999986030161));
#431=CARTESIAN_POINT('',(-2.,9.49999975413084,6.24999986030161));
#432=CARTESIAN_POINT('Origin',(3.,0.,0.));
#433=CARTESIAN_POINT('',(3.,0.,30.));
#434=CARTESIAN_POINT('Origin',(0.,0.,0.));
#435=CARTESIAN_POINT('',(0.,0.,30.));
#436=CARTESIAN_POINT('Origin',(1.5,11.2,30.));
#437=UNCERTAINTY_MEASURE_WITH_UNIT(LENGTH_MEASURE(0.01),#441,
'DISTANCE_ACCURACY_VALUE',
'Maximum model space distance between geometric entities at asserted c
onnectivities');
#438=UNCERTAINTY_MEASURE_WITH_UNIT(LENGTH_MEASURE(0.01),#441,
'DISTANCE_ACCURACY_VALUE',
'Maximum model space distance between geometric entities at asserted c
onnectivities');
#439=(
GEOMETRIC_REPRESENTATION_CONTEXT(3)
GLOBAL_UNCERTAINTY_ASSIGNED_CONTEXT((#437))
GLOBAL_UNIT_ASSIGNED_CONTEXT((#441,#443,#444))
REPRESENTATION_CONTEXT('','3D')
);
#440=(
GEOMETRIC_REPRESENTATION_CONTEXT(3)
GLOBAL_UNCERTAINTY_ASSIGNED_CONTEXT((#438))
GLOBAL_UNIT_ASSIGNED_CONTEXT((#441,#443,#444))
REPRESENTATION_CONTEXT('','3D')
);
#441=(
LENGTH_UNIT()
NAMED_UNIT(*)
SI_UNIT(.MILLI.,.METRE.)
);
#442=(
LENGTH_UNIT()
NAMED_UNIT(*)
SI_UNIT($,.METRE.)
);
#443=(
NAMED_UNIT(*)
PLANE_ANGLE_UNIT()
SI_UNIT($,.RADIAN.)
);
#444=(
NAMED_UNIT(*)
SI_UNIT($,.STERADIAN.)
SOLID_ANGLE_UNIT()
);
#445=SHAPE_DEFINITION_REPRESENTATION(#446,#447);
#446=PRODUCT_DEFINITION_SHAPE('',$,#449);
#447=SHAPE_REPRESENTATION('',(#273),#439);
#448=PRODUCT_DEFINITION_CONTEXT('part definition',#453,'design');
#449=PRODUCT_DEFINITION('2026-06-22-17-12-05-957','soporte motores',#450,
#448);
#450=PRODUCT_DEFINITION_FORMATION('',$,#455);
#451=PRODUCT_RELATED_PRODUCT_CATEGORY('soporte motores',
'soporte motores',(#455));
#452=APPLICATION_PROTOCOL_DEFINITION('international standard',
'automotive_design',2009,#453);
#453=APPLICATION_CONTEXT(
'Core Data for Automotive Mechanical Design Process');
#454=PRODUCT_CONTEXT('part definition',#453,'mechanical');
#455=PRODUCT('2026-06-22-17-12-05-957','soporte motores',$,(#454));
#456=PRESENTATION_STYLE_ASSIGNMENT((#457));
#457=SURFACE_STYLE_USAGE(.BOTH.,#458);
#458=SURFACE_SIDE_STYLE('',(#459));
#459=SURFACE_STYLE_FILL_AREA(#460);
#460=FILL_AREA_STYLE('Acero - Satinado',(#461));
#461=FILL_AREA_STYLE_COLOUR('Acero - Satinado',#462);
#462=COLOUR_RGB('Acero - Satinado',0.627450980392157,0.627450980392157,
0.627450980392157);
ENDSEC;
END-ISO-10303-21;
