ISO-10303-21;
HEADER;
/* Generated by software containing ST-Developer
 * from STEP Tools, Inc. (www.steptools.com) 
 */

FILE_DESCRIPTION(
/* description */ (''),
/* implementation_level */ '2;1');

FILE_NAME(
/* name */ 'soporte sensor.step',
/* time_stamp */ '2026-07-13T17:06:18-04:00',
/* author */ (''),
/* organization */ (''),
/* preprocessor_version */ 'ST-DEVELOPER v20.1',
/* originating_system */ 'Autodesk Translation Framework v15.8.0.0',
/* authorisation */ '');

FILE_SCHEMA (('AUTOMOTIVE_DESIGN { 1 0 10303 214 3 1 1 }'));
ENDSEC;

DATA;
#10=MECHANICAL_DESIGN_GEOMETRIC_PRESENTATION_REPRESENTATION('',(#13),#1795);
#11=SHAPE_REPRESENTATION_RELATIONSHIP('SRR','None',#1802,#12);
#12=ADVANCED_BREP_SHAPE_REPRESENTATION('',(#14),#1794);
#13=STYLED_ITEM('',(#1811),#14);
#14=MANIFOLD_SOLID_BREP('Cuerpo1',#1067);
#15=ELLIPSE('',#1156,1.4142135623731,1.);
#16=ELLIPSE('',#1161,1.41421356237309,1.);
#17=FACE_BOUND('',#122,.T.);
#18=FACE_BOUND('',#123,.T.);
#19=FACE_BOUND('',#130,.T.);
#20=FACE_BOUND('',#136,.T.);
#21=FACE_BOUND('',#137,.T.);
#22=FACE_BOUND('',#146,.T.);
#23=FACE_BOUND('',#147,.T.);
#24=FACE_BOUND('',#148,.T.);
#25=FACE_BOUND('',#160,.T.);
#26=FACE_BOUND('',#161,.T.);
#27=FACE_BOUND('',#169,.T.);
#28=FACE_BOUND('',#172,.T.);
#29=FACE_BOUND('',#174,.T.);
#30=PLANE('',#1090);
#31=PLANE('',#1095);
#32=PLANE('',#1099);
#33=PLANE('',#1103);
#34=PLANE('',#1109);
#35=PLANE('',#1113);
#36=PLANE('',#1117);
#37=PLANE('',#1122);
#38=PLANE('',#1128);
#39=PLANE('',#1135);
#40=PLANE('',#1137);
#41=PLANE('',#1139);
#42=PLANE('',#1140);
#43=PLANE('',#1147);
#44=PLANE('',#1148);
#45=PLANE('',#1158);
#46=PLANE('',#1159);
#47=PLANE('',#1164);
#48=PLANE('',#1165);
#49=PLANE('',#1166);
#50=PLANE('',#1169);
#51=PLANE('',#1170);
#52=PLANE('',#1173);
#53=PLANE('',#1174);
#54=PLANE('',#1175);
#55=PLANE('',#1176);
#56=PLANE('',#1177);
#57=PLANE('',#1178);
#58=PLANE('',#1179);
#59=FACE_OUTER_BOUND('',#112,.T.);
#60=FACE_OUTER_BOUND('',#113,.T.);
#61=FACE_OUTER_BOUND('',#114,.T.);
#62=FACE_OUTER_BOUND('',#115,.T.);
#63=FACE_OUTER_BOUND('',#116,.T.);
#64=FACE_OUTER_BOUND('',#117,.T.);
#65=FACE_OUTER_BOUND('',#118,.T.);
#66=FACE_OUTER_BOUND('',#119,.T.);
#67=FACE_OUTER_BOUND('',#120,.T.);
#68=FACE_OUTER_BOUND('',#121,.T.);
#69=FACE_OUTER_BOUND('',#124,.T.);
#70=FACE_OUTER_BOUND('',#125,.T.);
#71=FACE_OUTER_BOUND('',#126,.T.);
#72=FACE_OUTER_BOUND('',#127,.T.);
#73=FACE_OUTER_BOUND('',#128,.T.);
#74=FACE_OUTER_BOUND('',#129,.T.);
#75=FACE_OUTER_BOUND('',#131,.T.);
#76=FACE_OUTER_BOUND('',#132,.T.);
#77=FACE_OUTER_BOUND('',#133,.T.);
#78=FACE_OUTER_BOUND('',#134,.T.);
#79=FACE_OUTER_BOUND('',#135,.T.);
#80=FACE_OUTER_BOUND('',#138,.T.);
#81=FACE_OUTER_BOUND('',#139,.T.);
#82=FACE_OUTER_BOUND('',#140,.T.);
#83=FACE_OUTER_BOUND('',#141,.T.);
#84=FACE_OUTER_BOUND('',#142,.T.);
#85=FACE_OUTER_BOUND('',#143,.T.);
#86=FACE_OUTER_BOUND('',#144,.T.);
#87=FACE_OUTER_BOUND('',#145,.T.);
#88=FACE_OUTER_BOUND('',#149,.T.);
#89=FACE_OUTER_BOUND('',#150,.T.);
#90=FACE_OUTER_BOUND('',#151,.T.);
#91=FACE_OUTER_BOUND('',#152,.T.);
#92=FACE_OUTER_BOUND('',#153,.T.);
#93=FACE_OUTER_BOUND('',#154,.T.);
#94=FACE_OUTER_BOUND('',#155,.T.);
#95=FACE_OUTER_BOUND('',#156,.T.);
#96=FACE_OUTER_BOUND('',#157,.T.);
#97=FACE_OUTER_BOUND('',#158,.T.);
#98=FACE_OUTER_BOUND('',#159,.T.);
#99=FACE_OUTER_BOUND('',#162,.T.);
#100=FACE_OUTER_BOUND('',#163,.T.);
#101=FACE_OUTER_BOUND('',#164,.T.);
#102=FACE_OUTER_BOUND('',#165,.T.);
#103=FACE_OUTER_BOUND('',#166,.T.);
#104=FACE_OUTER_BOUND('',#167,.T.);
#105=FACE_OUTER_BOUND('',#168,.T.);
#106=FACE_OUTER_BOUND('',#170,.T.);
#107=FACE_OUTER_BOUND('',#171,.T.);
#108=FACE_OUTER_BOUND('',#173,.T.);
#109=FACE_OUTER_BOUND('',#175,.T.);
#110=FACE_OUTER_BOUND('',#176,.T.);
#111=FACE_OUTER_BOUND('',#177,.T.);
#112=EDGE_LOOP('',(#686,#687,#688,#689));
#113=EDGE_LOOP('',(#690,#691,#692,#693));
#114=EDGE_LOOP('',(#694,#695,#696,#697));
#115=EDGE_LOOP('',(#698,#699,#700,#701,#702,#703));
#116=EDGE_LOOP('',(#704,#705,#706,#707));
#117=EDGE_LOOP('',(#708,#709,#710,#711));
#118=EDGE_LOOP('',(#712,#713,#714,#715));
#119=EDGE_LOOP('',(#716,#717,#718,#719));
#120=EDGE_LOOP('',(#720,#721,#722,#723));
#121=EDGE_LOOP('',(#724,#725,#726,#727));
#122=EDGE_LOOP('',(#728));
#123=EDGE_LOOP('',(#729));
#124=EDGE_LOOP('',(#730,#731,#732,#733));
#125=EDGE_LOOP('',(#734,#735,#736,#737,#738,#739,#740,#741,#742,#743,#744,
#745,#746,#747,#748));
#126=EDGE_LOOP('',(#749,#750,#751,#752));
#127=EDGE_LOOP('',(#753,#754,#755,#756));
#128=EDGE_LOOP('',(#757,#758,#759,#760));
#129=EDGE_LOOP('',(#761,#762,#763,#764));
#130=EDGE_LOOP('',(#765));
#131=EDGE_LOOP('',(#766,#767,#768,#769));
#132=EDGE_LOOP('',(#770,#771,#772,#773));
#133=EDGE_LOOP('',(#774,#775,#776,#777));
#134=EDGE_LOOP('',(#778,#779,#780,#781));
#135=EDGE_LOOP('',(#782,#783,#784,#785,#786,#787,#788,#789,#790,#791,#792,
#793,#794,#795,#796,#797,#798,#799,#800,#801,#802,#803,#804));
#136=EDGE_LOOP('',(#805));
#137=EDGE_LOOP('',(#806));
#138=EDGE_LOOP('',(#807,#808,#809,#810,#811,#812,#813,#814,#815,#816,#817));
#139=EDGE_LOOP('',(#818,#819,#820,#821,#822,#823,#824,#825,#826,#827));
#140=EDGE_LOOP('',(#828,#829,#830,#831));
#141=EDGE_LOOP('',(#832,#833,#834,#835));
#142=EDGE_LOOP('',(#836,#837,#838,#839));
#143=EDGE_LOOP('',(#840,#841,#842,#843));
#144=EDGE_LOOP('',(#844,#845,#846,#847));
#145=EDGE_LOOP('',(#848,#849,#850,#851,#852,#853,#854,#855,#856,#857));
#146=EDGE_LOOP('',(#858));
#147=EDGE_LOOP('',(#859));
#148=EDGE_LOOP('',(#860,#861,#862,#863,#864,#865,#866,#867,#868,#869,#870,
#871,#872));
#149=EDGE_LOOP('',(#873,#874,#875,#876));
#150=EDGE_LOOP('',(#877,#878,#879,#880));
#151=EDGE_LOOP('',(#881,#882,#883,#884));
#152=EDGE_LOOP('',(#885,#886,#887,#888));
#153=EDGE_LOOP('',(#889,#890,#891,#892));
#154=EDGE_LOOP('',(#893,#894,#895,#896));
#155=EDGE_LOOP('',(#897,#898,#899,#900));
#156=EDGE_LOOP('',(#901,#902,#903,#904));
#157=EDGE_LOOP('',(#905,#906,#907,#908));
#158=EDGE_LOOP('',(#909,#910,#911,#912));
#159=EDGE_LOOP('',(#913,#914,#915,#916,#917,#918,#919,#920,#921,#922,#923,
#924,#925,#926,#927,#928,#929,#930));
#160=EDGE_LOOP('',(#931));
#161=EDGE_LOOP('',(#932));
#162=EDGE_LOOP('',(#933,#934,#935,#936));
#163=EDGE_LOOP('',(#937,#938,#939,#940));
#164=EDGE_LOOP('',(#941,#942,#943,#944));
#165=EDGE_LOOP('',(#945,#946,#947,#948,#949,#950));
#166=EDGE_LOOP('',(#951,#952,#953,#954));
#167=EDGE_LOOP('',(#955,#956,#957,#958));
#168=EDGE_LOOP('',(#959,#960,#961,#962));
#169=EDGE_LOOP('',(#963));
#170=EDGE_LOOP('',(#964,#965,#966,#967));
#171=EDGE_LOOP('',(#968,#969,#970,#971));
#172=EDGE_LOOP('',(#972));
#173=EDGE_LOOP('',(#973,#974,#975,#976));
#174=EDGE_LOOP('',(#977));
#175=EDGE_LOOP('',(#978,#979,#980,#981));
#176=EDGE_LOOP('',(#982,#983,#984,#985));
#177=EDGE_LOOP('',(#986,#987,#988,#989));
#178=LINE('',#1491,#284);
#179=LINE('',#1497,#285);
#180=LINE('',#1504,#286);
#181=LINE('',#1507,#287);
#182=LINE('',#1512,#288);
#183=LINE('',#1514,#289);
#184=LINE('',#1516,#290);
#185=LINE('',#1517,#291);
#186=LINE('',#1523,#292);
#187=LINE('',#1526,#293);
#188=LINE('',#1528,#294);
#189=LINE('',#1529,#295);
#190=LINE('',#1534,#296);
#191=LINE('',#1538,#297);
#192=LINE('',#1540,#298);
#193=LINE('',#1541,#299);
#194=LINE('',#1547,#300);
#195=LINE('',#1550,#301);
#196=LINE('',#1553,#302);
#197=LINE('',#1555,#303);
#198=LINE('',#1556,#304);
#199=LINE('',#1566,#305);
#200=LINE('',#1569,#306);
#201=LINE('',#1572,#307);
#202=LINE('',#1574,#308);
#203=LINE('',#1576,#309);
#204=LINE('',#1578,#310);
#205=LINE('',#1580,#311);
#206=LINE('',#1582,#312);
#207=LINE('',#1584,#313);
#208=LINE('',#1585,#314);
#209=LINE('',#1589,#315);
#210=LINE('',#1595,#316);
#211=LINE('',#1598,#317);
#212=LINE('',#1601,#318);
#213=LINE('',#1603,#319);
#214=LINE('',#1604,#320);
#215=LINE('',#1612,#321);
#216=LINE('',#1615,#322);
#217=LINE('',#1618,#323);
#218=LINE('',#1620,#324);
#219=LINE('',#1621,#325);
#220=LINE('',#1626,#326);
#221=LINE('',#1630,#327);
#222=LINE('',#1634,#328);
#223=LINE('',#1638,#329);
#224=LINE('',#1641,#330);
#225=LINE('',#1643,#331);
#226=LINE('',#1645,#332);
#227=LINE('',#1647,#333);
#228=LINE('',#1649,#334);
#229=LINE('',#1652,#335);
#230=LINE('',#1654,#336);
#231=LINE('',#1658,#337);
#232=LINE('',#1660,#338);
#233=LINE('',#1662,#339);
#234=LINE('',#1664,#340);
#235=LINE('',#1665,#341);
#236=LINE('',#1672,#342);
#237=LINE('',#1674,#343);
#238=LINE('',#1676,#344);
#239=LINE('',#1678,#345);
#240=LINE('',#1680,#346);
#241=LINE('',#1682,#347);
#242=LINE('',#1684,#348);
#243=LINE('',#1686,#349);
#244=LINE('',#1692,#350);
#245=LINE('',#1694,#351);
#246=LINE('',#1696,#352);
#247=LINE('',#1698,#353);
#248=LINE('',#1700,#354);
#249=LINE('',#1702,#355);
#250=LINE('',#1703,#356);
#251=LINE('',#1705,#357);
#252=LINE('',#1707,#358);
#253=LINE('',#1712,#359);
#254=LINE('',#1718,#360);
#255=LINE('',#1722,#361);
#256=LINE('',#1724,#362);
#257=LINE('',#1725,#363);
#258=LINE('',#1727,#364);
#259=LINE('',#1728,#365);
#260=LINE('',#1733,#366);
#261=LINE('',#1734,#367);
#262=LINE('',#1737,#368);
#263=LINE('',#1743,#369);
#264=LINE('',#1745,#370);
#265=LINE('',#1748,#371);
#266=LINE('',#1749,#372);
#267=LINE('',#1751,#373);
#268=LINE('',#1755,#374);
#269=LINE('',#1757,#375);
#270=LINE('',#1760,#376);
#271=LINE('',#1763,#377);
#272=LINE('',#1765,#378);
#273=LINE('',#1767,#379);
#274=LINE('',#1769,#380);
#275=LINE('',#1770,#381);
#276=LINE('',#1772,#382);
#277=LINE('',#1774,#383);
#278=LINE('',#1776,#384);
#279=LINE('',#1781,#385);
#280=LINE('',#1783,#386);
#281=LINE('',#1784,#387);
#282=LINE('',#1787,#388);
#283=LINE('',#1788,#389);
#284=VECTOR('',#1186,2.25);
#285=VECTOR('',#1193,2.25);
#286=VECTOR('',#1200,10.);
#287=VECTOR('',#1203,10.);
#288=VECTOR('',#1208,10.);
#289=VECTOR('',#1209,10.);
#290=VECTOR('',#1210,10.);
#291=VECTOR('',#1211,10.);
#292=VECTOR('',#1216,10.);
#293=VECTOR('',#1219,10.);
#294=VECTOR('',#1222,10.);
#295=VECTOR('',#1223,10.);
#296=VECTOR('',#1228,10.);
#297=VECTOR('',#1233,10.);
#298=VECTOR('',#1234,10.);
#299=VECTOR('',#1235,10.);
#300=VECTOR('',#1240,10.);
#301=VECTOR('',#1243,10.);
#302=VECTOR('',#1246,10.);
#303=VECTOR('',#1247,10.);
#304=VECTOR('',#1248,10.);
#305=VECTOR('',#1257,10.);
#306=VECTOR('',#1260,10.);
#307=VECTOR('',#1265,10.);
#308=VECTOR('',#1266,10.);
#309=VECTOR('',#1267,10.);
#310=VECTOR('',#1268,10.);
#311=VECTOR('',#1269,10.);
#312=VECTOR('',#1270,10.);
#313=VECTOR('',#1271,10.);
#314=VECTOR('',#1272,10.);
#315=VECTOR('',#1279,10.);
#316=VECTOR('',#1284,10.);
#317=VECTOR('',#1287,10.);
#318=VECTOR('',#1290,10.);
#319=VECTOR('',#1291,10.);
#320=VECTOR('',#1292,10.);
#321=VECTOR('',#1299,10.);
#322=VECTOR('',#1302,10.);
#323=VECTOR('',#1305,10.);
#324=VECTOR('',#1306,10.);
#325=VECTOR('',#1307,10.);
#326=VECTOR('',#1312,1.525);
#327=VECTOR('',#1317,1.525);
#328=VECTOR('',#1322,10.);
#329=VECTOR('',#1325,10.);
#330=VECTOR('',#1328,10.);
#331=VECTOR('',#1329,10.);
#332=VECTOR('',#1330,10.);
#333=VECTOR('',#1331,10.);
#334=VECTOR('',#1332,10.);
#335=VECTOR('',#1335,10.);
#336=VECTOR('',#1336,10.);
#337=VECTOR('',#1339,10.);
#338=VECTOR('',#1340,10.);
#339=VECTOR('',#1341,10.);
#340=VECTOR('',#1342,10.);
#341=VECTOR('',#1343,10.);
#342=VECTOR('',#1350,10.);
#343=VECTOR('',#1351,10.);
#344=VECTOR('',#1352,10.);
#345=VECTOR('',#1353,10.);
#346=VECTOR('',#1354,10.);
#347=VECTOR('',#1355,10.);
#348=VECTOR('',#1356,10.);
#349=VECTOR('',#1357,10.);
#350=VECTOR('',#1364,10.);
#351=VECTOR('',#1365,2.);
#352=VECTOR('',#1366,10.);
#353=VECTOR('',#1367,10.);
#354=VECTOR('',#1368,10.);
#355=VECTOR('',#1369,10.);
#356=VECTOR('',#1370,10.);
#357=VECTOR('',#1373,10.);
#358=VECTOR('',#1376,10.);
#359=VECTOR('',#1381,2.);
#360=VECTOR('',#1388,10.);
#361=VECTOR('',#1393,10.);
#362=VECTOR('',#1394,2.);
#363=VECTOR('',#1395,10.);
#364=VECTOR('',#1398,10.);
#365=VECTOR('',#1399,10.);
#366=VECTOR('',#1404,10.);
#367=VECTOR('',#1405,10.);
#368=VECTOR('',#1408,2.);
#369=VECTOR('',#1417,10.);
#370=VECTOR('',#1418,10.);
#371=VECTOR('',#1423,10.);
#372=VECTOR('',#1424,10.);
#373=VECTOR('',#1427,10.);
#374=VECTOR('',#1432,10.);
#375=VECTOR('',#1433,10.);
#376=VECTOR('',#1438,10.);
#377=VECTOR('',#1441,10.);
#378=VECTOR('',#1444,10.);
#379=VECTOR('',#1447,10.);
#380=VECTOR('',#1450,10.);
#381=VECTOR('',#1451,10.);
#382=VECTOR('',#1454,1.75);
#383=VECTOR('',#1457,1.75);
#384=VECTOR('',#1460,10.);
#385=VECTOR('',#1469,10.);
#386=VECTOR('',#1472,10.);
#387=VECTOR('',#1473,10.);
#388=VECTOR('',#1478,10.);
#389=VECTOR('',#1479,10.);
#390=CIRCLE('',#1082,2.25);
#391=CIRCLE('',#1083,2.25);
#392=CIRCLE('',#1085,2.25);
#393=CIRCLE('',#1086,2.25);
#394=CIRCLE('',#1088,2.);
#395=CIRCLE('',#1089,2.);
#396=CIRCLE('',#1091,1.);
#397=CIRCLE('',#1093,2.);
#398=CIRCLE('',#1094,2.);
#399=CIRCLE('',#1097,1.);
#400=CIRCLE('',#1098,1.);
#401=CIRCLE('',#1101,1.);
#402=CIRCLE('',#1102,1.);
#403=CIRCLE('',#1104,1.75);
#404=CIRCLE('',#1105,1.75);
#405=CIRCLE('',#1107,1.);
#406=CIRCLE('',#1108,1.);
#407=CIRCLE('',#1110,1.);
#408=CIRCLE('',#1112,1.);
#409=CIRCLE('',#1115,1.);
#410=CIRCLE('',#1116,1.);
#411=CIRCLE('',#1118,1.525);
#412=CIRCLE('',#1120,1.);
#413=CIRCLE('',#1121,1.);
#414=CIRCLE('',#1124,1.525);
#415=CIRCLE('',#1125,1.525);
#416=CIRCLE('',#1127,1.52499978920259);
#417=CIRCLE('',#1129,1.);
#418=CIRCLE('',#1130,1.);
#419=CIRCLE('',#1131,1.);
#420=CIRCLE('',#1132,1.);
#421=CIRCLE('',#1133,1.75);
#422=CIRCLE('',#1134,1.75);
#423=CIRCLE('',#1136,1.);
#424=CIRCLE('',#1138,1.);
#425=CIRCLE('',#1142,2.);
#426=CIRCLE('',#1143,2.);
#427=CIRCLE('',#1145,2.);
#428=CIRCLE('',#1146,2.);
#429=CIRCLE('',#1149,2.);
#430=CIRCLE('',#1150,2.);
#431=CIRCLE('',#1152,2.);
#432=CIRCLE('',#1154,2.);
#433=CIRCLE('',#1163,1.);
#434=VERTEX_POINT('',#1488);
#435=VERTEX_POINT('',#1490);
#436=VERTEX_POINT('',#1494);
#437=VERTEX_POINT('',#1496);
#438=VERTEX_POINT('',#1500);
#439=VERTEX_POINT('',#1501);
#440=VERTEX_POINT('',#1503);
#441=VERTEX_POINT('',#1505);
#442=VERTEX_POINT('',#1509);
#443=VERTEX_POINT('',#1511);
#444=VERTEX_POINT('',#1513);
#445=VERTEX_POINT('',#1515);
#446=VERTEX_POINT('',#1519);
#447=VERTEX_POINT('',#1520);
#448=VERTEX_POINT('',#1522);
#449=VERTEX_POINT('',#1524);
#450=VERTEX_POINT('',#1531);
#451=VERTEX_POINT('',#1533);
#452=VERTEX_POINT('',#1537);
#453=VERTEX_POINT('',#1539);
#454=VERTEX_POINT('',#1543);
#455=VERTEX_POINT('',#1544);
#456=VERTEX_POINT('',#1546);
#457=VERTEX_POINT('',#1548);
#458=VERTEX_POINT('',#1552);
#459=VERTEX_POINT('',#1554);
#460=VERTEX_POINT('',#1557);
#461=VERTEX_POINT('',#1559);
#462=VERTEX_POINT('',#1562);
#463=VERTEX_POINT('',#1563);
#464=VERTEX_POINT('',#1565);
#465=VERTEX_POINT('',#1567);
#466=VERTEX_POINT('',#1573);
#467=VERTEX_POINT('',#1575);
#468=VERTEX_POINT('',#1577);
#469=VERTEX_POINT('',#1579);
#470=VERTEX_POINT('',#1581);
#471=VERTEX_POINT('',#1583);
#472=VERTEX_POINT('',#1591);
#473=VERTEX_POINT('',#1592);
#474=VERTEX_POINT('',#1594);
#475=VERTEX_POINT('',#1596);
#476=VERTEX_POINT('',#1600);
#477=VERTEX_POINT('',#1602);
#478=VERTEX_POINT('',#1605);
#479=VERTEX_POINT('',#1608);
#480=VERTEX_POINT('',#1609);
#481=VERTEX_POINT('',#1611);
#482=VERTEX_POINT('',#1613);
#483=VERTEX_POINT('',#1617);
#484=VERTEX_POINT('',#1619);
#485=VERTEX_POINT('',#1623);
#486=VERTEX_POINT('',#1625);
#487=VERTEX_POINT('',#1629);
#488=VERTEX_POINT('',#1633);
#489=VERTEX_POINT('',#1635);
#490=VERTEX_POINT('',#1637);
#491=VERTEX_POINT('',#1640);
#492=VERTEX_POINT('',#1642);
#493=VERTEX_POINT('',#1644);
#494=VERTEX_POINT('',#1646);
#495=VERTEX_POINT('',#1648);
#496=VERTEX_POINT('',#1650);
#497=VERTEX_POINT('',#1653);
#498=VERTEX_POINT('',#1655);
#499=VERTEX_POINT('',#1657);
#500=VERTEX_POINT('',#1659);
#501=VERTEX_POINT('',#1661);
#502=VERTEX_POINT('',#1663);
#503=VERTEX_POINT('',#1666);
#504=VERTEX_POINT('',#1668);
#505=VERTEX_POINT('',#1671);
#506=VERTEX_POINT('',#1673);
#507=VERTEX_POINT('',#1675);
#508=VERTEX_POINT('',#1677);
#509=VERTEX_POINT('',#1679);
#510=VERTEX_POINT('',#1681);
#511=VERTEX_POINT('',#1683);
#512=VERTEX_POINT('',#1685);
#513=VERTEX_POINT('',#1689);
#514=VERTEX_POINT('',#1691);
#515=VERTEX_POINT('',#1693);
#516=VERTEX_POINT('',#1695);
#517=VERTEX_POINT('',#1697);
#518=VERTEX_POINT('',#1699);
#519=VERTEX_POINT('',#1701);
#520=VERTEX_POINT('',#1709);
#521=VERTEX_POINT('',#1711);
#522=VERTEX_POINT('',#1715);
#523=VERTEX_POINT('',#1717);
#524=VERTEX_POINT('',#1721);
#525=VERTEX_POINT('',#1723);
#526=VERTEX_POINT('',#1729);
#527=VERTEX_POINT('',#1732);
#528=VERTEX_POINT('',#1736);
#529=VERTEX_POINT('',#1742);
#530=VERTEX_POINT('',#1744);
#531=VERTEX_POINT('',#1754);
#532=VERTEX_POINT('',#1756);
#533=VERTEX_POINT('',#1761);
#534=EDGE_CURVE('',#434,#434,#390,.T.);
#535=EDGE_CURVE('',#434,#435,#178,.T.);
#536=EDGE_CURVE('',#435,#435,#391,.T.);
#537=EDGE_CURVE('',#436,#436,#392,.T.);
#538=EDGE_CURVE('',#436,#437,#179,.T.);
#539=EDGE_CURVE('',#437,#437,#393,.T.);
#540=EDGE_CURVE('',#438,#439,#394,.T.);
#541=EDGE_CURVE('',#439,#440,#180,.T.);
#542=EDGE_CURVE('',#440,#441,#395,.T.);
#543=EDGE_CURVE('',#441,#438,#181,.T.);
#544=EDGE_CURVE('',#442,#439,#396,.T.);
#545=EDGE_CURVE('',#442,#443,#182,.T.);
#546=EDGE_CURVE('',#444,#443,#183,.T.);
#547=EDGE_CURVE('',#445,#444,#184,.T.);
#548=EDGE_CURVE('',#440,#445,#185,.T.);
#549=EDGE_CURVE('',#446,#447,#397,.T.);
#550=EDGE_CURVE('',#447,#448,#186,.T.);
#551=EDGE_CURVE('',#448,#449,#398,.T.);
#552=EDGE_CURVE('',#449,#446,#187,.T.);
#553=EDGE_CURVE('',#448,#441,#188,.T.);
#554=EDGE_CURVE('',#438,#447,#189,.T.);
#555=EDGE_CURVE('',#444,#450,#399,.T.);
#556=EDGE_CURVE('',#450,#451,#190,.T.);
#557=EDGE_CURVE('',#451,#445,#400,.T.);
#558=EDGE_CURVE('',#452,#450,#191,.T.);
#559=EDGE_CURVE('',#452,#453,#192,.T.);
#560=EDGE_CURVE('',#451,#453,#193,.T.);
#561=EDGE_CURVE('',#454,#455,#401,.T.);
#562=EDGE_CURVE('',#455,#456,#194,.T.);
#563=EDGE_CURVE('',#456,#457,#402,.T.);
#564=EDGE_CURVE('',#457,#454,#195,.T.);
#565=EDGE_CURVE('',#458,#455,#196,.T.);
#566=EDGE_CURVE('',#459,#458,#197,.T.);
#567=EDGE_CURVE('',#456,#459,#198,.T.);
#568=EDGE_CURVE('',#460,#460,#403,.T.);
#569=EDGE_CURVE('',#461,#461,#404,.T.);
#570=EDGE_CURVE('',#462,#463,#405,.T.);
#571=EDGE_CURVE('',#463,#464,#199,.T.);
#572=EDGE_CURVE('',#464,#465,#406,.T.);
#573=EDGE_CURVE('',#462,#465,#200,.T.);
#574=EDGE_CURVE('',#458,#462,#407,.T.);
#575=EDGE_CURVE('',#454,#452,#201,.T.);
#576=EDGE_CURVE('',#443,#466,#202,.T.);
#577=EDGE_CURVE('',#466,#467,#203,.T.);
#578=EDGE_CURVE('',#468,#467,#204,.T.);
#579=EDGE_CURVE('',#469,#468,#205,.T.);
#580=EDGE_CURVE('',#469,#470,#206,.T.);
#581=EDGE_CURVE('',#470,#471,#207,.T.);
#582=EDGE_CURVE('',#471,#463,#208,.T.);
#583=EDGE_CURVE('',#465,#459,#408,.T.);
#584=EDGE_CURVE('',#453,#457,#209,.T.);
#585=EDGE_CURVE('',#472,#473,#409,.T.);
#586=EDGE_CURVE('',#473,#474,#210,.T.);
#587=EDGE_CURVE('',#474,#475,#410,.T.);
#588=EDGE_CURVE('',#475,#472,#211,.T.);
#589=EDGE_CURVE('',#476,#473,#212,.T.);
#590=EDGE_CURVE('',#477,#476,#213,.T.);
#591=EDGE_CURVE('',#474,#477,#214,.T.);
#592=EDGE_CURVE('',#478,#478,#411,.T.);
#593=EDGE_CURVE('',#479,#480,#412,.T.);
#594=EDGE_CURVE('',#480,#481,#215,.T.);
#595=EDGE_CURVE('',#481,#482,#413,.T.);
#596=EDGE_CURVE('',#482,#479,#216,.T.);
#597=EDGE_CURVE('',#483,#480,#217,.T.);
#598=EDGE_CURVE('',#484,#483,#218,.T.);
#599=EDGE_CURVE('',#481,#484,#219,.T.);
#600=EDGE_CURVE('',#485,#485,#414,.T.);
#601=EDGE_CURVE('',#485,#486,#220,.T.);
#602=EDGE_CURVE('',#486,#486,#415,.T.);
#603=EDGE_CURVE('',#478,#487,#221,.T.);
#604=EDGE_CURVE('',#487,#487,#416,.T.);
#605=EDGE_CURVE('',#472,#488,#222,.T.);
#606=EDGE_CURVE('',#489,#488,#417,.T.);
#607=EDGE_CURVE('',#489,#490,#223,.T.);
#608=EDGE_CURVE('',#483,#490,#418,.T.);
#609=EDGE_CURVE('',#479,#491,#224,.T.);
#610=EDGE_CURVE('',#492,#491,#225,.T.);
#611=EDGE_CURVE('',#492,#493,#226,.T.);
#612=EDGE_CURVE('',#493,#494,#227,.T.);
#613=EDGE_CURVE('',#495,#494,#228,.T.);
#614=EDGE_CURVE('',#496,#495,#419,.T.);
#615=EDGE_CURVE('',#496,#468,#229,.T.);
#616=EDGE_CURVE('',#467,#497,#230,.T.);
#617=EDGE_CURVE('',#498,#497,#420,.T.);
#618=EDGE_CURVE('',#499,#498,#231,.T.);
#619=EDGE_CURVE('',#499,#500,#232,.T.);
#620=EDGE_CURVE('',#500,#501,#233,.T.);
#621=EDGE_CURVE('',#501,#502,#234,.T.);
#622=EDGE_CURVE('',#502,#476,#235,.T.);
#623=EDGE_CURVE('',#503,#503,#421,.T.);
#624=EDGE_CURVE('',#504,#504,#422,.T.);
#625=EDGE_CURVE('',#505,#475,#236,.T.);
#626=EDGE_CURVE('',#477,#506,#237,.T.);
#627=EDGE_CURVE('',#506,#507,#238,.T.);
#628=EDGE_CURVE('',#507,#508,#239,.T.);
#629=EDGE_CURVE('',#508,#509,#240,.T.);
#630=EDGE_CURVE('',#509,#510,#241,.T.);
#631=EDGE_CURVE('',#511,#510,#242,.T.);
#632=EDGE_CURVE('',#511,#512,#243,.T.);
#633=EDGE_CURVE('',#505,#512,#423,.T.);
#634=EDGE_CURVE('',#513,#484,#424,.T.);
#635=EDGE_CURVE('',#513,#514,#244,.T.);
#636=EDGE_CURVE('',#515,#514,#245,.T.);
#637=EDGE_CURVE('',#515,#516,#246,.T.);
#638=EDGE_CURVE('',#516,#517,#247,.T.);
#639=EDGE_CURVE('',#517,#518,#248,.T.);
#640=EDGE_CURVE('',#518,#519,#249,.T.);
#641=EDGE_CURVE('',#519,#482,#250,.T.);
#642=EDGE_CURVE('',#488,#505,#251,.T.);
#643=EDGE_CURVE('',#502,#506,#252,.T.);
#644=EDGE_CURVE('',#520,#514,#425,.F.);
#645=EDGE_CURVE('',#520,#521,#253,.T.);
#646=EDGE_CURVE('',#521,#515,#426,.T.);
#647=EDGE_CURVE('',#520,#522,#427,.T.);
#648=EDGE_CURVE('',#522,#523,#254,.T.);
#649=EDGE_CURVE('',#523,#521,#428,.T.);
#650=EDGE_CURVE('',#524,#522,#255,.T.);
#651=EDGE_CURVE('',#525,#524,#256,.T.);
#652=EDGE_CURVE('',#523,#525,#257,.T.);
#653=EDGE_CURVE('',#490,#513,#258,.T.);
#654=EDGE_CURVE('',#512,#489,#259,.T.);
#655=EDGE_CURVE('',#526,#511,#429,.T.);
#656=EDGE_CURVE('',#524,#526,#430,.T.);
#657=EDGE_CURVE('',#464,#527,#260,.T.);
#658=EDGE_CURVE('',#527,#449,#261,.T.);
#659=EDGE_CURVE('',#526,#528,#262,.T.);
#660=EDGE_CURVE('',#528,#525,#431,.T.);
#661=EDGE_CURVE('',#510,#528,#432,.T.);
#662=EDGE_CURVE('',#529,#442,#263,.T.);
#663=EDGE_CURVE('',#439,#530,#264,.T.);
#664=EDGE_CURVE('',#530,#529,#15,.T.);
#665=EDGE_CURVE('',#530,#498,#265,.T.);
#666=EDGE_CURVE('',#497,#529,#266,.T.);
#667=EDGE_CURVE('',#529,#466,#267,.T.);
#668=EDGE_CURVE('',#531,#496,#268,.T.);
#669=EDGE_CURVE('',#495,#532,#269,.T.);
#670=EDGE_CURVE('',#532,#531,#16,.T.);
#671=EDGE_CURVE('',#532,#446,#270,.T.);
#672=EDGE_CURVE('',#446,#533,#433,.T.);
#673=EDGE_CURVE('',#533,#531,#271,.T.);
#674=EDGE_CURVE('',#531,#469,#272,.T.);
#675=EDGE_CURVE('',#533,#470,#273,.T.);
#676=EDGE_CURVE('',#499,#509,#274,.T.);
#677=EDGE_CURVE('',#494,#516,#275,.T.);
#678=EDGE_CURVE('',#461,#503,#276,.T.);
#679=EDGE_CURVE('',#460,#504,#277,.T.);
#680=EDGE_CURVE('',#471,#527,#278,.T.);
#681=EDGE_CURVE('',#491,#519,#279,.T.);
#682=EDGE_CURVE('',#508,#500,#280,.T.);
#683=EDGE_CURVE('',#501,#507,#281,.T.);
#684=EDGE_CURVE('',#492,#518,#282,.T.);
#685=EDGE_CURVE('',#493,#517,#283,.T.);
#686=ORIENTED_EDGE('',*,*,#534,.F.);
#687=ORIENTED_EDGE('',*,*,#535,.T.);
#688=ORIENTED_EDGE('',*,*,#536,.F.);
#689=ORIENTED_EDGE('',*,*,#535,.F.);
#690=ORIENTED_EDGE('',*,*,#537,.F.);
#691=ORIENTED_EDGE('',*,*,#538,.T.);
#692=ORIENTED_EDGE('',*,*,#539,.F.);
#693=ORIENTED_EDGE('',*,*,#538,.F.);
#694=ORIENTED_EDGE('',*,*,#540,.T.);
#695=ORIENTED_EDGE('',*,*,#541,.T.);
#696=ORIENTED_EDGE('',*,*,#542,.T.);
#697=ORIENTED_EDGE('',*,*,#543,.T.);
#698=ORIENTED_EDGE('',*,*,#541,.F.);
#699=ORIENTED_EDGE('',*,*,#544,.F.);
#700=ORIENTED_EDGE('',*,*,#545,.T.);
#701=ORIENTED_EDGE('',*,*,#546,.F.);
#702=ORIENTED_EDGE('',*,*,#547,.F.);
#703=ORIENTED_EDGE('',*,*,#548,.F.);
#704=ORIENTED_EDGE('',*,*,#549,.T.);
#705=ORIENTED_EDGE('',*,*,#550,.T.);
#706=ORIENTED_EDGE('',*,*,#551,.T.);
#707=ORIENTED_EDGE('',*,*,#552,.T.);
#708=ORIENTED_EDGE('',*,*,#543,.F.);
#709=ORIENTED_EDGE('',*,*,#553,.F.);
#710=ORIENTED_EDGE('',*,*,#550,.F.);
#711=ORIENTED_EDGE('',*,*,#554,.F.);
#712=ORIENTED_EDGE('',*,*,#555,.T.);
#713=ORIENTED_EDGE('',*,*,#556,.T.);
#714=ORIENTED_EDGE('',*,*,#557,.T.);
#715=ORIENTED_EDGE('',*,*,#547,.T.);
#716=ORIENTED_EDGE('',*,*,#556,.F.);
#717=ORIENTED_EDGE('',*,*,#558,.F.);
#718=ORIENTED_EDGE('',*,*,#559,.T.);
#719=ORIENTED_EDGE('',*,*,#560,.F.);
#720=ORIENTED_EDGE('',*,*,#561,.T.);
#721=ORIENTED_EDGE('',*,*,#562,.T.);
#722=ORIENTED_EDGE('',*,*,#563,.T.);
#723=ORIENTED_EDGE('',*,*,#564,.T.);
#724=ORIENTED_EDGE('',*,*,#562,.F.);
#725=ORIENTED_EDGE('',*,*,#565,.F.);
#726=ORIENTED_EDGE('',*,*,#566,.F.);
#727=ORIENTED_EDGE('',*,*,#567,.F.);
#728=ORIENTED_EDGE('',*,*,#568,.F.);
#729=ORIENTED_EDGE('',*,*,#569,.F.);
#730=ORIENTED_EDGE('',*,*,#570,.T.);
#731=ORIENTED_EDGE('',*,*,#571,.T.);
#732=ORIENTED_EDGE('',*,*,#572,.T.);
#733=ORIENTED_EDGE('',*,*,#573,.F.);
#734=ORIENTED_EDGE('',*,*,#570,.F.);
#735=ORIENTED_EDGE('',*,*,#574,.F.);
#736=ORIENTED_EDGE('',*,*,#565,.T.);
#737=ORIENTED_EDGE('',*,*,#561,.F.);
#738=ORIENTED_EDGE('',*,*,#575,.T.);
#739=ORIENTED_EDGE('',*,*,#558,.T.);
#740=ORIENTED_EDGE('',*,*,#555,.F.);
#741=ORIENTED_EDGE('',*,*,#546,.T.);
#742=ORIENTED_EDGE('',*,*,#576,.T.);
#743=ORIENTED_EDGE('',*,*,#577,.T.);
#744=ORIENTED_EDGE('',*,*,#578,.F.);
#745=ORIENTED_EDGE('',*,*,#579,.F.);
#746=ORIENTED_EDGE('',*,*,#580,.T.);
#747=ORIENTED_EDGE('',*,*,#581,.T.);
#748=ORIENTED_EDGE('',*,*,#582,.T.);
#749=ORIENTED_EDGE('',*,*,#574,.T.);
#750=ORIENTED_EDGE('',*,*,#573,.T.);
#751=ORIENTED_EDGE('',*,*,#583,.T.);
#752=ORIENTED_EDGE('',*,*,#566,.T.);
#753=ORIENTED_EDGE('',*,*,#564,.F.);
#754=ORIENTED_EDGE('',*,*,#584,.F.);
#755=ORIENTED_EDGE('',*,*,#559,.F.);
#756=ORIENTED_EDGE('',*,*,#575,.F.);
#757=ORIENTED_EDGE('',*,*,#585,.T.);
#758=ORIENTED_EDGE('',*,*,#586,.T.);
#759=ORIENTED_EDGE('',*,*,#587,.T.);
#760=ORIENTED_EDGE('',*,*,#588,.T.);
#761=ORIENTED_EDGE('',*,*,#586,.F.);
#762=ORIENTED_EDGE('',*,*,#589,.F.);
#763=ORIENTED_EDGE('',*,*,#590,.F.);
#764=ORIENTED_EDGE('',*,*,#591,.F.);
#765=ORIENTED_EDGE('',*,*,#592,.T.);
#766=ORIENTED_EDGE('',*,*,#593,.T.);
#767=ORIENTED_EDGE('',*,*,#594,.T.);
#768=ORIENTED_EDGE('',*,*,#595,.T.);
#769=ORIENTED_EDGE('',*,*,#596,.T.);
#770=ORIENTED_EDGE('',*,*,#594,.F.);
#771=ORIENTED_EDGE('',*,*,#597,.F.);
#772=ORIENTED_EDGE('',*,*,#598,.F.);
#773=ORIENTED_EDGE('',*,*,#599,.F.);
#774=ORIENTED_EDGE('',*,*,#600,.F.);
#775=ORIENTED_EDGE('',*,*,#601,.T.);
#776=ORIENTED_EDGE('',*,*,#602,.F.);
#777=ORIENTED_EDGE('',*,*,#601,.F.);
#778=ORIENTED_EDGE('',*,*,#592,.F.);
#779=ORIENTED_EDGE('',*,*,#603,.T.);
#780=ORIENTED_EDGE('',*,*,#604,.F.);
#781=ORIENTED_EDGE('',*,*,#603,.F.);
#782=ORIENTED_EDGE('',*,*,#605,.T.);
#783=ORIENTED_EDGE('',*,*,#606,.F.);
#784=ORIENTED_EDGE('',*,*,#607,.T.);
#785=ORIENTED_EDGE('',*,*,#608,.F.);
#786=ORIENTED_EDGE('',*,*,#597,.T.);
#787=ORIENTED_EDGE('',*,*,#593,.F.);
#788=ORIENTED_EDGE('',*,*,#609,.T.);
#789=ORIENTED_EDGE('',*,*,#610,.F.);
#790=ORIENTED_EDGE('',*,*,#611,.T.);
#791=ORIENTED_EDGE('',*,*,#612,.T.);
#792=ORIENTED_EDGE('',*,*,#613,.F.);
#793=ORIENTED_EDGE('',*,*,#614,.F.);
#794=ORIENTED_EDGE('',*,*,#615,.T.);
#795=ORIENTED_EDGE('',*,*,#578,.T.);
#796=ORIENTED_EDGE('',*,*,#616,.T.);
#797=ORIENTED_EDGE('',*,*,#617,.F.);
#798=ORIENTED_EDGE('',*,*,#618,.F.);
#799=ORIENTED_EDGE('',*,*,#619,.T.);
#800=ORIENTED_EDGE('',*,*,#620,.T.);
#801=ORIENTED_EDGE('',*,*,#621,.T.);
#802=ORIENTED_EDGE('',*,*,#622,.T.);
#803=ORIENTED_EDGE('',*,*,#589,.T.);
#804=ORIENTED_EDGE('',*,*,#585,.F.);
#805=ORIENTED_EDGE('',*,*,#623,.T.);
#806=ORIENTED_EDGE('',*,*,#624,.T.);
#807=ORIENTED_EDGE('',*,*,#625,.T.);
#808=ORIENTED_EDGE('',*,*,#587,.F.);
#809=ORIENTED_EDGE('',*,*,#591,.T.);
#810=ORIENTED_EDGE('',*,*,#626,.T.);
#811=ORIENTED_EDGE('',*,*,#627,.T.);
#812=ORIENTED_EDGE('',*,*,#628,.T.);
#813=ORIENTED_EDGE('',*,*,#629,.T.);
#814=ORIENTED_EDGE('',*,*,#630,.T.);
#815=ORIENTED_EDGE('',*,*,#631,.F.);
#816=ORIENTED_EDGE('',*,*,#632,.T.);
#817=ORIENTED_EDGE('',*,*,#633,.F.);
#818=ORIENTED_EDGE('',*,*,#599,.T.);
#819=ORIENTED_EDGE('',*,*,#634,.F.);
#820=ORIENTED_EDGE('',*,*,#635,.T.);
#821=ORIENTED_EDGE('',*,*,#636,.F.);
#822=ORIENTED_EDGE('',*,*,#637,.T.);
#823=ORIENTED_EDGE('',*,*,#638,.T.);
#824=ORIENTED_EDGE('',*,*,#639,.T.);
#825=ORIENTED_EDGE('',*,*,#640,.T.);
#826=ORIENTED_EDGE('',*,*,#641,.T.);
#827=ORIENTED_EDGE('',*,*,#595,.F.);
#828=ORIENTED_EDGE('',*,*,#588,.F.);
#829=ORIENTED_EDGE('',*,*,#625,.F.);
#830=ORIENTED_EDGE('',*,*,#642,.F.);
#831=ORIENTED_EDGE('',*,*,#605,.F.);
#832=ORIENTED_EDGE('',*,*,#590,.T.);
#833=ORIENTED_EDGE('',*,*,#622,.F.);
#834=ORIENTED_EDGE('',*,*,#643,.T.);
#835=ORIENTED_EDGE('',*,*,#626,.F.);
#836=ORIENTED_EDGE('',*,*,#644,.F.);
#837=ORIENTED_EDGE('',*,*,#645,.T.);
#838=ORIENTED_EDGE('',*,*,#646,.T.);
#839=ORIENTED_EDGE('',*,*,#636,.T.);
#840=ORIENTED_EDGE('',*,*,#645,.F.);
#841=ORIENTED_EDGE('',*,*,#647,.T.);
#842=ORIENTED_EDGE('',*,*,#648,.T.);
#843=ORIENTED_EDGE('',*,*,#649,.T.);
#844=ORIENTED_EDGE('',*,*,#648,.F.);
#845=ORIENTED_EDGE('',*,*,#650,.F.);
#846=ORIENTED_EDGE('',*,*,#651,.F.);
#847=ORIENTED_EDGE('',*,*,#652,.F.);
#848=ORIENTED_EDGE('',*,*,#635,.F.);
#849=ORIENTED_EDGE('',*,*,#653,.F.);
#850=ORIENTED_EDGE('',*,*,#607,.F.);
#851=ORIENTED_EDGE('',*,*,#654,.F.);
#852=ORIENTED_EDGE('',*,*,#632,.F.);
#853=ORIENTED_EDGE('',*,*,#655,.F.);
#854=ORIENTED_EDGE('',*,*,#656,.F.);
#855=ORIENTED_EDGE('',*,*,#650,.T.);
#856=ORIENTED_EDGE('',*,*,#647,.F.);
#857=ORIENTED_EDGE('',*,*,#644,.T.);
#858=ORIENTED_EDGE('',*,*,#534,.T.);
#859=ORIENTED_EDGE('',*,*,#537,.T.);
#860=ORIENTED_EDGE('',*,*,#572,.F.);
#861=ORIENTED_EDGE('',*,*,#657,.T.);
#862=ORIENTED_EDGE('',*,*,#658,.T.);
#863=ORIENTED_EDGE('',*,*,#551,.F.);
#864=ORIENTED_EDGE('',*,*,#553,.T.);
#865=ORIENTED_EDGE('',*,*,#542,.F.);
#866=ORIENTED_EDGE('',*,*,#548,.T.);
#867=ORIENTED_EDGE('',*,*,#557,.F.);
#868=ORIENTED_EDGE('',*,*,#560,.T.);
#869=ORIENTED_EDGE('',*,*,#584,.T.);
#870=ORIENTED_EDGE('',*,*,#563,.F.);
#871=ORIENTED_EDGE('',*,*,#567,.T.);
#872=ORIENTED_EDGE('',*,*,#583,.F.);
#873=ORIENTED_EDGE('',*,*,#656,.T.);
#874=ORIENTED_EDGE('',*,*,#659,.T.);
#875=ORIENTED_EDGE('',*,*,#660,.T.);
#876=ORIENTED_EDGE('',*,*,#651,.T.);
#877=ORIENTED_EDGE('',*,*,#659,.F.);
#878=ORIENTED_EDGE('',*,*,#655,.T.);
#879=ORIENTED_EDGE('',*,*,#631,.T.);
#880=ORIENTED_EDGE('',*,*,#661,.T.);
#881=ORIENTED_EDGE('',*,*,#662,.T.);
#882=ORIENTED_EDGE('',*,*,#544,.T.);
#883=ORIENTED_EDGE('',*,*,#663,.T.);
#884=ORIENTED_EDGE('',*,*,#664,.T.);
#885=ORIENTED_EDGE('',*,*,#665,.T.);
#886=ORIENTED_EDGE('',*,*,#617,.T.);
#887=ORIENTED_EDGE('',*,*,#666,.T.);
#888=ORIENTED_EDGE('',*,*,#664,.F.);
#889=ORIENTED_EDGE('',*,*,#662,.F.);
#890=ORIENTED_EDGE('',*,*,#667,.T.);
#891=ORIENTED_EDGE('',*,*,#576,.F.);
#892=ORIENTED_EDGE('',*,*,#545,.F.);
#893=ORIENTED_EDGE('',*,*,#666,.F.);
#894=ORIENTED_EDGE('',*,*,#616,.F.);
#895=ORIENTED_EDGE('',*,*,#577,.F.);
#896=ORIENTED_EDGE('',*,*,#667,.F.);
#897=ORIENTED_EDGE('',*,*,#668,.T.);
#898=ORIENTED_EDGE('',*,*,#614,.T.);
#899=ORIENTED_EDGE('',*,*,#669,.T.);
#900=ORIENTED_EDGE('',*,*,#670,.T.);
#901=ORIENTED_EDGE('',*,*,#671,.T.);
#902=ORIENTED_EDGE('',*,*,#672,.T.);
#903=ORIENTED_EDGE('',*,*,#673,.T.);
#904=ORIENTED_EDGE('',*,*,#670,.F.);
#905=ORIENTED_EDGE('',*,*,#668,.F.);
#906=ORIENTED_EDGE('',*,*,#674,.T.);
#907=ORIENTED_EDGE('',*,*,#579,.T.);
#908=ORIENTED_EDGE('',*,*,#615,.F.);
#909=ORIENTED_EDGE('',*,*,#673,.F.);
#910=ORIENTED_EDGE('',*,*,#675,.T.);
#911=ORIENTED_EDGE('',*,*,#580,.F.);
#912=ORIENTED_EDGE('',*,*,#674,.F.);
#913=ORIENTED_EDGE('',*,*,#649,.F.);
#914=ORIENTED_EDGE('',*,*,#652,.T.);
#915=ORIENTED_EDGE('',*,*,#660,.F.);
#916=ORIENTED_EDGE('',*,*,#661,.F.);
#917=ORIENTED_EDGE('',*,*,#630,.F.);
#918=ORIENTED_EDGE('',*,*,#676,.F.);
#919=ORIENTED_EDGE('',*,*,#618,.T.);
#920=ORIENTED_EDGE('',*,*,#665,.F.);
#921=ORIENTED_EDGE('',*,*,#663,.F.);
#922=ORIENTED_EDGE('',*,*,#540,.F.);
#923=ORIENTED_EDGE('',*,*,#554,.T.);
#924=ORIENTED_EDGE('',*,*,#549,.F.);
#925=ORIENTED_EDGE('',*,*,#671,.F.);
#926=ORIENTED_EDGE('',*,*,#669,.F.);
#927=ORIENTED_EDGE('',*,*,#613,.T.);
#928=ORIENTED_EDGE('',*,*,#677,.T.);
#929=ORIENTED_EDGE('',*,*,#637,.F.);
#930=ORIENTED_EDGE('',*,*,#646,.F.);
#931=ORIENTED_EDGE('',*,*,#536,.T.);
#932=ORIENTED_EDGE('',*,*,#539,.T.);
#933=ORIENTED_EDGE('',*,*,#569,.T.);
#934=ORIENTED_EDGE('',*,*,#678,.T.);
#935=ORIENTED_EDGE('',*,*,#623,.F.);
#936=ORIENTED_EDGE('',*,*,#678,.F.);
#937=ORIENTED_EDGE('',*,*,#568,.T.);
#938=ORIENTED_EDGE('',*,*,#679,.T.);
#939=ORIENTED_EDGE('',*,*,#624,.F.);
#940=ORIENTED_EDGE('',*,*,#679,.F.);
#941=ORIENTED_EDGE('',*,*,#571,.F.);
#942=ORIENTED_EDGE('',*,*,#582,.F.);
#943=ORIENTED_EDGE('',*,*,#680,.T.);
#944=ORIENTED_EDGE('',*,*,#657,.F.);
#945=ORIENTED_EDGE('',*,*,#552,.F.);
#946=ORIENTED_EDGE('',*,*,#658,.F.);
#947=ORIENTED_EDGE('',*,*,#680,.F.);
#948=ORIENTED_EDGE('',*,*,#581,.F.);
#949=ORIENTED_EDGE('',*,*,#675,.F.);
#950=ORIENTED_EDGE('',*,*,#672,.F.);
#951=ORIENTED_EDGE('',*,*,#606,.T.);
#952=ORIENTED_EDGE('',*,*,#642,.T.);
#953=ORIENTED_EDGE('',*,*,#633,.T.);
#954=ORIENTED_EDGE('',*,*,#654,.T.);
#955=ORIENTED_EDGE('',*,*,#608,.T.);
#956=ORIENTED_EDGE('',*,*,#653,.T.);
#957=ORIENTED_EDGE('',*,*,#634,.T.);
#958=ORIENTED_EDGE('',*,*,#598,.T.);
#959=ORIENTED_EDGE('',*,*,#596,.F.);
#960=ORIENTED_EDGE('',*,*,#641,.F.);
#961=ORIENTED_EDGE('',*,*,#681,.F.);
#962=ORIENTED_EDGE('',*,*,#609,.F.);
#963=ORIENTED_EDGE('',*,*,#600,.T.);
#964=ORIENTED_EDGE('',*,*,#682,.F.);
#965=ORIENTED_EDGE('',*,*,#628,.F.);
#966=ORIENTED_EDGE('',*,*,#683,.F.);
#967=ORIENTED_EDGE('',*,*,#620,.F.);
#968=ORIENTED_EDGE('',*,*,#683,.T.);
#969=ORIENTED_EDGE('',*,*,#627,.F.);
#970=ORIENTED_EDGE('',*,*,#643,.F.);
#971=ORIENTED_EDGE('',*,*,#621,.F.);
#972=ORIENTED_EDGE('',*,*,#604,.T.);
#973=ORIENTED_EDGE('',*,*,#684,.T.);
#974=ORIENTED_EDGE('',*,*,#639,.F.);
#975=ORIENTED_EDGE('',*,*,#685,.F.);
#976=ORIENTED_EDGE('',*,*,#611,.F.);
#977=ORIENTED_EDGE('',*,*,#602,.T.);
#978=ORIENTED_EDGE('',*,*,#685,.T.);
#979=ORIENTED_EDGE('',*,*,#638,.F.);
#980=ORIENTED_EDGE('',*,*,#677,.F.);
#981=ORIENTED_EDGE('',*,*,#612,.F.);
#982=ORIENTED_EDGE('',*,*,#676,.T.);
#983=ORIENTED_EDGE('',*,*,#629,.F.);
#984=ORIENTED_EDGE('',*,*,#682,.T.);
#985=ORIENTED_EDGE('',*,*,#619,.F.);
#986=ORIENTED_EDGE('',*,*,#681,.T.);
#987=ORIENTED_EDGE('',*,*,#640,.F.);
#988=ORIENTED_EDGE('',*,*,#684,.F.);
#989=ORIENTED_EDGE('',*,*,#610,.T.);
#990=CYLINDRICAL_SURFACE('',#1081,2.25);
#991=CYLINDRICAL_SURFACE('',#1084,2.25);
#992=CYLINDRICAL_SURFACE('',#1087,2.);
#993=CYLINDRICAL_SURFACE('',#1092,2.);
#994=CYLINDRICAL_SURFACE('',#1096,1.);
#995=CYLINDRICAL_SURFACE('',#1100,1.);
#996=CYLINDRICAL_SURFACE('',#1106,1.);
#997=CYLINDRICAL_SURFACE('',#1111,1.);
#998=CYLINDRICAL_SURFACE('',#1114,1.);
#999=CYLINDRICAL_SURFACE('',#1119,1.);
#1000=CYLINDRICAL_SURFACE('',#1123,1.525);
#1001=CYLINDRICAL_SURFACE('',#1126,1.525);
#1002=CYLINDRICAL_SURFACE('',#1141,2.);
#1003=CYLINDRICAL_SURFACE('',#1144,2.);
#1004=CYLINDRICAL_SURFACE('',#1151,2.);
#1005=CYLINDRICAL_SURFACE('',#1153,2.);
#1006=CYLINDRICAL_SURFACE('',#1155,1.);
#1007=CYLINDRICAL_SURFACE('',#1157,1.);
#1008=CYLINDRICAL_SURFACE('',#1160,1.);
#1009=CYLINDRICAL_SURFACE('',#1162,1.);
#1010=CYLINDRICAL_SURFACE('',#1167,1.75);
#1011=CYLINDRICAL_SURFACE('',#1168,1.75);
#1012=CYLINDRICAL_SURFACE('',#1171,1.);
#1013=CYLINDRICAL_SURFACE('',#1172,1.);
#1014=ADVANCED_FACE('',(#59),#990,.F.);
#1015=ADVANCED_FACE('',(#60),#991,.F.);
#1016=ADVANCED_FACE('',(#61),#992,.F.);
#1017=ADVANCED_FACE('',(#62),#30,.T.);
#1018=ADVANCED_FACE('',(#63),#993,.F.);
#1019=ADVANCED_FACE('',(#64),#31,.F.);
#1020=ADVANCED_FACE('',(#65),#994,.F.);
#1021=ADVANCED_FACE('',(#66),#32,.T.);
#1022=ADVANCED_FACE('',(#67),#995,.F.);
#1023=ADVANCED_FACE('',(#68,#17,#18),#33,.F.);
#1024=ADVANCED_FACE('',(#69),#996,.T.);
#1025=ADVANCED_FACE('',(#70),#34,.T.);
#1026=ADVANCED_FACE('',(#71),#997,.F.);
#1027=ADVANCED_FACE('',(#72),#35,.F.);
#1028=ADVANCED_FACE('',(#73),#998,.F.);
#1029=ADVANCED_FACE('',(#74,#19),#36,.T.);
#1030=ADVANCED_FACE('',(#75),#999,.F.);
#1031=ADVANCED_FACE('',(#76),#37,.T.);
#1032=ADVANCED_FACE('',(#77),#1000,.F.);
#1033=ADVANCED_FACE('',(#78),#1001,.F.);
#1034=ADVANCED_FACE('',(#79,#20,#21),#38,.T.);
#1035=ADVANCED_FACE('',(#80),#39,.T.);
#1036=ADVANCED_FACE('',(#81),#40,.T.);
#1037=ADVANCED_FACE('',(#82),#41,.F.);
#1038=ADVANCED_FACE('',(#83),#42,.T.);
#1039=ADVANCED_FACE('',(#84),#1002,.F.);
#1040=ADVANCED_FACE('',(#85),#1003,.T.);
#1041=ADVANCED_FACE('',(#86),#43,.T.);
#1042=ADVANCED_FACE('',(#87,#22,#23,#24),#44,.T.);
#1043=ADVANCED_FACE('',(#88),#1004,.T.);
#1044=ADVANCED_FACE('',(#89),#1005,.F.);
#1045=ADVANCED_FACE('',(#90),#1006,.F.);
#1046=ADVANCED_FACE('',(#91),#1007,.F.);
#1047=ADVANCED_FACE('',(#92),#45,.T.);
#1048=ADVANCED_FACE('',(#93),#46,.T.);
#1049=ADVANCED_FACE('',(#94),#1008,.F.);
#1050=ADVANCED_FACE('',(#95),#1009,.F.);
#1051=ADVANCED_FACE('',(#96),#47,.T.);
#1052=ADVANCED_FACE('',(#97),#48,.T.);
#1053=ADVANCED_FACE('',(#98,#25,#26),#49,.T.);
#1054=ADVANCED_FACE('',(#99),#1010,.F.);
#1055=ADVANCED_FACE('',(#100),#1011,.F.);
#1056=ADVANCED_FACE('',(#101),#50,.T.);
#1057=ADVANCED_FACE('',(#102),#51,.T.);
#1058=ADVANCED_FACE('',(#103),#1012,.F.);
#1059=ADVANCED_FACE('',(#104),#1013,.F.);
#1060=ADVANCED_FACE('',(#105,#27),#52,.T.);
#1061=ADVANCED_FACE('',(#106),#53,.T.);
#1062=ADVANCED_FACE('',(#107,#28),#54,.T.);
#1063=ADVANCED_FACE('',(#108,#29),#55,.T.);
#1064=ADVANCED_FACE('',(#109),#56,.T.);
#1065=ADVANCED_FACE('',(#110),#57,.T.);
#1066=ADVANCED_FACE('',(#111),#58,.T.);
#1067=CLOSED_SHELL('',(#1014,#1015,#1016,#1017,#1018,#1019,#1020,#1021,
#1022,#1023,#1024,#1025,#1026,#1027,#1028,#1029,#1030,#1031,#1032,#1033,
#1034,#1035,#1036,#1037,#1038,#1039,#1040,#1041,#1042,#1043,#1044,#1045,
#1046,#1047,#1048,#1049,#1050,#1051,#1052,#1053,#1054,#1055,#1056,#1057,
#1058,#1059,#1060,#1061,#1062,#1063,#1064,#1065,#1066));
#1068=DERIVED_UNIT_ELEMENT(#1070,1.);
#1069=DERIVED_UNIT_ELEMENT(#1797,-3.);
#1070=(
MASS_UNIT()
NAMED_UNIT(*)
SI_UNIT(.KILO.,.GRAM.)
);
#1071=DERIVED_UNIT((#1068,#1069));
#1072=MEASURE_REPRESENTATION_ITEM('density measure',
POSITIVE_RATIO_MEASURE(7850.),#1071);
#1073=PROPERTY_DEFINITION_REPRESENTATION(#1078,#1075);
#1074=PROPERTY_DEFINITION_REPRESENTATION(#1079,#1076);
#1075=REPRESENTATION('material name',(#1077),#1794);
#1076=REPRESENTATION('density',(#1072),#1794);
#1077=DESCRIPTIVE_REPRESENTATION_ITEM('Acero','Acero');
#1078=PROPERTY_DEFINITION('material property','material name',#1804);
#1079=PROPERTY_DEFINITION('material property','density of part',#1804);
#1080=AXIS2_PLACEMENT_3D('',#1486,#1180,#1181);
#1081=AXIS2_PLACEMENT_3D('',#1487,#1182,#1183);
#1082=AXIS2_PLACEMENT_3D('',#1489,#1184,#1185);
#1083=AXIS2_PLACEMENT_3D('',#1492,#1187,#1188);
#1084=AXIS2_PLACEMENT_3D('',#1493,#1189,#1190);
#1085=AXIS2_PLACEMENT_3D('',#1495,#1191,#1192);
#1086=AXIS2_PLACEMENT_3D('',#1498,#1194,#1195);
#1087=AXIS2_PLACEMENT_3D('',#1499,#1196,#1197);
#1088=AXIS2_PLACEMENT_3D('',#1502,#1198,#1199);
#1089=AXIS2_PLACEMENT_3D('',#1506,#1201,#1202);
#1090=AXIS2_PLACEMENT_3D('',#1508,#1204,#1205);
#1091=AXIS2_PLACEMENT_3D('',#1510,#1206,#1207);
#1092=AXIS2_PLACEMENT_3D('',#1518,#1212,#1213);
#1093=AXIS2_PLACEMENT_3D('',#1521,#1214,#1215);
#1094=AXIS2_PLACEMENT_3D('',#1525,#1217,#1218);
#1095=AXIS2_PLACEMENT_3D('',#1527,#1220,#1221);
#1096=AXIS2_PLACEMENT_3D('',#1530,#1224,#1225);
#1097=AXIS2_PLACEMENT_3D('',#1532,#1226,#1227);
#1098=AXIS2_PLACEMENT_3D('',#1535,#1229,#1230);
#1099=AXIS2_PLACEMENT_3D('',#1536,#1231,#1232);
#1100=AXIS2_PLACEMENT_3D('',#1542,#1236,#1237);
#1101=AXIS2_PLACEMENT_3D('',#1545,#1238,#1239);
#1102=AXIS2_PLACEMENT_3D('',#1549,#1241,#1242);
#1103=AXIS2_PLACEMENT_3D('',#1551,#1244,#1245);
#1104=AXIS2_PLACEMENT_3D('',#1558,#1249,#1250);
#1105=AXIS2_PLACEMENT_3D('',#1560,#1251,#1252);
#1106=AXIS2_PLACEMENT_3D('',#1561,#1253,#1254);
#1107=AXIS2_PLACEMENT_3D('',#1564,#1255,#1256);
#1108=AXIS2_PLACEMENT_3D('',#1568,#1258,#1259);
#1109=AXIS2_PLACEMENT_3D('',#1570,#1261,#1262);
#1110=AXIS2_PLACEMENT_3D('',#1571,#1263,#1264);
#1111=AXIS2_PLACEMENT_3D('',#1586,#1273,#1274);
#1112=AXIS2_PLACEMENT_3D('',#1587,#1275,#1276);
#1113=AXIS2_PLACEMENT_3D('',#1588,#1277,#1278);
#1114=AXIS2_PLACEMENT_3D('',#1590,#1280,#1281);
#1115=AXIS2_PLACEMENT_3D('',#1593,#1282,#1283);
#1116=AXIS2_PLACEMENT_3D('',#1597,#1285,#1286);
#1117=AXIS2_PLACEMENT_3D('',#1599,#1288,#1289);
#1118=AXIS2_PLACEMENT_3D('',#1606,#1293,#1294);
#1119=AXIS2_PLACEMENT_3D('',#1607,#1295,#1296);
#1120=AXIS2_PLACEMENT_3D('',#1610,#1297,#1298);
#1121=AXIS2_PLACEMENT_3D('',#1614,#1300,#1301);
#1122=AXIS2_PLACEMENT_3D('',#1616,#1303,#1304);
#1123=AXIS2_PLACEMENT_3D('',#1622,#1308,#1309);
#1124=AXIS2_PLACEMENT_3D('',#1624,#1310,#1311);
#1125=AXIS2_PLACEMENT_3D('',#1627,#1313,#1314);
#1126=AXIS2_PLACEMENT_3D('',#1628,#1315,#1316);
#1127=AXIS2_PLACEMENT_3D('',#1631,#1318,#1319);
#1128=AXIS2_PLACEMENT_3D('',#1632,#1320,#1321);
#1129=AXIS2_PLACEMENT_3D('',#1636,#1323,#1324);
#1130=AXIS2_PLACEMENT_3D('',#1639,#1326,#1327);
#1131=AXIS2_PLACEMENT_3D('',#1651,#1333,#1334);
#1132=AXIS2_PLACEMENT_3D('',#1656,#1337,#1338);
#1133=AXIS2_PLACEMENT_3D('',#1667,#1344,#1345);
#1134=AXIS2_PLACEMENT_3D('',#1669,#1346,#1347);
#1135=AXIS2_PLACEMENT_3D('',#1670,#1348,#1349);
#1136=AXIS2_PLACEMENT_3D('',#1687,#1358,#1359);
#1137=AXIS2_PLACEMENT_3D('',#1688,#1360,#1361);
#1138=AXIS2_PLACEMENT_3D('',#1690,#1362,#1363);
#1139=AXIS2_PLACEMENT_3D('',#1704,#1371,#1372);
#1140=AXIS2_PLACEMENT_3D('',#1706,#1374,#1375);
#1141=AXIS2_PLACEMENT_3D('',#1708,#1377,#1378);
#1142=AXIS2_PLACEMENT_3D('',#1710,#1379,#1380);
#1143=AXIS2_PLACEMENT_3D('',#1713,#1382,#1383);
#1144=AXIS2_PLACEMENT_3D('',#1714,#1384,#1385);
#1145=AXIS2_PLACEMENT_3D('',#1716,#1386,#1387);
#1146=AXIS2_PLACEMENT_3D('',#1719,#1389,#1390);
#1147=AXIS2_PLACEMENT_3D('',#1720,#1391,#1392);
#1148=AXIS2_PLACEMENT_3D('',#1726,#1396,#1397);
#1149=AXIS2_PLACEMENT_3D('',#1730,#1400,#1401);
#1150=AXIS2_PLACEMENT_3D('',#1731,#1402,#1403);
#1151=AXIS2_PLACEMENT_3D('',#1735,#1406,#1407);
#1152=AXIS2_PLACEMENT_3D('',#1738,#1409,#1410);
#1153=AXIS2_PLACEMENT_3D('',#1739,#1411,#1412);
#1154=AXIS2_PLACEMENT_3D('',#1740,#1413,#1414);
#1155=AXIS2_PLACEMENT_3D('',#1741,#1415,#1416);
#1156=AXIS2_PLACEMENT_3D('',#1746,#1419,#1420);
#1157=AXIS2_PLACEMENT_3D('',#1747,#1421,#1422);
#1158=AXIS2_PLACEMENT_3D('',#1750,#1425,#1426);
#1159=AXIS2_PLACEMENT_3D('',#1752,#1428,#1429);
#1160=AXIS2_PLACEMENT_3D('',#1753,#1430,#1431);
#1161=AXIS2_PLACEMENT_3D('',#1758,#1434,#1435);
#1162=AXIS2_PLACEMENT_3D('',#1759,#1436,#1437);
#1163=AXIS2_PLACEMENT_3D('',#1762,#1439,#1440);
#1164=AXIS2_PLACEMENT_3D('',#1764,#1442,#1443);
#1165=AXIS2_PLACEMENT_3D('',#1766,#1445,#1446);
#1166=AXIS2_PLACEMENT_3D('',#1768,#1448,#1449);
#1167=AXIS2_PLACEMENT_3D('',#1771,#1452,#1453);
#1168=AXIS2_PLACEMENT_3D('',#1773,#1455,#1456);
#1169=AXIS2_PLACEMENT_3D('',#1775,#1458,#1459);
#1170=AXIS2_PLACEMENT_3D('',#1777,#1461,#1462);
#1171=AXIS2_PLACEMENT_3D('',#1778,#1463,#1464);
#1172=AXIS2_PLACEMENT_3D('',#1779,#1465,#1466);
#1173=AXIS2_PLACEMENT_3D('',#1780,#1467,#1468);
#1174=AXIS2_PLACEMENT_3D('',#1782,#1470,#1471);
#1175=AXIS2_PLACEMENT_3D('',#1785,#1474,#1475);
#1176=AXIS2_PLACEMENT_3D('',#1786,#1476,#1477);
#1177=AXIS2_PLACEMENT_3D('',#1789,#1480,#1481);
#1178=AXIS2_PLACEMENT_3D('',#1790,#1482,#1483);
#1179=AXIS2_PLACEMENT_3D('',#1791,#1484,#1485);
#1180=DIRECTION('axis',(0.,0.,1.));
#1181=DIRECTION('refdir',(1.,0.,0.));
#1182=DIRECTION('center_axis',(0.,1.,0.));
#1183=DIRECTION('ref_axis',(1.,0.,0.));
#1184=DIRECTION('center_axis',(3.12738875515928E-17,1.,0.));
#1185=DIRECTION('ref_axis',(1.,0.,0.));
#1186=DIRECTION('',(0.,1.,0.));
#1187=DIRECTION('center_axis',(0.,-1.,0.));
#1188=DIRECTION('ref_axis',(1.,0.,0.));
#1189=DIRECTION('center_axis',(0.,1.,0.));
#1190=DIRECTION('ref_axis',(1.,0.,0.));
#1191=DIRECTION('center_axis',(3.12738875515928E-17,1.,0.));
#1192=DIRECTION('ref_axis',(1.,0.,0.));
#1193=DIRECTION('',(0.,1.,0.));
#1194=DIRECTION('center_axis',(0.,-1.,0.));
#1195=DIRECTION('ref_axis',(1.,0.,0.));
#1196=DIRECTION('center_axis',(0.,-1.,0.));
#1197=DIRECTION('ref_axis',(0.707106781186547,0.,0.707106781186548));
#1198=DIRECTION('center_axis',(0.,1.,0.));
#1199=DIRECTION('ref_axis',(0.707106781186547,0.,0.707106781186548));
#1200=DIRECTION('',(0.,-1.,0.));
#1201=DIRECTION('center_axis',(-3.12738875515928E-17,-1.,0.));
#1202=DIRECTION('ref_axis',(0.707106781186547,0.,0.707106781186548));
#1203=DIRECTION('',(0.,1.,0.));
#1204=DIRECTION('center_axis',(-1.,0.,0.));
#1205=DIRECTION('ref_axis',(0.,0.,1.));
#1206=DIRECTION('center_axis',(-1.,0.,0.));
#1207=DIRECTION('ref_axis',(0.,-0.707106781186546,-0.707106781186549));
#1208=DIRECTION('',(0.,1.,0.));
#1209=DIRECTION('',(0.,0.,1.));
#1210=DIRECTION('',(0.,1.,0.));
#1211=DIRECTION('',(0.,0.,-1.));
#1212=DIRECTION('center_axis',(0.,-1.,0.));
#1213=DIRECTION('ref_axis',(-0.707106781186548,0.,0.707106781186547));
#1214=DIRECTION('center_axis',(0.,1.,0.));
#1215=DIRECTION('ref_axis',(-0.707106781186548,0.,0.707106781186547));
#1216=DIRECTION('',(0.,-1.,0.));
#1217=DIRECTION('center_axis',(-3.12738875515928E-17,-1.,0.));
#1218=DIRECTION('ref_axis',(-0.707106781186548,0.,0.707106781186547));
#1219=DIRECTION('',(0.,1.,0.));
#1220=DIRECTION('center_axis',(0.,0.,1.));
#1221=DIRECTION('ref_axis',(-1.,0.,0.));
#1222=DIRECTION('',(1.,-3.12738875515928E-17,0.));
#1223=DIRECTION('',(-1.,0.,0.));
#1224=DIRECTION('center_axis',(0.,-1.,0.));
#1225=DIRECTION('ref_axis',(0.707106781186548,0.,-0.707106781186547));
#1226=DIRECTION('center_axis',(0.,1.,0.));
#1227=DIRECTION('ref_axis',(0.707106781186548,0.,-0.707106781186547));
#1228=DIRECTION('',(0.,-1.,0.));
#1229=DIRECTION('center_axis',(-3.12738875515928E-17,-1.,0.));
#1230=DIRECTION('ref_axis',(0.707106781186548,0.,-0.707106781186547));
#1231=DIRECTION('center_axis',(0.,0.,1.));
#1232=DIRECTION('ref_axis',(1.,0.,0.));
#1233=DIRECTION('',(1.,0.,0.));
#1234=DIRECTION('',(0.,-1.,0.));
#1235=DIRECTION('',(-1.,3.12738875515928E-17,0.));
#1236=DIRECTION('center_axis',(0.,-1.,0.));
#1237=DIRECTION('ref_axis',(0.707106781186548,0.,-0.707106781186547));
#1238=DIRECTION('center_axis',(0.,1.,0.));
#1239=DIRECTION('ref_axis',(0.707106781186548,0.,-0.707106781186547));
#1240=DIRECTION('',(0.,-1.,0.));
#1241=DIRECTION('center_axis',(-3.12738875515928E-17,-1.,0.));
#1242=DIRECTION('ref_axis',(0.707106781186548,0.,-0.707106781186547));
#1243=DIRECTION('',(0.,1.,0.));
#1244=DIRECTION('center_axis',(0.,0.,-1.));
#1245=DIRECTION('ref_axis',(1.,0.,0.));
#1246=DIRECTION('',(1.,0.,0.));
#1247=DIRECTION('',(0.,1.,0.));
#1248=DIRECTION('',(-1.,3.12738875515928E-17,0.));
#1249=DIRECTION('center_axis',(0.,0.,1.));
#1250=DIRECTION('ref_axis',(1.,0.,0.));
#1251=DIRECTION('center_axis',(0.,0.,1.));
#1252=DIRECTION('ref_axis',(1.,0.,0.));
#1253=DIRECTION('center_axis',(0.,1.,0.));
#1254=DIRECTION('ref_axis',(0.707106781186548,0.,0.707106781186548));
#1255=DIRECTION('center_axis',(0.,-1.,0.));
#1256=DIRECTION('ref_axis',(0.707106781186548,0.,0.707106781186548));
#1257=DIRECTION('',(0.,-1.,0.));
#1258=DIRECTION('center_axis',(3.12738875515928E-17,1.,0.));
#1259=DIRECTION('ref_axis',(0.707106781186548,0.,0.707106781186548));
#1260=DIRECTION('',(0.,-1.,0.));
#1261=DIRECTION('center_axis',(0.,1.,0.));
#1262=DIRECTION('ref_axis',(0.,0.,1.));
#1263=DIRECTION('center_axis',(0.,1.,0.));
#1264=DIRECTION('ref_axis',(-0.707106781186548,0.,-0.707106781186547));
#1265=DIRECTION('',(0.,0.,1.));
#1266=DIRECTION('',(1.,0.,0.));
#1267=DIRECTION('',(0.,0.,-1.));
#1268=DIRECTION('',(1.,0.,0.));
#1269=DIRECTION('',(0.,0.,-1.));
#1270=DIRECTION('',(1.,0.,0.));
#1271=DIRECTION('',(0.,0.,-1.));
#1272=DIRECTION('',(1.,0.,0.));
#1273=DIRECTION('center_axis',(0.,-1.,0.));
#1274=DIRECTION('ref_axis',(-0.707106781186548,0.,-0.707106781186547));
#1275=DIRECTION('center_axis',(-3.12738875515928E-17,-1.,0.));
#1276=DIRECTION('ref_axis',(-0.707106781186548,0.,-0.707106781186547));
#1277=DIRECTION('center_axis',(1.,0.,0.));
#1278=DIRECTION('ref_axis',(0.,0.,1.));
#1279=DIRECTION('',(0.,0.,-1.));
#1280=DIRECTION('center_axis',(0.,0.,1.));
#1281=DIRECTION('ref_axis',(0.707106769897214,-0.707106792475881,0.));
#1282=DIRECTION('center_axis',(0.,0.,-1.));
#1283=DIRECTION('ref_axis',(0.707106769897214,-0.707106792475881,0.));
#1284=DIRECTION('',(0.,0.,1.));
#1285=DIRECTION('center_axis',(0.,0.,1.));
#1286=DIRECTION('ref_axis',(0.707106769897214,-0.707106792475881,0.));
#1287=DIRECTION('',(0.,0.,-1.));
#1288=DIRECTION('center_axis',(3.19310598597054E-8,1.,0.));
#1289=DIRECTION('ref_axis',(-0.999999999999999,3.19310598597054E-8,0.));
#1290=DIRECTION('',(0.999999999999999,-3.19310598597054E-8,0.));
#1291=DIRECTION('',(0.,0.,-1.));
#1292=DIRECTION('',(-0.999999999999999,3.19310598597054E-8,0.));
#1293=DIRECTION('center_axis',(-3.19310598597054E-8,-1.,0.));
#1294=DIRECTION('ref_axis',(-1.,3.19310598597054E-8,0.));
#1295=DIRECTION('center_axis',(0.,0.,1.));
#1296=DIRECTION('ref_axis',(-0.707106781186549,-0.707106781186546,0.));
#1297=DIRECTION('center_axis',(0.,0.,-1.));
#1298=DIRECTION('ref_axis',(-0.707106781186549,-0.707106781186546,0.));
#1299=DIRECTION('',(0.,0.,1.));
#1300=DIRECTION('center_axis',(0.,0.,1.));
#1301=DIRECTION('ref_axis',(-0.707106781186549,-0.707106781186546,0.));
#1302=DIRECTION('',(0.,0.,-1.));
#1303=DIRECTION('center_axis',(1.,0.,0.));
#1304=DIRECTION('ref_axis',(0.,1.,0.));
#1305=DIRECTION('',(0.,-1.,0.));
#1306=DIRECTION('',(0.,0.,-1.));
#1307=DIRECTION('',(0.,1.,0.));
#1308=DIRECTION('center_axis',(0.,-1.,0.));
#1309=DIRECTION('ref_axis',(0.,0.,1.));
#1310=DIRECTION('center_axis',(0.,-1.,0.));
#1311=DIRECTION('ref_axis',(0.,0.,1.));
#1312=DIRECTION('',(0.,-1.,0.));
#1313=DIRECTION('center_axis',(0.,1.,0.));
#1314=DIRECTION('ref_axis',(0.,0.,1.));
#1315=DIRECTION('center_axis',(0.,-1.,0.));
#1316=DIRECTION('ref_axis',(0.,0.,1.));
#1317=DIRECTION('',(0.,-1.,0.));
#1318=DIRECTION('center_axis',(1.49011614158923E-8,1.,0.));
#1319=DIRECTION('ref_axis',(2.47996979663918E-8,-7.28015198746805E-16,1.));
#1320=DIRECTION('center_axis',(0.,0.,-1.));
#1321=DIRECTION('ref_axis',(-1.,0.,0.));
#1322=DIRECTION('',(0.,1.,0.));
#1323=DIRECTION('center_axis',(0.,0.,-1.));
#1324=DIRECTION('ref_axis',(0.707106781186546,0.707106781186549,0.));
#1325=DIRECTION('',(-1.,3.12738875515928E-17,0.));
#1326=DIRECTION('center_axis',(0.,0.,-1.));
#1327=DIRECTION('ref_axis',(-0.707106781186546,0.707106781186549,0.));
#1328=DIRECTION('',(1.,0.,0.));
#1329=DIRECTION('',(0.,1.,0.));
#1330=DIRECTION('',(-1.,0.,0.));
#1331=DIRECTION('',(0.,1.,0.));
#1332=DIRECTION('',(-1.,0.,0.));
#1333=DIRECTION('center_axis',(0.,0.,-1.));
#1334=DIRECTION('ref_axis',(0.707106781186551,-0.707106781186544,0.));
#1335=DIRECTION('',(0.,1.,0.));
#1336=DIRECTION('',(0.,-1.,0.));
#1337=DIRECTION('center_axis',(0.,0.,-1.));
#1338=DIRECTION('ref_axis',(-0.707106781186548,-0.707106781186548,0.));
#1339=DIRECTION('',(-1.,0.,0.));
#1340=DIRECTION('',(2.03197637916865E-9,-1.,0.));
#1341=DIRECTION('',(0.,-1.,0.));
#1342=DIRECTION('',(-1.,1.49011614158923E-8,0.));
#1343=DIRECTION('',(0.,1.,0.));
#1344=DIRECTION('center_axis',(0.,0.,1.));
#1345=DIRECTION('ref_axis',(1.,0.,0.));
#1346=DIRECTION('center_axis',(0.,0.,1.));
#1347=DIRECTION('ref_axis',(1.,0.,0.));
#1348=DIRECTION('center_axis',(0.,0.,1.));
#1349=DIRECTION('ref_axis',(1.,0.,0.));
#1350=DIRECTION('',(0.,-1.,0.));
#1351=DIRECTION('',(0.,-1.,0.));
#1352=DIRECTION('',(1.,-1.49011614158923E-8,0.));
#1353=DIRECTION('',(0.,1.,0.));
#1354=DIRECTION('',(-2.03197637916865E-9,1.,0.));
#1355=DIRECTION('',(-1.,0.,0.));
#1356=DIRECTION('',(0.,1.,0.));
#1357=DIRECTION('',(1.,-3.12738875515928E-17,0.));
#1358=DIRECTION('center_axis',(0.,0.,1.));
#1359=DIRECTION('ref_axis',(0.707106781186546,0.707106781186549,0.));
#1360=DIRECTION('center_axis',(0.,0.,1.));
#1361=DIRECTION('ref_axis',(1.,0.,0.));
#1362=DIRECTION('center_axis',(0.,0.,1.));
#1363=DIRECTION('ref_axis',(-0.707106781186546,0.707106781186549,0.));
#1364=DIRECTION('',(1.,-3.12738875515928E-17,0.));
#1365=DIRECTION('',(0.,-1.,0.));
#1366=DIRECTION('',(-1.,0.,0.));
#1367=DIRECTION('',(0.,-1.,0.));
#1368=DIRECTION('',(1.,0.,0.));
#1369=DIRECTION('',(0.,1.,0.));
#1370=DIRECTION('',(-1.,0.,0.));
#1371=DIRECTION('center_axis',(1.,0.,0.));
#1372=DIRECTION('ref_axis',(0.,1.,0.));
#1373=DIRECTION('',(0.,0.,1.));
#1374=DIRECTION('center_axis',(-1.,0.,0.));
#1375=DIRECTION('ref_axis',(0.,0.,1.));
#1376=DIRECTION('',(0.,0.,1.));
#1377=DIRECTION('center_axis',(0.,-1.,0.));
#1378=DIRECTION('ref_axis',(0.,0.,1.));
#1379=DIRECTION('center_axis',(-3.12738875515928E-17,-1.,0.));
#1380=DIRECTION('ref_axis',(0.,0.,1.));
#1381=DIRECTION('',(0.,1.,0.));
#1382=DIRECTION('center_axis',(0.,1.,0.));
#1383=DIRECTION('ref_axis',(0.,0.,1.));
#1384=DIRECTION('center_axis',(0.,-1.,0.));
#1385=DIRECTION('ref_axis',(-0.707106781186548,0.,0.707106781186547));
#1386=DIRECTION('center_axis',(3.12738875515928E-17,1.,0.));
#1387=DIRECTION('ref_axis',(-0.707106781186548,0.,0.707106781186547));
#1388=DIRECTION('',(0.,1.,0.));
#1389=DIRECTION('center_axis',(0.,-1.,0.));
#1390=DIRECTION('ref_axis',(-0.707106781186548,0.,0.707106781186547));
#1391=DIRECTION('center_axis',(0.,0.,1.));
#1392=DIRECTION('ref_axis',(-1.,0.,0.));
#1393=DIRECTION('',(-1.,0.,0.));
#1394=DIRECTION('',(0.,-1.,0.));
#1395=DIRECTION('',(1.,0.,0.));
#1396=DIRECTION('center_axis',(-3.12738875515928E-17,-1.,0.));
#1397=DIRECTION('ref_axis',(1.,-3.12738875515928E-17,0.));
#1398=DIRECTION('',(0.,0.,1.));
#1399=DIRECTION('',(0.,0.,-1.));
#1400=DIRECTION('center_axis',(-3.12738875515928E-17,-1.,0.));
#1401=DIRECTION('ref_axis',(-0.707106781186548,0.,-0.707106781186547));
#1402=DIRECTION('center_axis',(3.12738875515928E-17,1.,0.));
#1403=DIRECTION('ref_axis',(0.,0.,-1.));
#1404=DIRECTION('',(-1.,3.12738875515928E-17,0.));
#1405=DIRECTION('',(0.,0.,1.));
#1406=DIRECTION('center_axis',(0.,1.,0.));
#1407=DIRECTION('ref_axis',(0.,0.,-1.));
#1408=DIRECTION('',(0.,1.,0.));
#1409=DIRECTION('center_axis',(0.,-1.,0.));
#1410=DIRECTION('ref_axis',(0.,0.,-1.));
#1411=DIRECTION('center_axis',(0.,-1.,0.));
#1412=DIRECTION('ref_axis',(-0.707106781186548,0.,-0.707106781186547));
#1413=DIRECTION('center_axis',(0.,1.,0.));
#1414=DIRECTION('ref_axis',(-0.707106781186548,0.,-0.707106781186547));
#1415=DIRECTION('center_axis',(-1.,0.,0.));
#1416=DIRECTION('ref_axis',(0.,-0.707106781186546,-0.707106781186549));
#1417=DIRECTION('',(-1.,0.,0.));
#1418=DIRECTION('',(1.,0.,0.));
#1419=DIRECTION('center_axis',(0.707106781186546,0.,-0.707106781186549));
#1420=DIRECTION('ref_axis',(0.707106781186549,0.,0.707106781186546));
#1421=DIRECTION('center_axis',(0.,0.,-1.));
#1422=DIRECTION('ref_axis',(-0.707106781186548,-0.707106781186548,0.));
#1423=DIRECTION('',(0.,0.,-1.));
#1424=DIRECTION('',(0.,0.,1.));
#1425=DIRECTION('center_axis',(0.,0.,1.));
#1426=DIRECTION('ref_axis',(1.,0.,0.));
#1427=DIRECTION('',(0.,1.,0.));
#1428=DIRECTION('center_axis',(1.,0.,0.));
#1429=DIRECTION('ref_axis',(0.,0.,-1.));
#1430=DIRECTION('center_axis',(0.,0.,-1.));
#1431=DIRECTION('ref_axis',(0.707106781186551,-0.707106781186544,0.));
#1432=DIRECTION('',(0.,0.,-1.));
#1433=DIRECTION('',(0.,0.,1.));
#1434=DIRECTION('center_axis',(0.707106781186546,0.,0.707106781186549));
#1435=DIRECTION('ref_axis',(-0.707106781186549,0.,0.707106781186546));
#1436=DIRECTION('center_axis',(1.,0.,0.));
#1437=DIRECTION('ref_axis',(0.,-0.707106781186549,-0.707106781186546));
#1438=DIRECTION('',(1.,0.,0.));
#1439=DIRECTION('center_axis',(1.,0.,0.));
#1440=DIRECTION('ref_axis',(0.,-0.707106781186549,-0.707106781186546));
#1441=DIRECTION('',(-1.,0.,0.));
#1442=DIRECTION('center_axis',(-1.,0.,0.));
#1443=DIRECTION('ref_axis',(0.,0.,1.));
#1444=DIRECTION('',(0.,1.,0.));
#1445=DIRECTION('center_axis',(0.,0.,1.));
#1446=DIRECTION('ref_axis',(1.,0.,0.));
#1447=DIRECTION('',(0.,1.,0.));
#1448=DIRECTION('center_axis',(0.,1.,0.));
#1449=DIRECTION('ref_axis',(-1.,0.,0.));
#1450=DIRECTION('',(0.,0.,1.));
#1451=DIRECTION('',(0.,0.,1.));
#1452=DIRECTION('center_axis',(0.,0.,-1.));
#1453=DIRECTION('ref_axis',(1.,0.,0.));
#1454=DIRECTION('',(0.,0.,-1.));
#1455=DIRECTION('center_axis',(0.,0.,-1.));
#1456=DIRECTION('ref_axis',(1.,0.,0.));
#1457=DIRECTION('',(0.,0.,-1.));
#1458=DIRECTION('center_axis',(0.,0.,1.));
#1459=DIRECTION('ref_axis',(1.,0.,0.));
#1460=DIRECTION('',(0.,-1.,0.));
#1461=DIRECTION('center_axis',(1.,0.,0.));
#1462=DIRECTION('ref_axis',(0.,0.,-1.));
#1463=DIRECTION('center_axis',(0.,0.,1.));
#1464=DIRECTION('ref_axis',(0.707106781186546,0.707106781186549,0.));
#1465=DIRECTION('center_axis',(0.,0.,1.));
#1466=DIRECTION('ref_axis',(-0.707106781186546,0.707106781186549,0.));
#1467=DIRECTION('center_axis',(0.,1.,0.));
#1468=DIRECTION('ref_axis',(-1.,0.,0.));
#1469=DIRECTION('',(0.,0.,1.));
#1470=DIRECTION('center_axis',(1.,0.,0.));
#1471=DIRECTION('ref_axis',(0.,1.,0.));
#1472=DIRECTION('',(0.,0.,-1.));
#1473=DIRECTION('',(0.,0.,1.));
#1474=DIRECTION('center_axis',(-1.49011614158923E-8,-1.,0.));
#1475=DIRECTION('ref_axis',(1.,-1.49011614158923E-8,0.));
#1476=DIRECTION('center_axis',(0.,-1.,0.));
#1477=DIRECTION('ref_axis',(1.,0.,0.));
#1478=DIRECTION('',(0.,0.,1.));
#1479=DIRECTION('',(0.,0.,1.));
#1480=DIRECTION('center_axis',(-1.,0.,0.));
#1481=DIRECTION('ref_axis',(0.,-1.,0.));
#1482=DIRECTION('center_axis',(1.,2.03197637916865E-9,0.));
#1483=DIRECTION('ref_axis',(-2.03197637916865E-9,1.,0.));
#1484=DIRECTION('center_axis',(1.,0.,0.));
#1485=DIRECTION('ref_axis',(0.,0.,-1.));
#1486=CARTESIAN_POINT('',(0.,0.,0.));
#1487=CARTESIAN_POINT('Origin',(-32.0000004768372,19.0000000596046,0.));
#1488=CARTESIAN_POINT('',(-34.2500004768372,19.0000000596046,-2.75545529808155E-16));
#1489=CARTESIAN_POINT('Origin',(-32.0000004768372,19.0000000596046,0.));
#1490=CARTESIAN_POINT('',(-34.2500004768372,22.0000000596046,-2.75545529808155E-16));
#1491=CARTESIAN_POINT('',(-34.2500004768372,19.0000000596046,2.75545529808155E-16));
#1492=CARTESIAN_POINT('Origin',(-32.0000004768372,22.0000000596046,0.));
#1493=CARTESIAN_POINT('Origin',(32.0000004768372,19.0000000596046,0.));
#1494=CARTESIAN_POINT('',(29.7500004768372,19.0000000596046,-2.75545529808155E-16));
#1495=CARTESIAN_POINT('Origin',(32.0000004768372,19.0000000596046,0.));
#1496=CARTESIAN_POINT('',(29.7500004768372,22.0000000596046,-2.75545529808155E-16));
#1497=CARTESIAN_POINT('',(29.7500004768372,19.0000000596046,2.75545529808155E-16));
#1498=CARTESIAN_POINT('Origin',(32.0000004768372,22.0000000596046,0.));
#1499=CARTESIAN_POINT('Origin',(14.0000002384186,22.0000000596046,3.5000000372529));
#1500=CARTESIAN_POINT('',(14.0000002384186,22.0000000596046,5.5000000372529));
#1501=CARTESIAN_POINT('',(16.0000002384186,22.0000000596046,3.5000000372529));
#1502=CARTESIAN_POINT('Origin',(14.0000002384186,22.0000000596046,3.5000000372529));
#1503=CARTESIAN_POINT('',(16.0000002384186,19.0000000596046,3.5000000372529));
#1504=CARTESIAN_POINT('',(16.0000002384186,22.0000000596046,3.5000000372529));
#1505=CARTESIAN_POINT('',(14.0000002384186,19.0000000596046,5.5000000372529));
#1506=CARTESIAN_POINT('Origin',(14.0000002384186,19.0000000596046,3.5000000372529));
#1507=CARTESIAN_POINT('',(14.0000002384186,22.0000000596046,5.5000000372529));
#1508=CARTESIAN_POINT('Origin',(16.0000002384186,22.0000000596046,-2.));
#1509=CARTESIAN_POINT('',(16.0000002384186,23.0000000596046,2.5000000372529));
#1510=CARTESIAN_POINT('Origin',(16.0000002384186,23.0000000596046,3.5000000372529));
#1511=CARTESIAN_POINT('',(16.0000002384186,42.0000000596046,2.5000000372529));
#1512=CARTESIAN_POINT('',(16.0000002384186,22.0000000596046,2.5000000372529));
#1513=CARTESIAN_POINT('',(16.0000002384186,42.0000000596046,-1.));
#1514=CARTESIAN_POINT('',(16.0000002384186,42.0000000596046,2.5000000372529));
#1515=CARTESIAN_POINT('',(16.0000002384186,19.0000000596046,-1.));
#1516=CARTESIAN_POINT('',(16.0000002384186,22.0000000596046,-1.));
#1517=CARTESIAN_POINT('',(16.0000002384186,19.0000000596046,-1.));
#1518=CARTESIAN_POINT('Origin',(-14.0000002384186,22.0000000596046,3.5000000372529));
#1519=CARTESIAN_POINT('',(-16.0000002384186,22.0000000596046,3.5000000372529));
#1520=CARTESIAN_POINT('',(-14.0000002384186,22.0000000596046,5.5000000372529));
#1521=CARTESIAN_POINT('Origin',(-14.0000002384186,22.0000000596046,3.5000000372529));
#1522=CARTESIAN_POINT('',(-14.0000002384186,19.0000000596046,5.5000000372529));
#1523=CARTESIAN_POINT('',(-14.0000002384186,22.0000000596046,5.5000000372529));
#1524=CARTESIAN_POINT('',(-16.0000002384186,19.0000000596046,3.5000000372529));
#1525=CARTESIAN_POINT('Origin',(-14.0000002384186,19.0000000596046,3.5000000372529));
#1526=CARTESIAN_POINT('',(-16.0000002384186,22.0000000596046,3.5000000372529));
#1527=CARTESIAN_POINT('Origin',(16.0000002384186,22.0000000596046,5.5000000372529));
#1528=CARTESIAN_POINT('',(-9.75000014528632,19.0000000596046,5.5000000372529));
#1529=CARTESIAN_POINT('',(27.2500003837049,22.0000000596046,5.5000000372529));
#1530=CARTESIAN_POINT('Origin',(15.0000002384186,22.0000000596046,-1.));
#1531=CARTESIAN_POINT('',(15.0000002384186,42.0000000596046,-2.));
#1532=CARTESIAN_POINT('Origin',(15.0000002384186,42.0000000596046,-1.));
#1533=CARTESIAN_POINT('',(15.0000002384186,19.0000000596046,-2.));
#1534=CARTESIAN_POINT('',(15.0000002384186,22.0000000596046,-2.));
#1535=CARTESIAN_POINT('Origin',(15.0000002384186,19.0000000596046,-1.));
#1536=CARTESIAN_POINT('Origin',(-16.0000002384186,22.0000000596046,-2.));
#1537=CARTESIAN_POINT('',(11.,42.0000000596046,-2.));
#1538=CARTESIAN_POINT('',(-16.0000002384186,42.0000000596046,-2.));
#1539=CARTESIAN_POINT('',(11.,19.0000000596046,-2.));
#1540=CARTESIAN_POINT('',(11.,32.0000000596046,-2.));
#1541=CARTESIAN_POINT('',(-25.7500003837049,19.0000000596046,-2.));
#1542=CARTESIAN_POINT('Origin',(10.,42.0000000596046,-3.));
#1543=CARTESIAN_POINT('',(11.,42.0000000596046,-3.));
#1544=CARTESIAN_POINT('',(10.,42.0000000596046,-4.));
#1545=CARTESIAN_POINT('Origin',(10.,42.0000000596046,-3.));
#1546=CARTESIAN_POINT('',(10.,19.0000000596046,-4.));
#1547=CARTESIAN_POINT('',(10.,42.0000000596046,-4.));
#1548=CARTESIAN_POINT('',(11.,19.0000000596046,-3.));
#1549=CARTESIAN_POINT('Origin',(10.,19.0000000596046,-3.));
#1550=CARTESIAN_POINT('',(11.,42.0000000596046,-3.));
#1551=CARTESIAN_POINT('Origin',(-11.,42.0000000596046,-4.));
#1552=CARTESIAN_POINT('',(-10.,42.0000000596046,-4.));
#1553=CARTESIAN_POINT('',(-5.5,42.0000000596046,-4.));
#1554=CARTESIAN_POINT('',(-10.,19.0000000596046,-4.));
#1555=CARTESIAN_POINT('',(-10.,42.0000000596046,-4.));
#1556=CARTESIAN_POINT('',(-23.2500002644956,19.0000000596046,-4.));
#1557=CARTESIAN_POINT('',(5.75,38.0000005662441,-4.));
#1558=CARTESIAN_POINT('Origin',(7.5,38.0000005662441,-4.));
#1559=CARTESIAN_POINT('',(-9.25,38.0000005662441,-4.));
#1560=CARTESIAN_POINT('Origin',(-7.5,38.0000005662441,-4.));
#1561=CARTESIAN_POINT('Origin',(-12.,32.0000000596046,-3.));
#1562=CARTESIAN_POINT('',(-11.,42.0000000596046,-3.));
#1563=CARTESIAN_POINT('',(-12.,42.0000000596046,-2.));
#1564=CARTESIAN_POINT('Origin',(-12.,42.0000000596046,-3.));
#1565=CARTESIAN_POINT('',(-12.,19.0000000596046,-2.));
#1566=CARTESIAN_POINT('',(-12.,32.0000000596046,-2.));
#1567=CARTESIAN_POINT('',(-11.,19.0000000596046,-3.));
#1568=CARTESIAN_POINT('Origin',(-12.,19.0000000596046,-3.));
#1569=CARTESIAN_POINT('',(-11.,42.0000000596046,-3.));
#1570=CARTESIAN_POINT('Origin',(0.,42.0000000596046,-1.50000002235174));
#1571=CARTESIAN_POINT('Origin',(-10.,42.0000000596046,-3.));
#1572=CARTESIAN_POINT('',(11.,42.0000000596046,-2.75000001117587));
#1573=CARTESIAN_POINT('',(20.0000002980232,42.0000000596046,2.5000000372529));
#1574=CARTESIAN_POINT('',(20.0000002980232,42.0000000596046,2.5000000372529));
#1575=CARTESIAN_POINT('',(20.0000002980232,42.0000000596046,-7.50000008195639));
#1576=CARTESIAN_POINT('',(20.0000002980232,42.0000000596046,-2.));
#1577=CARTESIAN_POINT('',(-20.0000002980232,42.0000000596046,-7.50000008195639));
#1578=CARTESIAN_POINT('',(-20.0000002980232,42.0000000596046,-7.50000008195639));
#1579=CARTESIAN_POINT('',(-20.0000002980232,42.0000000596046,2.5000000372529));
#1580=CARTESIAN_POINT('',(-20.0000002980232,42.0000000596046,-5.50000008195639));
#1581=CARTESIAN_POINT('',(-16.0000002384186,42.0000000596046,2.5000000372529));
#1582=CARTESIAN_POINT('',(-20.0000002980232,42.0000000596046,2.5000000372529));
#1583=CARTESIAN_POINT('',(-16.0000002384186,42.0000000596046,-2.));
#1584=CARTESIAN_POINT('',(-16.0000002384186,42.0000000596046,2.5000000372529));
#1585=CARTESIAN_POINT('',(-16.0000002384186,42.0000000596046,-2.));
#1586=CARTESIAN_POINT('Origin',(-10.,42.0000000596046,-3.));
#1587=CARTESIAN_POINT('Origin',(-10.,19.0000000596046,-3.));
#1588=CARTESIAN_POINT('Origin',(11.,42.0000000596046,-4.));
#1589=CARTESIAN_POINT('',(11.,19.0000000596046,-2.));
#1590=CARTESIAN_POINT('Origin',(34.5000005289912,0.999999808413638,0.));
#1591=CARTESIAN_POINT('',(35.5000005289912,0.999999808413639,-7.5));
#1592=CARTESIAN_POINT('',(34.5000004970602,-1.91586361469309E-7,-7.5));
#1593=CARTESIAN_POINT('Origin',(34.5000005289912,0.999999808413638,-7.5));
#1594=CARTESIAN_POINT('',(34.5000004970602,-1.91586361469309E-7,7.5));
#1595=CARTESIAN_POINT('',(34.5000004970602,-1.91586361636409E-7,0.));
#1596=CARTESIAN_POINT('',(35.5000005289912,0.999999808413638,7.5));
#1597=CARTESIAN_POINT('Origin',(34.5000005289912,0.999999808413638,7.5));
#1598=CARTESIAN_POINT('',(35.5000005289912,0.999999808413638,0.));
#1599=CARTESIAN_POINT('Origin',(35.5000005289912,-2.23517422348607E-7,0.));
#1600=CARTESIAN_POINT('',(28.5000004246831,0.,-7.5));
#1601=CARTESIAN_POINT('',(2.12341575626629E-7,9.10035212781895E-7,-7.5));
#1602=CARTESIAN_POINT('',(28.5000004246831,0.,7.5));
#1603=CARTESIAN_POINT('',(28.5,1.35605811974446E-14,-3.75));
#1604=CARTESIAN_POINT('',(-3.49999978765842,1.02179392229086E-6,7.5));
#1605=CARTESIAN_POINT('',(32.,-6.3063829713883E-8,-1.525));
#1606=CARTESIAN_POINT('Origin',(32.,-1.11758695908737E-7,0.));
#1607=CARTESIAN_POINT('Origin',(-34.5000005289912,1.,0.));
#1608=CARTESIAN_POINT('',(-34.5000005289912,0.,-7.5));
#1609=CARTESIAN_POINT('',(-35.5000005289912,1.,-7.5));
#1610=CARTESIAN_POINT('Origin',(-34.5000005289912,1.,-7.5));
#1611=CARTESIAN_POINT('',(-35.5000005289912,1.,7.5));
#1612=CARTESIAN_POINT('',(-35.5000005289912,1.,0.));
#1613=CARTESIAN_POINT('',(-34.5000005289912,0.,7.5));
#1614=CARTESIAN_POINT('Origin',(-34.5000005289912,1.,7.5));
#1615=CARTESIAN_POINT('',(-34.5000005289912,0.,0.));
#1616=CARTESIAN_POINT('Origin',(-35.5000005289912,0.,0.));
#1617=CARTESIAN_POINT('',(-35.5000005289912,18.0000000596046,-7.5));
#1618=CARTESIAN_POINT('',(-35.5000005289912,2.00000002980232,-7.5));
#1619=CARTESIAN_POINT('',(-35.5000005289912,18.0000000596046,7.5));
#1620=CARTESIAN_POINT('',(-35.5000005289912,18.0000000596046,0.));
#1621=CARTESIAN_POINT('',(-35.5000005289912,0.,7.5));
#1622=CARTESIAN_POINT('Origin',(-32.,-2.5,0.));
#1623=CARTESIAN_POINT('',(-32.,0.,-1.525));
#1624=CARTESIAN_POINT('Origin',(-32.,0.,0.));
#1625=CARTESIAN_POINT('',(-32.,-5.,-1.525));
#1626=CARTESIAN_POINT('',(-32.,-2.5,-1.525));
#1627=CARTESIAN_POINT('Origin',(-32.,-5.,0.));
#1628=CARTESIAN_POINT('Origin',(32.,-2.5,0.));
#1629=CARTESIAN_POINT('',(32.,-5.00000014938413,-1.525));
#1630=CARTESIAN_POINT('',(32.,-2.5,-1.525));
#1631=CARTESIAN_POINT('Origin',(31.9999999621805,-5.00000012665986,-2.77555756156289E-16));
#1632=CARTESIAN_POINT('Origin',(-28.5,0.,-7.5));
#1633=CARTESIAN_POINT('',(35.5000005289912,18.0000000596046,-7.5));
#1634=CARTESIAN_POINT('',(35.5000005289912,19.0000000596046,-7.5));
#1635=CARTESIAN_POINT('',(34.5000005289912,19.0000000596046,-7.5));
#1636=CARTESIAN_POINT('Origin',(34.5000005289912,18.0000000596046,-7.5));
#1637=CARTESIAN_POINT('',(-34.5000005289912,19.0000000596046,-7.5));
#1638=CARTESIAN_POINT('',(-35.5000005289912,19.0000000596046,-7.5));
#1639=CARTESIAN_POINT('Origin',(-34.5000005289912,18.0000000596046,-7.5));
#1640=CARTESIAN_POINT('',(-28.5000004246831,0.,-7.5));
#1641=CARTESIAN_POINT('',(-32.0000002644956,0.,-7.5));
#1642=CARTESIAN_POINT('',(-28.5000004246831,-5.,-7.5));
#1643=CARTESIAN_POINT('',(-28.5,0.,-7.5));
#1644=CARTESIAN_POINT('',(-38.5000005289912,-5.,-7.5));
#1645=CARTESIAN_POINT('',(-38.5000005289912,-5.,-7.5));
#1646=CARTESIAN_POINT('',(-38.5000005289912,22.0000000596046,-7.5));
#1647=CARTESIAN_POINT('',(-38.5000005289912,19.0000000596046,-7.5));
#1648=CARTESIAN_POINT('',(-21.0000002980232,22.0000000596046,-7.50000008195639));
#1649=CARTESIAN_POINT('',(29.2500004135072,22.0000000596046,-7.50000008195639));
#1650=CARTESIAN_POINT('',(-20.0000002980232,23.0000000596046,-7.50000008195639));
#1651=CARTESIAN_POINT('Origin',(-21.0000002980232,23.0000000596046,-7.5));
#1652=CARTESIAN_POINT('',(-20.0000002980232,22.0000000596046,-7.50000008195639));
#1653=CARTESIAN_POINT('',(20.0000002980232,23.0000000596046,-7.50000008195639));
#1654=CARTESIAN_POINT('',(20.0000002980232,22.0000000596046,-7.50000008195639));
#1655=CARTESIAN_POINT('',(21.0000002980232,22.0000000596046,-7.50000008195639));
#1656=CARTESIAN_POINT('Origin',(21.0000002980232,23.0000000596046,-7.5));
#1657=CARTESIAN_POINT('',(38.5000005289912,22.0000000596046,-7.5));
#1658=CARTESIAN_POINT('',(29.2500004135072,22.0000000596046,-7.50000008195639));
#1659=CARTESIAN_POINT('',(38.5000005736947,-2.23517422348607E-7,-7.5));
#1660=CARTESIAN_POINT('',(38.5000005736947,-2.23517422348607E-7,-7.5));
#1661=CARTESIAN_POINT('',(38.5000005736947,-5.00000022351742,-7.5));
#1662=CARTESIAN_POINT('',(38.5000005736947,-2.23517422348607E-7,-7.5));
#1663=CARTESIAN_POINT('',(28.5000004246831,-5.00000007450581,-7.5));
#1664=CARTESIAN_POINT('',(38.5000005736947,-5.00000022351742,-7.5));
#1665=CARTESIAN_POINT('',(28.5,0.,-7.5));
#1666=CARTESIAN_POINT('',(-9.25,38.0000005662441,-7.50000008195639));
#1667=CARTESIAN_POINT('Origin',(-7.5,38.0000005662441,-7.50000008195639));
#1668=CARTESIAN_POINT('',(5.75,38.0000005662441,-7.50000008195639));
#1669=CARTESIAN_POINT('Origin',(7.5,38.0000005662441,-7.50000008195639));
#1670=CARTESIAN_POINT('Origin',(-35.5,0.,7.5));
#1671=CARTESIAN_POINT('',(35.5000005289912,18.0000000596046,7.5));
#1672=CARTESIAN_POINT('',(35.5000005289912,-1.11758711174303E-7,7.5));
#1673=CARTESIAN_POINT('',(28.5000004246831,-5.00000007450581,7.5));
#1674=CARTESIAN_POINT('',(28.5000004246831,-5.00000007450581,7.5));
#1675=CARTESIAN_POINT('',(38.5000005736947,-5.00000022351742,7.5));
#1676=CARTESIAN_POINT('',(38.5000005736947,-5.00000022351742,7.5));
#1677=CARTESIAN_POINT('',(38.5000005736947,-2.23517422348607E-7,7.5));
#1678=CARTESIAN_POINT('',(38.5000005736947,-2.23517422348607E-7,7.5));
#1679=CARTESIAN_POINT('',(38.5000005289912,22.0000000596046,7.5));
#1680=CARTESIAN_POINT('',(38.5000005736947,-2.23517422348607E-7,7.5));
#1681=CARTESIAN_POINT('',(20.0000002682209,22.0000000596046,7.5));
#1682=CARTESIAN_POINT('',(35.5000005289912,22.0000000596046,7.5));
#1683=CARTESIAN_POINT('',(20.0000002682209,19.0000000596046,7.5));
#1684=CARTESIAN_POINT('',(20.0000002682209,11.0000000298023,7.5));
#1685=CARTESIAN_POINT('',(34.5000005289912,19.0000000596046,7.5));
#1686=CARTESIAN_POINT('',(-35.5000005289912,19.0000000596046,7.5));
#1687=CARTESIAN_POINT('Origin',(34.5000005289912,18.0000000596046,7.5));
#1688=CARTESIAN_POINT('Origin',(-35.5,0.,7.5));
#1689=CARTESIAN_POINT('',(-34.5000005289912,19.0000000596046,7.5));
#1690=CARTESIAN_POINT('Origin',(-34.5000005289912,18.0000000596046,7.5));
#1691=CARTESIAN_POINT('',(-19.9686272554688,19.0000000596046,7.5));
#1692=CARTESIAN_POINT('',(-35.5000005289912,19.0000000596046,7.5));
#1693=CARTESIAN_POINT('',(-19.9686272554688,22.0000000596046,7.5));
#1694=CARTESIAN_POINT('',(-19.9686272554688,22.0000000596046,7.5));
#1695=CARTESIAN_POINT('',(-38.5000005289912,22.0000000596046,7.5));
#1696=CARTESIAN_POINT('',(35.5000005289912,22.0000000596046,7.5));
#1697=CARTESIAN_POINT('',(-38.5000005289912,-5.,7.5));
#1698=CARTESIAN_POINT('',(-38.5000005289912,19.0000000596046,7.5));
#1699=CARTESIAN_POINT('',(-28.5000004246831,-5.,7.5));
#1700=CARTESIAN_POINT('',(-38.5000005289912,-5.,7.5));
#1701=CARTESIAN_POINT('',(-28.5000004246831,0.,7.5));
#1702=CARTESIAN_POINT('',(-28.5,0.,7.5));
#1703=CARTESIAN_POINT('',(-35.5000002644956,0.,7.5));
#1704=CARTESIAN_POINT('Origin',(35.5000005289912,-2.23517422348607E-7,0.));
#1705=CARTESIAN_POINT('',(35.5000005289912,18.0000000596046,0.));
#1706=CARTESIAN_POINT('Origin',(28.5,0.,-7.5));
#1707=CARTESIAN_POINT('',(28.5000004246831,-5.00000007450581,0.));
#1708=CARTESIAN_POINT('Origin',(-19.9686272554688,22.0000000596046,9.5));
#1709=CARTESIAN_POINT('',(-17.9843137618449,19.0000000596046,9.25000008195639));
#1710=CARTESIAN_POINT('Origin',(-19.9686272554688,19.0000000596046,9.5));
#1711=CARTESIAN_POINT('',(-17.9843137618449,22.0000000596046,9.25000008195639));
#1712=CARTESIAN_POINT('',(-17.9843137618449,22.0000000596046,9.25000008195639));
#1713=CARTESIAN_POINT('Origin',(-19.9686272554688,22.0000000596046,9.5));
#1714=CARTESIAN_POINT('Origin',(-16.0000002682209,22.0000000596046,9.00000016391277));
#1715=CARTESIAN_POINT('',(-16.0000002682209,19.0000000596046,11.0000001639128));
#1716=CARTESIAN_POINT('Origin',(-16.0000002682209,19.0000000596046,9.00000016391277));
#1717=CARTESIAN_POINT('',(-16.0000002682209,22.0000000596046,11.0000001639128));
#1718=CARTESIAN_POINT('',(-16.0000002682209,22.0000000596046,11.0000001639128));
#1719=CARTESIAN_POINT('Origin',(-16.0000002682209,22.0000000596046,9.00000016391277));
#1720=CARTESIAN_POINT('Origin',(18.0000002682209,22.0000000596046,11.0000001639128));
#1721=CARTESIAN_POINT('',(16.031373280973,19.0000000596046,11.0000001639128));
#1722=CARTESIAN_POINT('',(-18.0000002682209,19.0000000596046,11.0000001639128));
#1723=CARTESIAN_POINT('',(16.031373280973,22.0000000596046,11.0000001639128));
#1724=CARTESIAN_POINT('',(16.031373280973,11.0000000298023,11.0000001639128));
#1725=CARTESIAN_POINT('',(-18.0000002682209,22.0000000596046,11.0000001639128));
#1726=CARTESIAN_POINT('Origin',(-35.5000005289912,19.0000000596046,0.));
#1727=CARTESIAN_POINT('',(-34.5000005289912,19.0000000596046,0.));
#1728=CARTESIAN_POINT('',(34.5000005289912,19.0000000596046,0.));
#1729=CARTESIAN_POINT('',(18.0156867745969,19.0000000596046,9.25000008195639));
#1730=CARTESIAN_POINT('Origin',(20.0000002682209,19.0000000596046,9.5));
#1731=CARTESIAN_POINT('Origin',(16.031373280973,19.0000000596046,9.00000016391277));
#1732=CARTESIAN_POINT('',(-16.0000002384186,19.0000000596046,-2.));
#1733=CARTESIAN_POINT('',(-25.7500003837049,19.0000000596046,-2.));
#1734=CARTESIAN_POINT('',(-16.0000002384186,19.0000000596046,2.75000001862645));
#1735=CARTESIAN_POINT('Origin',(16.031373280973,11.0000000298023,9.00000016391277));
#1736=CARTESIAN_POINT('',(18.0156867745969,22.0000000596046,9.25000008195639));
#1737=CARTESIAN_POINT('',(18.0156867745969,11.0000000298023,9.25000008195639));
#1738=CARTESIAN_POINT('Origin',(16.031373280973,22.0000000596046,9.00000016391277));
#1739=CARTESIAN_POINT('Origin',(20.0000002682209,11.0000000298023,9.5));
#1740=CARTESIAN_POINT('Origin',(20.0000002682209,22.0000000596046,9.5));
#1741=CARTESIAN_POINT('Origin',(27.2500003837049,23.0000000596046,3.5000000372529));
#1742=CARTESIAN_POINT('',(20.0000002980232,23.0000000596046,2.5000000372529));
#1743=CARTESIAN_POINT('',(27.2500003837049,23.0000000596046,2.5000000372529));
#1744=CARTESIAN_POINT('',(21.0000002980232,22.0000000596046,3.5000000372529));
#1745=CARTESIAN_POINT('',(27.2500003837049,22.0000000596046,3.5000000372529));
#1746=CARTESIAN_POINT('Origin',(21.0000002980232,23.0000000596046,3.5000000372529));
#1747=CARTESIAN_POINT('Origin',(21.0000002980232,23.0000000596046,1.25000001862645));
#1748=CARTESIAN_POINT('',(21.0000002980232,22.0000000596046,1.25000001862645));
#1749=CARTESIAN_POINT('',(20.0000002980232,23.0000000596046,1.25000001862645));
#1750=CARTESIAN_POINT('Origin',(16.0000002384186,22.0000000596046,2.5000000372529));
#1751=CARTESIAN_POINT('',(20.0000002980232,22.0000000596046,2.5000000372529));
#1752=CARTESIAN_POINT('Origin',(20.0000002980232,22.0000000596046,2.5000000372529));
#1753=CARTESIAN_POINT('Origin',(-21.0000002980232,23.0000000596046,-2.75000004097819));
#1754=CARTESIAN_POINT('',(-20.0000002980232,23.0000000596046,2.5000000372529));
#1755=CARTESIAN_POINT('',(-20.0000002980232,23.0000000596046,-2.75000004097819));
#1756=CARTESIAN_POINT('',(-21.0000002980232,22.0000000596046,3.5000000372529));
#1757=CARTESIAN_POINT('',(-21.0000002980232,22.0000000596046,-2.75000004097819));
#1758=CARTESIAN_POINT('Origin',(-21.0000002980232,23.0000000596046,3.5000000372529));
#1759=CARTESIAN_POINT('Origin',(9.250000115484,23.0000000596046,3.5000000372529));
#1760=CARTESIAN_POINT('',(9.250000115484,22.0000000596046,3.5000000372529));
#1761=CARTESIAN_POINT('',(-16.0000002384186,23.0000000596046,2.5000000372529));
#1762=CARTESIAN_POINT('Origin',(-16.0000002384186,23.0000000596046,3.5000000372529));
#1763=CARTESIAN_POINT('',(9.250000115484,23.0000000596046,2.5000000372529));
#1764=CARTESIAN_POINT('Origin',(-20.0000002980232,22.0000000596046,-5.50000008195639));
#1765=CARTESIAN_POINT('',(-20.0000002980232,22.0000000596046,2.5000000372529));
#1766=CARTESIAN_POINT('Origin',(-20.0000002980232,22.0000000596046,2.5000000372529));
#1767=CARTESIAN_POINT('',(-16.0000002384186,22.0000000596046,2.5000000372529));
#1768=CARTESIAN_POINT('Origin',(38.5000005289912,22.0000000596046,0.));
#1769=CARTESIAN_POINT('',(38.5000005289912,22.0000000596046,0.));
#1770=CARTESIAN_POINT('',(-38.5000005289912,22.0000000596046,0.));
#1771=CARTESIAN_POINT('Origin',(-7.5,38.0000005662441,-2.));
#1772=CARTESIAN_POINT('',(-9.25,38.0000005662441,-2.));
#1773=CARTESIAN_POINT('Origin',(7.5,38.0000005662441,-2.));
#1774=CARTESIAN_POINT('',(5.75,38.0000005662441,-2.));
#1775=CARTESIAN_POINT('Origin',(-16.0000002384186,22.0000000596046,-2.));
#1776=CARTESIAN_POINT('',(-16.0000002384186,22.0000000596046,-2.));
#1777=CARTESIAN_POINT('Origin',(-16.0000002384186,22.0000000596046,2.5000000372529));
#1778=CARTESIAN_POINT('Origin',(34.5000005289912,18.0000000596046,0.));
#1779=CARTESIAN_POINT('Origin',(-34.5000005289912,18.0000000596046,0.));
#1780=CARTESIAN_POINT('Origin',(-28.5000004246831,0.,0.));
#1781=CARTESIAN_POINT('',(-28.5,0.,3.75));
#1782=CARTESIAN_POINT('Origin',(38.5000005736947,-5.00000022351742,0.));
#1783=CARTESIAN_POINT('',(38.5000005736947,-2.23517422348607E-7,0.));
#1784=CARTESIAN_POINT('',(38.5000005736947,-5.00000022351742,0.));
#1785=CARTESIAN_POINT('Origin',(28.5000004246831,-5.00000007450581,0.));
#1786=CARTESIAN_POINT('Origin',(-38.5000005289912,-5.,0.));
#1787=CARTESIAN_POINT('',(-28.5000004246831,-5.,0.));
#1788=CARTESIAN_POINT('',(-38.5000005289912,-5.,0.));
#1789=CARTESIAN_POINT('Origin',(-38.5000005289912,22.0000000596046,0.));
#1790=CARTESIAN_POINT('Origin',(38.5000005736947,-2.23517422348607E-7,0.));
#1791=CARTESIAN_POINT('Origin',(-28.5,0.,7.5));
#1792=UNCERTAINTY_MEASURE_WITH_UNIT(LENGTH_MEASURE(0.01),#1796,
'DISTANCE_ACCURACY_VALUE',
'Maximum model space distance between geometric entities at asserted c
onnectivities');
#1793=UNCERTAINTY_MEASURE_WITH_UNIT(LENGTH_MEASURE(0.01),#1796,
'DISTANCE_ACCURACY_VALUE',
'Maximum model space distance between geometric entities at asserted c
onnectivities');
#1794=(
GEOMETRIC_REPRESENTATION_CONTEXT(3)
GLOBAL_UNCERTAINTY_ASSIGNED_CONTEXT((#1792))
GLOBAL_UNIT_ASSIGNED_CONTEXT((#1796,#1798,#1799))
REPRESENTATION_CONTEXT('','3D')
);
#1795=(
GEOMETRIC_REPRESENTATION_CONTEXT(3)
GLOBAL_UNCERTAINTY_ASSIGNED_CONTEXT((#1793))
GLOBAL_UNIT_ASSIGNED_CONTEXT((#1796,#1798,#1799))
REPRESENTATION_CONTEXT('','3D')
);
#1796=(
LENGTH_UNIT()
NAMED_UNIT(*)
SI_UNIT(.MILLI.,.METRE.)
);
#1797=(
LENGTH_UNIT()
NAMED_UNIT(*)
SI_UNIT($,.METRE.)
);
#1798=(
NAMED_UNIT(*)
PLANE_ANGLE_UNIT()
SI_UNIT($,.RADIAN.)
);
#1799=(
NAMED_UNIT(*)
SI_UNIT($,.STERADIAN.)
SOLID_ANGLE_UNIT()
);
#1800=SHAPE_DEFINITION_REPRESENTATION(#1801,#1802);
#1801=PRODUCT_DEFINITION_SHAPE('',$,#1804);
#1802=SHAPE_REPRESENTATION('',(#1080),#1794);
#1803=PRODUCT_DEFINITION_CONTEXT('part definition',#1808,'design');
#1804=PRODUCT_DEFINITION('2026-06-25-21-30-08-012','soporte sensor',#1805,
#1803);
#1805=PRODUCT_DEFINITION_FORMATION('',$,#1810);
#1806=PRODUCT_RELATED_PRODUCT_CATEGORY('soporte sensor',
'soporte sensor',(#1810));
#1807=APPLICATION_PROTOCOL_DEFINITION('international standard',
'automotive_design',2009,#1808);
#1808=APPLICATION_CONTEXT(
'Core Data for Automotive Mechanical Design Process');
#1809=PRODUCT_CONTEXT('part definition',#1808,'mechanical');
#1810=PRODUCT('2026-06-25-21-30-08-012','soporte sensor',$,(#1809));
#1811=PRESENTATION_STYLE_ASSIGNMENT((#1812));
#1812=SURFACE_STYLE_USAGE(.BOTH.,#1813);
#1813=SURFACE_SIDE_STYLE('',(#1814));
#1814=SURFACE_STYLE_FILL_AREA(#1815);
#1815=FILL_AREA_STYLE('Acero - Satinado',(#1816));
#1816=FILL_AREA_STYLE_COLOUR('Acero - Satinado',#1817);
#1817=COLOUR_RGB('Acero - Satinado',0.627450980392157,0.627450980392157,
0.627450980392157);
ENDSEC;
END-ISO-10303-21;
